<svg width="300" height="166" viewBox="0 0 300 166" fill="none" xmlns="http://www.w3.org/2000/svg">
<g clip-path="url(#clip0_3662_59067)">
<mask id="mask0_3662_59067" style="mask-type:luminance" maskUnits="userSpaceOnUse" x="0" y="16" width="214" height="120">
<path d="M213.611 16.5195H0V135.753H213.611V16.5195Z" fill="white"/>
</mask>
<g mask="url(#mask0_3662_59067)">
<path d="M30.672 120.535H46.7735C48.4942 120.535 53.4862 120.364 54.0096 116.36C54.4545 112.912 50.3981 112.199 48.6774 112.199H13.334L0.530029 135.223H22.4283L29.9916 120.966C30.0635 120.842 30.1617 120.737 30.2794 120.665C30.3972 120.593 30.5346 120.548 30.6785 120.535H30.672Z" fill="#D4F8FF"/>
<path d="M78.4725 76.2996C79.0221 76.2996 79.5586 76.1295 80.01 75.8089C80.4615 75.4884 80.7951 75.0369 80.9783 74.5135L86.2582 59.0859H50.2933C48.0296 59.0859 45.805 59.6944 43.8553 60.8394C41.9056 61.9843 40.2961 63.6331 39.197 65.6155L33.3086 76.2996H78.4725Z" fill="#D4F8FF"/>
<path d="M178.169 59.0928H91.97L87.0631 74.8017C86.3826 76.7841 85.1003 78.4983 83.3992 79.7152C81.6981 80.9321 79.6502 81.5864 77.5631 81.5864H30.3318L17.9792 103.825H51.5888C58.4586 103.825 66.9052 109.255 64.0591 117.394C61.429 124.886 54.0161 128.726 47.1529 128.726H35.5201L31.7777 135.216H105.644V111.434C105.644 108.49 106.822 105.67 108.902 103.589C110.983 101.509 113.803 100.338 116.747 100.338H142.649C144.822 100.338 145.064 98.787 144.946 98.0804L144.05 93.1734C143.068 87.815 142.152 82.7575 141.72 80.5592C140.739 75.5344 142.401 72.2239 143.951 70.3396C145.221 68.8937 146.797 67.7487 148.557 66.9767C150.317 66.2046 152.228 65.8252 154.151 65.8644C160.229 65.8644 165.823 69.9994 168.074 76.156C168.938 78.5048 169.605 80.605 170.037 82.1425L195.71 90.7265L178.163 59.0993L178.169 59.0928Z" fill="#D4F8FF"/>
<path d="M201.991 101.967L165.11 89.2803C164.351 89.0252 163.664 88.5803 163.121 87.9914C162.578 87.4026 162.192 86.6829 161.996 85.9043C162.245 86.8857 161.374 83.5882 160.197 79.3879C159.392 76.5222 155.885 75.1548 154.151 75.3445C153.091 75.4361 152.103 75.9072 151.371 76.6792C150.638 77.4447 150.206 78.4588 150.167 79.5187C150.612 81.7759 151.377 86.0352 152.359 91.4263L153.51 96.7062C153.981 99.042 153.634 101.469 152.529 103.576C151.672 105.172 150.396 106.507 148.839 107.436C147.282 108.365 145.502 108.856 143.69 108.856H115.687C115.478 108.856 115.275 108.895 115.079 108.974C114.889 109.052 114.712 109.17 114.562 109.32C114.411 109.471 114.3 109.641 114.222 109.837C114.143 110.027 114.104 110.236 114.104 110.446V135.295H202.469C204.307 135.295 206.12 134.811 207.716 133.895C209.312 132.979 210.647 131.664 211.576 130.08C212.512 128.49 213.009 126.691 213.035 124.846C213.055 123.008 212.603 121.189 211.707 119.579L201.985 101.953L201.991 101.967Z" fill="#D4F8FF"/>
<path d="M24.1816 93.291H84.7208C85.3489 93.291 85.9639 93.4219 86.5331 93.6901C87.1023 93.9518 87.5995 94.3444 87.9986 94.822C88.3977 95.3061 88.6856 95.8688 88.8426 96.4707C88.9996 97.0792 89.0127 97.7073 88.895 98.3223L85.1853 117.401" stroke="#2FBDD7" stroke-width="1.03" stroke-linecap="round" stroke-linejoin="round"/>
<path d="M64.0264 117.401H105.683" stroke="#2FBDD7" stroke-width="1.03" stroke-linecap="round" stroke-linejoin="round"/>
<path d="M115.164 59.0928V74.5858C115.164 75.7046 115.609 76.7775 116.4 77.5692C117.192 78.3609 118.265 78.8058 119.384 78.8058H141.269" stroke="#2FBDD7" stroke-width="1.03" stroke-linecap="round" stroke-linejoin="round"/>
<path d="M133.15 135.001L132.541 125.181C132.502 124.605 132.587 124.029 132.783 123.486C132.979 122.943 133.287 122.446 133.68 122.027C134.072 121.608 134.55 121.275 135.086 121.046C135.616 120.817 136.185 120.699 136.768 120.699H180.531C181.238 120.699 181.932 120.522 182.553 120.182C183.175 119.842 183.698 119.351 184.084 118.762C184.47 118.167 184.693 117.487 184.745 116.78C184.797 116.073 184.673 115.367 184.378 114.726L174.512 92.7881" stroke="#2FBDD7" stroke-width="1.03" stroke-linecap="round" stroke-linejoin="round"/>
<path d="M138.488 108.784L139.96 120.685" stroke="#2FBDD7" stroke-width="1.03" stroke-linecap="round" stroke-linejoin="round"/>
<path d="M30.672 120.535H46.7735C48.4942 120.535 53.4862 120.364 54.0096 116.36C54.4545 112.912 50.3981 112.199 48.6774 112.199H13.334L0.530029 135.223H22.4283L29.9916 120.966C30.0635 120.842 30.1617 120.737 30.2794 120.665C30.3972 120.593 30.5346 120.548 30.6785 120.535H30.672Z" stroke="#2D84A1" stroke-width="1.03" stroke-linecap="round" stroke-linejoin="round"/>
<path d="M78.4725 76.2996C79.0221 76.2996 79.5586 76.1295 80.01 75.8089C80.4615 75.4884 80.7951 75.0369 80.9783 74.5135L86.2582 59.0859H50.2933C48.0296 59.0859 45.805 59.6944 43.8553 60.8394C41.9056 61.9843 40.2961 63.6331 39.197 65.6155L33.3086 76.2996H78.4725Z" stroke="#2D84A1" stroke-width="1.03" stroke-linecap="round" stroke-linejoin="round"/>
<path d="M178.169 59.0928H91.97L87.0631 74.8017C86.3826 76.7841 85.1003 78.4983 83.3992 79.7152C81.6981 80.9321 79.6502 81.5864 77.5631 81.5864H30.3318L17.9792 103.825H51.5888C58.4586 103.825 66.9052 109.255 64.0591 117.394C61.429 124.886 54.0161 128.726 47.1529 128.726H35.5201L31.7777 135.216H105.644V111.434C105.644 108.49 106.822 105.67 108.902 103.589C110.983 101.509 113.803 100.338 116.747 100.338H142.649C144.841 100.338 145.057 98.7674 144.946 98.0804L144.05 93.1734C143.068 87.815 142.152 82.7575 141.72 80.5592C140.739 75.5344 142.401 72.2239 143.951 70.3396C145.221 68.8937 146.797 67.7487 148.557 66.9767C150.317 66.2046 152.228 65.8252 154.151 65.8644C160.229 65.8644 165.823 69.9994 168.074 76.156C168.938 78.5048 169.605 80.605 170.037 82.1425L195.71 90.7265L178.163 59.0993L178.169 59.0928Z" stroke="#2D84A1" stroke-width="1.03" stroke-linecap="round" stroke-linejoin="round"/>
<path d="M201.991 101.967L165.11 89.2804C164.351 89.0253 163.664 88.5804 163.121 87.9915C162.578 87.4027 162.192 86.683 161.996 85.9044C161.996 85.9044 161.276 83.1565 160.197 79.3879C159.372 76.5223 155.885 75.1483 154.151 75.3446C153.098 75.4427 152.11 75.9203 151.377 76.6858C150.644 77.4513 150.213 78.4589 150.167 79.5188C150.612 81.776 151.377 86.0353 152.359 91.4264L153.51 96.7063C153.981 99.0421 153.634 101.469 152.529 103.576C151.672 105.173 150.396 106.507 148.839 107.436C147.282 108.365 145.502 108.856 143.69 108.856H115.687C115.478 108.856 115.275 108.895 115.079 108.974C114.889 109.052 114.712 109.17 114.562 109.321C114.411 109.471 114.3 109.641 114.222 109.837C114.143 110.027 114.104 110.237 114.104 110.446V135.295H202.469C204.307 135.295 206.12 134.811 207.716 133.895C209.312 132.979 210.647 131.664 211.576 130.08C212.512 128.491 213.009 126.691 213.035 124.846C213.055 123.008 212.603 121.189 211.707 119.579L201.985 101.954L201.991 101.967Z" stroke="#2D84A1" stroke-width="1.11" stroke-linecap="round" stroke-linejoin="round"/>
<path opacity="0.16" d="M40.7085 121.477C48.298 121.477 54.4546 119.115 54.4546 116.197C54.4546 113.279 48.298 110.917 40.7085 110.917C33.119 110.917 26.9624 113.285 26.9624 116.197C26.9624 119.108 33.119 121.477 40.7085 121.477Z" fill="#470050"/>
<path opacity="0.16" d="M92.2055 67.6306C98.1332 67.6306 102.935 65.7594 102.935 63.4564C102.935 61.1534 98.1332 59.2822 92.2055 59.2822C86.2779 59.2822 81.4756 61.1534 81.4756 63.4564C81.4756 65.7594 86.2779 67.6306 92.2055 67.6306Z" fill="#470050"/>
<path d="M92.2056 25.2937C88.4109 25.2937 84.7667 26.7985 82.0842 29.4809C79.4017 32.1634 77.8903 35.8011 77.8838 39.5959C77.8838 50.3258 92.2056 63.4504 92.2056 63.4504C92.2056 63.4504 106.514 50.3258 106.514 39.5959C106.514 35.8011 105.003 32.1634 102.321 29.4809C99.6381 26.7985 96.0004 25.2871 92.2056 25.2871V25.2937ZM92.2056 44.3786C91.2635 44.3786 90.3344 44.1038 89.5493 43.5803C88.7642 43.0569 88.1492 42.3111 87.7894 41.4409C87.423 40.5707 87.3314 39.609 87.5146 38.6799C87.6978 37.7508 88.1492 36.9003 88.8166 36.233C89.4839 35.5656 90.3344 35.1076 91.257 34.9244C92.186 34.7412 93.1412 34.8328 94.018 35.1927C94.8881 35.5525 95.634 36.1675 96.1639 36.9526C96.6874 37.7378 96.9687 38.6603 96.9687 39.6024C96.9687 40.8651 96.4649 42.0755 95.5751 42.9719C94.6853 43.8682 93.4684 44.372 92.2056 44.372V44.3786Z" fill="#004ADC"/>
<path opacity="0.3" d="M92.2056 31.2536C90.5568 31.2536 88.9408 31.7443 87.5668 32.6603C86.1929 33.5763 85.1264 34.8848 84.4918 36.4092C83.8572 37.9337 83.6936 39.6151 84.0142 41.2311C84.3348 42.8537 85.133 44.3389 86.2976 45.5035C87.4687 46.6681 88.9539 47.4663 90.5765 47.7869C92.199 48.1075 93.8739 47.9439 95.3984 47.3093C96.9228 46.6746 98.2313 45.6082 99.1473 44.2342C100.063 42.8603 100.554 41.2442 100.554 39.5955C100.554 38.4963 100.338 37.4102 99.9194 36.4027C99.5006 35.3886 98.8856 34.4661 98.107 33.694C97.3285 32.9154 96.4125 32.3004 95.3984 31.8817C94.3843 31.463 93.2982 31.2471 92.2056 31.2471V31.2536ZM92.2056 44.3782C91.2634 44.3782 90.3344 44.1034 89.5493 43.58C88.7641 43.0565 88.1491 42.3107 87.7893 41.4405C87.4229 40.5703 87.3313 39.6086 87.5145 38.6795C87.6977 37.7505 88.1491 36.8999 88.8165 36.2326C89.4838 35.5652 90.3344 35.1072 91.2569 34.924C92.1859 34.7408 93.1412 34.8324 94.0179 35.1923C94.8881 35.5521 95.6339 36.1671 96.1639 36.9523C96.6873 37.7374 96.9686 38.6599 96.9686 39.602C96.9686 40.8648 96.4648 42.0752 95.575 42.9715C94.6852 43.8678 93.4683 44.3716 92.2056 44.3716V44.3782Z" fill="#470050"/>
<path d="M92.2056 25.2937C88.4109 25.2937 84.7667 26.7985 82.0842 29.4809C79.4017 32.1634 77.8903 35.8011 77.8838 39.5959C77.8838 50.3258 92.2056 63.4504 92.2056 63.4504C92.2056 63.4504 106.514 50.3258 106.514 39.5959C106.514 35.8011 105.003 32.1634 102.321 29.4809C99.6381 26.7985 96.0004 25.2871 92.2056 25.2871V25.2937ZM92.2056 44.3786C91.2635 44.3786 90.3344 44.1038 89.5493 43.5803C88.7642 43.0569 88.1492 42.3111 87.7894 41.4409C87.423 40.5707 87.3314 39.609 87.5146 38.6799C87.6978 37.7509 88.1492 36.9003 88.8166 36.233C89.4839 35.5656 90.3344 35.1076 91.257 34.9244C92.186 34.7412 93.1412 34.8328 94.018 35.1927C94.8881 35.5525 95.634 36.1675 96.1639 36.9526C96.6874 37.7378 96.9687 38.6603 96.9687 39.6024C96.9687 40.8651 96.4649 42.0755 95.5751 42.9719C94.6853 43.8682 93.4684 44.372 92.2056 44.372V44.3786Z" stroke="#120325" stroke-width="1.16" stroke-linecap="round" stroke-linejoin="round"/>
<path d="M40.7083 65.4323C35.664 65.4323 30.8224 67.4409 27.2501 71.0132C23.6844 74.5855 21.6758 79.427 21.6758 84.4714C21.6758 98.7475 40.7018 116.197 40.7018 116.197C40.7018 116.197 59.7409 98.7475 59.7409 84.4714C59.7409 81.9721 59.2502 79.4925 58.2884 77.1829C57.3332 74.8734 55.9265 72.7732 54.16 71.0067C52.3935 69.2401 50.2933 67.8335 47.9838 66.8782C45.6742 65.923 43.2011 65.4258 40.6953 65.4258L40.7083 65.4323ZM40.7083 90.8113C39.4522 90.8113 38.2287 90.4383 37.1819 89.7448C36.1416 89.0447 35.3237 88.0568 34.8461 86.8988C34.3685 85.7407 34.2377 84.4649 34.4863 83.2349C34.7284 82.0048 35.3368 80.873 36.2201 79.9897C37.1099 79.0999 38.2352 78.498 39.4652 78.2559C40.6953 78.0138 41.9711 78.1381 43.1291 78.6158C44.2872 79.0934 45.2816 79.9112 45.9752 80.9515C46.6752 81.9918 47.0416 83.2218 47.0416 84.478C47.0416 86.1594 46.3743 87.7755 45.1835 88.9662C43.9927 90.157 42.3833 90.8243 40.6953 90.8243L40.7083 90.8113Z" fill="#FF004A"/>
<path opacity="0.28" d="M40.7083 73.3691C38.51 73.3691 36.364 74.0234 34.5386 75.2403C32.7132 76.4573 31.2869 78.1976 30.4495 80.2258C29.612 82.2541 29.3896 84.4851 29.8148 86.6442C30.2401 88.7967 31.3 90.7791 32.8572 92.3297C34.4078 93.8803 36.3902 94.9403 38.5427 95.3721C40.6953 95.7973 42.9263 95.5814 44.9611 94.7374C46.9893 93.9 48.7231 92.4737 49.9466 90.6483C51.17 88.8229 51.8178 86.6769 51.8178 84.4786C51.8178 83.0195 51.5299 81.5736 50.9738 80.2258C50.4176 78.8781 49.5998 77.6546 48.5661 76.6208C47.5323 75.5871 46.3088 74.7693 44.9611 74.2131C43.6133 73.657 42.1674 73.3691 40.7083 73.3691ZM40.7083 90.8118C39.4522 90.8118 38.2287 90.4389 37.1819 89.7454C36.1416 89.0453 35.3237 88.0574 34.8461 86.8993C34.3685 85.7413 34.2377 84.4655 34.4863 83.2355C34.7284 82.0054 35.3368 80.8736 36.2201 79.9903C37.1099 79.1005 38.2352 78.4986 39.4652 78.2565C40.6953 78.0144 41.9711 78.1387 43.1291 78.6163C44.2872 79.094 45.2816 79.9118 45.9752 80.9521C46.6752 81.9924 47.0416 83.2224 47.0416 84.4786C47.0416 86.16 46.3743 87.776 45.1835 88.9668C43.9927 90.1576 42.3833 90.8249 40.6953 90.8249L40.7083 90.8118Z" fill="#470050"/>
<path d="M40.7083 65.4323C35.664 65.4323 30.8224 67.4409 27.2501 71.0132C23.6844 74.5855 21.6758 79.427 21.6758 84.4714C21.6758 98.7475 40.7018 116.197 40.7018 116.197C40.7018 116.197 59.7409 98.7475 59.7409 84.4714C59.7409 81.9721 59.2502 79.4925 58.2884 77.1829C57.3332 74.8734 55.9265 72.7732 54.16 71.0067C52.3935 69.2401 50.2933 67.8335 47.9838 66.8782C45.6742 65.923 43.2011 65.4258 40.6953 65.4258L40.7083 65.4323ZM40.7083 90.8113C39.4522 90.8113 38.2287 90.4383 37.1819 89.7448C36.1416 89.0447 35.3237 88.0568 34.8461 86.8988C34.3685 85.7407 34.2377 84.4649 34.4863 83.2349C34.7284 82.0048 35.3368 80.873 36.2201 79.9897C37.1099 79.0999 38.2352 78.498 39.4652 78.2559C40.6953 78.0138 41.9711 78.1381 43.1291 78.6158C44.2872 79.0934 45.2816 79.9112 45.9752 80.9515C46.6752 81.9918 47.0416 83.2218 47.0416 84.478C47.0416 86.1594 46.3743 87.7755 45.1835 88.9662C43.9927 90.157 42.3833 90.8243 40.6953 90.8243L40.7083 90.8113Z" stroke="#120325" stroke-width="1.03" stroke-linecap="round" stroke-linejoin="round"/>
</g>
<mask id="mask1_3662_59067" style="mask-type:luminance" maskUnits="userSpaceOnUse" x="86" y="32" width="214" height="105">
<path d="M300 32.5098H86.3892V136.132H300V32.5098Z" fill="white"/>
</mask>
<g mask="url(#mask1_3662_59067)">
<path d="M117.061 120.921H133.163C134.883 120.921 139.875 120.751 140.399 116.747C140.844 113.299 136.787 112.586 135.066 112.586H99.7166L86.9126 135.61H108.811L116.374 121.353C116.446 121.229 116.544 121.124 116.662 121.052C116.78 120.98 116.917 120.934 117.061 120.921Z" fill="#D4F8FF"/>
<path d="M164.855 76.6864C165.405 76.6864 165.941 76.5162 166.393 76.1957C166.844 75.8751 167.178 75.4236 167.361 74.9002L172.641 59.4727H136.676C134.412 59.4727 132.188 60.0811 130.238 61.2261C128.288 62.371 126.679 64.0198 125.58 66.0022L119.691 76.6864H164.855Z" fill="#D4F8FF"/>
<path d="M264.552 59.4727H178.353L173.446 75.1816C172.765 77.164 171.483 78.8781 169.782 80.0951C168.081 81.312 166.033 81.9663 163.946 81.9663H116.721L104.368 104.205H137.978C144.848 104.205 153.294 109.635 150.448 117.774C147.818 125.266 140.405 129.106 133.542 129.106H121.909L118.167 135.596H192.033V111.814C192.033 108.87 193.211 106.05 195.292 103.969C197.372 101.889 200.192 100.718 203.136 100.718H229.039C231.211 100.718 231.453 99.1669 231.335 98.4603L230.439 93.5533C229.457 88.1949 228.541 83.1374 228.109 80.9391C227.128 75.9143 228.79 72.6037 230.341 70.7195C231.61 69.2735 233.187 68.1286 234.947 67.3565C236.707 66.5845 238.617 66.205 240.541 66.2443C246.619 66.2443 252.213 70.3792 254.463 76.5359C255.327 78.8847 255.994 80.9849 256.426 82.5224L282.099 91.1064L264.552 59.4792V59.4727Z" fill="#D4F8FF"/>
<path d="M288.374 102.353L251.493 89.6671C250.734 89.4119 250.047 88.967 249.504 88.3782C248.961 87.7893 248.575 87.0696 248.379 86.2911C248.627 87.2724 247.757 83.975 246.579 79.7746C245.775 76.9089 242.268 75.5415 240.534 75.7312C239.474 75.8228 238.486 76.2939 237.753 77.0659C237.02 77.8314 236.589 78.8455 236.549 79.9054C236.994 82.1626 237.76 86.4219 238.741 91.813L239.893 97.093C240.364 99.4287 240.017 101.856 238.911 103.963C238.054 105.559 236.778 106.894 235.221 107.823C233.664 108.752 231.884 109.243 230.072 109.243H202.07C201.86 109.243 201.657 109.282 201.461 109.36C201.271 109.439 201.095 109.557 200.944 109.707C200.794 109.858 200.683 110.028 200.604 110.224C200.526 110.414 200.486 110.623 200.486 110.833V135.681H288.851C290.69 135.681 292.502 135.197 294.099 134.281C295.695 133.365 297.03 132.05 297.959 130.467C298.894 128.877 299.392 127.078 299.418 125.233C299.437 123.394 298.986 121.576 298.09 119.966L288.367 102.34L288.374 102.353Z" fill="#D4F8FF"/>
<path d="M110.571 93.6709H171.11C171.738 93.6709 172.353 93.8018 172.922 94.07C173.491 94.3317 173.989 94.7243 174.388 95.2019C174.787 95.686 175.075 96.2487 175.232 96.8506C175.389 97.4591 175.402 98.0872 175.284 98.7022L171.574 117.781" stroke="#2FBDD7" stroke-width="1.03" stroke-linecap="round" stroke-linejoin="round"/>
<path d="M150.416 117.787H192.073" stroke="#2FBDD7" stroke-width="1.03" stroke-linecap="round" stroke-linejoin="round"/>
<path d="M201.546 59.4727V74.9656C201.546 76.0844 201.991 77.1574 202.783 77.9491C203.575 78.7407 204.648 79.1856 205.766 79.1856H227.652" stroke="#2FBDD7" stroke-width="1.03" stroke-linecap="round" stroke-linejoin="round"/>
<path d="M219.539 135.38L218.93 125.56C218.891 124.984 218.976 124.408 219.172 123.865C219.369 123.322 219.676 122.825 220.069 122.406C220.461 121.987 220.939 121.654 221.475 121.425C222.005 121.196 222.574 121.078 223.157 121.078H266.921C267.627 121.078 268.321 120.901 268.942 120.561C269.564 120.221 270.087 119.73 270.473 119.141C270.859 118.546 271.082 117.865 271.134 117.159C271.186 116.452 271.062 115.746 270.768 115.104L260.901 93.167" stroke="#2FBDD7" stroke-width="1.03" stroke-linecap="round" stroke-linejoin="round"/>
<path d="M224.877 109.164L226.35 121.065" stroke="#2FBDD7" stroke-width="1.03" stroke-linecap="round" stroke-linejoin="round"/>
<path d="M117.061 120.921H133.163C134.883 120.921 139.875 120.751 140.399 116.747C140.844 113.299 136.787 112.586 135.066 112.586H99.7166L86.9126 135.61H108.811L116.374 121.353C116.446 121.229 116.544 121.124 116.662 121.052C116.78 120.98 116.917 120.934 117.061 120.921Z" stroke="#2D84A1" stroke-width="1.03" stroke-linecap="round" stroke-linejoin="round"/>
<path d="M164.855 76.6864C165.405 76.6864 165.941 76.5162 166.393 76.1957C166.844 75.8751 167.178 75.4236 167.361 74.9002L172.641 59.4727H136.676C134.412 59.4727 132.188 60.0811 130.238 61.2261C128.288 62.371 126.679 64.0198 125.58 66.0022L119.691 76.6864H164.855Z" stroke="#2D84A1" stroke-width="1.03" stroke-linecap="round" stroke-linejoin="round"/>
<path d="M264.552 59.4727H178.353L173.446 75.1816C172.765 77.164 171.483 78.8781 169.782 80.0951C168.081 81.312 166.033 81.9663 163.946 81.9663H116.721L104.368 104.205H137.978C144.848 104.205 153.294 109.635 150.448 117.774C147.818 125.266 140.405 129.106 133.542 129.106H121.909L118.167 135.596H192.033V111.814C192.033 108.87 193.211 106.05 195.292 103.969C197.372 101.889 200.192 100.718 203.136 100.718H229.039C231.23 100.718 231.446 99.1473 231.335 98.4603L230.439 93.5533C229.457 88.1949 228.541 83.1374 228.109 80.9391C227.128 75.9143 228.79 72.6037 230.341 70.7195C231.61 69.2735 233.187 68.1286 234.947 67.3565C236.707 66.5845 238.617 66.205 240.541 66.2443C246.619 66.2443 252.213 70.3792 254.463 76.5359C255.327 78.8847 255.994 80.9849 256.426 82.5224L282.099 91.1064L264.552 59.4792V59.4727Z" stroke="#2D84A1" stroke-width="1.03" stroke-linecap="round" stroke-linejoin="round"/>
<path d="M288.374 102.352L251.493 89.6662C250.734 89.411 250.047 88.9661 249.504 88.3773C248.961 87.7884 248.575 87.0687 248.379 86.2902C248.379 86.2902 247.659 83.5423 246.579 79.7737C245.755 76.908 242.268 75.5341 240.534 75.7303C239.481 75.8285 238.493 76.3061 237.76 77.0716C237.027 77.8371 236.595 78.8446 236.549 79.9045C236.994 82.1618 237.76 86.421 238.741 91.8122L239.893 97.0921C240.364 99.4278 240.017 101.855 238.911 103.962C238.054 105.558 236.778 106.893 235.221 107.822C233.664 108.751 231.884 109.242 230.072 109.242H202.07C201.86 109.242 201.657 109.281 201.461 109.36C201.271 109.438 201.095 109.556 200.944 109.706C200.794 109.857 200.683 110.027 200.604 110.223C200.526 110.413 200.486 110.622 200.486 110.832V135.681H288.851C290.69 135.681 292.502 135.196 294.099 134.28C295.695 133.365 297.03 132.049 297.959 130.466C298.894 128.876 299.392 127.077 299.418 125.232C299.437 123.394 298.986 121.575 298.09 119.965L288.367 102.339L288.374 102.352Z" stroke="#2D84A1" stroke-width="1.11" stroke-linecap="round" stroke-linejoin="round"/>
<path opacity="0.16" d="M184.202 70.5821C189.455 70.5821 193.715 68.9268 193.715 66.8789C193.715 64.8311 189.455 63.1758 184.202 63.1758C178.948 63.1758 174.689 64.8311 174.689 66.8789C174.689 68.9268 178.948 70.5821 184.202 70.5821Z" fill="#470050"/>
<path opacity="0.16" d="M241.293 86.1337C247.986 86.1337 253.41 83.9615 253.41 81.2856C253.41 78.6097 247.986 76.4375 241.293 76.4375C234.6 76.4375 229.176 78.6097 229.176 81.2856C229.176 83.9615 234.6 86.1337 241.293 86.1337Z" fill="#470050"/>
<path opacity="0.16" d="M127.097 121.863C134.687 121.863 140.844 119.501 140.844 116.583C140.844 113.665 134.687 111.303 127.097 111.303C119.508 111.303 113.351 113.671 113.351 116.583C113.351 119.494 119.508 121.863 127.097 121.863Z" fill="#470050"/>
<path d="M184.202 33.04C180.839 33.04 177.607 34.3747 175.232 36.7563C172.85 39.1378 171.516 42.3633 171.509 45.7262C171.509 55.2392 184.202 66.8786 184.202 66.8786C184.202 66.8786 196.888 55.2458 196.888 45.7262C196.888 42.3633 195.547 39.1378 193.172 36.7563C190.79 34.3747 187.571 33.04 184.202 33.04ZM184.202 49.9593C183.364 49.9593 182.546 49.7172 181.846 49.2527C181.146 48.7882 180.603 48.1274 180.283 47.3553C179.962 46.5833 179.877 45.7328 180.041 44.9084C180.204 44.084 180.603 43.3316 181.199 42.7362C181.788 42.1409 182.546 41.7418 183.364 41.5782C184.189 41.4146 185.039 41.4997 185.811 41.8203C186.583 42.1409 187.244 42.6839 187.715 43.3774C188.186 44.0709 188.428 44.8953 188.428 45.7262C188.428 46.845 187.983 47.9246 187.192 48.7162C186.4 49.5079 185.327 49.9593 184.208 49.9593H184.202Z" fill="#FF004A"/>
<path opacity="0.28" d="M184.202 38.3262C182.736 38.3262 181.303 38.758 180.086 39.5758C178.869 40.3871 177.921 41.5452 177.358 42.8995C176.795 44.2538 176.651 45.739 176.939 47.1784C177.227 48.6112 177.927 49.9328 178.968 50.9666C180.001 52.0003 181.323 52.7069 182.756 52.9948C184.195 53.2827 185.68 53.1322 187.035 52.5761C188.389 52.0134 189.547 51.0647 190.358 49.8478C191.17 48.6308 191.608 47.198 191.608 45.7324C191.608 44.7576 191.418 43.7958 191.045 42.8995C190.672 42.0031 190.129 41.1853 189.442 40.4983C188.755 39.8114 187.938 39.2683 187.041 38.8954C186.145 38.5225 185.183 38.3327 184.208 38.3327L184.202 38.3262ZM184.202 49.959C183.364 49.959 182.546 49.7169 181.846 49.2524C181.146 48.7879 180.603 48.1271 180.283 47.355C179.962 46.583 179.877 45.7324 180.041 44.9081C180.204 44.0837 180.603 43.3313 181.199 42.7359C181.787 42.1405 182.546 41.7414 183.364 41.5779C184.189 41.4143 185.039 41.4994 185.811 41.8199C186.583 42.1405 187.244 42.6836 187.715 43.3771C188.186 44.0706 188.428 44.895 188.428 45.7259C188.428 46.8447 187.983 47.9242 187.192 48.7159C186.4 49.5076 185.327 49.959 184.208 49.959H184.202Z" fill="#470050"/>
<path d="M184.202 33.04C180.839 33.04 177.607 34.3747 175.232 36.7563C172.85 39.1378 171.516 42.3633 171.509 45.7262C171.509 55.2392 184.202 66.8786 184.202 66.8786C184.202 66.8786 196.888 55.2458 196.888 45.7262C196.888 42.3633 195.547 39.1378 193.172 36.7563C190.79 34.3747 187.571 33.04 184.202 33.04ZM184.202 49.9593C183.364 49.9593 182.546 49.7172 181.846 49.2527C181.146 48.7882 180.603 48.1274 180.283 47.3553C179.962 46.5833 179.877 45.7328 180.041 44.9084C180.204 44.084 180.603 43.3316 181.199 42.7362C181.788 42.1409 182.546 41.7418 183.364 41.5782C184.189 41.4146 185.039 41.4997 185.811 41.8203C186.583 42.1409 187.244 42.6839 187.715 43.3774C188.186 44.0709 188.428 44.8953 188.428 45.7262C188.428 46.845 187.983 47.9246 187.192 48.7162C186.4 49.5079 185.327 49.9593 184.208 49.9593H184.202Z" stroke="#120325" stroke-width="1.03" stroke-linecap="round" stroke-linejoin="round"/>
<path d="M127.097 65.819C122.053 65.819 117.212 67.8276 113.639 71.3999C110.074 74.9722 108.065 79.8138 108.065 84.8581C108.065 99.1342 127.091 116.583 127.091 116.583C127.091 116.583 146.13 99.1342 146.13 84.8581C146.13 82.3589 145.639 79.8792 144.678 77.5696C143.722 75.2601 142.316 73.1599 140.549 71.3934C138.783 69.6269 136.682 68.2202 134.373 67.265C132.063 66.3097 129.59 65.8125 127.084 65.8125L127.097 65.819ZM127.097 91.198C125.841 91.198 124.618 90.825 123.571 90.1315C122.531 89.4315 121.713 88.4435 121.235 87.2855C120.758 86.1274 120.627 84.8516 120.875 83.6216C121.118 82.3916 121.726 81.2597 122.609 80.3764C123.499 79.4866 124.624 78.8847 125.854 78.6426C127.084 78.4006 128.36 78.5249 129.518 79.0025C130.676 79.4801 131.671 80.2979 132.364 81.3382C133.064 82.3785 133.431 83.6085 133.431 84.8647C133.431 86.5462 132.763 88.1622 131.573 89.353C130.382 90.5437 128.772 91.2111 127.084 91.2111L127.097 91.198Z" fill="#B0FAFF"/>
<path opacity="0.16" d="M127.097 73.748C124.899 73.748 122.753 74.4023 120.928 75.6192C119.102 76.8362 117.676 78.5765 116.839 80.6047C116.001 82.633 115.779 84.864 116.204 87.0231C116.629 89.1756 117.689 91.158 119.246 92.7086C120.797 94.2592 122.779 95.3192 124.932 95.751C127.084 96.1762 129.315 95.9603 131.35 95.1163C133.378 94.2789 135.112 92.8526 136.336 91.0272C137.559 89.2018 138.207 87.0558 138.207 84.8575C138.207 83.3984 137.919 81.9525 137.363 80.6047C136.807 79.257 135.989 78.0335 134.955 76.9997C133.921 75.966 132.698 75.1482 131.35 74.592C130.002 74.0359 128.557 73.748 127.097 73.748ZM127.097 91.1973C125.841 91.1973 124.618 90.8244 123.571 90.1308C122.531 89.4308 121.713 88.4428 121.235 87.2848C120.758 86.1267 120.627 84.8509 120.875 83.6209C121.118 82.3909 121.726 81.259 122.609 80.3757C123.499 79.4859 124.624 78.884 125.854 78.6419C127.084 78.3999 128.36 78.5242 129.518 79.0018C130.676 79.4794 131.671 80.2972 132.364 81.3375C133.064 82.3778 133.431 83.6078 133.431 84.864C133.431 86.5455 132.763 88.1615 131.573 89.3523C130.382 90.543 128.772 91.2104 127.084 91.2104L127.097 91.1973Z" fill="#470050"/>
<path d="M127.097 65.819C122.053 65.819 117.212 67.8276 113.639 71.3999C110.074 74.9722 108.065 79.8138 108.065 84.8581C108.065 99.1342 127.091 116.583 127.091 116.583C127.091 116.583 146.13 99.1342 146.13 84.8581C146.13 82.3589 145.639 79.8792 144.678 77.5696C143.722 75.2601 142.316 73.1599 140.549 71.3934C138.783 69.6269 136.682 68.2202 134.373 67.265C132.063 66.3097 129.59 65.8125 127.084 65.8125L127.097 65.819ZM127.097 91.198C125.841 91.198 124.618 90.825 123.571 90.1315C122.531 89.4315 121.713 88.4435 121.235 87.2855C120.758 86.1274 120.627 84.8516 120.875 83.6216C121.118 82.3916 121.726 81.2597 122.609 80.3764C123.499 79.4866 124.624 78.8847 125.854 78.6426C127.084 78.4006 128.36 78.5249 129.518 79.0025C130.676 79.4801 131.671 80.2979 132.364 81.3382C133.064 82.3785 133.431 83.6085 133.431 84.8647C133.431 86.5462 132.763 88.1622 131.573 89.353C130.382 90.5437 128.772 91.2111 127.084 91.2111L127.097 91.198Z" stroke="#120325" stroke-width="1.03" stroke-linecap="round" stroke-linejoin="round"/>
<path d="M241.293 37.6719C236.955 37.6719 232.794 39.3926 229.726 42.4611C226.657 45.5296 224.936 49.6907 224.936 54.0285C224.936 66.2894 241.293 81.2852 241.293 81.2852C241.293 81.2852 257.65 66.2894 257.65 54.0285C257.65 49.6907 255.929 45.5296 252.86 42.4611C249.792 39.3926 245.631 37.6719 241.293 37.6719ZM241.293 59.4851C240.213 59.4851 239.16 59.1645 238.264 58.5625C237.367 57.9606 236.667 57.1101 236.255 56.1156C235.843 55.1211 235.732 54.0219 235.948 52.962C236.157 51.9021 236.68 50.9338 237.439 50.1683C238.205 49.4028 239.173 48.886 240.233 48.6766C241.293 48.4672 242.386 48.5719 243.387 48.9841C244.381 49.3963 245.238 50.0964 245.833 50.9927C246.435 51.889 246.749 52.9424 246.749 54.0219C246.749 55.4679 246.174 56.8549 245.153 57.8821C244.132 58.9028 242.745 59.4785 241.293 59.4785V59.4851Z" fill="#004ADC"/>
<path opacity="0.3" d="M241.293 44.4893C239.409 44.4893 237.564 45.0519 235.993 46.0987C234.423 47.1456 233.2 48.6373 232.48 50.3776C231.76 52.118 231.57 54.0415 231.937 55.8865C232.303 57.7381 233.213 59.4392 234.547 60.7739C235.882 62.1086 237.583 63.018 239.435 63.3844C241.286 63.7508 243.203 63.5611 244.944 62.8414C246.691 62.1217 248.176 60.8982 249.223 59.328C250.269 57.7577 250.832 55.9127 250.832 54.0284C250.832 51.4964 249.824 49.0691 248.038 47.283C246.252 45.4968 243.825 44.4893 241.293 44.4893ZM241.293 59.485C240.213 59.485 239.16 59.1644 238.264 58.5625C237.367 57.9606 236.667 57.11 236.255 56.1155C235.843 55.1211 235.732 54.0219 235.948 52.962C236.157 51.9021 236.68 50.9338 237.439 50.1683C238.205 49.4028 239.173 48.8859 240.233 48.6766C241.293 48.4672 242.385 48.5719 243.387 48.9841C244.381 49.3962 245.238 50.0963 245.833 50.9927C246.435 51.889 246.749 52.9424 246.749 54.0219C246.749 55.4678 246.174 56.8549 245.153 57.8821C244.132 58.9027 242.739 59.4785 241.293 59.4785V59.485Z" fill="#470050"/>
<path d="M241.293 37.6719C236.955 37.6719 232.794 39.3926 229.726 42.4611C226.657 45.5296 224.936 49.6907 224.936 54.0285C224.936 66.2894 241.293 81.2852 241.293 81.2852C241.293 81.2852 257.65 66.2894 257.65 54.0285C257.65 49.6907 255.929 45.5296 252.86 42.4611C249.792 39.3926 245.631 37.6719 241.293 37.6719ZM241.293 59.4851C240.213 59.4851 239.16 59.1645 238.264 58.5625C237.367 57.9606 236.667 57.1101 236.255 56.1156C235.843 55.1211 235.732 54.0219 235.948 52.962C236.157 51.9021 236.68 50.9338 237.439 50.1683C238.205 49.4028 239.173 48.886 240.233 48.6766C241.293 48.4672 242.386 48.5719 243.387 48.9841C244.381 49.3963 245.238 50.0964 245.833 50.9927C246.435 51.889 246.749 52.9424 246.749 54.0219C246.749 55.4679 246.174 56.8549 245.153 57.8821C244.132 58.9028 242.745 59.4785 241.293 59.4785V59.4851Z" stroke="#120325" stroke-width="1.18" stroke-linecap="round" stroke-linejoin="round"/>
</g>
<path d="M107.175 164.626H197.987C202.016 164.626 205.282 161.36 205.282 157.331L205.282 7.78564C205.282 3.7567 202.016 0.490601 197.987 0.490601H107.175C103.146 0.490601 99.8802 3.7567 99.8802 7.78564L99.8802 157.331C99.8802 161.36 103.146 164.626 107.175 164.626Z" fill="#FF0049"/>
<path d="M134.608 16.5326H134.275L132.757 16.5195H115.347C115.072 16.5195 114.85 16.742 114.85 17.0168V19.7778C114.85 22.807 116.989 24.4754 120.869 24.4754L134.608 24.5016C136.061 24.5016 137.239 25.6792 137.239 27.1317C137.239 28.5842 136.061 29.7618 134.608 29.7618H119.194C118.971 29.7618 118.775 29.9123 118.716 30.1348L115.072 44.5351C115.033 44.6791 115.072 44.8361 115.164 44.9604C115.255 45.0782 115.399 45.1502 115.55 45.1502H120.437C122.269 45.1502 123.146 43.6323 123.355 42.8341L124.794 37.5999H134.608C140.412 37.5999 145.136 32.8761 145.136 27.0728C145.136 21.2695 140.412 16.5457 134.608 16.5457" fill="white"/>
<path opacity="0.28" d="M152.104 56.3056H150.991L145.947 56.2598H99.8801V82.1556C101.849 82.522 104.022 82.7117 106.397 82.7117L152.104 82.8033C156.932 82.8033 160.851 86.7158 160.851 91.5508C160.851 96.3858 156.932 100.298 152.104 100.298H100.848C100.489 100.298 100.161 100.423 99.8867 100.619V151.455H104.977C111.068 151.455 113.993 146.404 114.68 143.748L119.469 126.345H152.11C171.424 126.345 187.126 110.636 187.126 91.3284C187.126 72.021 171.424 56.3121 152.11 56.3121L152.104 56.3056Z" fill="#470050"/>
<path d="M107.175 164.626H197.987C202.016 164.626 205.282 161.36 205.282 157.331L205.282 7.78564C205.282 3.7567 202.016 0.490601 197.987 0.490601H107.175C103.146 0.490601 99.8802 3.7567 99.8802 7.78564L99.8802 157.331C99.8802 161.36 103.146 164.626 107.175 164.626Z" stroke="#130F22" stroke-width="1.5" stroke-linecap="round" stroke-linejoin="round"/>
<path d="M163.861 136.204L157.469 151.449H153.301L150.154 139.279C149.964 138.527 149.794 138.259 149.218 137.938C148.27 137.421 146.706 136.944 145.325 136.643L145.417 136.198H152.13C152.987 136.198 153.752 136.767 153.949 137.755L155.61 146.574L159.713 136.198H163.854L163.861 136.204ZM180.198 146.47C180.217 142.446 174.637 142.223 174.669 140.424C174.682 139.875 175.199 139.299 176.344 139.148C176.907 139.076 178.464 139.018 180.23 139.829L180.924 136.597C179.975 136.25 178.752 135.923 177.234 135.923C173.335 135.923 170.593 137.997 170.567 140.961C170.541 143.152 172.523 144.382 174.022 145.109C175.559 145.855 176.076 146.339 176.069 147.006C176.056 148.027 174.846 148.478 173.707 148.498C171.725 148.531 170.574 147.961 169.658 147.536L168.944 150.873C169.867 151.298 171.568 151.664 173.328 151.684C177.469 151.684 180.185 149.636 180.191 146.47M190.489 151.449H194.14L190.954 136.204H187.584C186.825 136.204 186.191 136.643 185.903 137.323L179.982 151.449H184.123L184.948 149.172H190.005L190.483 151.449H190.489ZM186.086 146.044L188.16 140.32L189.357 146.044H186.086ZM169.494 136.204L166.236 151.449H162.291L165.555 136.204H169.501H169.494Z" fill="white"/>
</g>
<defs>
<clipPath id="clip0_3662_59067">
<rect width="300" height="165.117" fill="white"/>
</clipPath>
</defs>
</svg>
