<svg width="148" height="230" viewBox="0 0 148 230" fill="none" xmlns="http://www.w3.org/2000/svg">
<mask id="mask0_4108_92366" style="mask-type:luminance" maskUnits="userSpaceOnUse" x="0" y="0" width="148" height="230">
<path d="M148 0.5H0V229.5H148V0.5Z" fill="white"/>
</mask>
<g mask="url(#mask0_4108_92366)">
<path d="M79.6594 237.752C65.1998 240.405 55.4129 241.912 52.3317 233.016C51.1476 229.6 47.1793 177.672 47.1793 177.672C45.6005 167.627 53.7831 157.98 65.4629 156.118C77.1384 154.256 87.8887 160.892 89.4675 170.933C89.4675 170.933 104.101 225.137 105.281 234.31C106.72 245.478 91.2882 235.613 79.6594 237.748V237.752Z" fill="#FFAB8A"/>
<path d="M52.2128 236.206L47.1793 177.676C45.6005 167.631 53.7831 157.984 65.4629 156.122C77.1384 154.26 87.8887 160.896 89.4675 170.937L107.161 239.802" stroke="#160F23" stroke-width="1.98" stroke-linecap="round" stroke-linejoin="round"/>
<path d="M88.5983 168.152C101.097 145.855 71.554 131.975 70.807 123.6C70.0006 114.525 68.5577 113.944 71.0744 105.484C72.3561 101.17 69.8818 95.2509 67.2505 92.7184C64.6234 90.1859 44.4894 97.3692 37.597 113.974C35.0039 120.222 31.8378 129.472 32.5041 138.274C33.1747 147.076 34.346 155.69 35.25 159.935C36.7354 166.926 38.7047 171.095 40.7843 174.844C44.5403 181.601 49.3022 183.612 49.3022 183.612" fill="#FFAB8A"/>
<path d="M88.5983 168.152C101.097 145.855 71.554 131.975 70.807 123.6C70.0006 114.525 68.5577 113.944 71.0744 105.484C72.3561 101.17 69.8818 95.2509 67.2505 92.7184C64.6234 90.1859 44.4894 97.3692 37.597 113.974C35.0039 120.222 31.8378 129.472 32.5041 138.274C33.1747 147.076 34.346 155.69 35.25 159.935C36.7354 166.926 38.7047 171.095 40.7843 174.844C44.5403 181.601 49.3022 183.612 49.3022 183.612" stroke="#160F23" stroke-width="2.03" stroke-linecap="round" stroke-linejoin="round"/>
<path d="M42.4141 105.834C42.4141 105.834 47.2438 88.8406 49.2471 81.4437C49.2471 81.4437 49.5738 76.3402 50.6773 74.965C51.7808 73.5899 54.8577 73.2226 58.1809 75.3793C62.5141 78.1894 62.7984 84.6724 62.7984 84.6724C62.7984 84.6724 68.0399 88.8363 67.3014 94.8068C66.563 100.777 63.2313 107.602 62.9215 110.28C62.5098 113.833 63.312 121.418 63.312 124.471" fill="#FFAB8A"/>
<path d="M42.4141 105.834C42.4141 105.834 47.2438 88.8406 49.2471 81.4437C49.2471 81.4437 49.5738 76.3402 50.6773 74.965C51.7808 73.5899 54.8577 73.2226 58.1809 75.3793C62.5141 78.1894 62.7984 84.6724 62.7984 84.6724C62.7984 84.6724 68.0399 88.8363 67.3014 94.8068C66.5629 100.777 63.2313 107.602 62.9215 110.28C62.5098 113.833 63.312 121.418 63.312 124.471" stroke="#160F23" stroke-width="2.01" stroke-linecap="round" stroke-linejoin="round"/>
<path d="M32.3871 134.149C31.8735 123.715 30.8083 113.901 30.3881 108.055C29.9679 102.208 30.1632 98.3472 33.499 94.9733C38.9951 89.4043 52.5847 77.3225 52.5847 77.3225C55.5131 75.1572 60.466 80.265 57.4442 88.9773C56.2431 92.4365 55.1906 95.5243 49.6011 99.9231C46.5496 102.323 47.4239 103.301 47.7592 105.919C48.1836 109.246 49.7878 120.166 51.9141 127.691" fill="#FFAB8A"/>
<path d="M32.3871 134.149C31.8735 123.715 30.8083 113.901 30.3881 108.055C29.9679 102.208 30.1632 98.3472 33.499 94.9733C38.9951 89.4043 52.5847 77.3225 52.5847 77.3225C55.5131 75.1572 60.466 80.265 57.4442 88.9773C56.2431 92.4365 55.1906 95.5243 49.6011 99.9231C46.5496 102.323 47.4239 103.301 47.7592 105.919C48.1836 109.246 49.7878 120.166 51.9141 127.691" stroke="#160F23" stroke-width="1.94" stroke-linecap="round" stroke-linejoin="round"/>
<path d="M62.7957 84.6758C63.2626 87.1571 61.1702 91.4833 58.611 99.7429C56.0561 107.998 56.1919 109.215 56.6885 112.303C57.3378 116.356 57.9574 121.447 58.3564 125.457" stroke="#160F23" stroke-width="2.01" stroke-linecap="round" stroke-linejoin="round"/>
<path d="M39.5703 101.08C42.8001 102.553 47.1036 102.118 47.1036 102.118" stroke="#160F23" stroke-width="1.94" stroke-linecap="round" stroke-linejoin="round"/>
<path d="M79.6505 163.977L139.396 136.133C142.047 134.898 143.197 131.747 141.965 129.096L96.2363 30.688C95.0043 28.0368 91.8568 26.8889 89.2061 28.1243L29.4608 55.968C26.8101 57.2033 25.6601 60.354 26.8921 63.0052L72.6204 161.413C73.8524 164.064 76.9999 165.212 79.6505 163.977Z" fill="#FF0049"/>
<path d="M52.4163 58.1051L52.1968 58.2075L51.1942 58.6642L39.7412 64.0018C39.5604 64.0861 39.4821 64.3007 39.5661 64.4815L40.4103 66.2982C41.3365 68.2914 43.254 68.7333 45.8063 67.5438L54.8528 63.3487C55.8083 62.9034 56.9431 63.3172 57.3872 64.273C57.8313 65.2287 57.4167 66.3646 56.4612 66.81L46.3209 71.5358C46.1745 71.604 46.0914 71.7632 46.1207 71.9276L48.1263 82.5203C48.1445 82.627 48.2184 82.7183 48.3166 82.772C48.4129 82.8215 48.5296 82.8247 48.6286 82.7785L51.8437 81.2802C53.0488 80.7185 53.1615 79.451 53.0551 78.8615L52.4017 74.9762L58.8577 71.9674C62.6754 70.1882 64.3386 65.6317 62.5642 61.8131C60.7898 57.9945 56.238 56.3345 52.4203 58.1138" fill="white"/>
<path opacity="0.28" d="M76.0962 78.9251L75.3645 79.2661L72.032 80.7825L41.7266 94.9062L49.6445 111.946C51.0521 111.583 52.5391 111.042 54.1015 110.314L84.1983 96.3609C87.3747 94.8806 91.1492 96.2535 92.6276 99.435C94.1059 102.616 92.7241 106.393 89.5476 107.873L55.8289 123.587C55.5922 123.698 55.415 123.88 55.2943 124.093L70.8381 157.544L74.1868 155.984C78.1939 154.116 78.5735 149.896 78.2132 147.937L76.0425 135.017L97.5159 125.01C110.222 119.088 115.748 103.937 109.845 91.2328C103.942 78.5283 88.8084 73.0059 76.1025 78.9274L76.0962 78.9251Z" fill="#470050"/>
<path d="M79.6505 163.977L139.396 136.133C142.047 134.898 143.197 131.747 141.965 129.096L96.2363 30.688C95.0043 28.0368 91.8568 26.8889 89.2061 28.1243L29.4608 55.968C26.8101 57.2033 25.6601 60.354 26.8921 63.0052L72.6204 161.413C73.8524 164.064 76.9999 165.212 79.6505 163.977Z" stroke="#130F22" stroke-width="1.60783" stroke-linecap="round" stroke-linejoin="round"/>
<path d="M108.262 127.908L108.718 139.896L105.977 141.173L100.186 134.132C99.8316 133.695 99.6377 133.571 99.161 133.537C98.379 133.487 97.2044 133.653 96.2044 133.878L96.1286 133.557L100.544 131.499C101.108 131.237 101.785 131.376 102.216 131.966L106.006 137.259L105.532 129.175L108.256 127.906L108.262 127.908ZM122.146 129.653C120.929 127 117.19 128.565 116.662 127.371C116.502 127.005 116.666 126.468 117.373 126.018C117.721 125.798 118.728 125.282 120.137 125.275L119.606 122.936C118.876 122.998 117.971 123.158 116.972 123.624C114.408 124.819 113.238 127.024 114.127 128.981C114.78 130.431 116.46 130.633 117.668 130.651C118.907 130.671 119.395 130.831 119.595 131.272C119.898 131.947 119.24 132.615 118.497 132.977C117.203 133.606 116.272 133.585 115.539 133.586L116.09 136C116.827 135.997 118.058 135.716 119.222 135.19C121.946 133.92 123.106 131.741 122.142 129.655M130.438 129.774L132.839 128.655L126.083 119.603L123.866 120.636C123.367 120.869 123.084 121.352 123.103 121.887L123.526 132.995L126.25 131.726L126.097 129.975L129.423 128.425L130.433 129.776L130.438 129.774ZM125.889 127.569L125.503 123.167L128.041 126.566L125.889 127.569ZM111.967 126.181L114.485 137.209L111.89 138.418L109.377 127.388L111.972 126.179L111.967 126.181Z" fill="white"/>
<path d="M65.773 134.286C59.0079 118.202 60.9687 109.759 54.5983 104.015C49.6455 99.548 45.3929 102.063 43.6655 103.08C41.9382 104.096 43.3006 110.289 43.8905 115.465C44.4804 120.637 43.483 126.317 41.7302 134.999C40.1302 142.926 36.9089 159.06 43.6698 168.473C48.3128 174.939 59.4111 173.453 63.8886 167.525C69.72 159.812 71.337 147.517 65.7688 134.286H65.773Z" fill="#FFAB8A"/>
<path d="M66.2613 163.236C72.6147 150.979 67.2035 137.8 65.7732 134.285C59.1991 118.121 60.4469 110.309 54.5985 104.014C50.52 99.6241 45.3931 102.063 43.6658 103.079C41.9384 104.096 43.3008 110.288 43.8907 115.464C44.4806 120.636 43.3517 124.804 41.9045 133.546C40.4063 142.562 37.2444 156.57 42.5029 167.212" fill="#FFAB8A"/>
<path d="M66.2613 163.236C72.6147 150.979 67.2035 137.8 65.7732 134.285C59.1991 118.121 60.4469 110.309 54.5985 104.014C50.52 99.6241 45.3931 102.063 43.6658 103.079C41.9384 104.096 43.3008 110.288 43.8907 115.464C44.4806 120.636 43.3517 124.804 41.9045 133.546C40.4063 142.562 37.2444 156.57 42.5029 167.212" stroke="#160F23" stroke-width="1.95" stroke-linecap="round" stroke-linejoin="round"/>
</g>
</svg>
