<svg width="200" height="200" viewBox="0 0 200 200" fill="none" xmlns="http://www.w3.org/2000/svg">
<path d="M74.166 115.656C71.2481 115.139 70.126 118.942 71.8607 120.786C72.1404 121.089 72.4871 121.323 72.8731 121.469C73.2592 121.615 73.674 121.669 74.0845 121.626C74.495 121.584 74.8899 121.446 75.2377 121.224C75.5855 121.002 75.8767 120.701 76.0881 120.347C76.3509 119.927 76.51 119.451 76.5521 118.957C76.5942 118.463 76.5183 117.967 76.3304 117.509C76.1426 117.05 75.8483 116.643 75.4719 116.321C75.0955 115.999 74.6479 115.771 74.166 115.656ZM72.7513 120.245C72.4776 120.099 72.244 119.887 72.071 119.63C71.898 119.372 71.791 119.076 71.7593 118.767C71.7276 118.459 71.7722 118.147 71.8891 117.859C72.0061 117.572 72.1919 117.318 72.4301 117.119C72.6684 116.92 72.9518 116.783 73.2555 116.719C73.5592 116.656 73.8739 116.668 74.1719 116.754C74.4699 116.84 74.7422 116.999 74.9647 117.215C75.1872 117.431 75.3532 117.699 75.4481 117.994C75.603 118.357 75.6369 118.76 75.5448 119.143C75.4527 119.527 75.2395 119.87 74.9367 120.123C74.634 120.375 74.2579 120.524 73.8642 120.546C73.4706 120.568 73.0803 120.462 72.7513 120.245ZM137.402 99.8881C135.659 99.9671 133.889 100.323 132.245 99.5513C130.467 98.7197 130.226 96.824 130.202 95.0629C130.151 91.2524 129.992 87.3956 130.217 83.2219C130.246 82.6956 129.394 82.8093 129.338 83.2809C128.924 87.7357 128.876 92.2171 129.195 96.6797C129.262 97.542 129.555 98.3712 130.046 99.0832C130.537 99.7952 131.208 100.365 131.99 100.733C133.801 101.46 135.819 101.484 137.647 100.801C138.158 102.873 138.516 104.98 138.718 107.105C138.732 107.211 138.783 107.308 138.863 107.379C138.943 107.45 139.045 107.49 139.152 107.492C139.258 107.493 139.362 107.457 139.444 107.388C139.526 107.32 139.58 107.224 139.597 107.119C140.018 104.599 138.755 100.562 137.763 98.2134C137.72 98.1134 137.64 98.0341 137.539 97.9921C137.439 97.95 137.326 97.9487 137.224 97.9882C137.123 98.0277 137.04 98.1051 136.995 98.204C136.949 98.3029 136.943 98.4157 136.979 98.5187C137.132 98.9713 137.273 99.4282 137.402 99.8881ZM150.763 98.8103C150.715 98.7072 150.629 98.6267 150.522 98.5856C150.416 98.5445 150.298 98.5459 150.193 98.5895C150.087 98.6331 150.003 98.7156 149.957 98.8198C149.911 98.9241 149.907 99.042 149.945 99.1492C150.634 101.106 151.123 103.127 151.405 105.182C151.434 105.277 151.496 105.36 151.579 105.414C151.663 105.469 151.763 105.492 151.862 105.479C151.961 105.466 152.053 105.419 152.12 105.345C152.187 105.271 152.226 105.176 152.23 105.077C152.15 102.913 151.652 100.785 150.763 98.8103ZM119.772 156.226C112.448 156.319 103.505 156.279 96.4606 156.367C73.2155 156.654 49.9693 157.009 26.7242 157.261C18.1779 157.355 8.76009 157.658 0.451721 157.748C-0.120907 157.754 -0.172486 158.469 0.431721 158.497C7.98746 158.852 16.1158 158.437 23.7379 158.357C46.9841 158.112 70.2309 157.822 93.4785 157.489C101.366 157.384 111.918 157.466 119.75 157.005C120.339 156.971 120.408 156.217 119.772 156.226ZM2.59276 164.177C9.5085 164.665 18.4148 164.041 25.4137 163.924C41.5041 163.651 57.5942 163.365 73.6839 163.068C88.4017 162.812 105.016 162.541 119.396 162.155C119.956 162.139 120.003 161.475 119.411 161.479C104.779 161.6 88.5459 161.875 73.9376 162.119C58.7355 162.373 43.5335 162.632 28.3315 162.897C20.4874 163.034 10.0906 163.424 2.61381 163.476C2.03171 163.48 1.97276 164.134 2.59276 164.177ZM17.119 139.643C17.172 138.538 17.1594 137.432 17.0811 136.329C20.5874 136.392 25.6705 136.656 29.081 136.511C29.3042 140.357 29.7652 146.343 29.7294 151.256C25.9596 152.22 22.0396 152.449 18.1832 151.931C17.7221 151.889 17.5442 152.639 18.019 152.747C22.1303 153.572 26.3784 153.416 30.4178 152.29C30.5445 152.264 30.6595 152.198 30.7456 152.101C30.8317 152.005 30.8843 151.883 30.8957 151.754C30.8989 147.038 30.6502 142.326 30.1505 137.636C29.9252 135.541 30.081 135.504 27.76 135.365C24.5737 135.174 20.8832 135.251 17.739 135.318C16.519 135.344 15.9843 135.108 15.88 136.396C15.8357 137.273 15.8441 138.152 15.9053 139.028C13.5253 136.291 9.10535 137.784 8.12956 141.21C6.90641 145.496 10.6559 149.768 14.3295 147.631C14.7411 147.392 14.3822 146.711 13.9085 146.894C10.6938 148.109 8.19378 143.924 9.42008 141.241C10.999 137.775 14.8937 139.367 15.9464 140.552C16.0158 144.084 15.9885 147.655 16.279 151.173C16.2938 151.272 16.343 151.362 16.418 151.427C16.493 151.493 16.5888 151.53 16.6885 151.532C16.7881 151.533 16.8851 151.5 16.9622 151.436C17.0393 151.373 17.0915 151.285 17.1095 151.187C17.319 147.376 17.1579 143.467 17.1221 139.643H17.119ZM100.357 152.454C91.2059 152.512 82.0301 152.903 72.8734 153.086C66.4092 153.214 59.9787 152.904 54.9103 148.328C54.4893 147.948 53.9535 148.557 54.3219 148.967C58.8598 154.001 66.3366 154.347 72.6313 154.234C82.2543 154.068 91.9048 153.857 101.527 153.585C103.745 153.521 104.685 152.345 102.859 150.743C101.413 149.454 99.8025 148.363 98.069 147.498C94.8072 145.79 91.1522 144.972 87.4733 145.128C77.6839 145.415 67.4734 145.424 57.5261 145.537C54.6535 145.569 52.3682 145.537 50.8461 148.427C50.1675 149.83 49.7988 151.364 49.7651 152.923C49.7566 153.033 49.7912 153.143 49.8615 153.229C49.9318 153.315 50.0325 153.37 50.1427 153.384C50.2529 153.397 50.3641 153.368 50.4531 153.302C50.5422 153.235 50.6022 153.137 50.6209 153.028C50.853 151.756 51.2007 150.507 51.6598 149.298C53.0114 146.276 55.4608 146.651 58.2419 146.616C67.9597 146.497 77.7154 146.5 87.4248 146.29C90.6488 145.996 93.8897 146.627 96.7679 148.109C98.369 148.853 99.8837 149.771 101.285 150.846C103.022 152.178 101.83 152.445 100.361 152.454H100.357ZM51.5956 128.123C51.6524 128.02 51.6674 127.9 51.6376 127.786C51.6077 127.673 51.5353 127.575 51.4354 127.514C51.3355 127.452 51.2158 127.432 51.1012 127.456C50.9865 127.481 50.8857 127.549 50.8198 127.646C48.1409 131.576 42.2525 141.685 42.3799 146.605C42.4693 150.069 45.2956 151.089 48.2356 151.726C48.3435 151.757 48.4594 151.744 48.5578 151.69C48.6562 151.636 48.7291 151.545 48.7604 151.437C48.7916 151.329 48.7787 151.213 48.7246 151.115C48.6704 151.016 48.5793 150.943 48.4714 150.912C46.0725 150.21 43.4809 149.309 43.5535 146.368C43.6714 141.545 49.4125 132.15 51.5956 128.123ZM70.2618 128.444C67.5618 132.094 65.9839 139.344 66.125 143.862C66.1237 143.972 66.1648 144.079 66.2398 144.16C66.3147 144.241 66.4179 144.29 66.5281 144.297C66.6382 144.304 66.747 144.269 66.832 144.199C66.9169 144.128 66.9717 144.028 66.985 143.918C67.605 136.771 68.7829 134.937 71.0649 128.833C71.2502 128.34 70.5555 128.046 70.2618 128.444ZM95.7058 132.261C92.7354 130.382 89.2541 129.475 85.7449 129.665C82.5354 129.762 78.4217 130.781 75.9618 133.033C75.6081 133.357 75.9428 134.016 76.4196 133.786C79.6059 132.244 81.9691 131.116 85.7112 130.937C89.0251 130.79 92.3184 131.528 95.2522 133.076C95.3581 133.117 95.4751 133.118 95.5816 133.079C95.6881 133.04 95.7771 132.964 95.8322 132.865C95.8873 132.766 95.9048 132.65 95.8816 132.539C95.8584 132.428 95.796 132.329 95.7058 132.261ZM88.069 132.357C87.0214 132.139 85.9371 132.166 84.902 132.438C83.867 132.711 82.9093 133.22 82.1049 133.926C80.2944 135.846 80.588 138.277 80.8807 140.663C80.9544 141.258 81.7975 141.111 81.7838 140.539C81.7407 138.661 81.7259 136.247 83.1164 134.786C84.4785 133.353 86.3712 133.64 88.0743 133.225C88.1802 133.211 88.2776 133.16 88.348 133.079C88.4183 132.999 88.4568 132.896 88.4561 132.789C88.4555 132.682 88.4158 132.579 88.3444 132.5C88.2731 132.42 88.1751 132.37 88.069 132.357ZM88.8333 134.833C87.1827 134.852 85.3112 135.886 85.0628 137.647C84.8312 139.284 86.0638 141.494 86.9691 142.815C87.0285 142.91 87.1224 142.978 87.231 143.005C87.3396 143.032 87.4544 143.016 87.5512 142.959C87.648 142.903 87.7192 142.812 87.7498 142.704C87.7805 142.597 87.7681 142.481 87.7154 142.383C87.0148 141.067 86.5715 139.63 86.4091 138.148C86.2849 136.445 87.6238 136.071 88.9533 135.681C89.0513 135.65 89.1353 135.585 89.1902 135.498C89.245 135.411 89.2672 135.308 89.2528 135.206C89.2384 135.104 89.1883 135.011 89.1115 134.943C89.0346 134.874 88.936 134.836 88.8333 134.833ZM187.569 107.911C185.64 107.409 181.266 107.595 179.086 107.595C176.252 107.549 173.418 107.675 170.599 107.973C170.505 107.996 170.421 108.05 170.362 108.127C170.303 108.204 170.273 108.299 170.276 108.395C170.279 108.492 170.315 108.585 170.378 108.658C170.441 108.731 170.528 108.781 170.623 108.798C173.44 108.953 176.278 108.886 179.099 108.903C181.341 108.915 185.544 109.108 187.465 108.967C187.974 108.934 188.132 108.058 187.569 107.911ZM189.22 122.532C185.567 122.637 182.389 122.421 178.964 122.488C175.518 122.555 172.041 122.593 168.607 122.909C168.114 122.953 168.081 123.771 168.592 123.801C171.997 123.993 175.434 123.923 178.843 123.872C182.302 123.939 185.761 123.808 189.204 123.48C189.723 123.413 189.774 122.515 189.22 122.532ZM190.315 137.058C187.037 136.637 182.264 137.116 178.799 137.174C174.911 137.238 171.01 137.194 167.13 137.476C167.016 137.483 166.909 137.533 166.831 137.616C166.754 137.699 166.711 137.809 166.712 137.923C166.713 138.037 166.758 138.146 166.837 138.228C166.916 138.309 167.024 138.357 167.138 138.362C171.02 138.705 174.919 138.811 178.814 138.677C182.135 138.624 186.919 138.235 190.322 138.039C190.801 138.017 190.829 137.127 190.315 137.061V137.058ZM188.177 151.805C184.475 151.811 178.943 151.821 175.091 151.948C170.696 152.092 166.32 152.319 161.941 152.685C161.455 152.726 161.465 153.545 161.962 153.554C166.325 153.636 170.679 153.58 175.044 153.44C178.925 153.315 184.569 153.489 188.202 152.73C188.713 152.628 188.715 151.806 188.176 151.807L188.177 151.805ZM107.894 64.9915C108.858 65.7947 114.415 111.032 113.646 112.078C112.876 113.123 27.8642 113.524 26.4989 112.56C25.1337 111.595 20.6316 64.6442 21.1095 63.8536C21.8768 62.5958 106.925 64.1884 107.889 64.9915H107.894ZM42.6314 89.623C41.7828 89.6724 40.9322 89.6777 40.083 89.6387C37.9504 89.4703 37.6915 88.5535 39.9388 88.2535C40.848 88.1582 41.7616 88.1118 42.6757 88.1145C44.642 88.0703 44.7914 89.5587 42.6283 89.623H42.6314ZM38.3315 82.8662C39.5881 82.7002 40.8597 82.6804 42.1209 82.8072C43.3841 82.9472 43.4893 84.423 41.983 84.3114C40.8767 84.2282 39.8704 84.2598 38.8094 84.2704C36.4041 84.2946 37.0325 83.1304 38.3336 82.8662H38.3315ZM30.1631 71.4399C31.2441 71.3218 32.3304 71.2578 33.4178 71.2483C35.3494 71.1947 35.0441 72.6167 33.8989 72.7315C32.5945 72.8573 31.2808 72.8503 29.9778 72.7104C29.2684 72.5957 29.1357 71.5725 30.1631 71.4399ZM30.7421 77.6714C32.02 77.3217 33.3471 77.1858 34.6694 77.2694C35.2126 77.2536 36.3904 77.1199 36.401 77.9725C36.4115 78.8567 35.2062 78.7641 34.6389 78.782C33.6031 78.8125 32.182 78.8093 31.1652 78.7441C30.4526 78.6988 30.0378 77.9714 30.7378 77.6714H30.7421ZM38.0052 104.588C36.5125 104.745 35.0092 104.775 33.5115 104.677C33.3718 104.648 33.2453 104.575 33.1511 104.468C33.057 104.361 33.0006 104.226 32.9904 104.084C32.9803 103.942 33.017 103.801 33.0949 103.681C33.1729 103.562 33.2878 103.472 33.422 103.424C34.9455 103.241 36.4792 103.155 38.0136 103.168C39.8462 103.071 40.1336 104.393 38.0052 104.588ZM39.8673 92.904C41.1285 92.695 42.4057 92.5971 43.6841 92.6114C45.783 92.544 45.9493 94.044 43.6841 94.1208C42.4025 94.2269 41.1136 94.2079 39.8357 94.064C39.7101 94.0252 39.6007 93.9463 39.5243 93.8394C39.4478 93.7326 39.4085 93.6036 39.4123 93.4722C39.4161 93.3409 39.4629 93.2144 39.5454 93.1121C39.628 93.0099 39.7418 92.9375 39.8694 92.9061L39.8673 92.904ZM45.4935 98.826C44.2125 99.1492 42.885 99.2471 41.5704 99.1155C39.823 99.0482 39.2294 97.9334 40.9188 97.805C42.2506 97.6774 43.5885 97.6243 44.9262 97.6461C45.8335 97.7019 47.023 98.2271 45.4935 98.826ZM113.728 124.562C102.739 124.733 91.7501 124.876 80.7607 124.992C65.4976 125.152 50.2346 125.225 34.9715 125.328C20.9137 125.423 19.3758 120.731 17.6948 107.703C15.8779 93.6229 14.4106 78.7409 13.5895 64.5347C13.1022 56.08 17.0748 56.0832 24.2442 56.1969C38.3936 56.42 52.5433 56.6411 66.6934 56.86C78.7333 57.0547 90.7027 57.2737 102.822 57.3747C111.907 57.4505 113.616 60.1558 115.215 68.5526C116.432 74.9441 117.273 81.5251 118.041 88.0924C119.094 97.0819 120.321 107.055 121.433 115.467C121.496 115.946 122.331 115.896 122.294 115.399C121.623 106.367 120.094 96.8303 118.978 87.7798C118.151 81.0693 117.441 74.2115 116.107 67.581C114.417 59.1937 111.883 56.4705 102.949 56.4463C89.9059 56.4105 76.8565 55.9548 63.8155 55.7495C50.2198 55.5348 36.6234 55.3242 23.0263 55.1179C15.4674 55.0074 12.1843 56.4368 12.5148 64.5578C13.0811 78.5188 14.7885 94.0977 16.5906 107.97C18.38 121.734 20.3 126.296 34.9189 126.286C43.9925 126.279 53.0665 126.249 62.1408 126.196C79.3154 126.108 96.4879 125.928 113.658 125.656C114.365 125.65 114.435 124.549 113.728 124.562ZM148.828 75.6778C152.242 74.1104 156.581 75.2757 155.416 82.3093C154.251 89.343 152.483 96.9334 149.35 98.1387C146.216 99.3439 141.968 97.8713 140.031 92.4882C142.279 92.0882 142.68 88.9387 142.216 87.4788C142.055 87.0421 141.774 86.6596 141.405 86.3754C141.037 86.0912 140.595 85.9167 140.132 85.872C139.669 85.8272 139.202 85.9141 138.786 86.1225C138.37 86.3309 138.021 86.6525 137.779 87.0503C136.63 85.7388 135.939 84.0885 135.811 82.3493C130.468 81.6241 123.157 79.0935 127.052 71.1389C130.947 63.1842 147.22 69.9726 148.828 75.6778ZM140.488 72.9157C138.522 72.146 136.469 71.6254 134.374 71.3662C132.436 71.2536 129.928 71.702 129.504 73.9704C129.406 74.4967 128.696 74.2473 128.661 73.8167C128.451 71.1062 131.37 69.922 133.618 69.901C136.162 69.882 139.233 70.4947 141.221 72.1746C141.764 72.6336 141.32 73.181 140.488 72.9157ZM193.861 95.6524C189.568 91.4535 183.247 91.2114 177.603 91.2229C172.783 91.2335 167.21 91.3029 163.308 94.5661C159.054 98.1229 158.985 103.915 158.684 109.002C158.33 114.96 157.507 120.88 156.223 126.709C153.246 139.917 148.096 152.54 140.986 164.062C140.67 164.581 141.407 165.159 141.755 164.637C148.129 154.915 152.928 144.247 155.973 133.027C158.256 124.709 159.655 116.174 160.146 107.563C160.462 102.51 160.973 97.0429 166.041 94.4608C170.131 92.3766 176.724 92.4682 181.263 92.645C187.014 92.8692 192.664 94.3387 195.284 100.013C198.021 105.946 198.596 119.767 198.663 126.274C198.704 138.787 197.177 151.256 194.119 163.39C193.769 164.873 194.818 165.413 195.206 164.067C198.266 153.03 199.867 141.64 199.967 130.188C200.111 121.695 200.046 101.708 193.861 95.6545V95.6524Z" fill="#4D4D4D"/>
<path d="M54.9542 72.6409C59.7268 72.6146 65.3826 72.8841 70.0362 72.4304C70.1368 72.4098 70.2268 72.3539 70.2899 72.2729C70.353 72.1919 70.3852 72.0911 70.3806 71.9885C70.3761 71.8859 70.3351 71.7883 70.265 71.7132C70.1949 71.6381 70.1004 71.5905 69.9983 71.5788C65.1331 71.6336 59.5773 71.5273 54.7595 71.5588C49.7363 71.5915 44.6953 71.5315 39.6775 71.763C39.1869 71.7862 39.228 72.6051 39.7154 72.6209C44.7869 72.7946 49.8795 72.6662 54.9542 72.6378V72.6409ZM74.1436 72.5504C78.9309 72.9241 88.9614 72.4451 94.5055 72.4241C95.0887 72.4241 94.9939 71.5673 94.434 71.542C88.2993 71.2588 80.5393 71.7441 74.1836 71.6988C73.7004 71.6936 73.6572 72.5104 74.1436 72.5504ZM55.4374 78.4198C55.9784 78.4198 55.8405 77.6009 55.3595 77.5304C53.1605 77.4026 50.9562 77.3941 48.7563 77.5051C46.5869 77.5051 44.5069 77.5693 42.3353 77.5051C42.28 77.5028 42.2248 77.5115 42.1729 77.5305C42.1209 77.5496 42.0732 77.5787 42.0325 77.6162C41.9918 77.6536 41.9589 77.6988 41.9356 77.749C41.9124 77.7992 41.8992 77.8535 41.8969 77.9088C41.8946 77.9641 41.9033 78.0193 41.9223 78.0712C41.9414 78.1232 41.9705 78.1709 42.008 78.2116C42.0454 78.2523 42.0906 78.2853 42.1408 78.3085C42.191 78.3318 42.2453 78.3449 42.3006 78.3472C44.5111 78.463 46.6237 78.4841 48.8385 78.4988C50.5342 78.5135 53.7563 78.4356 55.4374 78.4198ZM69.4436 78.6841C72.215 78.8005 74.9906 78.7741 77.7593 78.6051C78.3109 78.5419 78.273 77.6441 77.732 77.642C75.0657 77.6325 71.8773 77.5914 69.2804 77.6072C66.5268 77.6241 63.7226 77.5083 60.9784 77.7399C60.491 77.7809 60.5226 78.5556 61.0026 78.5935C63.7889 78.8167 66.6436 78.6809 69.4436 78.6841ZM83.3909 77.9093C83.2792 77.9074 83.1713 77.9499 83.091 78.0274C83.0106 78.105 82.9644 78.2113 82.9625 78.323C82.9605 78.4347 83.003 78.5425 83.0806 78.6229C83.1581 78.7032 83.2645 78.7495 83.3761 78.7514C86.4645 78.8809 89.5866 78.6883 92.674 78.6188C95.5045 78.5556 98.9434 78.5283 101.812 78.2893C102.338 78.2462 102.178 77.4051 101.707 77.4178C98.8423 77.4967 95.3645 77.4872 92.5487 77.5672C89.5056 77.6567 86.4266 77.6283 83.3909 77.9093ZM49.5911 82.8735C49.0111 82.884 49.1206 83.743 49.6784 83.7577C55.1437 83.903 60.6131 83.9093 66.0805 83.9419C71.3867 83.9735 77.133 84.0872 82.4624 83.9356C82.9824 83.9209 83.0298 83.0072 82.4909 83.0061C77.1341 82.9946 71.4215 82.8619 66.1131 82.843C60.6068 82.824 55.0974 82.7788 49.5911 82.8735ZM98.4729 83.8503C98.8802 83.8609 99.0129 83.1314 98.5876 83.0082C97.4802 82.6998 87.9077 82.8535 86.934 82.9946C86.4298 83.0672 86.3887 83.8977 86.934 83.924C90.235 84.0914 94.9655 83.7598 98.4729 83.8503ZM50.8195 89.3924C53.3616 89.5335 55.9226 89.5419 58.4679 89.5714C60.6615 89.5966 63.6994 89.525 65.9699 89.5829C66.5352 89.5966 66.4594 88.7093 65.9373 88.6303C63.3907 88.4384 60.835 88.3976 58.2837 88.5082C55.79 88.4956 53.2837 88.4598 50.7911 88.5514C50.309 88.5735 50.3448 89.3703 50.8195 89.3924ZM97.6718 89.2724C98.1613 89.2724 98.1676 88.4619 97.6518 88.3924C94.7118 87.9956 89.0908 88.3766 85.7772 88.405C81.8081 88.4394 77.8393 88.471 73.8709 88.4998C73.3446 88.4998 73.2246 89.285 73.7762 89.3345C77.7625 89.6924 81.793 89.5187 85.793 89.5229C88.3803 89.5293 94.5982 89.2787 97.6718 89.2766V89.2724ZM97.8308 92.8998C95.6329 92.9292 93.4424 92.9619 91.2477 93.0777C90.7582 93.1029 90.7403 93.9334 91.2392 93.9461C93.3961 94.0061 95.5466 93.9903 97.7055 93.9661C99.656 93.944 102.232 93.6766 104.293 93.8292C104.819 93.8682 104.853 92.9471 104.302 92.8819C102.146 92.7657 99.9858 92.7731 97.8308 92.904V92.8998ZM86.7456 98.9376C89.2628 99.0774 91.7863 99.0598 94.3013 98.885C96.3718 98.8355 100.03 99.0302 101.932 98.5313C102.501 98.3829 102.227 97.6271 101.737 97.6029C99.6129 97.4976 96.5245 97.7366 94.2234 97.8134C91.7319 97.8955 89.2919 98.0387 86.8003 98.0608C86.3066 98.0629 86.2445 98.886 86.7456 98.9376ZM72.8172 103.546C69.4215 103.133 62.7215 103.4 59.0815 103.37C54.5553 103.333 50.1911 103.432 45.6637 103.303C45.1206 103.287 45.0237 104.111 45.5774 104.152C50.1353 104.488 54.5447 104.392 59.1142 104.435C62.3057 104.466 69.772 104.992 72.8467 104.414C72.9494 104.394 73.0416 104.338 73.1067 104.257C73.1719 104.175 73.2057 104.072 73.2022 103.968C73.1986 103.863 73.1579 103.763 73.0874 103.686C73.0168 103.609 72.9211 103.559 72.8172 103.546ZM102.002 103.723C98.7213 103.325 93.7919 103.795 90.2592 103.78C86.7266 103.764 82.0414 103.531 78.6625 103.649C78.1109 103.668 78.2667 104.446 78.7172 104.534C81.8109 105.142 87.1445 105.002 90.4582 105.012C93.715 105.024 98.8581 104.703 102.059 104.628C102.588 104.615 102.512 103.785 101.999 103.723H102.002ZM52.5732 94.005C58.0668 94.1271 63.5636 94.0819 69.0573 94.0713C74.3583 94.0619 80.1698 94.2945 85.4014 93.9576C85.9519 93.9219 85.8856 92.9766 85.3487 92.9955C80.0046 93.1913 74.2962 92.9682 69.0015 92.9955C63.5489 93.0187 58.0921 93.0092 52.6416 93.164C52.1047 93.1745 52.0195 93.9924 52.5732 94.005ZM77.9309 97.8187C74.912 97.4903 68.7731 97.7787 65.5099 97.7955C61.3257 97.8176 57.1563 97.946 52.9732 97.9008C52.5005 97.9008 52.4468 98.7018 52.9258 98.7429C57.0468 99.0692 61.1763 98.8618 65.3089 98.8734C68.0331 98.8818 75.0983 98.8808 77.8741 98.7745C78.3688 98.7608 78.5256 97.8829 77.9309 97.8187ZM117.555 123.862C116.817 125.114 116.143 126.403 115.537 127.724C114.17 130.946 113.079 134.279 112.274 137.686C112.139 138.189 111.362 138.002 111.402 137.505C111.566 135.682 111.926 133.882 112.476 132.136C108.455 130.712 103.213 130.694 98.8897 130.922C96.4981 131.926 92.9434 138.314 94.2687 143.537C98.8918 147.509 109.455 152.648 119.884 152.752C121.216 152.605 122.531 152.335 123.813 151.946C128.392 150.578 132.383 147.718 135.149 143.822C137.859 139.895 139.281 135.223 139.219 130.453C139.219 130.339 139.264 130.23 139.345 130.15C139.425 130.069 139.535 130.024 139.648 130.024C139.762 130.024 139.872 130.069 139.952 130.15C140.033 130.23 140.078 130.339 140.078 130.453C140.303 133.314 139.939 136.191 139.009 138.907C137.442 143.657 134.297 147.728 130.097 150.445C127.986 151.81 125.661 152.813 123.219 153.41C122.628 156.395 122.231 159.416 122.03 162.453C124.561 164.242 136.007 164.722 138.318 162.935C146.69 156.455 157.461 128.254 157.461 106.529C136.189 105.76 124.016 114.364 117.555 123.862Z" fill="#F50050"/>
</svg>
