<svg width="240" height="241" viewBox="0 0 240 241" fill="none" xmlns="http://www.w3.org/2000/svg">
<g clip-path="url(#clip0_3223_77308)">
<path fill-rule="evenodd" clip-rule="evenodd" d="M126.328 213.759C97.817 200.505 81.5891 179.2 71.7592 162.782C71.618 162.715 71.4523 162.637 71.2648 162.549C68.6025 161.299 61.5367 157.981 57.7406 154.9C70.0981 184.993 99.2027 213.248 127.654 226.5C156.956 206.279 178.286 166.207 186.078 135.989C183.078 138.366 179.399 139.72 175.579 139.852C167.794 165.228 153.139 193.205 126.328 213.759ZM51.4753 57.2946C50.9536 66.8265 53.5027 103.484 56.8905 117.131C54.3009 119.969 51.9766 123.04 49.9469 126.305C44.951 113.348 40.1258 79.6692 41.4912 52.8696C62.6505 38.9253 104.301 20.2481 117.017 16.5C132.932 20.5751 169.033 35.7831 194.054 48.6956C195.252 56.9232 194.054 90.4281 189.586 111.554C188.522 105.815 185.886 98.6329 183.206 91.8262C184.431 79.3876 184.882 66.8843 184.555 54.3894C170.776 45.8715 127.839 29.9283 117.16 27.0409C107.422 30.2693 67.0324 47.0909 51.4753 57.2946ZM18.4472 188.552C17.6426 189.001 16.6775 187.754 17.4556 187.207C17.9947 186.836 19.1018 186.031 20.5317 184.991C25.9003 181.087 35.82 173.874 37.3202 173.874C38.1867 173.578 38.5884 174.735 38.1059 175.299C36.7833 176.797 19.6624 187.817 18.4472 188.552ZM192.962 171.16C197.234 172.295 214.627 181.109 217.92 183.836H217.915C218.484 184.307 217.924 185.458 217.178 185.184C212.972 183.677 205.301 179.523 198.957 176.087C196.475 174.743 194.197 173.509 192.408 172.586C192.244 172.496 192.119 172.349 192.055 172.173C191.992 171.997 191.994 171.804 192.062 171.629C192.13 171.455 192.258 171.311 192.424 171.225C192.59 171.138 192.781 171.116 192.962 171.16ZM208.315 131.138C213.068 130.68 234.207 130.313 239.448 131.334H239.443C240.379 131.512 240.014 132.76 239.242 132.859C232.907 133.594 219.858 133.241 211.418 133.013C210.293 132.983 209.249 132.954 208.315 132.931C208.084 132.923 207.865 132.824 207.704 132.657C207.544 132.49 207.454 132.267 207.454 132.035C207.454 131.802 207.544 131.579 207.704 131.412C207.865 131.245 208.084 131.146 208.315 131.138ZM208.421 96.2106C207.609 96.5883 207.215 95.4944 207.609 94.9557H207.604C209.188 92.7527 229.723 77.1658 231.566 77.1658C231.72 77.1248 231.883 77.1337 232.032 77.1912C232.181 77.2486 232.308 77.3518 232.395 77.4859C232.482 77.62 232.525 77.7783 232.517 77.9381C232.509 78.098 232.451 78.2513 232.352 78.3763C230.967 79.91 211.548 94.6959 208.421 96.2106ZM11.5036 82.9217C15.0518 84.5454 28.9555 91.4497 32.2978 93.8086C32.4791 93.9567 32.6025 94.1642 32.6462 94.3946C32.69 94.625 32.6513 94.8636 32.5371 95.0682C32.4228 95.2728 32.2403 95.4304 32.0216 95.5132C31.8029 95.5961 31.5621 95.5989 31.3416 95.5211C27.0181 93.5892 22.1508 90.7889 17.4989 88.1127C15.2194 86.8012 12.9916 85.5196 10.9049 84.3844C10.0383 83.9091 10.5575 82.4831 11.5036 82.9217ZM0.558294 130.384C5.46316 129.685 18.6089 128.447 27.83 129.263C28.5462 129.263 28.3959 130.567 27.6683 130.761C27.1694 130.896 2.79157 131.873 0.762927 131.873C-0.0732879 131.882 -0.336026 130.5 0.558294 130.384Z" fill="#F50050"/>
<path fill-rule="evenodd" clip-rule="evenodd" d="M111.256 84.896C114.526 85.3079 116.243 83.631 118.244 81.4343L118.289 81.4698C118.709 81.0135 119.612 81.3899 119.415 82.044C118.378 85.5411 113.678 87.2447 110.337 86.5273C110.399 89.1993 110.165 91.8699 109.639 94.49C109.595 94.6404 109.5 94.7703 109.369 94.8567C109.239 94.9432 109.082 94.9806 108.927 94.9624C108.772 94.9442 108.628 94.8715 108.522 94.7572C108.415 94.6429 108.352 94.4944 108.343 94.3379C108.36 94.0075 108.42 93.4125 108.498 92.6445L108.498 92.6442C108.667 90.9722 108.92 88.4804 108.986 86.1153C105.663 84.7705 103.244 81.3709 102.016 77.946C100.788 74.5211 98.0485 63.3123 98.3882 59.3487C98.4426 58.7035 99.64 58.668 99.64 59.2866C99.9735 62.8441 100.571 66.3718 101.427 69.8401C102.597 75.1752 104.643 84.053 111.256 84.896ZM114.694 53.2607C115.134 56.2014 116.084 61.9243 119.308 65.3923V65.3669C119.376 65.4539 119.465 65.5221 119.567 65.5651C119.668 65.6081 119.779 65.6246 119.889 65.613C119.999 65.6013 120.104 65.5619 120.194 65.4985C120.285 65.4351 120.358 65.3497 120.406 65.2503C123.508 58.4627 127.449 67.1517 122.354 71.3662C121.894 71.8253 121.931 72.1013 122.178 73.963C122.501 76.3879 123.182 81.5034 123.588 93.2187C123.624 94.1148 125.17 94.1148 125.17 93.2187C125.176 86.3345 124.578 79.4632 123.382 72.6845C124.864 71.5884 125.902 69.9934 126.308 68.1917C126.713 66.39 126.458 64.5021 125.589 62.8737C129.065 61.0206 128.199 54.7234 125.196 54.1758C129.048 50.9309 123.615 42.555 119.737 46.9217C118.941 41.3699 111.998 41.1734 110.425 45.0204C108.907 40.0427 97.9512 42.6171 99.0767 49.5746C91.2311 48.392 90.784 57.2952 96.8156 57.2952C100.8 57.2952 106.332 56.0315 114.694 53.2607ZM107.441 75.4718C108.236 78.7268 119.174 81.2188 116.582 68.8628C116.45 68.2341 115.385 68.0085 115.09 68.6347C114.563 70.1505 113.659 71.5059 112.462 72.5717C111.218 73.6023 109.704 74.251 108.102 74.44C107.902 74.5268 107.733 74.6712 107.615 74.855C107.497 75.0387 107.437 75.2534 107.441 75.4718ZM111.736 68.9536C111.619 68.9285 111.499 68.9374 111.387 68.9794H111.405C111.386 68.9846 111.311 69.0383 111.194 69.1229C110.506 69.6178 108.348 71.1725 107.081 70.3066C106.509 69.9212 105.794 69.9124 105.928 70.593C106.347 72.7821 111.567 71.4904 112.183 69.778C112.225 69.6665 112.234 69.5452 112.209 69.4287C112.184 69.3122 112.126 69.2055 112.042 69.1212C111.958 69.0369 111.852 68.9787 111.736 68.9536ZM100.899 62.5784C100.838 63.4301 101.739 63.7889 102.195 62.8116C102.667 62.1611 103.233 61.5855 103.875 61.1042C105.497 60.0053 104.179 59.1535 103.097 59.5832C102.547 59.9063 102.069 60.3386 101.691 60.8536C101.313 61.3685 101.044 61.9554 100.899 62.5784ZM109.639 58.8391C110.733 58.8935 111.782 59.2882 112.642 59.9685V59.9672C114.001 60.3804 113.758 59.3972 113.676 59.0674C113.665 59.0218 113.657 58.9887 113.656 58.9735C113.294 57.8885 110.819 56.7236 109.361 57.1799C109.153 57.2287 108.972 57.3551 108.853 57.5336C108.735 57.712 108.689 57.929 108.724 58.1404C108.76 58.3518 108.874 58.5417 109.044 58.6715C109.214 58.8013 109.427 58.8613 109.639 58.8391ZM111.337 63.0651C112.785 62.643 112.726 65.2706 111.89 65.3872C111.054 65.5038 110.479 63.3186 111.337 63.0651ZM104.539 67.2391C105.262 66.9945 105.387 64.2439 104.084 64.4594V64.4771C103.181 64.6292 103.351 67.6194 104.539 67.2391ZM146.445 59.1715C146.472 54.8314 153.262 53.3066 154.683 58.9915L154.706 58.9966C155.286 58.7437 155.883 58.5319 156.493 58.3628C156.208 57.2098 155.995 56.2325 155.807 55.3681L155.807 55.3678C155.009 51.7081 154.652 50.0703 151.132 45.6747C150.659 45.0777 151.507 44.1499 152.078 44.6974C155.577 48.2953 157.709 53.0101 158.102 58.0218L160.25 57.8076C160.339 54.0684 159.545 48.9298 157.363 45.8357C157.29 45.7105 157.261 45.5646 157.279 45.4208C157.298 45.277 157.363 45.1434 157.466 45.0409C157.568 44.9384 157.701 44.8729 157.844 44.8545C157.988 44.8362 158.133 44.8661 158.258 44.9395C161.09 46.8763 161.912 54.8657 161.833 57.8076L163.995 58.0041C164.571 54.9583 164.446 51.8205 163.627 48.8309C163.404 48.0247 164.584 47.5849 164.862 48.3923C166.083 51.8482 166.285 55.5844 165.443 59.1525C165.539 60.1108 165.621 61.0866 165.702 62.0526C165.974 65.2893 166.237 68.4163 166.987 70.4057C167.283 71.1764 165.263 72.0903 164.737 68.4144C164.464 66.5338 164.329 64.6409 164.193 62.7465L164.193 62.746L164.193 62.7456C164.124 61.7777 164.055 60.8093 163.967 59.842C160.971 59.1376 157.836 59.3087 154.933 60.3351C155.796 66.5866 153.619 66.1658 153.522 65.1518C153.471 64.6182 153.459 63.9672 153.445 63.2684C153.405 61.1371 153.356 58.5617 152.172 57.5212C151.795 57.1972 151.338 56.9816 150.849 56.8974C150.36 56.8132 149.858 56.8634 149.395 57.0428C148.932 57.2222 148.527 57.5241 148.221 57.9163C147.915 58.3085 147.722 58.7764 147.66 59.2704C147.626 59.4146 147.542 59.5419 147.423 59.6291C147.303 59.7164 147.157 59.7578 147.01 59.7458C146.863 59.7339 146.725 59.6693 146.621 59.5639C146.517 59.4585 146.455 59.3193 146.445 59.1715ZM155.711 75.2452C156.273 76.1413 157.751 75.249 157.168 74.3478C156.74 73.6871 156.403 73.1177 156.107 72.6192L156.107 72.6182L156.107 72.6179C154.924 70.6211 154.414 69.7609 151.476 68.7174C149.199 67.8669 148.562 65.3846 148 63.1973C147.905 62.8257 147.812 62.4625 147.713 62.1173C147.419 61.0411 145.14 61.3555 147.373 66.6006C148.553 69.3714 150.102 69.9091 151.378 70.3519C152.085 70.597 152.707 70.8131 153.137 71.3627C153.714 72.0822 154.206 72.8763 154.702 73.6767L154.702 73.677L154.702 73.6771C155.028 74.2036 155.356 74.7328 155.711 75.2452ZM98.6622 164.46C96.7778 163.8 95.0498 162.756 93.5868 161.394C92.9503 160.784 92.4823 160.019 92.2286 159.173C91.9748 158.327 91.9441 157.43 92.1393 156.569C92.1834 156.382 92.1571 156.185 92.0654 156.016C91.9738 155.847 91.8232 155.718 91.6425 155.654C91.4619 155.589 91.264 155.594 91.0866 155.667C90.9093 155.74 90.765 155.876 90.6816 156.05C90.3426 157.127 90.2939 158.275 90.5404 159.378C90.7869 160.48 91.3198 161.498 92.0849 162.326C93.7763 164.02 95.8256 165.31 98.0812 166.101C98.285 166.129 98.4921 166.085 98.6675 165.977C98.8429 165.869 98.9759 165.704 99.0442 165.509C99.1124 165.315 99.1117 165.102 99.0421 164.908C98.9725 164.714 98.8384 164.55 98.6622 164.443V164.46ZM97.2854 177.906C97.4198 177.963 97.5344 178.058 97.615 178.18C97.6957 178.303 97.7386 178.446 97.7386 178.592C97.7386 178.739 97.6957 178.882 97.615 179.004C97.5344 179.126 97.4198 179.221 97.2854 179.279C93.2016 180.673 80.5131 174.347 87.8496 159.363C87.931 159.215 88.0639 159.102 88.2229 159.046C88.3818 158.99 88.5559 158.994 88.7118 159.058C88.8678 159.122 88.9948 159.242 89.0688 159.394C89.1427 159.546 89.1583 159.72 89.1127 159.883C86.8706 165.783 85.735 172.831 92.1784 176.472C93.836 177.418 94.9084 177.54 95.8674 177.649C96.3488 177.704 96.8016 177.755 97.2854 177.906ZM99.4214 173.799C97.8565 173.938 96.2837 173.643 94.874 172.947C93.0357 172.049 92.2003 170.965 91.6487 170.249C91.177 169.637 90.9128 169.294 90.4062 169.567C88.4142 170.607 94.874 176.538 99.602 175.368C99.8063 175.316 99.9815 175.184 100.089 175.003C100.197 174.821 100.228 174.604 100.177 174.398C100.131 174.231 100.033 174.083 99.8969 173.976C99.7609 173.869 99.5942 173.809 99.4214 173.804V173.799ZM99.4934 169.136C100.101 169.603 99.6361 170.53 98.7153 170.507C97.2073 170.352 95.7507 169.871 94.4456 169.097C93.1406 168.323 92.018 167.275 91.1553 166.024C91.0368 165.861 90.9878 165.657 91.0189 165.458C91.0501 165.259 91.1589 165.08 91.3214 164.961C91.4838 164.842 91.6867 164.793 91.8853 164.824C92.084 164.855 92.2621 164.965 92.3805 165.128C94.4551 167.976 96.6791 168.45 98.1459 168.762C98.7386 168.888 99.2077 168.988 99.4934 169.208V169.136ZM110.007 98.1029C112.267 99.1152 114.734 99.5748 117.205 99.4439L117.172 99.4261C123.729 98.9689 127.15 95.0128 128.907 92.9808C129.527 92.2641 129.94 91.7867 130.211 91.7867C135.286 92.0022 156.83 100.135 161.342 103.058C159.86 94.6057 157.214 87.2755 154.194 79.2684C154.128 79.0898 154.119 78.8945 154.171 78.7108C154.222 78.5272 154.33 78.3646 154.48 78.2468C157.813 75.9956 163.952 73.799 168.34 72.4896C168.581 72.4192 168.782 72.3539 168.953 72.2983C169.915 71.9856 169.932 71.9801 170.69 73.0993C179.542 86.1701 185.725 100.872 188.879 116.355C192.419 136.307 176.932 140.45 161.402 134.29C157.674 132.8 154.011 131.21 150.323 129.609C149.882 129.418 149.441 129.226 148.999 129.035C149.96 138.668 149.208 154.703 148.787 163.682C148.652 166.554 148.552 168.704 148.552 169.691C148.561 170.175 148.472 171 147.9 171.234C134.47 176.739 114.676 176.954 103.953 173.923C103.109 173.681 103.541 172.471 104.372 172.641C118.531 175.731 133.274 174.705 146.872 169.682C147.727 157.514 147.79 142.449 147.503 128.434L147.401 128.391C144.191 127.034 140.977 125.675 137.853 124.157C137.03 123.759 137.424 122.441 138.318 122.763C145.904 125.525 154.25 128.914 161.66 132.376C175.529 138.868 190.577 135.03 186.923 116.594C183.768 101.448 177.885 87.0068 169.563 73.9802C164.852 75.4328 160.26 77.2495 155.829 79.4142C159.68 86.8483 161.824 95.4397 163.254 103.679C163.841 107.085 164.568 109.996 165.317 112.997C165.686 114.475 166.061 115.976 166.427 117.568C166.561 118.178 165.64 118.671 165.275 118.116C163.343 115.119 162.584 110.405 161.956 106.508C161.869 105.969 161.785 105.445 161.7 104.944C151.878 100.101 141.594 96.2649 131.005 93.4928C124.903 101.447 112.509 105.437 103.572 95.1152C103.197 95.1637 102.776 95.2113 102.31 95.264C94.8262 96.1096 75.842 98.2548 55.1306 126.297C46.4627 138.052 49.2063 143.387 60.3752 151.171C67.8799 156.211 75.8506 160.513 84.177 164.02C84.8478 164.307 84.3918 165.409 83.7033 165.204C74.0853 161.993 65.0565 157.222 56.976 151.081C45.6278 142.715 46.253 135.12 54.2956 124.36C66.0595 108.686 82.828 94.7324 103.126 93.4421C103.148 93.4403 103.171 93.4384 103.194 93.4365C103.538 93.4077 103.998 93.3691 104.207 93.6208C105.76 95.5544 107.748 97.0905 110.007 98.1029ZM83.9421 123.051C79.9656 124.548 71.8523 130.914 69.9753 133.811C69.3967 133.161 68.8384 132.493 68.294 131.826C68.1649 131.689 67.9892 131.607 67.8022 131.596C67.6152 131.584 67.4307 131.644 67.2859 131.763C67.1411 131.882 67.0467 132.052 67.0216 132.239C66.9965 132.425 67.0427 132.614 67.1508 132.768C72.8426 140.013 82.1623 149.859 89.8751 154.745C90.0622 154.823 90.2702 154.835 90.4649 154.779C90.6596 154.723 90.8296 154.602 90.9469 154.437C91.0644 154.271 91.1222 154.07 91.1111 153.867C91.0999 153.664 91.0205 153.471 90.8857 153.319C89.51 152.143 88.1849 151.029 86.8957 149.945C81.3468 145.278 76.4645 141.173 71.0831 135.09C74.7617 130.834 79.2526 127.362 84.2907 124.877C85.1119 128.902 86.7385 133.716 88.4487 138.778C90.7501 145.589 93.203 152.849 94.0486 159.238C94.1472 159.973 95.452 160.081 95.452 159.184C95.7091 154.348 93.1196 146.65 90.4188 138.621C87.9571 131.302 85.4028 123.709 84.8275 117.757C84.7379 116.756 83.2638 117.042 83.3256 118.011C83.4458 119.7 83.6515 121.382 83.9421 123.051ZM94.0512 188.891C93.9489 187.131 93.9489 185.368 94.0512 183.609H94.0247C94.1409 181.152 95.9459 180.336 95.812 182.946C95.7051 184.905 95.5531 186.857 95.356 188.801C95.2853 189.491 94.1143 189.679 94.0512 188.891ZM151.265 181.193C151.22 181.061 151.178 180.938 151.146 180.829L151.144 180.82C150.48 178.105 149.639 175.436 148.626 172.831C148.539 172.681 148.403 172.566 148.241 172.506C148.079 172.446 147.901 172.445 147.738 172.502C147.575 172.559 147.437 172.672 147.348 172.82C147.259 172.969 147.224 173.144 147.249 173.315C147.791 176.048 148.504 178.743 149.385 181.385C149.407 181.463 149.43 181.549 149.454 181.642C149.657 182.423 149.975 183.642 150.949 183.304C151.876 182.983 151.521 181.944 151.265 181.193Z" fill="#4D4D4D"/>
</g>
<defs>
<clipPath id="clip0_3223_77308">
<rect width="240" height="240" fill="white" transform="translate(0 0.5)"/>
</clipPath>
</defs>
</svg>
