<svg width="136" height="32" viewBox="0 0 136 32" fill="none" xmlns="http://www.w3.org/2000/svg">
<path fill-rule="evenodd" clip-rule="evenodd" d="M19.2276 0.700195L20.8546 0.716284H21.2136C27.4463 0.716284 32.5169 5.76518 32.5169 11.9718C32.5169 18.1784 27.4463 23.2273 21.2136 23.2273H10.6764L9.13152 28.8235C8.9092 29.6756 7.965 31.3002 5.99968 31.3002H0.753878C0.59134 31.3002 0.43785 31.2252 0.338001 31.0978C0.238152 30.9701 0.20293 30.8037 0.243322 30.647L4.15748 15.2519C4.21629 15.019 4.42697 14.8558 4.66803 14.8558H21.2136C22.7731 14.8558 24.0372 13.5971 24.0372 12.0442C24.0372 10.4913 22.7731 9.23225 21.2136 9.23225L6.4595 9.20458C2.29395 9.20458 0 7.42197 0 4.18464V1.23305C0 0.938627 0.239444 0.700195 0.534791 0.700195H19.2276ZM130.336 13.3057L130.575 13.3153C131.45 13.3693 132.334 13.788 132.9 14.4708L132.902 14.4589C132.963 14.1268 133.057 13.6509 133.057 13.6509C133.078 13.547 133.17 13.4717 133.276 13.4717H135.778C135.844 13.4717 135.907 13.5013 135.949 13.5524C135.991 13.6033 136.009 13.6702 135.996 13.7352L134.074 23.3481C134.054 23.4523 133.962 23.527 133.856 23.527L131.358 23.5286C131.292 23.5286 131.23 23.4996 131.188 23.4497C131.146 23.3999 131.127 23.3339 131.14 23.2696C131.182 23.0462 131.246 22.7238 131.297 22.478C130.319 23.3069 129.243 23.6747 128.007 23.6167C125.707 23.5086 124.198 21.9664 124.174 19.6661C124.148 17.0227 125.788 14.6117 128.251 13.6779C128.999 13.3938 129.775 13.2657 130.575 13.3153L130.336 13.3057ZM128.018 9.56586C128.112 9.56586 128.197 9.61831 128.239 9.70165C128.281 9.78466 128.273 9.88441 128.217 9.95906L121.603 18.4776L120.705 23.0557C120.64 23.3849 120.35 23.6227 120.013 23.6227H117.445C117.37 23.6227 117.3 23.5899 117.254 23.5329C117.207 23.4766 117.187 23.4016 117.201 23.3296L118.211 18.3946L114.845 9.90211C114.818 9.82714 114.83 9.74348 114.876 9.67816C114.923 9.61348 114.998 9.57422 115.078 9.57422H118.253C118.364 9.57422 118.46 9.64662 118.491 9.75184C118.491 9.75184 120.261 14.7888 120.329 15.2502C120.581 14.7631 124.184 9.67494 124.184 9.67494C124.23 9.60672 124.307 9.56586 124.389 9.56586H128.018ZM100.775 12.8921C103.884 12.8921 105.894 14.7783 105.894 17.6977C105.894 21.1098 103.363 23.5861 99.8762 23.5861C96.766 23.5861 94.7568 21.6999 94.7568 18.7805C94.7568 15.3684 97.2876 12.8921 100.775 12.8921ZM94.9607 9.30027C95.0288 9.30027 95.0935 9.33084 95.1365 9.38297C95.1801 9.43541 95.1979 9.50427 95.1849 9.57056L92.4628 23.0904C92.4415 23.1972 92.3478 23.2738 92.2386 23.2738L89.6748 23.2757C89.6076 23.2757 89.5436 23.2458 89.5003 23.1946C89.457 23.1435 89.4376 23.0756 89.4502 23.0096C89.5064 22.7136 89.5572 22.4568 89.6108 22.2126C88.8078 23.0987 87.7331 23.5862 86.5084 23.5862C83.9588 23.5862 82.2462 21.6797 82.2462 18.8427C82.2462 15.3946 84.5133 12.8919 87.6374 12.8919C89.2066 12.8919 90.4684 13.5888 91.1144 14.7211C91.1764 14.3801 92.1684 9.48432 92.1684 9.48432C92.1891 9.37782 92.2832 9.30027 92.3924 9.30027H94.9607ZM76.914 9.30027C76.9822 9.30027 77.0468 9.33084 77.0901 9.38297C77.1334 9.43541 77.1509 9.50427 77.1379 9.57056L74.4158 23.0904C74.3951 23.1972 74.3011 23.2738 74.1919 23.2738L71.6281 23.2757C71.5609 23.2757 71.4966 23.2458 71.4533 23.1946C71.4103 23.1435 71.3909 23.0756 71.4035 23.0096C71.4601 22.7136 71.5105 22.4568 71.5638 22.2126C70.7612 23.0987 69.6864 23.5862 68.4617 23.5862C65.9125 23.5862 64.1995 21.6797 64.1995 18.8427C64.1995 15.3946 66.4667 12.8919 69.5908 12.8919C71.1599 12.8919 72.4218 13.5888 73.0677 14.7211C73.078 14.6643 73.1142 14.4809 73.1673 14.2148L73.2167 13.9674C73.5092 12.5067 74.1214 9.48432 74.1214 9.48432C74.1424 9.37782 74.2365 9.30027 74.3457 9.30027H76.914ZM58.3583 12.8818C61.2452 12.8818 63.0386 14.4762 63.0386 17.0423C63.0386 17.6018 62.9446 18.1331 62.7824 18.8609C62.7594 18.9649 62.6667 19.0382 62.5601 19.0382L55.3677 19.0614C55.3864 20.2252 56.2405 20.8948 57.7104 20.8948C58.4291 20.8948 59.0799 20.7311 59.7698 20.3655C59.8557 20.3202 59.9624 20.3333 60.0299 20.4032L61.6071 22.0262C61.7021 22.1237 61.685 22.2871 61.5713 22.3624C60.3043 23.2045 59.1019 23.5758 57.6477 23.5758C54.4387 23.5758 52.4449 21.7424 52.4449 18.7908C52.4449 15.3665 54.9321 12.8818 58.3583 12.8818ZM110.393 12.9059C111.652 12.7959 113.026 13.0591 114.365 13.6675C114.478 13.7187 114.529 13.8513 114.478 13.9642L113.59 15.9511C113.565 16.0071 113.519 16.0502 113.461 16.0711C113.404 16.0924 113.34 16.0895 113.285 16.0631C112.385 15.6342 111.466 15.4231 110.766 15.4842C110.061 15.546 110.089 15.8729 110.099 15.9801C110.116 16.1728 110.154 16.2751 110.893 16.6774L112.151 17.3103C113.501 17.9899 114.096 18.7689 114.204 20.0006C114.384 22.0409 113.078 23.3345 110.621 23.5491C108.982 23.6919 107.381 23.2688 105.993 22.3247C105.896 22.2585 105.865 22.1294 105.923 22.0271L107.042 20.0617C107.072 20.0083 107.123 19.9697 107.183 19.9546C107.241 19.9401 107.306 19.9488 107.358 19.981C108.496 20.6805 109.559 21.0097 110.432 20.9334C110.719 20.9086 111.194 20.8047 111.158 20.3912C111.142 20.2104 111.088 20.0695 110.518 19.7647L109.122 19.0369C107.856 18.3686 107.192 17.4818 107.09 16.326C106.921 14.4089 108.187 13.0983 110.393 12.9059ZM81.1192 13.9927C81.1893 13.9927 81.2562 14.0207 81.3008 14.069C81.334 14.1052 81.3526 14.1499 81.3543 14.1958L81.3502 14.2418L79.5562 23.1046C79.5376 23.189 79.4637 23.2531 79.372 23.2697L79.3248 23.2739H76.6718C76.6017 23.2739 76.5348 23.2459 76.4906 23.1976C76.4569 23.1617 76.4381 23.1168 76.4364 23.0707L76.4405 23.0245L78.2352 14.1617C78.254 14.0778 78.3277 14.0136 78.4194 13.997L78.4665 13.9927H81.1192ZM47.2727 9.3003C50.3738 9.3003 52.2251 10.9056 52.2251 13.594C52.2251 16.6618 50.0003 18.5676 46.4189 18.5676C46.4189 18.5676 43.4164 18.5476 43.2991 18.5476C43.2852 18.6155 42.7866 21.2724 42.5164 22.4694C42.3516 23.1979 41.6301 23.1889 41.6301 23.1889L40.3081 23.1979H39.254C39.1842 23.1979 39.1183 23.1667 39.074 23.1132C39.0304 23.0598 39.0055 22.9894 39.0191 22.9215L41.7186 9.48822C41.7399 9.37881 41.8359 9.3003 41.9477 9.3003H47.2727ZM130.287 16.0934C129.934 16.0934 129.597 16.1671 129.284 16.3126C128.968 16.4603 128.689 16.6614 128.453 16.9101C128.215 17.1614 128.02 17.4594 127.875 17.7963C127.729 18.1338 127.644 18.4964 127.624 18.8745C127.608 19.1873 127.641 19.4743 127.724 19.7272C127.804 19.9753 127.928 20.1899 128.09 20.3637C128.253 20.5377 128.452 20.6732 128.68 20.7665C129.172 20.9663 129.842 20.9528 130.382 20.7289C130.671 20.6092 130.933 20.4409 131.16 20.2285C131.39 20.0139 131.586 19.7578 131.745 19.4666C131.903 19.1754 132.015 18.851 132.076 18.5035C132.137 18.1348 132.137 17.7959 132.075 17.4989C132.013 17.2071 131.9 16.9542 131.738 16.747C131.577 16.541 131.371 16.3789 131.126 16.2656C130.879 16.151 130.597 16.0934 130.287 16.0934ZM88.3768 15.709C88.0064 15.709 87.6529 15.7865 87.3256 15.939C86.9947 16.0938 86.7013 16.3042 86.4544 16.5652C86.2046 16.8281 86.0011 17.1405 85.8485 17.4932C85.6954 17.8468 85.6075 18.2271 85.5865 18.6232C85.5693 18.9511 85.6042 19.2513 85.6905 19.5165C85.7749 19.7768 85.9044 20.0014 86.0747 20.1838C86.2453 20.3659 86.4534 20.5078 86.6932 20.6053C87.2083 20.8151 87.9098 20.801 88.476 20.5661C88.7787 20.4406 89.0527 20.2646 89.2906 20.0419C89.5313 19.817 89.7375 19.5486 89.9036 19.2436C90.0697 18.9386 90.1866 18.5988 90.2506 18.2345C90.3156 17.8478 90.3153 17.4929 90.2497 17.182C90.185 16.8757 90.0664 16.6109 89.8968 16.3937C89.7284 16.1781 89.5123 16.0085 89.2554 15.8895C88.9965 15.7698 88.7009 15.709 88.3768 15.709ZM70.2861 15.709C69.9161 15.709 69.5623 15.7865 69.2353 15.939C68.9041 16.0938 68.611 16.3042 68.3641 16.5652C68.1143 16.8281 67.9108 17.1405 67.7582 17.4932C67.6051 17.8468 67.5169 18.2271 67.4958 18.6232C67.479 18.9511 67.5136 19.2513 67.6002 19.5165C67.6846 19.7768 67.8141 20.0014 67.9844 20.1838C68.1547 20.3659 68.3632 20.5078 68.6026 20.6053C69.118 20.8151 69.8195 20.801 70.3857 20.5661C70.6884 20.4406 70.9625 20.2646 71.2003 20.0419C71.441 19.817 71.6472 19.5486 71.8133 19.2436C71.9794 18.9386 72.0964 18.5988 72.1603 18.2345C72.225 17.8478 72.225 17.4929 72.1594 17.182C72.0947 16.8757 71.9762 16.6109 71.8065 16.3937C71.6378 16.1781 71.422 16.0085 71.1647 15.8895C70.9059 15.7698 70.6106 15.709 70.2861 15.709ZM100.571 15.908C99.0668 15.908 97.9742 17.0368 97.9742 18.5916C97.9742 19.8304 98.7614 20.5702 100.08 20.5702C101.584 20.5702 102.676 19.4414 102.676 17.8866C102.676 16.6478 101.889 15.908 100.571 15.908ZM58.2966 15.1258C57.0209 15.1258 56.1642 15.7114 55.6895 16.8441L55.7714 16.8442C55.7918 16.8442 55.8153 16.8443 55.8417 16.8443L56.0344 16.8447C56.896 16.8466 59.0942 16.8519 59.9484 16.8537L60.2581 16.8543L60.2874 16.8544C60.2471 15.7143 59.595 15.1258 58.2966 15.1258ZM44.5842 12.1663C44.5688 12.2634 44.238 13.9029 44.0351 14.9054L43.9811 15.1726C43.9229 15.4597 43.8837 15.653 43.8797 15.6717L43.9363 15.6715C44.3253 15.6698 46.5253 15.6585 46.5253 15.6585C48.0059 15.6585 48.8551 14.9525 48.8551 13.7214C48.8551 12.7329 48.2101 12.1885 47.0381 12.1885C47.0381 12.1885 44.7134 12.1721 44.5842 12.1663ZM80.7152 8.89407C81.7409 8.89407 82.3432 9.46971 82.3264 10.4341C82.3054 11.6442 81.44 12.5227 80.2687 12.5227C79.2427 12.5227 78.6404 11.9467 78.6572 10.9824C78.6785 9.77218 79.5442 8.89407 80.7152 8.89407Z" fill="#FA0050"/>
</svg>
