<svg width="695" height="26" viewBox="0 0 695 26" fill="none" xmlns="http://www.w3.org/2000/svg">
<path d="M113.963 1.81894C114.059 1.34254 114.478 1 114.964 1H184.91C185.555 1 186.039 1.59108 185.911 2.22361L181.473 24.1811C181.376 24.6575 180.958 25 180.472 25H122.073C115.459 25 110.502 18.9414 111.813 12.458L113.963 1.81894Z" fill="#FA0050"/>
<path d="M125.421 5.5957C127.995 5.5957 129.609 7.10719 129.609 9.23145C129.609 11.9889 127.362 13.8272 124.278 13.8272H121.827L121.255 17.851H118.293L120.009 5.5957H125.421ZM126.524 9.49698C126.524 8.59826 125.85 8.14889 124.87 8.14889H122.623L122.174 11.3149H124.441C125.585 11.3149 126.524 10.6817 126.524 9.49698Z" fill="white"/>
<path d="M137.178 17.851H135.156L134.89 16.8093H134.808C134.277 17.5446 133.379 18.0553 131.949 18.0553C130.213 18.0553 129.232 17.0544 129.232 15.7063C129.232 13.7455 130.662 12.52 133.562 12.52C134.196 12.52 134.686 12.6017 135.074 12.7038L135.115 12.4383C135.237 11.6008 134.563 11.3557 133.399 11.3557C132.214 11.3557 131.173 11.9276 131.173 11.9276L130.56 9.84421C130.56 9.84421 131.928 9.06804 134.359 9.06804C136.933 9.06804 138.199 10.4774 137.913 12.5608L137.178 17.851ZM134.849 14.1949C134.706 14.1336 134.4 14.011 133.726 14.011C132.684 14.011 132.031 14.4808 132.031 15.2366C132.031 15.788 132.46 16.1353 133.072 16.1353C133.889 16.1353 134.665 15.6246 134.768 14.828L134.849 14.1949Z" fill="white"/>
<path d="M145.097 11.7642H144.648C143.565 11.7642 142.748 12.4791 142.585 13.7046L141.993 17.851H139.051L140.256 9.2723H142.034L142.34 10.4366H142.462C143.055 9.63996 143.851 9.2723 144.995 9.2723H145.445L145.097 11.7642Z" fill="white"/>
<path d="M147.414 9.2723L147.781 6.65783H150.723L150.355 9.2723H152.275L151.948 11.5395H150.028L149.579 14.7872C149.518 15.257 149.701 15.5429 150.232 15.5429C150.661 15.5429 151.029 15.2978 151.029 15.2978L151.54 17.2995C150.968 17.708 149.967 18.0553 149.068 18.0553C146.964 18.0553 146.372 16.7072 146.617 14.9302L147.087 11.5395H145.678L146.004 9.2723H147.414Z" fill="white"/>
<path d="M153.9 9.2723H155.677L155.983 10.4366H156.126C156.964 9.45613 157.72 9.04762 159.027 9.04762C161.212 9.04762 162.397 10.4978 162.07 12.8059L161.355 17.851H158.414L159.088 13.0306C159.19 12.2544 158.761 11.6417 157.903 11.6417C157.107 11.6417 156.474 12.1931 156.331 12.9285L155.636 17.851H152.695L153.9 9.2723Z" fill="white"/>
<path d="M170.906 17.0544C170.906 17.0544 169.66 18.1166 167.434 18.1166C164.758 18.1166 163.308 16.3804 163.308 14.1744C163.308 11.2944 165.535 9.06804 168.374 9.06804C170.6 9.06804 171.907 10.4161 171.907 12.6425C171.907 13.3778 171.723 14.154 171.723 14.154H166.127C166.106 15.3183 166.74 15.8085 167.965 15.8085C169.211 15.8085 170.171 15.1549 170.171 15.1549L170.906 17.0544ZM167.986 11.1923C167.291 11.1923 166.699 11.6417 166.372 12.5608H169.129C169.211 11.7438 168.823 11.1923 167.986 11.1923Z" fill="white"/>
<path d="M178.708 11.7642H178.258C177.176 11.7642 176.359 12.4791 176.195 13.7046L175.603 17.851H172.662L173.867 9.2723H175.644L175.95 10.4366H176.073C176.665 9.63996 177.462 9.2723 178.606 9.2723H179.055L178.708 11.7642Z" fill="white"/>
<path fill-rule="evenodd" clip-rule="evenodd" d="M47.1002 3.44744C47.1184 2.39428 46.4634 1.76562 45.3481 1.76562C44.0746 1.76562 43.1332 2.7246 43.11 4.04623C43.0917 5.09938 43.7467 5.7284 44.8624 5.7284C46.1363 5.7284 47.0773 4.76907 47.1002 3.44744ZM8.97957 2.20947C12.352 2.20947 14.3652 3.96262 14.3652 6.8986C14.3652 10.2489 11.9458 12.3302 8.05116 12.3302C8.05116 12.3302 4.78593 12.3084 4.65837 12.3084C4.65639 12.3182 4.64534 12.3765 4.62698 12.4735L4.62697 12.4736L4.62668 12.4751L4.62655 12.4758L4.62654 12.4758C4.50426 13.1218 4.06221 15.4569 3.80727 16.5914C3.62805 17.3869 2.84337 17.3771 2.84337 17.3771L1.40578 17.3869H0.259503C0.1836 17.3869 0.111914 17.3528 0.0637719 17.2945C0.0163325 17.2362 -0.0107255 17.1592 0.00403336 17.0851L2.93965 2.41469C2.96285 2.29522 3.06721 2.20947 3.1888 2.20947H8.97957ZM41.213 2.20947C41.2872 2.20947 41.3574 2.24286 41.4045 2.29978C41.4516 2.35706 41.4706 2.43226 41.4565 2.50465L38.4963 17.2696C38.4738 17.3862 38.3716 17.4698 38.2528 17.4698L35.4648 17.472C35.3917 17.472 35.3217 17.4393 35.2746 17.3834C35.2279 17.3275 35.2068 17.2534 35.2205 17.1813C35.282 16.8581 35.3368 16.5776 35.3948 16.3109C34.5219 17.2787 33.3532 17.8111 32.0214 17.8111C29.2491 17.8111 27.3864 15.729 27.3864 12.6307C27.3864 8.86504 29.8518 6.13183 33.2492 6.13183C34.9556 6.13183 36.3278 6.89297 37.0303 8.12956C37.0977 7.75707 38.1762 2.41048 38.1762 2.41048C38.199 2.29416 38.3013 2.20947 38.4201 2.20947H41.213ZM61.0301 2.29978C60.9834 2.24286 60.9131 2.20947 60.839 2.20947H58.046C57.9273 2.20947 57.825 2.29416 57.8025 2.41048C57.8025 2.41048 56.7237 7.75707 56.6562 8.12956C55.9538 6.89297 54.5816 6.13183 52.8751 6.13183C49.4778 6.13183 47.0123 8.86504 47.0123 12.6307C47.0123 15.729 48.8748 17.8111 51.6473 17.8111C52.9792 17.8111 54.1479 17.2787 55.0212 16.3109C54.9628 16.5776 54.9077 16.8581 54.8465 17.1813C54.8328 17.2534 54.8539 17.3275 54.901 17.3834C54.9481 17.4393 55.0176 17.472 55.0907 17.472L57.8788 17.4698C57.9975 17.4698 58.0994 17.3862 58.1226 17.2696L61.0829 2.50465C61.0969 2.43226 61.0776 2.35706 61.0301 2.29978ZM97.0283 2.6478C96.9826 2.55679 96.8895 2.49951 96.788 2.49951H92.8413C92.7521 2.49951 92.6681 2.54414 92.6179 2.61864C92.6179 2.61864 88.6997 8.17537 88.426 8.7074C88.3518 8.20349 86.4275 2.70262 86.4275 2.70262C86.3938 2.58771 86.2887 2.50865 86.1689 2.50865H82.7157C82.6282 2.50865 82.547 2.55152 82.496 2.62215C82.4454 2.69349 82.4328 2.78485 82.462 2.86673L86.1232 12.1413L85.0247 17.5308C85.0096 17.6095 85.0304 17.6914 85.0817 17.7529C85.1323 17.8151 85.2085 17.8509 85.2893 17.8509H88.0826C88.4492 17.8509 88.764 17.5912 88.8346 17.2317L89.8112 12.232L97.0044 2.92893C97.0649 2.8474 97.074 2.73847 97.0283 2.6478ZM102.096 7.85531C101.481 7.10963 100.519 6.65245 99.5682 6.59342C98.6981 6.5393 97.8544 6.67916 97.0402 6.98945C94.3618 8.00922 92.5781 10.6423 92.6072 13.5291C92.6325 16.0412 94.2739 17.7255 96.7752 17.8436C98.1197 17.9068 99.2895 17.5052 100.353 16.6C100.298 16.8685 100.227 17.2206 100.182 17.4644C100.168 17.5347 100.188 17.6067 100.234 17.6612C100.28 17.7157 100.348 17.7473 100.419 17.7473L103.136 17.7456C103.251 17.7456 103.351 17.664 103.373 17.5502L105.463 7.052C105.477 6.98102 105.458 6.90793 105.412 6.8524C105.366 6.79653 105.298 6.7642 105.226 6.7642H102.505C102.389 6.7642 102.29 6.84643 102.267 6.95993C102.267 6.95993 102.164 7.47966 102.099 7.84231L102.096 7.85531ZM67.1618 6.13232C70.5433 6.13232 72.7284 8.19225 72.7284 11.3805C72.7284 15.1068 69.9762 17.8112 66.1845 17.8112C62.8023 17.8112 60.6172 15.7513 60.6172 12.563C60.6172 8.83672 63.3694 6.13232 67.1618 6.13232ZM26.1253 10.6642C26.1253 7.86181 24.175 6.12061 21.0355 6.12061C17.3096 6.12061 14.6049 8.83414 14.6049 12.5738C14.6049 15.7972 16.773 17.7995 20.2628 17.7995C21.8441 17.7995 23.1517 17.394 24.5295 16.4743C24.6532 16.3921 24.6719 16.2136 24.5685 16.1071L22.8533 14.3347C22.7799 14.2584 22.6639 14.244 22.5705 14.2935C21.8202 14.6927 21.1125 14.8716 20.331 14.8716C18.7324 14.8716 17.8037 14.1403 17.7833 12.8693L25.6048 12.844C25.7208 12.844 25.8216 12.7639 25.8466 12.6504C26.023 11.8555 26.1253 11.2753 26.1253 10.6642ZM77.6195 6.14728C78.9893 6.0271 80.4834 6.31455 81.939 6.97905C82.0623 7.03492 82.1171 7.1797 82.0623 7.30304L81.0966 9.47296C81.0692 9.5341 81.019 9.58119 80.9561 9.60403C80.8946 9.62722 80.8247 9.62406 80.7653 9.59525C79.7856 9.12683 78.7869 8.89631 78.025 8.96307C77.2584 9.03053 77.2895 9.38741 77.2997 9.5045V9.50458C77.3184 9.71507 77.3602 9.82682 78.1631 10.2661L79.5311 10.9573C80.9993 11.6994 81.6462 12.5502 81.7643 13.8954C81.9597 16.1236 80.5393 17.5363 77.868 17.7706C76.0849 17.9267 74.3444 17.4646 72.8344 16.4336C72.729 16.3612 72.6956 16.2203 72.7589 16.1085L73.9758 13.9621C74.0088 13.9038 74.064 13.8616 74.129 13.8451C74.1916 13.8293 74.2629 13.8388 74.3195 13.8739C75.5571 14.6379 76.7132 14.9974 77.6627 14.9141C77.9744 14.887 78.491 14.7735 78.4516 14.322C78.4341 14.1245 78.3761 13.9706 77.7559 13.6378L76.2374 12.8429C74.861 12.113 74.1389 11.1446 74.0278 9.88234C73.8444 7.78868 75.2208 6.35742 77.6195 6.14728ZM45.9845 7.41678C45.936 7.36407 45.8633 7.3335 45.787 7.3335H42.9024L42.8511 7.33811C42.7514 7.35628 42.6713 7.42642 42.6508 7.51798L40.6991 17.197L40.6946 17.2475C40.6965 17.2979 40.7169 17.3468 40.7535 17.3861C40.8017 17.4388 40.8744 17.4694 40.9507 17.4694H43.8357L43.887 17.4648C43.9868 17.4467 44.0671 17.3767 44.0873 17.2845L46.0383 7.60548L46.0427 7.55524C46.0409 7.50513 46.0206 7.45631 45.9845 7.41678ZM98.1648 9.86675C98.5043 9.70791 98.8712 9.62744 99.2556 9.62744C99.5922 9.62744 99.8987 9.69034 100.167 9.81544C100.434 9.93914 100.658 10.1162 100.833 10.3411C101.009 10.5674 101.132 10.8436 101.2 11.1624C101.267 11.4867 101.267 11.8567 101.2 12.2594C101.134 12.639 101.013 12.9932 100.84 13.3112C100.668 13.6292 100.454 13.9089 100.204 14.1433C99.9573 14.3752 99.6727 14.559 99.3586 14.6898C98.771 14.9343 98.0429 14.9491 97.5081 14.7309C97.2593 14.629 97.0435 14.481 96.8664 14.2909C96.6896 14.1012 96.5554 13.8668 96.4676 13.5958C96.378 13.3196 96.3418 13.0062 96.3597 12.6646C96.3811 12.2517 96.4728 11.8557 96.6317 11.4871C96.7898 11.1191 97.0013 10.7937 97.2603 10.5193C97.5168 10.2477 97.8212 10.028 98.1648 9.86675ZM53.6797 9.2085C53.277 9.2085 52.8926 9.29318 52.5366 9.45975C52.1768 9.62877 51.8577 9.85859 51.5892 10.1436C51.3176 10.4307 51.0962 10.7719 50.9303 11.157C50.7638 11.5432 50.6682 11.9586 50.6453 12.3912C50.6267 12.7492 50.6647 13.0771 50.7585 13.3666C50.8502 13.6509 50.9911 13.8962 51.1763 14.0955C51.3619 14.2944 51.5882 14.4493 51.8489 14.5558C52.409 14.7849 53.1719 14.7695 53.7876 14.5129C54.1169 14.3759 54.4148 14.1837 54.6735 13.9405C54.9353 13.6949 55.1595 13.4018 55.3401 13.0687C55.5207 12.7355 55.6479 12.3644 55.7175 11.9667C55.7881 11.5443 55.7878 11.1567 55.7164 10.8172C55.6462 10.4827 55.5172 10.1935 55.3327 9.95628C55.1496 9.72084 54.9145 9.53565 54.6352 9.40563C54.3537 9.27491 54.0322 9.2085 53.6797 9.2085ZM32.8631 9.45975C33.2187 9.29318 33.6035 9.2085 34.0058 9.2085C34.3586 9.2085 34.6798 9.27491 34.9613 9.40563C35.241 9.53565 35.4757 9.72084 35.6592 9.95628C35.8437 10.1935 35.9726 10.4827 36.0429 10.8172C36.1142 11.1567 36.1142 11.5443 36.044 11.9667C35.9744 12.3644 35.8472 12.7355 35.6666 13.0687C35.4859 13.4018 35.2617 13.6949 34.9999 13.9405C34.7413 14.1837 34.4433 14.3759 34.1141 14.5129C33.4984 14.7695 32.7355 14.7849 32.175 14.5558C31.9146 14.4493 31.688 14.2944 31.5028 14.0955C31.3176 13.8962 31.1767 13.6509 31.085 13.3666C30.9908 13.0771 30.9532 12.7492 30.9715 12.3912C30.9943 11.9586 31.0902 11.5432 31.2568 11.157C31.4227 10.7719 31.644 10.4307 31.9157 10.1436C32.1842 9.85859 32.5029 9.62877 32.8631 9.45975ZM66.9412 9.42529C65.305 9.42529 64.1169 10.658 64.1169 12.356C64.1169 13.7089 64.973 14.5168 66.4067 14.5168C68.0428 14.5168 69.2302 13.2841 69.2302 11.5861C69.2302 10.2332 68.3745 9.42529 66.9412 9.42529ZM18.1335 10.4478C18.6497 9.21084 19.5813 8.57129 20.9686 8.57129C22.3805 8.57129 23.0897 9.21401 23.1336 10.459C23.0238 10.459 21.8739 10.4563 20.7035 10.4536C19.4905 10.4507 18.2556 10.4478 18.1335 10.4478ZM6.05707 5.33984C6.03318 5.4913 5.30929 9.08053 5.29102 9.16803C5.37746 9.16803 8.16795 9.15362 8.16795 9.15362C9.77808 9.15362 10.7016 8.38264 10.7016 7.03817C10.7016 5.95866 10.0002 5.36409 8.72563 5.36409C8.72563 5.36409 6.19764 5.34617 6.05707 5.33984Z" fill="#FA0050"/>
</svg>
