<svg width="200" height="201" viewBox="0 0 200 201" fill="none" xmlns="http://www.w3.org/2000/svg">
<path fill-rule="evenodd" clip-rule="evenodd" d="M89.4307 61.8562C102.374 61.8523 113.225 61.849 114.236 61.8575C116.682 61.873 116.664 62.9224 116.612 65.8961C116.606 66.2786 116.598 66.6931 116.596 67.1412C102.981 67.1453 77.0448 67.1817 61.5219 67.2035C54.7291 67.2131 49.9304 67.2198 49.0311 67.2198C48.9319 67.1905 48.8418 67.1363 48.7692 67.0623C48.6966 66.9882 48.6439 66.8968 48.6162 66.7967C48.593 65.7757 48.5814 64.7537 48.6442 63.7375C48.6494 63.4766 48.7073 63.2196 48.8144 62.9819C48.9215 62.7443 49.0756 62.5311 49.2672 62.3552C49.4588 62.1794 49.684 62.0446 49.9291 61.959C50.1741 61.8734 50.4339 61.8389 50.6927 61.8575C59.9272 61.865 75.8337 61.8602 89.4307 61.8562ZM51.9298 64.9384C52.018 64.9977 52.1217 65.0293 52.2278 65.0293C52.3701 65.0293 52.5066 64.9724 52.6072 64.8712C52.7078 64.77 52.7643 64.6328 52.7643 64.4897C52.7643 64.3829 52.7329 64.2786 52.6739 64.1899C52.615 64.1011 52.5312 64.032 52.4331 63.9911C52.3351 63.9503 52.2272 63.9396 52.1232 63.9604C52.0191 63.9812 51.9235 64.0326 51.8485 64.1081C51.7734 64.1836 51.7224 64.2797 51.7016 64.3844C51.681 64.4891 51.6916 64.5976 51.7322 64.6962C51.7728 64.7948 51.8415 64.8791 51.9298 64.9384ZM54.5784 65.0597C54.6667 65.119 54.7704 65.1506 54.8765 65.1506C55.0188 65.1506 55.1553 65.0938 55.2559 64.9926C55.3565 64.8914 55.413 64.7541 55.413 64.611C55.413 64.5043 55.3815 64.3999 55.3226 64.3112C55.2636 64.2225 55.1798 64.1533 55.0818 64.1124C54.9838 64.0716 54.8759 64.0609 54.7718 64.0817C54.6678 64.1026 54.5722 64.154 54.4972 64.2294C54.4221 64.3049 54.371 64.401 54.3503 64.5057C54.3296 64.6104 54.3402 64.7189 54.3809 64.8175C54.4215 64.9161 54.4902 65.0004 54.5784 65.0597ZM56.8113 65.0597C56.8995 65.119 57.0032 65.1506 57.1093 65.1506C57.2516 65.1506 57.3881 65.0938 57.4887 64.9926C57.5893 64.8914 57.6458 64.7541 57.6458 64.611C57.6458 64.5043 57.6143 64.3999 57.5554 64.3112C57.4964 64.2225 57.4126 64.1533 57.3146 64.1124C57.2166 64.0716 57.1087 64.0609 57.0046 64.0817C56.9006 64.1026 56.805 64.154 56.73 64.2294C56.6549 64.3049 56.6038 64.401 56.5831 64.5057C56.5624 64.6104 56.5731 64.7189 56.6137 64.8175C56.6543 64.9161 56.723 65.0004 56.8113 65.0597ZM116.604 68.5951C116.305 68.5951 54.397 68.564 49.3717 68.5175C48.7137 68.5058 48.5699 68.7116 48.5757 69.3298C48.583 69.8122 48.583 74.7837 48.5829 81.3155V81.3174C48.5829 94.5905 48.5828 114.305 48.6442 115.888C48.6847 116.903 49.0369 117.15 50.0694 117.15C55.9958 117.167 115.427 117.196 115.704 117.179C115.826 117.188 115.949 117.171 116.063 117.127C116.177 117.083 116.28 117.014 116.365 116.925C116.449 116.836 116.513 116.73 116.552 116.613C116.59 116.496 116.602 116.372 116.587 116.25C116.597 115.651 116.706 70.0519 116.604 68.5951ZM87.1132 76.2625C89.1188 76.2314 91.1252 76.2371 93.1309 76.2429L93.882 76.245C94.2854 76.245 94.7012 76.3731 94.6318 76.8273C94.6028 77.0302 94.1493 77.2912 93.8762 77.3029C93.219 77.3338 90.933 77.3298 89.1227 77.3267H89.1221H89.1198C88.3135 77.3253 87.6019 77.3241 87.1711 77.3262C86.7272 77.332 86.3229 77.2165 86.3519 76.7438C86.3635 76.5672 86.842 76.2712 87.1132 76.2654V76.2625ZM82.6493 76.3814H82.6493C83.2618 76.4008 83.8698 76.4201 84.4597 76.4245C85.6707 76.6856 85.0821 77.3184 84.2513 77.298C83.9779 77.2915 83.2757 77.2819 82.4937 77.2712L82.4909 77.2711C81.179 77.2531 79.6437 77.2321 79.5319 77.2175C79.0755 77.1592 78.6027 76.4682 79.6583 76.3527V76.3498C80.6267 76.3172 81.6439 76.3495 82.6493 76.3814ZM76.1615 76.2672L76.1618 76.2672H76.1619C76.7242 76.2851 77.3707 76.3056 77.5982 76.2528C78.2331 76.2644 78.1357 77.3378 77.7082 77.3029C76.9086 77.3475 76.107 77.3455 75.3075 77.2971C74.8695 77.2922 74.6504 76.277 75.4002 76.2595V76.2528C75.5751 76.2486 75.8559 76.2575 76.1615 76.2672ZM54.3796 76.2537C55.3565 76.216 56.3774 76.2235 57.3487 76.2307L57.3496 76.2307C57.7269 76.2335 58.0967 76.2363 58.4535 76.2363C58.5307 76.2236 58.6097 76.2279 58.6852 76.2487C58.7606 76.2695 58.8308 76.3065 58.8908 76.357C58.9508 76.4075 58.9993 76.4704 59.033 76.5414C59.0667 76.6125 59.0847 76.69 59.086 76.7687C59.0873 76.8474 59.0717 76.9254 59.0403 76.9975C59.0089 77.0696 58.9624 77.1341 58.9041 77.1865C58.8457 77.2389 58.7768 77.2781 58.702 77.3014C58.6273 77.3246 58.5484 77.3314 58.4708 77.3213C58.1912 77.3071 57.572 77.3132 56.8924 77.3198L56.8917 77.3198C55.9041 77.3295 54.7891 77.3405 54.4028 77.2922C54.3307 77.3014 54.2574 77.2952 54.1878 77.2741C54.1183 77.253 54.0538 77.2174 53.9988 77.1697C53.9437 77.122 53.8993 77.0631 53.8682 76.997C53.8372 76.9309 53.8203 76.859 53.8187 76.7859C53.8171 76.7128 53.8307 76.6402 53.8588 76.5727C53.8868 76.5053 53.9286 76.4445 53.9815 76.3943C54.0344 76.3442 54.0971 76.3057 54.1657 76.2815C54.2343 76.2573 54.3072 76.2478 54.3796 76.2537ZM58.4014 80.6998C57.9189 80.7221 55.4478 80.7115 54.6218 80.6532C54.0226 80.7221 53.9647 79.7069 54.5417 79.6827C55.8627 79.6244 57.2647 79.6361 58.5461 79.671C59.1984 79.8292 58.9205 80.7163 58.4014 80.6998ZM53.7399 94.5302C53.6762 94.0187 54.1664 93.9556 54.5649 93.9478C55.1274 93.9352 59.153 93.941 59.2495 93.942C59.648 93.9478 60.0349 94.0459 60.0465 94.5166C60.0581 94.9873 59.6828 95.1144 59.2746 95.1144C58.922 95.1144 58.5694 95.1156 58.2169 95.1167H58.2167C56.9832 95.1208 55.7504 95.1248 54.5205 95.0795C54.2416 95.0698 53.7688 94.7505 53.7399 94.5302ZM54.9682 97.2865C56.3249 97.2399 57.6809 97.236 59.0363 97.2749C59.1529 97.2795 59.2632 97.3291 59.3444 97.4135C59.4255 97.4978 59.4712 97.6104 59.4719 97.7278C59.4727 97.8451 59.4284 97.9583 59.3484 98.0437C59.2683 98.129 59.1586 98.1801 59.0421 98.1862C58.5469 98.2285 58.0461 98.2216 57.5434 98.2147C57.3545 98.2121 57.1654 98.2095 56.9762 98.2095V98.192C56.7809 98.192 56.5856 98.1955 56.3905 98.199H56.3905C55.9174 98.2074 55.4457 98.2158 54.9798 98.1746C54.4896 98.2212 54.3458 97.3098 54.9682 97.2865ZM59.7407 106.439C59.6202 106.439 59.3689 106.443 59.0423 106.447C57.898 106.464 55.8298 106.495 55.2278 106.427C54.4375 106.524 54.5938 105.545 55.2172 105.562C56.6365 105.505 58.0617 105.488 59.4811 105.517C60.2308 105.574 60.1556 106.439 59.7407 106.439ZM61.6328 76.7992C61.6063 76.2557 62.222 76.2455 62.6441 76.2384C62.6819 76.2378 62.7181 76.2372 62.7521 76.2363C64.6048 76.2246 71.1768 76.2071 72.7631 76.2363C73.2368 76.245 73.4675 76.376 73.5948 76.6429C73.5948 77.0078 73.4617 77.3737 73.1789 77.3223C70.8024 77.3776 64.6877 77.3301 62.8911 77.3048C62.8212 77.3038 62.7452 77.3058 62.6664 77.3078C62.212 77.3194 61.6624 77.3335 61.6328 76.7992ZM62.1761 97.8029C62.1892 97.7051 62.2269 97.6123 62.2854 97.5332C62.344 97.4541 62.4216 97.3913 62.5109 97.3506C63.4027 97.279 64.2993 97.2927 65.1885 97.3913C65.2918 97.4146 65.5861 97.5476 65.5919 97.8145C65.5976 98.0465 65.4249 98.325 65.1769 98.3085C64.2861 98.343 63.394 98.3255 62.5051 98.2561C62.4146 98.2176 62.3362 98.1551 62.2782 98.0753C62.2202 97.9955 62.1849 97.9013 62.1761 97.8029ZM82.8448 95.1432C82.8929 95.1462 82.9333 95.1487 82.9333 95.1508C82.9332 95.1621 81.7901 95.162 74.5728 95.162L72.8267 95.162V95.1455H63.1391C62.4405 95.3396 61.437 94.0022 63.6003 94.0196C65.5842 94.0363 67.5507 94.0101 69.502 93.9841H69.5023C71.6547 93.9554 73.7887 93.927 75.9077 93.9566C78.2928 93.9893 79.908 93.9941 81.0155 93.9973H81.0157C82.5001 94.0017 83.0723 94.0034 83.3636 94.0662C84.0033 94.205 83.928 95.0698 83.3915 95.0931C82.4282 95.1173 82.6808 95.133 82.8448 95.1432ZM91.6367 97.2574C91.7019 97.2574 91.7715 97.2542 91.8427 97.2509C92.2507 97.2322 92.7132 97.211 92.728 97.7737C92.7479 98.4019 92.2615 98.3807 91.8353 98.3621C91.765 98.3591 91.6963 98.3561 91.6319 98.3561L90.6268 98.3562C85.6843 98.3571 67.0874 98.3606 66.9533 98.3163C66.578 98.1882 66.4912 97.3059 66.9591 97.2885C67.0735 97.2835 67.0269 97.2794 66.9877 97.2759C66.7812 97.2574 66.7812 97.2574 91.6367 97.2574ZM74.1081 106.439C72.4109 106.439 64.9618 106.433 62.9654 106.399C62.4183 106.323 62.1751 105.593 62.9712 105.597C63.9444 105.602 64.9207 105.61 65.8986 105.618C68.6435 105.639 71.4 105.661 74.1313 105.626C74.1512 105.626 74.1711 105.626 74.191 105.625C74.2171 105.625 74.2433 105.624 74.2695 105.623C74.6747 105.613 75.0648 105.603 75.0595 106.01C75.0595 106.448 74.5734 106.443 74.2369 106.439H74.2367C74.1905 106.439 74.1471 106.438 74.1081 106.439ZM87.6217 106.433C86.7199 106.43 84.4894 106.433 82.2663 106.436H82.263C80.0484 106.439 77.8419 106.442 76.9643 106.439C76.9276 106.439 76.8899 106.44 76.852 106.44C76.5199 106.447 76.1633 106.455 76.1788 105.934C76.1962 105.418 76.5542 105.325 76.999 105.325C80.5525 105.336 84.1027 105.338 87.6497 105.33C88.1177 105.33 88.3541 105.488 88.3541 105.952C88.3541 106.439 88.0262 106.436 87.6984 106.433C87.6728 106.433 87.6472 106.433 87.6217 106.433ZM100.501 106.407L100.499 106.409C100.468 106.436 100.414 106.436 97.7542 106.432C96.2605 106.43 93.9451 106.427 90.3505 106.427C90.2135 106.431 90.0765 106.425 89.9404 106.41C89.1327 106.277 89.5255 105.324 89.7474 105.325C91.1726 105.332 98.3853 105.342 100.001 105.342C101.186 105.325 100.725 106.271 100.512 106.399C100.507 106.402 100.504 106.405 100.501 106.407ZM106.311 80.661C106.118 80.7474 62.81 80.7241 62.2677 80.6552C62.0545 80.6261 61.9783 80.5038 61.904 80.1903C61.9084 80.0792 61.9493 79.9728 62.0204 79.8878C62.0915 79.8028 62.1887 79.7439 62.2967 79.7205C62.5447 79.6332 106.224 79.6856 106.339 79.7147C107.251 79.9506 106.784 80.7163 106.311 80.661ZM134.937 103.372C135.375 102.937 135.103 102.589 134.809 102.234C134.169 101.461 133.532 100.685 132.895 99.9084C131.933 98.7357 130.971 97.5629 129.997 96.4014C129.744 96.0995 129.697 95.9248 130.003 95.6065C133.402 92.024 136.006 87.7566 137.642 83.0864C137.679 82.9237 137.776 82.7811 137.913 82.6874C138.05 82.5937 138.218 82.5559 138.381 82.5817C142.926 82.42 147.308 80.8446 150.925 78.0725C152.645 76.963 153.978 75.3421 154.74 73.4352C154.883 72.8858 154.978 72.3245 155.022 71.7581C168.644 76.5061 176.364 83.2737 183.769 92.5531C184.027 92.8783 184.166 93.1791 183.526 93.2024C181.56 93.3901 179.635 93.8835 177.819 94.6651C175.43 95.6337 173.329 97.2022 171.714 99.2208C169.852 101.335 168.134 103.588 166.47 105.86C165.839 106.853 165.309 107.907 164.888 109.007C164.677 109.472 164.485 109.492 164.092 109.221C160.97 107.095 160.624 106.911 159.476 106.447C159.379 106.407 159.255 106.434 159.131 106.462C159.072 106.475 159.013 106.488 158.957 106.493C158.973 106.598 158.975 106.678 158.977 106.745C158.985 107.007 158.988 107.08 159.729 107.642C160.159 107.971 160.593 108.295 161.028 108.618L161.029 108.619C161.958 109.312 162.888 110.005 163.782 110.748C164.149 111.053 164.432 110.96 164.723 110.865C164.825 110.831 164.928 110.797 165.036 110.78C164.898 111.049 164.858 111.358 164.923 111.654C164.987 111.949 165.152 112.213 165.388 112.4C167.994 115.117 169.143 117.912 168.365 123.264C167.883 126.607 166.306 129.579 164.672 132.498C163.588 134.671 161.751 136.37 159.508 137.275C159.388 137.296 159.264 137.287 159.149 137.248C159.033 137.209 158.928 137.143 158.844 137.054C157.764 135.463 155.579 132.245 152.97 128.404L152.961 128.391L152.957 128.386L152.888 128.284C147.219 119.937 139.598 108.718 136.968 104.837C136.558 104.234 136.099 103.811 135.317 104.072C135.179 103.842 135.057 103.607 134.937 103.372ZM154.203 117.858C154.789 117.911 155.379 117.899 155.962 117.823C156.391 117.747 156.488 117.411 155.968 117.338C155.794 117.299 155.616 117.274 155.437 117.249L155.437 117.249C155.274 117.226 155.11 117.204 154.947 117.169C153.663 117.061 152.392 116.822 151.156 116.456C150.39 116.209 149.272 115.651 148.284 115.158L148.284 115.158C147.791 114.912 147.33 114.682 146.961 114.515C146.493 114.271 146.321 114.875 146.54 115.322C147.088 115.706 147.662 116.049 148.259 116.349C150.097 117.311 152.132 117.829 154.203 117.861V117.858ZM65.4296 137.036C66.0702 137.036 66.2266 137.217 66.2256 137.85C66.2235 139.019 66.2208 140.189 66.2182 141.358V141.359V141.36V141.36V141.361V141.361C66.2066 146.504 66.1949 151.643 66.2256 156.787C66.2256 157.478 66.0181 157.618 65.3717 157.617C55.3437 157.608 45.3134 157.612 35.281 157.629C34.9593 157.606 34.6419 157.712 34.3981 157.925C33.987 158.498 34.3749 159.084 35.1246 159.089C38.3735 159.095 58.5719 159.101 65.4228 159.089C66.0751 159.089 66.2545 159.275 66.2073 159.902C66.1697 160.403 66.1704 160.91 66.171 161.416C66.1713 161.678 66.1717 161.939 66.1667 162.2C66.1535 162.378 66.1783 162.557 66.2395 162.725C66.3006 162.893 66.3968 163.046 66.5214 163.173C66.646 163.301 66.7962 163.4 66.9621 163.464C67.1279 163.528 67.3055 163.556 67.4829 163.546C72.5313 163.611 77.581 163.665 82.632 163.708C83.2784 163.708 83.5206 163.859 83.5004 164.555C83.4582 165.803 83.4754 166.81 83.4892 167.618C83.5299 170.006 83.541 170.655 81.9015 170.655C63.1321 170.655 35.5492 170.643 17.7215 170.632C17.184 170.613 16.6518 170.517 16.141 170.348C15.7682 170.217 15.4527 169.959 15.2493 169.618C15.0458 169.278 14.9674 168.877 15.0275 168.484C15.0229 165.982 15.0252 161.251 15.0276 156.209V156.209V156.209V156.209V156.209V156.208C15.0312 148.54 15.0352 140.152 15.0159 137.789C15.0102 137.138 15.1481 136.932 15.8409 136.935C24.116 136.976 57.1786 137.05 65.4296 137.036ZM64.0507 144.541C64.483 144.593 64.6789 143.619 63.6406 143.485C59.9861 143.485 56.3307 143.488 52.675 143.492H52.6743H52.6736H52.6728H52.6721H52.6714H52.6649C46.1082 143.498 39.5508 143.505 32.9961 143.491C31.8015 143.491 31.0402 144.549 33.6136 144.564C33.7111 144.565 63.3232 144.642 64.0507 144.541ZM40.8321 153.78V153.804H51.1373C51.6622 153.653 51.8002 153.543 51.7771 152.956C51.7402 152.75 51.6254 152.566 51.4567 152.443C51.288 152.32 51.0785 152.267 50.872 152.295C48.9557 152.318 35.3562 152.382 30.469 152.392C29.9547 152.392 29.4876 152.509 29.4992 153.113C29.5127 153.77 30.1525 153.786 30.8038 153.785C34.1443 153.783 37.4871 153.782 40.8321 153.78ZM55.0163 149.306C55.1581 149.272 55.2891 149.203 55.3971 149.105C55.5051 149.006 55.5865 148.882 55.6338 148.743C55.6502 148.664 55.6509 148.583 55.636 148.504C55.6212 148.424 55.5909 148.349 55.547 148.282C55.5031 148.214 55.4464 148.156 55.3801 148.111C55.3139 148.065 55.2394 148.034 55.161 148.017L55.1169 148.004L55.0964 147.998C54.8867 147.94 54.6606 147.94 50.5409 147.95C48.4188 147.955 45.2637 147.963 40.5455 147.966C40.3417 147.968 40.1387 147.991 39.9395 148.035C39.7903 148.061 39.6556 148.141 39.5601 148.259C39.4647 148.378 39.4148 148.527 39.4198 148.679C39.4247 148.832 39.484 148.977 39.587 149.089C39.6899 149.201 39.8294 149.272 39.9801 149.289C40.4181 149.357 54.4286 149.365 55.0201 149.306H55.0163ZM61.5419 153.792C62.0736 153.792 62.5638 153.695 62.5754 153.049C62.5869 152.404 62.0447 152.329 61.5882 152.324C59.3575 152.299 57.1221 152.302 54.8897 152.305H54.8888H54.8879H54.887H54.8861H54.8853L54.1218 152.306C53.6548 152.306 53.2958 152.5 53.3431 153.044C53.3409 153.154 53.3628 153.264 53.4073 153.365C53.4517 153.466 53.5177 153.555 53.6006 153.628C53.6834 153.7 53.7811 153.754 53.8866 153.784C53.9922 153.814 54.1031 153.821 54.2115 153.804C54.5058 153.799 61.4493 153.792 61.5458 153.792H61.5419ZM24.8754 157.855C23.9404 157.89 24.3929 158.975 24.8638 158.906C25.3146 158.984 28.7827 159.023 31.1733 159.05H31.1738H31.1743H31.1748C31.7516 159.057 32.2656 159.062 32.6593 159.068C33.0925 159.074 33.4158 158.865 33.3174 158.505C33.1736 157.983 32.9478 157.786 32.3361 157.814C31.4204 157.78 26.3256 157.663 24.8773 157.855H24.8754ZM128.851 127.426C130.677 130.28 135.509 137.838 136.088 138.754C136.285 138.757 136.48 138.789 136.667 138.847C139.443 140.414 142.608 141.145 145.785 140.954C145.671 140.683 145.54 140.42 145.392 140.165C144.12 138.24 141.617 134.476 138.841 130.302C134.176 123.287 128.74 115.112 127.078 112.556C126.107 111.065 126.169 110.742 127.28 109.66C127.374 109.561 127.463 109.456 127.545 109.347C127.462 109.241 127.383 109.135 127.304 109.029L127.304 109.029L127.304 109.029L127.304 109.029C127.238 108.941 127.172 108.852 127.104 108.764C126.483 109.235 126.218 108.788 125.946 108.318C125.406 107.386 124.861 106.457 124.315 105.527C123.647 104.388 122.978 103.248 122.317 102.101C122.099 101.72 121.898 101.608 121.449 101.817C120.759 102.135 120.051 102.416 119.342 102.697C119.024 102.823 118.706 102.949 118.39 103.079C118.386 107.279 118.378 111.477 118.367 115.673C118.366 116.178 118.506 116.375 119.007 116.387C120.237 116.416 121.465 116.455 122.693 116.494C123.856 116.53 125.02 116.567 126.185 116.596C127.374 116.625 127.831 116.973 127.916 118.186C128.112 120.955 128.194 122.775 128.25 124.022C128.353 126.321 128.369 126.671 128.851 127.426ZM18.369 135.574C18.2116 135.574 18.0157 135.581 17.799 135.589C16.7365 135.629 15.1723 135.688 15.1723 134.991C15.1038 134.063 15.0961 133.13 15.1491 132.2C15.2118 131.742 15.5534 130.647 18.0438 130.657C26.5984 130.675 42.1551 130.666 53.001 130.659H53.0172L53.0367 130.659L53.0974 130.659C59.4168 130.655 64.1167 130.653 64.8622 130.657C66.0911 130.664 66.0933 130.762 66.1425 132.95C66.1546 133.488 66.1695 134.153 66.2063 134.975C66.2256 135.386 66.1098 135.571 65.6698 135.538C65.514 135.523 52.743 135.537 39.1341 135.553C31.8506 135.561 24.3271 135.569 18.369 135.574ZM21.2078 133.682C21.7698 133.643 21.7317 133.275 21.7113 133.078L21.7095 133.061C21.7051 132.931 21.651 132.809 21.5585 132.718C21.4661 132.628 21.3425 132.577 21.2136 132.576L21.1933 132.581C21.0021 132.626 20.7481 132.687 20.7118 133.08C20.6848 133.415 20.7977 133.612 21.2078 133.682ZM19.2982 133.125C19.2911 133 19.2395 132.881 19.1528 132.791C19.0662 132.7 18.9502 132.644 18.8259 132.632C18.7016 132.621 18.5772 132.654 18.4754 132.727C18.3735 132.799 18.3008 132.906 18.2706 133.028C18.2706 133.521 18.5402 133.543 18.691 133.556L18.6923 133.556C18.8766 133.576 19.1709 133.601 19.2982 133.125ZM24.3929 133.067C24.1932 132.315 23.4001 132.455 23.4058 133.148C23.4258 133.261 23.4808 133.364 23.5628 133.443C23.6448 133.523 23.7496 133.574 23.8622 133.589C24.1218 133.589 24.3582 133.514 24.3929 133.071V133.067ZM125.751 75.422C125.709 74.9846 125.754 74.5433 125.883 74.1234C124.942 74.2819 124.012 74.501 123.099 74.7795C122.032 75.1787 120.994 75.6494 119.956 76.1201L119.955 76.1205L119.954 76.1209C119.572 76.2941 119.19 76.4674 118.806 76.6371C118.601 76.7178 118.431 76.8683 118.325 77.0624C118.219 77.2564 118.184 77.4817 118.227 77.6989L118.234 77.7878C118.256 78.0612 118.275 78.2866 118.29 78.5121C118.361 79.5697 118.363 80.6319 118.373 86.6771C118.377 88.5925 118.381 91.0083 118.388 94.0827C118.421 94.0647 118.455 94.0475 118.489 94.0305C118.505 94.0222 118.522 94.014 118.539 94.0057C118.631 93.9598 118.724 93.9137 118.81 93.8566C123.585 90.6645 126.659 86.1223 128.699 80.8153C128.85 80.4213 128.676 80.2291 128.41 80.003C127.352 79.1306 126.56 77.9762 126.125 76.672C125.92 76.2842 125.792 75.8594 125.751 75.422Z" fill="#F50050"/>
<path fill-rule="evenodd" clip-rule="evenodd" d="M143.672 70.1072C147.076 70.057 150.474 70.392 153.804 71.1059C154.234 71.2865 154.644 71.513 155.026 71.7814C154.98 72.3479 154.885 72.9093 154.743 73.4595C153.981 75.366 152.648 76.9867 150.929 78.0968C147.315 80.874 142.931 82.4501 138.385 82.606C138.222 82.5802 138.054 82.618 137.917 82.7117C137.78 82.8054 137.683 82.948 137.646 83.1107C136.004 87.7782 133.401 92.0445 130.007 95.6308C129.701 95.9404 129.747 96.118 130.001 96.4256C131.024 97.6492 132.038 98.8837 133.051 100.117L133.052 100.118C133.639 100.833 134.225 101.547 134.813 102.259C135.108 102.613 135.373 102.966 134.941 103.396C134.416 103.721 134.081 103.478 133.746 103.042C133.237 102.376 132.718 101.718 132.2 101.059L132.2 101.059C131.603 100.3 131.006 99.5417 130.422 98.7715C130.151 98.4172 129.955 98.4094 129.58 98.6036C127.734 99.5945 125.881 100.576 124.006 101.515C123.538 101.748 123.395 101.904 123.689 102.403C124.75 104.197 125.778 106.002 126.793 107.819C126.93 108.128 127.035 108.451 127.105 108.782C126.483 109.258 126.218 108.805 125.947 108.335C125.462 107.503 124.975 106.671 124.488 105.84C123.762 104.601 123.035 103.362 122.318 102.119C122.101 101.737 121.899 101.626 121.449 101.835C120.76 102.153 120.053 102.433 119.345 102.714L119.343 102.714C119.025 102.841 118.707 102.967 118.391 103.096C118.387 102.672 118.391 102.246 118.395 101.821V101.821V101.821V101.821V101.821V101.821V101.821V101.821V101.821V101.82V101.82V101.82V101.82V101.82V101.82V101.82V101.82V101.82V101.82V101.82V101.82C118.405 100.833 118.414 99.8466 118.334 98.8656C118.276 98.4676 118.353 98.0618 118.552 97.7131C118.751 97.3644 119.061 97.0929 119.432 96.942C124.918 93.6336 129.168 88.5998 131.526 82.6186C134.63 75.137 135.495 66.9061 134.012 58.9372C129.605 32.8352 107.064 18.273 90.2181 23.9284C87.3514 24.7642 84.8298 26.5088 83.0285 28.9025C83.2418 28.8035 94.5215 23.6208 100.713 24.3002C106.311 24.9673 111.616 27.1811 116.039 30.6961C123.863 36.6854 128.796 44.6536 131.519 54.0679C133.19 59.7105 133.698 65.6365 133.014 71.4835C132.755 73.4838 132.369 75.4653 131.856 77.4155C130.67 82.2268 128.362 86.6849 125.123 90.4208C123.349 92.5649 121.215 94.3781 118.816 95.7773C118.303 96.0617 118.239 95.8928 118.274 95.4405C118.298 95.127 118.327 94.8163 118.356 94.5061L118.356 94.5052L118.356 94.5046L118.356 94.5025C118.369 94.3664 118.382 94.2305 118.394 94.0944C118.411 94.0851 118.428 94.0761 118.446 94.0671C118.464 94.0577 118.482 94.0485 118.5 94.0393L118.545 94.0169L118.545 94.0167C118.638 93.9707 118.73 93.9245 118.816 93.8682C123.381 90.6597 126.839 86.1019 128.712 80.827C128.867 80.4319 128.688 80.2407 128.423 80.0146C127.362 79.1448 126.569 77.9891 126.138 76.6827C125.932 76.2952 125.805 75.8705 125.763 75.4332C125.722 74.996 125.767 74.5547 125.896 74.135C126.267 74.0973 126.639 74.0565 127.011 74.0156C128.007 73.9063 129.003 73.797 129.998 73.7468C130.512 73.7177 130.679 73.576 130.697 73.0907C130.705 72.7993 130.746 72.5269 130.781 72.2876C130.879 71.6298 130.939 71.2216 130.2 71.3554C121.141 73.0129 120.672 73.0568 118.633 73.2475L118.633 73.2475C118.135 73.2941 117.543 73.3494 116.71 73.4391C116.69 72.0771 116.669 70.7141 116.646 69.3502C116.643 69.2156 116.634 69.0827 116.625 68.9504L116.625 68.9501L116.625 68.9498C116.617 68.8313 116.609 68.7133 116.605 68.5951C116.573 67.5023 116.591 66.5665 116.606 65.771C116.66 62.9222 116.68 61.8727 114.238 61.8576C112.917 61.8483 111.598 61.8473 110.278 61.8463H110.277H110.277H110.276H110.276C109.522 61.8457 108.769 61.8451 108.014 61.843C110.338 59.4632 111.078 56.4341 111.303 53.2653C111.576 49.1672 112.401 45.1253 113.756 41.2508C114.61 39.0113 116.003 37.0193 117.809 35.4528C117.846 35.4186 117.885 35.3873 117.923 35.357C118.11 35.2074 118.264 35.0847 117.948 34.786C113.606 30.6777 108.684 27.6117 102.734 26.6479C93.7554 25.2028 86.589 28.459 81.1248 35.6148C76.0021 42.3291 74.2044 51.6493 74.8007 59.9271C74.8355 60.4328 74.7718 60.6182 74.2121 60.6065L74.1083 60.6054C72.8987 60.5929 72.8261 60.5921 72.7754 59.3448C72.7179 57.8704 72.679 55.5232 72.6458 53.5181L72.6457 53.5173C72.6127 51.5209 72.5852 49.8637 72.5506 49.7451C72.5274 49.1239 71.7545 49.2918 71.6329 49.617C71.4391 50.1646 71.3412 50.7419 71.3435 51.3232C71.3435 54.2426 71.3879 57.1679 71.44 60.0873C71.4457 60.459 71.4052 60.5978 70.9836 60.6211L70.919 60.6243C69.3623 60.7029 69.3558 60.7032 69.2882 59.043C68.2644 34.2085 86.1191 14.9052 108.83 21.3293C114.629 23.0389 119.937 26.1195 124.311 30.3137C124.4 30.3954 124.498 30.5086 124.601 30.628C124.899 30.9722 125.242 31.3683 125.545 31.2134C126.815 30.6259 128.2 30.3324 129.598 30.3545C130.041 30.4198 130.491 30.412 130.931 30.3312C132.7 29.7026 134.62 29.654 136.418 30.1924C140.017 31.1544 143.1 33.495 145.006 36.7135C146.004 38.4449 146.597 40.3817 146.742 42.3776C146.847 43.4196 146.74 45.2538 146.662 46.5773C146.612 47.4358 146.574 48.0795 146.615 48.1524C147.112 48.9235 147.38 49.821 147.389 50.7399C147.397 51.6588 147.145 52.5611 146.661 53.341C145.502 55.145 146.29 56.4058 147.085 57.6794C147.224 57.9016 147.363 58.1241 147.492 58.35C147.973 59.1917 148.753 59.7403 149.535 60.2897L149.535 60.2898C149.907 60.5512 150.279 60.8129 150.619 61.1063C151.759 62.3811 152.734 63.795 153.522 65.3147C153.834 66.1212 153.712 66.159 152.899 66.3531C151.422 66.6943 150.426 66.9643 149.567 67.1972C147.78 67.6818 146.588 68.0051 142.893 68.4719C142.731 68.499 142.472 68.2079 142.351 68.0138C142.026 67.4857 141.516 66.6372 141.077 65.9082L141.075 65.9048L141.074 65.9025C140.651 65.199 140.296 64.608 140.239 64.5256C140.239 64.8897 140.239 65.2409 140.24 65.5807C140.246 71.2905 140.248 73.8065 138.444 80.5494C138.306 81.0657 138.508 81.1705 138.953 81.1065C141.083 80.8703 143.169 80.3332 145.149 79.5109C148.37 78.0667 151.826 76.1208 153.291 72.9111C153.476 72.5127 153.415 72.5013 152.651 72.359C152.152 72.2659 151.352 72.1168 150.123 71.7669C148.065 71.3224 145.963 71.1163 143.857 71.1525C143.703 71.1445 143.554 71.0002 143.407 70.8577C143.339 70.7923 143.272 70.7273 143.205 70.676C143.329 70.4622 143.487 70.2701 143.672 70.1072ZM71.8395 47.3906C71.9334 47.6037 72.0991 47.7766 72.3074 47.8787C72.4366 47.8824 72.5652 47.8598 72.6856 47.8125C72.806 47.7652 72.9158 47.694 73.0083 47.6032C73.1008 47.5124 73.1742 47.4039 73.2242 47.284C73.2742 47.1641 73.2998 47.0353 73.2993 46.9053L73.2979 46.8733L73.2948 46.7995V46.7993V46.7991C73.2763 46.3391 73.2567 45.85 72.7059 45.7212C72.4039 45.7212 71.9031 46.2065 71.7941 46.7141C71.7295 46.9379 71.7456 47.1775 71.8395 47.3906ZM129.177 78.8131L129.408 78.7257C129.52 78.3105 129.624 77.9412 129.715 77.6129L129.716 77.6099L129.717 77.6072C130.133 76.1149 130.312 75.4733 130.078 75.2318C129.902 75.0496 129.49 75.0951 128.769 75.1748C128.702 75.1822 128.632 75.1899 128.56 75.1978C127.296 75.3307 127.268 75.3482 127.821 76.474C128.095 77.0169 128.411 77.5389 128.728 78.0628L128.729 78.0631C128.879 78.3118 129.03 78.561 129.177 78.8131ZM123.821 43.2822C122.548 44.2993 121.16 45.1604 119.684 45.8474C117.984 46.4704 117.726 47.638 117.601 49.4636C117.324 53.77 117.988 57.8327 120.682 61.3616C121.988 63.2975 123.935 64.7042 126.175 65.3312C127.27 65.5185 128.393 65.4349 129.447 65.0875C129.862 64.9827 130.151 65.0196 130.29 65.5049C130.419 65.9548 130.173 66.0502 129.86 66.172L129.829 66.1843C129.707 66.2309 129.551 66.4861 129.585 66.5725C129.859 67.2022 130.142 67.8196 130.425 68.4358C130.575 68.7627 130.724 69.0892 130.873 69.4172C130.898 69.4114 130.926 69.4071 130.953 69.4028C130.98 69.3983 131.008 69.3939 131.034 69.3881C131.038 69.3288 131.043 69.2695 131.047 69.2101C131.061 69.0283 131.076 68.8457 131.08 68.6621C131.386 59.8232 129.18 51.0797 124.721 43.4569C124.439 42.9629 124.248 42.9978 123.821 43.2822ZM143.423 38.1241C142.369 36.4173 140.909 35.0008 139.176 34.0018C138.597 33.6427 138.281 34.4327 138.634 34.8025C138.944 35.1231 139.285 35.4134 139.627 35.704C139.991 36.0135 140.355 36.3235 140.683 36.6708C142.631 38.5567 143.829 41.0926 144.052 43.8034C144.048 43.8926 144.042 43.9816 144.036 44.0691C143.996 44.6667 143.961 45.1923 144.566 45.2194C145.067 45.2427 145.189 44.8312 145.212 44.4071C145.229 44.1985 145.23 43.989 145.218 43.7801C145.095 41.7744 144.478 39.8308 143.423 38.1241ZM137.552 32.7705C137.42 32.6527 137.251 32.5852 137.075 32.5799H137.076C136.974 32.5712 136.872 32.5848 136.776 32.6199C136.68 32.6549 136.592 32.7106 136.52 32.783C136.447 32.8554 136.391 32.9427 136.356 33.0391C136.32 33.1354 136.306 33.2384 136.314 33.3408C136.299 33.4337 136.306 33.5286 136.333 33.6186C136.359 33.7087 136.405 33.7917 136.468 33.8616C136.53 33.9315 136.607 33.9866 136.693 34.023C136.78 34.0593 136.873 34.0759 136.966 34.0717C137.445 34.0891 137.722 33.9552 137.797 33.2244C137.771 33.0489 137.684 32.8883 137.552 32.7705ZM136.31 47.5054C137.233 50.4005 138.178 53.3702 139.122 56.3351C139.322 56.1729 139.51 55.9944 139.681 55.8013C139.93 55.0854 139.969 55.0901 140.634 55.1687C140.71 55.1777 140.794 55.1877 140.887 55.1976C143.582 55.4995 146.739 53.0265 145.93 49.9043C145.864 49.5046 145.711 49.1246 145.482 48.7909C145.254 48.4573 144.955 48.1782 144.608 47.9734C144.26 47.7686 143.872 47.6431 143.471 47.6058C143.07 47.5685 142.665 47.6202 142.286 47.7574C141.689 47.977 141.118 48.2479 140.638 48.476C139.992 48.7822 139.509 49.0113 139.344 48.9356C138.541 48.5799 137.742 48.1949 136.981 47.8278C136.753 47.7183 136.53 47.6104 136.31 47.5054ZM188.29 128.629C190.453 123.942 191.604 118.848 191.667 113.682C191.621 113.127 191.588 112.569 191.554 112.01C191.484 110.831 191.413 109.65 191.222 108.49C190.443 103.856 188.334 99.7342 186.114 95.6696C186.045 95.5386 185.498 94.7233 185.198 94.6651C184.626 94.5544 184.101 95.1115 184.28 95.5881C184.515 96.2187 184.842 96.808 185.169 97.3982C185.405 97.8244 185.641 98.251 185.843 98.6938C188.999 105.639 189.16 106.3 189.859 112.031C190.284 115.501 190.027 119.7 187.69 125.943C185.574 131.591 184.208 133.278 181.223 136.966L180.858 137.417C178.619 140.054 176.055 142.394 173.23 144.382C171.978 145.659 170.839 147.044 169.826 148.52C168.454 150.387 166.509 151.747 164.292 152.39C162.982 152.79 161.649 153.104 160.299 153.331C158.164 153.81 155.952 153.832 153.808 153.395C153.033 153.227 152.249 153.103 151.46 153.023C151.222 153.043 150.99 153.104 150.773 153.203C150.806 153.259 150.835 153.324 150.864 153.388C150.924 153.521 150.983 153.653 151.084 153.708C151.816 154.218 152.628 154.6 153.485 154.84C154.117 154.923 154.72 155.161 155.239 155.533C155.759 155.906 156.179 156.401 156.463 156.975C159.79 162.227 168.216 174.917 170.691 178.645L170.693 178.648L170.693 178.648L170.695 178.651L170.699 178.657L170.7 178.658L170.703 178.663C170.967 179.06 171.162 179.354 171.274 179.523C171.537 179.919 171.845 180.255 172.376 179.988C173.26 179.542 179.944 175.568 182.018 173.505C182.723 172.804 182.745 172.529 182.203 171.723L182.051 171.498L182.025 171.46C179.652 167.935 170.086 153.726 169.047 152.205C168.996 152.102 168.972 151.989 168.976 151.874C168.98 151.76 169.012 151.648 169.07 151.549C169.309 151.301 169.608 151.279 169.866 151.646C171.772 154.345 178.071 163.158 179.306 164.873C179.423 165.035 179.729 165.239 179.825 165.186C180.021 165.053 180.157 164.85 180.206 164.617C180.595 162.574 181.878 153.326 181.51 150.706C181.172 147.86 180.199 145.129 178.665 142.714C178.377 142.273 178.475 142.042 178.827 141.75C180.681 140.144 182.349 138.334 183.8 136.353C185.598 133.967 187.105 131.374 188.29 128.629ZM135.304 104.069C136.09 103.812 136.546 104.236 136.955 104.834C138.413 106.973 141.383 111.357 144.704 116.26C150.203 124.378 156.667 133.919 158.832 137.051C158.916 137.139 159.021 137.206 159.136 137.244C159.252 137.283 159.375 137.293 159.495 137.272C161.742 136.372 163.58 134.672 164.66 132.495C166.3 129.576 167.867 126.604 168.352 123.261C169.144 117.811 167.942 115.109 165.376 112.397C165.14 112.209 164.977 111.945 164.912 111.65C164.848 111.355 164.887 111.047 165.023 110.777C165.442 110.709 165.872 110.757 166.265 110.917C166.658 111.077 167 111.343 167.253 111.686C168.851 113.556 169.808 115.894 169.983 118.354C170.402 122.154 169.697 125.994 167.957 129.393L167.785 129.757C166.631 132.201 165.481 134.637 163.398 136.473C162.271 137.557 160.901 138.351 159.405 138.789C159.089 138.906 158.815 139.117 158.62 139.393C157.605 140.71 156.168 141.633 154.552 142.005C153.199 142.4 151.801 142.619 150.393 142.655C150.161 142.653 149.886 142.676 149.588 142.701H149.588C148.362 142.805 146.748 142.941 146.175 141.49C146.069 141.295 145.939 141.114 145.789 140.951C145.674 140.68 145.543 140.416 145.396 140.162C144.124 138.237 141.62 134.47 138.843 130.292L138.816 130.252L138.79 130.213L138.756 130.161L138.756 130.161L138.734 130.128L138.727 130.117L138.709 130.091L138.705 130.084C134.074 123.117 128.731 115.079 127.082 112.552C126.109 111.061 126.19 110.755 127.284 109.656C127.389 109.55 127.42 109.504 127.442 109.47L127.449 109.461L127.455 109.451C127.508 109.378 127.587 109.324 128.624 108.623L128.624 108.623L128.625 108.623C129.641 107.935 131.576 106.626 135.304 104.069ZM136.992 139.573C136.725 139.332 136.487 139.061 136.282 138.766C136.218 138.771 136.154 138.762 136.093 138.742C135.131 142.468 133.622 149.825 132.327 156.137C131.645 159.462 131.023 162.497 130.571 164.558C130.445 165.133 130.664 165.191 131.16 165.191C137.552 165.178 140.823 165.179 142.553 165.179H142.555H142.558H142.561H142.563H142.565H142.567H142.57H142.572H142.574H142.575H142.577H142.579H142.581H142.582H142.584H142.585H142.587H142.588H142.59H142.591H142.592H142.594H142.595C144.244 165.18 144.463 165.18 144.68 165.167C144.711 165.166 144.742 165.164 144.777 165.161L144.789 165.16C144.834 165.158 144.885 165.154 144.95 165.15C143.702 164.361 142.693 163.24 142.036 161.912C141.986 161.752 141.958 161.586 141.955 161.419C142.481 161.757 143.127 162.279 143.994 162.98L143.994 162.98L143.994 162.98L143.995 162.98L143.995 162.981L143.997 162.982C144.696 163.547 145.538 164.228 146.577 165.022C146.587 165.029 146.595 165.036 146.602 165.043L146.615 165.054L146.615 165.055C146.622 165.06 146.628 165.066 146.634 165.071C146.774 165.189 147.012 165.188 152.443 165.185C154.175 165.184 156.434 165.183 159.386 165.185C159.791 165.185 159.796 165.075 159.612 164.755C159.182 164.014 158.754 163.273 158.325 162.532L158.317 162.519L158.316 162.516C157.169 160.531 156.021 158.547 154.851 156.573C154.558 156.077 153.806 155.835 152.947 155.558C151.19 154.991 148.981 154.278 149.318 150.96C149.327 150.638 149.228 150.323 149.036 150.066C148.222 148.986 147.393 147.878 147.725 146.451C147.824 146.142 147.81 145.807 147.687 145.507C147.563 145.207 147.337 144.961 147.05 144.813C146.588 144.451 146.25 143.952 146.085 143.386C146.049 143.14 145.92 142.917 145.726 142.762C145.532 142.608 145.287 142.534 145.04 142.556C142.11 142.447 139.291 141.403 136.992 139.573ZM123.903 117.809C125.946 117.826 127.231 118.383 127.227 121.198C127.208 133.706 127.21 146.215 127.233 158.725C127.301 159.392 127.176 160.064 126.874 160.661C126.572 161.258 126.106 161.755 125.53 162.092C125.248 162.238 124.936 162.314 124.619 162.312C117.558 162.312 107.017 162.306 97.0503 162.3H97.0386H97.0208H96.9938L96.9526 162.3L96.7925 162.3C83.1012 162.292 70.5618 162.284 69.7157 162.295C67.9325 162.317 66.8779 161.239 66.8596 159.265C66.8309 156.144 66.8767 136.344 66.9022 125.325L66.9117 121.198C66.8776 120.713 66.9006 120.226 66.9802 119.747C67.1037 119.209 67.4049 118.729 67.8346 118.386C68.2644 118.042 68.7972 117.855 69.3461 117.855C70.34 117.8 123.834 117.808 123.903 117.809ZM68.6668 124.39C68.1525 124.39 68.003 124.507 68.0145 125.035C68.042 126.292 68.0398 127.548 68.0376 128.805C68.0366 129.406 68.0355 130.006 68.0377 130.606C68.0546 135.77 68.0808 140.934 68.107 146.099V146.099V146.1V146.1V146.1V146.1V146.1V146.1V146.1V146.1V146.101V146.101V146.101V146.101V146.101V146.101V146.101V146.102V146.102V146.102V146.102V146.102V146.102V146.102L68.107 146.11L68.107 146.118L68.1071 146.126L68.1071 146.134L68.1071 146.142L68.1072 146.15C68.1302 150.692 68.1532 155.235 68.1699 159.776C68.1933 159.974 68.2604 160.164 68.3662 160.331C68.4721 160.499 68.6141 160.641 68.7817 160.747C69.5607 161.163 70.4782 161.13 71.9596 161.077C72.5515 161.056 73.2335 161.032 74.0327 161.031C90.7578 161.031 107.477 161.033 124.192 161.037C124.526 161.072 124.861 160.985 125.138 160.794C125.415 160.603 125.615 160.319 125.704 159.993C125.742 159.877 125.775 159.799 125.803 159.719C125.989 159.202 125.989 158.617 125.981 147.048V147.045V147.041V147.037V147.032V147.026V147.02V147.012V147.004V147.003V147.001V147V146.998V146.995V146.993V146.99V146.986V146.982V146.978V146.973V146.968V146.961V146.954C125.978 142.006 125.973 135.064 125.981 125.286C125.981 124.641 125.813 124.493 125.19 124.497C118.899 124.531 99.9039 124.475 85.2109 124.432L85.1971 124.432C77.9686 124.411 71.7831 124.393 68.6668 124.39ZM125.211 122.98C125.348 122.98 126.237 122.815 125.886 120.514C125.713 119.36 125.194 119.312 124.034 119.207C123.868 119.225 110.744 119.207 96.4162 119.187C86.8723 119.174 76.7944 119.16 69.6568 119.155C69.472 119.13 69.284 119.146 69.1054 119.199C68.9268 119.253 68.7615 119.344 68.6205 119.467C68.4795 119.59 68.3659 119.741 68.2872 119.911C68.2086 120.081 68.1666 120.266 68.1641 120.454C68.0724 121.115 68.1294 123.065 68.6205 123.065C71.7866 123.061 78.1209 123.05 85.5003 123.037C100.163 123.01 118.953 122.977 125.213 122.977L125.211 122.98ZM9.14728 128.611C9.60975 129.066 10.2221 129.334 10.868 129.364C12.3395 129.434 55.2683 129.425 64.0055 129.413C64.5955 129.411 65.1611 129.176 65.58 128.758C65.999 128.341 66.2375 127.774 66.2441 127.18C66.2517 125.504 66.2459 123.825 66.2402 122.146C66.2364 121.04 66.2326 119.934 66.2326 118.828C66.2568 118.667 66.2368 118.503 66.1747 118.352C66.0656 118.01 65.1943 118.129 65.0785 118.323C64.974 118.495 64.9756 118.704 64.9861 120.138C64.9949 121.338 65.0099 123.397 64.9743 127.012C64.9676 127.766 64.6057 128.161 63.9766 128.161C62.607 128.161 59.8632 128.159 56.2931 128.158C43.514 128.151 20.1489 128.139 11.336 128.167C11.1 128.173 10.8652 128.131 10.6453 128.045C10.4254 127.959 10.2249 127.829 10.0556 127.663C9.88636 127.498 9.75168 127.3 9.65953 127.081C9.56738 126.863 9.51961 126.628 9.51905 126.39C9.51658 125.989 9.54068 125.587 9.56478 125.184C9.58775 124.8 9.61072 124.417 9.61072 124.034C9.61161 120.351 9.61766 116.667 9.62371 112.983V112.983C9.63741 104.645 9.65111 96.3061 9.60493 87.9692C9.60203 87.3714 9.72651 87.2093 10.3498 87.2093C47.739 87.246 47.7387 87.2444 47.7178 87.124C47.7171 87.1202 47.7164 87.1163 47.7169 87.1123C47.7703 86.726 47.7722 86.3343 47.7227 85.9476C47.7214 85.9395 47.7215 85.9318 47.7198 85.9246C47.6923 85.8106 47.1911 85.8106 32.8017 85.812H32.8007H32.7998H32.7988H32.7977H32.7966H32.7954H32.7942H32.793H32.7916H32.7903H32.7889H32.7874H32.7858H32.7842H32.7825H32.7807H32.7788H32.7769H32.7749H32.7727H32.7705C27.5877 85.8125 20.6069 85.8132 11.2038 85.8088C11.1474 85.8088 11.0834 85.8129 11.0142 85.8173C10.4352 85.8545 9.49445 85.9148 9.65993 83.7891C9.72649 83.3482 9.94621 82.9454 10.2801 82.652C10.6139 82.3587 11.0404 82.1938 11.4836 82.1867C24.5629 82.19 32.8542 82.1989 38.1166 82.2046H38.1259H38.1321H38.1363C47.1425 82.2142 47.2577 82.2143 47.3365 82.1609L47.3396 82.1588C47.3474 82.1534 47.3559 82.1475 47.3734 82.1411C47.6436 82.044 47.6339 80.9716 47.3445 80.8794C46.9402 80.7493 12.0809 80.8241 11.5183 80.8386C10.8482 80.7727 10.1766 80.9484 9.62321 81.3343C9.06987 81.7202 8.67082 82.2913 8.49721 82.9457C8.4879 82.9801 8.4791 83.009 8.47079 83.0364L8.45979 83.073C8.32897 83.5166 8.32917 83.9988 8.33658 102.139C8.33887 107.759 8.34186 115.072 8.34186 124.605C8.34186 124.804 8.34041 125.003 8.33896 125.203C8.33485 125.768 8.33073 126.336 8.35923 126.898C8.40439 127.547 8.68481 128.156 9.14728 128.611ZM15.5593 98.8889C15.5593 97.5884 16.0263 97.1099 17.2904 97.107C19.1328 97.1024 20.9778 97.1039 22.8224 97.1055H22.8227H22.8229H22.8231H22.8233H22.8235H22.8238H22.824H22.8242H22.8244H22.8246H22.8248H22.8251H22.8253H22.8255H22.8257H22.8259H22.8261H22.8264H22.8266H22.8268C23.7476 97.1062 24.6683 97.107 25.5886 97.107C26.8343 97.107 27.3196 97.5922 27.3196 98.819V113.23C27.3196 114.431 26.8227 114.936 25.6571 114.936H17.2209C16.0553 114.936 15.5593 114.431 15.5593 113.23V98.8889ZM26.3663 98.9054C26.3721 98.3308 26.2274 98.0697 25.5944 98.0756C22.8283 98.1027 20.0622 98.1027 17.2962 98.0756C16.7307 98.0756 16.5242 98.2503 16.5242 98.8365C16.5326 103.618 16.5326 108.398 16.5242 113.177C16.5242 113.793 16.7384 113.978 17.3319 113.972C20.0735 113.948 22.8164 113.948 25.5606 113.972C26.155 113.978 26.375 113.793 26.3682 113.177C26.346 111.259 26.348 100.812 26.3663 98.9073V98.9054ZM34.0886 99.977C34.1734 99.9963 34.2612 99.9973 34.3463 99.9798C35.2914 99.9825 37.5763 99.99 39.985 99.9979L40.0954 99.9983L40.1417 99.9985L40.214 99.9987C43.0045 100.008 45.9089 100.017 47.0522 100.021C47.5019 100.022 47.7788 99.9701 47.7788 99.3877C47.7788 98.8592 47.3419 98.8595 46.9822 98.8598L46.9596 98.8598C45.3412 98.8631 43.7228 98.8809 42.1044 98.8986C39.4646 98.9276 36.8249 98.9566 34.1852 98.9229C34.0441 98.9153 33.9056 98.9632 33.799 99.0565C33.6924 99.1498 33.626 99.2811 33.6139 99.4227C33.6204 99.5098 33.6452 99.5946 33.6868 99.6713C33.7284 99.748 33.7857 99.815 33.855 99.8677C33.9243 99.9204 34.0039 99.9576 34.0886 99.977ZM30.7111 109.451C30.3011 109.422 30.1428 108.525 30.7227 108.395C31.1174 108.306 39.8102 108.332 39.9666 108.372C40.0901 108.401 40.2 108.472 40.2781 108.572C40.3562 108.673 40.3977 108.797 40.3956 108.925C40.3936 109.052 40.3482 109.175 40.267 109.273C40.1857 109.371 40.0736 109.438 39.9492 109.463C39.8527 109.468 30.8318 109.514 30.7111 109.451ZM158.656 145.175C158.821 144.992 158.973 144.797 159.111 144.593C159.07 144.54 159.032 144.484 158.997 144.426C158.754 144.479 158.513 144.543 158.276 144.62C157.35 145.048 156.396 145.408 155.42 145.7C153.347 146.237 151.164 146.157 149.136 145.468C149.124 145.463 149.11 145.457 149.097 145.451C149.074 145.442 149.051 145.43 149.026 145.419C148.816 145.319 148.529 145.184 148.461 145.613C148.423 145.844 148.478 146.244 148.622 146.321C148.688 146.356 148.752 146.391 148.813 146.424C150.149 147.147 150.261 147.208 153.59 147.097C155.464 147.148 157.282 146.458 158.656 145.175ZM153.553 151.608L153.395 151.564C152.711 151.373 151.986 151.171 151.267 150.948C150.834 150.815 150.308 150.606 150.551 150.037C150.627 149.863 151.267 149.792 151.591 149.886C152.778 150.323 154.053 150.464 155.306 150.298C156.01 150.157 156.692 149.912 157.374 149.667C157.783 149.52 158.193 149.372 158.606 149.248C158.973 149.172 159.346 149.129 159.72 149.121C159.542 149.439 159.337 149.742 159.108 150.025C158.222 150.772 157.144 151.251 155.998 151.407C155.22 151.712 154.37 151.781 153.553 151.608ZM41.5604 108.793C41.5536 109.284 41.9348 109.376 42.3323 109.376C42.6171 109.38 43.1989 109.382 43.8727 109.384C45.1511 109.388 46.7607 109.392 47.3016 109.42C47.7785 109.442 47.7743 109.185 47.7696 108.894L47.7696 108.893C47.7691 108.864 47.7686 108.835 47.7686 108.805C47.7686 108.769 47.7696 108.732 47.7705 108.696C47.7779 108.414 47.7843 108.168 47.3132 108.178C45.9884 108.211 44.6637 108.213 43.3384 108.216L43.3225 108.216H43.3224H43.3222H43.3221H43.3219H43.3218H43.3217H43.3215H43.3214H43.3213H43.3211H43.321C42.9956 108.217 42.6703 108.218 42.3449 108.219C41.9531 108.221 41.5671 108.303 41.5604 108.793ZM30.6705 99.9216C30.6382 99.9195 30.6042 99.9203 30.5694 99.9211C30.3739 99.9256 30.1559 99.9306 30.1166 99.4363C30.1745 99.0063 30.272 98.9656 30.5991 98.951C31.0466 98.8971 31.4994 98.9069 31.9442 98.9801C32.388 99.0034 32.4575 99.8895 31.9152 99.9206C31.7261 99.9264 30.9011 99.9361 30.6705 99.9216ZM124.153 48.266C124.09 48.3203 123.087 51.3154 122.675 52.7305C122.358 53.8165 121.676 56.7855 122.526 57.656C123.157 58.6392 125.038 59.173 125.076 57.6386C125.076 57.624 125.007 57.5955 124.895 57.55C124.435 57.3618 123.262 56.8825 123.38 55.8916C123.533 54.596 124.015 52.6506 124.434 50.9589C124.667 50.0209 124.88 49.1609 125.007 48.5329C125.049 48.3242 124.346 48.1039 124.153 48.266ZM123.834 61.1054C123.662 61.0083 123.48 60.1581 124.117 60.2319C124.646 60.3604 125.185 60.448 125.728 60.4939C126.721 60.4542 127.487 58.9432 127.738 58.4472C127.782 58.3611 127.81 58.3056 127.821 58.2937C127.863 58.2495 127.905 58.2021 127.948 58.1537L127.948 58.1534C128.143 57.9342 128.354 57.6969 128.584 57.6667C129.057 57.6056 129.228 58.0268 129.247 58.4567C129.307 59.8611 128.394 60.7676 127.337 61.5324C126.417 62.2011 124.454 61.4625 123.834 61.1054ZM122.684 45.9642C122.555 45.8588 122.396 45.7993 122.23 45.7949C121.491 45.8263 120.783 46.0965 120.209 46.5652C119.635 47.034 119.227 47.6764 119.045 48.397C119.004 48.6299 119.356 49.2511 119.697 48.8095C119.999 48.3605 120.391 47.9792 120.847 47.6896C121.302 47.4 121.813 47.2083 122.346 47.1265C122.746 47.0974 123.079 46.8014 122.939 46.3773C122.902 46.2149 122.812 46.0696 122.684 45.9642ZM122.242 51.7561C122.255 53.7476 119.985 53.5545 119.968 51.8434C119.959 50.8389 120.383 50.1682 121.035 50.1595C121.688 50.1508 122.236 50.8855 122.242 51.7561ZM96.4373 149.783C97.958 147.591 98.8012 144.996 98.8612 142.324C98.9035 138.691 97.5111 135.189 94.9896 132.587C92.4681 129.985 89.0234 128.495 85.4114 128.445C82.7539 128.437 80.1534 129.219 77.9358 130.692C75.7183 132.165 73.9825 134.263 72.9463 136.725C71.91 139.186 71.6194 141.9 72.1109 144.527C72.6024 147.154 73.8541 149.577 75.709 151.491C77.5639 153.405 79.9395 154.725 82.5376 155.287C85.1358 155.848 87.8409 155.625 90.3137 154.646C92.7864 153.667 94.9167 151.975 96.4373 149.783ZM95.0016 134.074C96.7872 136.235 97.8058 138.933 97.8963 141.742L97.8925 141.738C97.987 153.018 86.1505 158.909 77.8648 152.618C77.5223 152.363 77.5753 152.216 77.8301 151.938C83.2863 145.958 88.7561 139.992 94.2393 134.039C94.5674 133.686 94.7189 133.719 95.0016 134.074ZM76.4773 151.368C74.2592 149.103 72.9663 146.084 72.854 142.906L72.8502 142.904C72.7904 136.77 76.3335 131.802 81.4282 130.074C81.9763 129.887 82.1336 129.998 82.2358 130.526C83.0219 134.543 83.8009 138.561 84.5729 142.58C84.5862 142.755 84.5651 142.931 84.5106 143.097C84.4561 143.264 84.3694 143.418 84.2554 143.551C82.9961 144.99 81.7249 146.419 80.4537 147.848L80.4531 147.849C79.4044 149.028 78.3558 150.207 77.3138 151.392C76.9597 151.798 76.7793 151.692 76.4773 151.368ZM85.5439 141.991C85.5149 141.996 85.4753 142.003 85.421 142.012L85.4172 142.01C85.124 140.555 84.838 139.101 84.5526 137.65C84.0518 135.104 83.5525 132.566 83.0184 130.038C83.0253 129.946 83.0556 129.858 83.1063 129.782C83.157 129.705 83.2264 129.643 83.3079 129.602C85.0934 129.296 86.9241 129.392 88.6683 129.883C90.4125 130.374 92.0268 131.248 93.395 132.442C93.4468 132.507 93.4809 132.585 93.4941 132.667C93.5073 132.75 93.4991 132.834 93.4703 132.913C91.0608 135.725 88.6282 138.52 86.2007 141.309L85.6236 141.972C85.6172 141.979 85.6014 141.982 85.5439 141.991ZM119.339 132.963C119.755 132.984 120.182 133.044 120.158 133.583C120.136 134.068 119.72 134.123 119.333 134.123L118.851 134.124H118.85H118.847C116.186 134.128 103.652 134.15 103.293 134.095C102.855 134.027 102.856 133.101 103.293 132.997C103.715 132.897 119.223 132.956 119.339 132.963ZM107.526 149.885C107.594 149.978 107.69 150.047 107.799 150.083C107.944 150.136 120.956 150.109 121.192 150.066C121.293 150.02 121.379 149.946 121.438 149.852C121.497 149.757 121.528 149.648 121.525 149.536C121.523 149.425 121.487 149.316 121.424 149.225C121.361 149.133 121.272 149.063 121.169 149.022C121.036 148.93 108.173 148.869 107.776 149.028C107.668 149.068 107.576 149.142 107.511 149.238C107.447 149.334 107.414 149.448 107.416 149.564C107.419 149.68 107.457 149.792 107.526 149.885ZM111.273 136.654C111.706 136.654 112.166 136.695 112.15 137.275C112.137 137.809 111.689 137.849 111.29 137.85H103.703C103.299 137.85 102.857 137.797 102.86 137.258C102.86 136.675 103.328 136.654 103.76 136.654H111.273ZM103.243 149.068C102.713 149.249 102.88 149.98 103.474 150.025C104.421 150.126 105.377 150.128 106.324 150.031C106.555 149.979 106.568 149.121 106.042 148.998C105.173 148.958 103.791 149.033 103.243 149.068ZM70.8417 121.117C70.8417 121.347 70.9323 121.567 71.0935 121.729C71.2548 121.891 71.4734 121.982 71.7014 121.982C71.9295 121.982 72.1481 121.891 72.3094 121.729C72.4706 121.567 72.5612 121.347 72.5612 121.117C72.5612 120.888 72.4706 120.668 72.3094 120.506C72.1481 120.344 71.9295 120.253 71.7014 120.253C71.4734 120.253 71.2548 120.344 71.0935 120.506C70.9323 120.668 70.8417 120.888 70.8417 121.117ZM74.3255 121.723C74.1643 121.561 74.0737 121.341 74.0737 121.112C74.0737 120.882 74.1643 120.662 74.3255 120.5C74.4868 120.338 74.7055 120.247 74.9335 120.247C75.1615 120.247 75.3802 120.338 75.5414 120.5C75.7026 120.662 75.7932 120.882 75.7932 121.112C75.7932 121.341 75.7026 121.561 75.5414 121.723C75.3802 121.885 75.1615 121.976 74.9335 121.976C74.7055 121.976 74.4868 121.885 74.3255 121.723ZM77.2752 121.117C77.2752 121.347 77.3658 121.567 77.527 121.729C77.6883 121.891 77.9069 121.982 78.135 121.982C78.363 121.982 78.5817 121.891 78.7429 121.729C78.9041 121.567 78.9947 121.347 78.9947 121.117C78.9947 120.888 78.9041 120.668 78.7429 120.506C78.5817 120.344 78.363 120.253 78.135 120.253C77.9069 120.253 77.6883 120.344 77.527 120.506C77.3658 120.668 77.2752 120.888 77.2752 121.117ZM12.5563 84.6597C12.3951 84.4975 12.3045 84.2776 12.3045 84.0482C12.3045 83.8189 12.3951 83.5989 12.5563 83.4367C12.7176 83.2746 12.9362 83.1835 13.1643 83.1835C13.3923 83.1835 13.611 83.2746 13.7722 83.4367C13.9334 83.5989 14.024 83.8189 14.024 84.0482C14.024 84.2776 13.9334 84.4975 13.7722 84.6597C13.611 84.8219 13.3923 84.913 13.1643 84.913C12.9362 84.913 12.7176 84.8219 12.5563 84.6597ZM15.5711 84.0482C15.5711 84.2776 15.6617 84.4975 15.8229 84.6597C15.9842 84.8219 16.2028 84.913 16.4309 84.913C16.6589 84.913 16.8776 84.8219 17.0388 84.6597C17.2 84.4975 17.2906 84.2776 17.2906 84.0482C17.2906 83.8189 17.2 83.5989 17.0388 83.4367C16.8776 83.2746 16.6589 83.1835 16.4309 83.1835C16.2028 83.1835 15.9842 83.2746 15.8229 83.4367C15.6617 83.5989 15.5711 83.8189 15.5711 84.0482ZM19.0887 84.6597C18.9275 84.4975 18.8369 84.2776 18.8369 84.0482C18.8369 83.8189 18.9275 83.5989 19.0887 83.4367C19.25 83.2746 19.4686 83.1835 19.6966 83.1835C19.9247 83.1835 20.1433 83.2746 20.3046 83.4367C20.4658 83.5989 20.5564 83.8189 20.5564 84.0482C20.5564 84.2776 20.4658 84.4975 20.3046 84.6597C20.1433 84.8219 19.9247 84.913 19.6966 84.913C19.4686 84.913 19.25 84.8219 19.0887 84.6597Z" fill="#4D4D4D"/>
</svg>
