<svg width="200" height="294" viewBox="0 0 200 294" fill="none" xmlns="http://www.w3.org/2000/svg">
<g clip-path="url(#clip0_3662_58769)">
<mask id="mask0_3662_58769" style="mask-type:luminance" maskUnits="userSpaceOnUse" x="0" y="0" width="200" height="308">
<path d="M200 0H0V307.53H200V0Z" fill="white"/>
</mask>
<g mask="url(#mask0_3662_58769)">
<path d="M107.651 318.611C88.1107 322.173 74.8852 324.198 70.7214 312.251C69.1213 307.663 63.7588 237.928 63.7588 237.928C61.6253 224.438 72.6829 211.482 88.4663 208.982C104.244 206.481 118.771 215.394 120.905 228.878C120.905 228.878 140.68 301.669 142.275 313.989C144.219 328.986 123.365 315.738 107.651 318.606V318.611Z" fill="#FFAB8A"/>
<path d="M70.5608 316.535L63.7588 237.934C61.6253 224.444 72.6829 211.488 88.4663 208.988C104.244 206.487 118.771 215.4 120.905 228.883L144.815 321.364" stroke="#160F23" stroke-width="1.98" stroke-linecap="round" stroke-linejoin="round"/>
<path d="M119.729 225.144C136.62 195.201 96.6965 176.561 95.6871 165.314C94.5974 153.127 92.6474 152.347 96.0484 140.985C97.7804 135.193 94.4368 127.244 90.8809 123.843C87.3308 120.442 60.1227 130.088 50.8087 152.387C47.3044 160.778 43.0259 173.2 43.9263 185.021C44.8325 196.841 46.4154 208.409 47.6371 214.11C49.6444 223.498 52.3056 229.096 55.1158 234.132C60.1915 243.205 66.6265 245.906 66.6265 245.906" fill="#FFAB8A"/>
<path d="M119.729 225.144C136.62 195.201 96.6965 176.561 95.6871 165.314C94.5974 153.127 92.6474 152.347 96.0484 140.985C97.7804 135.193 94.4368 127.244 90.8809 123.843C87.3308 120.442 60.1227 130.088 50.8087 152.387C47.3044 160.778 43.0259 173.2 43.9263 185.021C44.8325 196.841 46.4154 208.409 47.6371 214.11C49.6444 223.498 52.3056 229.096 55.1158 234.132C60.1915 243.205 66.6265 245.906 66.6265 245.906" stroke="#160F23" stroke-width="2.03" stroke-linecap="round" stroke-linejoin="round"/>
<path d="M57.3182 141.455C57.3182 141.455 63.8449 118.634 66.5519 108.701C66.5519 108.701 66.9936 101.847 68.4847 100.001C69.9759 98.1538 74.134 97.6606 78.6247 100.557C84.4804 104.331 84.8646 113.037 84.8646 113.037C84.8646 113.037 91.9477 118.629 90.9497 126.647C89.9518 134.664 85.4496 143.829 85.0309 147.425C84.4746 152.197 85.5586 162.383 85.5586 166.484" fill="#FFAB8A"/>
<path d="M57.3182 141.455C57.3182 141.455 63.8449 118.634 66.5519 108.701C66.5519 108.701 66.9936 101.847 68.4847 100.001C69.9759 98.1538 74.134 97.6606 78.6247 100.557C84.4804 104.331 84.8646 113.037 84.8646 113.037C84.8646 113.037 91.9477 118.629 90.9497 126.647C89.9518 134.664 85.4496 143.829 85.0309 147.425C84.4746 152.197 85.5586 162.383 85.5586 166.484" stroke="#160F23" stroke-width="2.01" stroke-linecap="round" stroke-linejoin="round"/>
<path d="M43.7715 179.48C43.0775 165.469 41.6379 152.289 41.0702 144.437C40.5024 136.586 40.7662 131.401 45.2741 126.87C52.7013 119.392 71.0656 103.166 71.0656 103.166C75.0229 100.259 81.7159 107.118 77.6324 118.818C76.0094 123.464 74.587 127.61 67.0337 133.517C62.91 136.741 64.0915 138.054 64.5446 141.57C65.1181 146.038 67.286 160.703 70.1594 170.808" fill="#FFAB8A"/>
<path d="M43.7715 179.48C43.0775 165.469 41.6379 152.289 41.0702 144.437C40.5024 136.586 40.7662 131.401 45.2741 126.87C52.7013 119.392 71.0656 103.166 71.0656 103.166C75.0229 100.259 81.7159 107.118 77.6324 118.818C76.0094 123.464 74.587 127.61 67.0337 133.517C62.91 136.741 64.0915 138.054 64.5446 141.57C65.1181 146.038 67.286 160.703 70.1594 170.808" stroke="#160F23" stroke-width="1.94" stroke-linecap="round" stroke-linejoin="round"/>
<path d="M84.8646 113.043C85.4955 116.375 82.668 122.185 79.2097 133.277C75.757 144.363 75.9406 145.998 76.6116 150.144C77.4891 155.587 78.3264 162.424 78.8655 167.809" stroke="#160F23" stroke-width="2.01" stroke-linecap="round" stroke-linejoin="round"/>
<path d="M53.4813 135.071C57.8458 137.05 63.6613 136.465 63.6613 136.465" stroke="#160F23" stroke-width="1.94" stroke-linecap="round" stroke-linejoin="round"/>
<path d="M175.109 190.159L113.334 218.147C105.919 221.507 97.1897 218.233 93.8346 210.84L27.0876 63.5182C23.7382 56.1198 27.0303 47.4022 34.4517 44.0413L96.2262 16.0532C103.642 12.6924 112.371 15.9672 115.726 23.36L182.473 170.682C185.822 178.08 182.53 186.798 175.109 190.159Z" fill="#DEE9FF" stroke="#120325" stroke-width="2.06" stroke-linecap="round" stroke-linejoin="round"/>
<path d="M171.152 162.807L95.3831 197.138C93.1406 198.153 90.5081 197.178 89.5044 194.964L34.337 73.1991C33.3333 70.9796 34.337 68.3643 36.5795 67.3434L112.348 33.0122C114.59 31.997 117.223 32.972 118.227 35.1858L173.394 156.945C174.398 159.165 173.394 161.78 171.152 162.801V162.807Z" fill="white"/>
<path d="M111.493 32.9775L37.1071 66.6837" stroke="#004ADD" stroke-width="2.06" stroke-linecap="round"/>
<path d="M170.561 163.341L96.1688 197.047" stroke="#004ADD" stroke-width="2.06" stroke-linecap="round"/>
<path d="M64.3496 39.2921L79.2728 32.5303C80.3969 32.0198 81.7102 32.4959 82.2035 33.5856C82.6967 34.681 82.1863 35.9772 81.0622 36.4876L66.139 43.2495C65.0149 43.7599 63.7015 43.2839 63.2083 42.1942C62.7151 41.1045 63.2255 39.8026 64.3496 39.2921Z" fill="#004ADD"/>
<path d="M55.4026 48.1195C54.3072 48.6128 53.0225 48.131 52.5293 47.0356C52.036 45.9401 52.5178 44.6554 53.6132 44.1622C54.7087 43.669 55.9934 44.1507 56.4866 45.2462C56.9798 46.3416 56.4981 47.6263 55.4026 48.1195Z" fill="#004ADD"/>
<path d="M141.363 197.34C138.306 198.727 134.698 197.368 133.31 194.311C131.922 191.254 133.282 187.647 136.339 186.259C139.395 184.871 143.003 186.23 144.391 189.287C145.779 192.344 144.42 195.952 141.363 197.34Z" stroke="#004ADD" stroke-width="2.06" stroke-linecap="round" stroke-linejoin="round"/>
<path d="M88.8851 179.663C79.7431 158.064 82.3928 146.725 73.7841 139.012C67.0911 133.012 61.3444 136.391 59.0101 137.756C56.6759 139.121 58.5169 147.437 59.3141 154.388C60.1113 161.333 58.7635 168.961 56.3948 180.621C54.2326 191.265 49.8796 212.933 59.0158 225.574C65.2902 234.257 80.2879 232.261 86.3386 224.301C94.2189 213.943 96.404 197.431 88.8793 179.663H88.8851Z" fill="#FFAB8A"/>
<path d="M89.5446 218.542C98.1303 202.082 90.8178 184.383 88.8851 179.663C80.0011 157.955 81.6873 147.465 73.7841 139.012C68.2725 133.116 61.3443 136.391 59.0101 137.756C56.6758 139.121 58.5169 147.437 59.3141 154.388C60.1113 161.333 58.5857 166.931 56.63 178.671C54.6054 190.778 50.3327 209.59 57.4386 223.882" fill="#FFAB8A"/>
<path d="M89.5446 218.542C98.1303 202.082 90.8178 184.383 88.8851 179.663C80.0011 157.955 81.6873 147.465 73.7841 139.012C68.2725 133.116 61.3443 136.391 59.0101 137.756C56.6758 139.121 58.5169 147.437 59.3141 154.388C60.1113 161.333 58.5857 166.931 56.63 178.671C54.6054 190.778 50.3327 209.59 57.4386 223.882" stroke="#160F23" stroke-width="1.95" stroke-linecap="round" stroke-linejoin="round"/>
<path d="M164.482 126.646C170.716 131.716 172.729 139.241 169.184 143.657L165.6 148.085L143.261 130.26L146.788 125.838C150.367 121.364 158.322 121.725 164.482 126.652V126.646Z" fill="#FFB000"/>
<path d="M160.88 131.131C154.697 126.216 146.805 125.854 143.169 130.316C139.533 134.778 141.695 142.395 147.872 147.264C154.043 152.133 161.929 152.535 165.583 148.078C169.236 143.622 167.057 136 160.88 131.131Z" fill="#FCF395"/>
<path d="M141.73 133.477C141.982 132.301 142.51 131.2 143.261 130.259L146.788 125.838C150.367 121.364 158.259 121.725 164.493 126.675C169.356 130.558 171.679 136.104 170.71 140.463C170.458 141.638 169.93 142.739 169.179 143.68L165.577 148.085C161.998 152.558 154.106 152.197 147.872 147.247C143.083 143.382 140.76 137.836 141.73 133.477ZM140.502 133.213C139.395 138.191 142.051 144.254 147.121 148.297C153.831 153.602 162.583 153.872 166.638 148.825L170.022 144.58C170.922 143.456 171.547 142.143 171.851 140.738C172.958 135.76 170.303 129.697 165.233 125.654C162.268 123.171 158.597 121.691 154.737 121.416C153.04 121.255 151.331 121.502 149.753 122.15C148.176 122.798 146.777 123.813 145.681 125.121L142.298 129.365C141.397 130.489 140.772 131.802 140.468 133.207H140.502V133.213Z" fill="#100423"/>
<path d="M152.627 133.276C151.462 133.592 150.453 134.314 149.771 135.307C149.237 135.897 148.962 136.677 148.996 137.475C149.031 138.272 149.375 139.017 149.96 139.562C152.724 141.61 155.976 135.829 158.964 138.042C159.274 138.3 159.526 138.616 159.704 138.977C159.882 139.339 159.985 139.729 160.008 140.13C160.025 140.531 159.962 140.933 159.819 141.306C159.675 141.679 159.457 142.023 159.171 142.304C158.517 143.279 157.559 144.013 156.441 144.38" stroke="#100423" stroke-width="2.3" stroke-linecap="round" stroke-linejoin="round"/>
<path d="M147.436 133.552L149.771 135.301" stroke="#100423" stroke-width="2.3" stroke-linecap="round" stroke-linejoin="round"/>
<path d="M159.188 142.31L161.539 144.065" stroke="#100423" stroke-width="2.3" stroke-linecap="round" stroke-linejoin="round"/>
<path d="M187.663 95.0163C185.931 103.619 179.669 109.389 173.595 108.202L167.493 106.98L173.394 76.3193L179.468 77.4836C185.61 78.6765 189.304 86.551 187.663 95.0105V95.0163Z" fill="#FFB000"/>
<path d="M181.498 93.8116C183.11 85.3349 179.456 77.5177 173.291 76.2674C167.131 75.0171 160.863 80.9761 159.285 89.4241C157.708 97.8721 161.327 105.701 167.493 106.968C173.658 108.241 179.921 102.26 181.498 93.8116Z" fill="#FCF395"/>
<path d="M169.506 76.4742C170.773 76.1243 172.104 76.067 173.394 76.3194L179.468 77.4836C185.61 78.6765 189.269 86.4937 187.652 95.0335C186.362 101.709 182.181 106.774 177.472 108.053C176.204 108.402 174.874 108.46 173.583 108.207L167.493 106.957C161.35 105.764 157.691 97.947 159.308 89.4072C160.616 82.8117 164.803 77.7474 169.511 76.4685L169.506 76.4742ZM169.19 75.3673C163.879 76.8068 159.417 82.3873 158.098 89.2581C156.395 98.337 160.53 106.825 167.389 108.173L173.142 109.28C174.667 109.572 176.239 109.509 177.73 109.096C183.041 107.657 187.503 102.076 188.822 95.2056C189.705 91.1278 189.281 86.8722 187.606 83.0468C186.912 81.3434 185.811 79.8351 184.4 78.6479C182.989 77.4664 181.315 76.6405 179.519 76.2448L173.767 75.1379C172.241 74.8454 170.67 74.9085 169.179 75.3214L169.19 75.3616V75.3673Z" fill="#100423"/>
<path d="M175.235 86.9177C174.34 85.9542 173.13 85.3405 171.823 85.1857C170.98 84.9735 170.085 85.0996 169.334 85.5355C168.582 85.9714 168.032 86.6883 167.802 87.5257C167.229 91.2421 174.467 91.4543 173.841 95.4633C173.75 95.8934 173.572 96.2949 173.314 96.6505C173.056 97.006 172.729 97.3043 172.35 97.5279C171.972 97.7516 171.553 97.8893 171.117 97.9409C170.681 97.9925 170.24 97.9524 169.821 97.8262C168.542 97.6943 167.349 97.1322 166.426 96.2432" stroke="#100423" stroke-width="2.52" stroke-linecap="round" stroke-linejoin="round"/>
<path d="M172.327 82.0371L171.817 85.1858" stroke="#100423" stroke-width="2.52" stroke-linecap="round" stroke-linejoin="round"/>
<path d="M169.827 97.8496L169.322 101.015" stroke="#100423" stroke-width="2.52" stroke-linecap="round" stroke-linejoin="round"/>
<path d="M126.64 105.18C130.58 115.744 127.661 126.28 120.228 129.108L112.744 131.912L98.3941 94.4551L105.81 91.6104C113.323 88.7428 122.689 94.8336 126.64 105.18Z" fill="#FFB000"/>
<path d="M119.087 108.041C115.101 97.7008 105.81 91.6501 98.2393 94.4604C90.6687 97.2706 87.8699 108.024 91.8732 118.313C95.8764 128.597 105.133 134.687 112.721 131.894C120.309 129.101 123.09 118.331 119.087 108.041Z" fill="#FCF395"/>
<path d="M94.2533 97.2593C95.3946 96.0147 96.8169 95.0569 98.3941 94.4547L105.81 91.61C113.323 88.7424 122.608 94.7931 126.64 105.214C129.76 113.37 128.63 121.737 124.358 126.32C123.216 127.564 121.794 128.522 120.217 129.124L112.721 131.895C105.208 134.762 95.9222 128.711 91.8903 118.29C88.8506 110.209 89.9805 101.842 94.2533 97.2593ZM93.2725 96.3703C88.4893 101.503 87.4111 110.548 90.6056 118.881C94.8727 129.858 105.064 136.276 113.398 133.122L120.372 130.449C122.218 129.744 123.882 128.62 125.224 127.163C130.007 122.03 131.085 112.985 127.891 104.652C126.101 99.6394 122.78 95.315 118.393 92.2983C116.495 90.9218 114.287 90.0271 111.964 89.6887C109.641 89.3561 107.272 89.5912 105.058 90.3712L98.0844 93.0439C96.2377 93.7493 94.5744 94.8734 93.2324 96.3302L93.2725 96.3646V96.3703Z" fill="#100423"/>
<path d="M107.582 104.766C105.953 104.325 104.215 104.474 102.684 105.191C101.617 105.529 100.728 106.275 100.206 107.261C99.6846 108.248 99.5641 109.4 99.8853 110.473C101.778 114.918 109.819 110.238 111.861 115.044C112.05 115.572 112.13 116.139 112.09 116.701C112.05 117.264 111.895 117.808 111.637 118.307C111.373 118.806 111.012 119.242 110.57 119.598C110.128 119.948 109.624 120.206 109.079 120.349C107.593 121.066 105.913 121.272 104.301 120.923" stroke="#100423" stroke-width="3.23" stroke-linecap="round" stroke-linejoin="round"/>
<path d="M101.107 101.411L102.684 105.191" stroke="#100423" stroke-width="3.23" stroke-linecap="round" stroke-linejoin="round"/>
<path d="M109.096 120.361L110.696 124.158" stroke="#100423" stroke-width="3.23" stroke-linecap="round" stroke-linejoin="round"/>
<path d="M87.2218 81.6934L112.698 138.444L96.0885 146.227L70.1594 89.522L87.2218 81.6934Z" fill="white"/>
<path d="M91.2996 89.5791L111.981 137.962" stroke="#160F23" stroke-width="2.17" stroke-linecap="round" stroke-linejoin="round"/>
<path d="M118.829 62.5377C117.865 50.2356 122.689 40.2677 129.428 39.7917L136.132 39.2812L139.573 83.242L132.869 83.7525C126.13 84.2227 119.758 74.8628 118.783 62.7155L118.829 62.5377Z" fill="#FFB000"/>
<path d="M126.526 62.5089C125.51 50.4304 129.307 39.7858 136.138 39.2639C142.969 38.742 149.249 48.1535 150.224 60.3008C151.199 72.4481 146.404 82.7543 139.665 83.2246C132.926 83.6949 127.581 74.6217 126.6 62.4687L126.526 62.5031V62.5089Z" fill="#FCF395"/>
<path d="M124.472 42.149C125.803 40.8184 127.546 39.9868 129.416 39.7918L136.121 39.2814C142.86 38.8111 149.231 48.171 150.206 60.3183C150.9 69.2194 148.538 77.1341 144.592 80.885C143.261 82.2155 141.518 83.0472 139.648 83.2422L132.943 83.7526C126.204 84.2229 119.833 74.8629 118.858 62.7157C118.055 53.9235 120.469 45.9515 124.472 42.149ZM123.417 41.587C118.972 45.8081 116.655 53.9751 117.355 62.8705C118.37 75.8207 125.407 85.5363 133.201 84.8767L139.487 84.4007C141.804 84.1713 143.972 83.1447 145.624 81.4986C150.069 77.2775 152.386 69.1105 151.686 60.2151C150.671 47.2649 143.714 37.6354 135.84 38.2089L129.554 38.6849C127.237 38.9143 125.069 39.941 123.417 41.587Z" fill="#100423"/>
<path d="M141.294 53.0112C139.883 52.0248 138.174 51.5659 136.465 51.7093C135.323 51.6577 134.211 52.0534 133.362 52.8105C132.513 53.5733 131.997 54.6343 131.922 55.7756C132.146 60.7022 141.546 59.0619 141.758 64.3957C141.753 64.9692 141.627 65.537 141.391 66.0647C141.156 66.5866 140.812 67.0569 140.388 67.4411C139.963 67.8254 139.459 68.1179 138.914 68.3014C138.369 68.485 137.79 68.548 137.216 68.4964C135.553 68.6283 133.895 68.2097 132.49 67.3035" stroke="#100423" stroke-width="3.09" stroke-linecap="round" stroke-linejoin="round"/>
<path d="M136.316 47.4658L136.499 51.6698" stroke="#100423" stroke-width="3.09" stroke-linecap="round" stroke-linejoin="round"/>
<path d="M137.262 68.4795L137.445 72.6834" stroke="#100423" stroke-width="3.09" stroke-linecap="round" stroke-linejoin="round"/>
</g>
</g>
<defs>
<clipPath id="clip0_3662_58769">
<rect width="200" height="307.53" fill="white"/>
</clipPath>
</defs>
</svg>
