<svg width="241" height="241" viewBox="0 0 241 241" fill="none" xmlns="http://www.w3.org/2000/svg">
<g clip-path="url(#clip0_1311_38931)">
<path fill-rule="evenodd" clip-rule="evenodd" d="M66.1023 54.0581C68.7928 58.0696 74.4745 60.2762 78.9587 58.0696C79.5578 56.9239 80.024 55.7126 80.3481 54.4598C80.385 54.3593 80.3951 54.2508 80.3776 54.1452C80.3601 54.0396 80.3156 53.9403 80.2484 53.8573C80.1486 53.6564 79.949 53.3565 79.6496 53.3565C77.7184 53.2841 75.806 52.9467 73.9654 52.3536C72.168 51.6481 70.4904 50.6662 68.9924 49.4428C68.693 49.242 67.3932 50.5423 67.0977 50.9465C66.5459 51.6781 66.1096 52.491 65.8042 53.3565C65.79 53.4893 65.81 53.6236 65.8622 53.7464C65.9144 53.8693 65.9971 53.9766 66.1023 54.0581ZM171.546 68.2994C170.564 71.2622 162.951 81.6139 161.28 79.9323C159.559 78.1068 158.054 76.0862 156.796 73.9112C156.685 73.5821 157.921 72.5329 159.291 71.3703C160.424 70.4089 161.648 69.37 162.277 68.5968C163.41 66.9934 164.316 65.2395 164.969 63.3854C164.985 63.2588 165.027 63.1369 165.092 63.0271C165.157 62.9174 165.243 62.8221 165.345 62.747C165.448 62.6719 165.565 62.6187 165.689 62.5906C165.812 62.5624 165.94 62.56 166.065 62.5833C166.165 62.5833 171.048 66.0928 171.446 67.1961C171.533 67.5568 171.567 67.9286 171.546 68.2994ZM169.257 80.2333C168.983 80.1938 168.878 81.1476 168.737 82.4352C168.519 84.421 168.214 87.2009 167.066 88.3568C167.006 88.415 166.962 88.488 166.94 88.5685C166.917 88.6489 166.915 88.734 166.935 88.8152C166.955 88.8964 166.996 88.9709 167.054 89.0312C167.112 89.0915 167.184 89.1355 167.264 89.1588C168.456 89.6944 169.748 89.9678 171.053 89.9609C171.132 89.9711 171.212 89.9575 171.283 89.9217C171.354 89.8859 171.412 89.8296 171.451 89.76C173.325 87.2865 175.328 83.2318 173.146 81.0354C173.096 81.0354 172.13 80.831 171.173 80.6286L171.173 80.6285C170.234 80.43 169.305 80.2333 169.257 80.2333ZM86.3341 103.701C84.8062 103.355 83.3874 102.634 82.2045 101.601C81.0217 100.568 80.1117 99.2563 79.556 97.7829C79.5214 97.6877 79.465 97.602 79.3914 97.5327C79.3179 97.4634 79.2292 97.4124 79.1325 97.3839C79.0359 97.3553 78.9339 97.35 78.8348 97.3683C78.7357 97.3866 78.6422 97.4281 78.5619 97.4893C77.308 98.5478 76.3181 99.8873 75.6718 101.4C75.6212 101.474 75.5941 101.561 75.5941 101.651C75.5941 101.74 75.6212 101.828 75.6718 101.901C77.2078 104.842 80.4566 109.528 84.3434 108.621C84.3434 108.621 87.433 104.71 87.5316 104.71C88.028 103.901 87.0314 103.199 86.3341 103.701ZM179.619 174.805C181.452 174.556 183.318 174.834 185.001 175.607C185.322 175.781 185.643 175.906 185.955 176.027C186.902 176.395 187.767 176.73 188.297 178.315C188.794 180.521 189.579 190.403 186.402 195.565C185.664 196.764 184.465 196.509 183.389 196.28L183.388 196.28C183.192 196.238 182.999 196.197 182.815 196.166C181.073 195.871 179.391 195.295 177.832 194.461C176.322 193.657 176.624 192.937 177.129 191.731C177.193 191.579 177.26 191.42 177.326 191.252C178.467 187.811 179.532 184.153 178.922 180.321C178.772 179.383 178.602 178.616 178.461 177.982C178.016 175.975 177.868 175.308 179.619 174.805ZM164.078 132.082C151.919 135.993 135.873 131.28 135.873 131.28C135.873 131.28 131.18 143.121 120.12 140.607C109.155 138.111 111.449 131.28 111.449 131.28C95.0047 134.99 83.8423 129.174 83.8423 129.174C77.265 136.395 68.9926 164.777 68.9926 164.777C74.7784 168.547 80.8424 171.866 87.1315 174.705L85.6359 220.938C118.326 231.267 154.005 224.046 154.005 224.046V198.774C151.617 201.613 149.544 204.706 147.826 208L140.55 197.169C141.743 194.215 143.566 191.56 145.891 189.394C148.216 187.228 150.987 185.602 154.005 184.633V178.516L165.865 173.702C170.848 161.768 164.078 132.082 164.078 132.082ZM89.822 164.676L88.9201 159.361C88.9201 159.361 93.6039 160.864 96.993 155.449L99.5837 159.962C99.5737 159.962 99.5194 160.032 99.4236 160.156C98.6111 161.206 94.8155 166.111 89.822 164.676ZM105.768 136.596C98.9903 138.9 91.6591 138.97 84.8389 136.796C84.7028 136.748 84.5899 136.65 84.5228 136.522C84.4558 136.393 84.4396 136.244 84.4776 136.104C84.5156 135.964 84.6049 135.844 84.7275 135.768C84.8501 135.691 84.9969 135.665 85.1382 135.693C91.8343 137.036 98.7589 136.657 105.27 134.59C106.565 134.088 107.074 136.12 105.768 136.596ZM51.4523 133.587C53.0238 134.923 54.3995 136.476 55.5386 138.2C55.7072 138.375 55.8011 138.609 55.8001 138.853C55.7992 139.096 55.7035 139.33 55.5335 139.504C51.7453 143.716 45.5698 147.326 39.8856 145.32C39.8787 145.313 39.8699 145.305 39.8594 145.295C39.8493 145.286 39.8377 145.275 39.8247 145.263C39.8156 145.255 39.8059 145.246 39.7956 145.237C39.6168 145.076 39.2698 144.764 39.1883 144.518C38.9641 143.616 38.6978 142.715 38.4316 141.814C37.987 140.308 37.5425 138.803 37.2936 137.297C37.094 136.595 38.1904 135.893 38.5896 136.696C42.2795 138.068 45.1362 136.464 48.1328 134.782C48.8589 134.375 49.5932 133.962 50.3495 133.587C50.5378 133.506 50.7427 133.471 50.947 133.486C51.1216 133.47 51.2972 133.504 51.4523 133.587ZM198.156 115.134C197.335 115.319 196.503 115.453 195.665 115.535C192.974 115.886 190.238 115.577 187.692 114.633C187.515 114.573 187.325 114.57 187.146 114.624C186.968 114.677 186.81 114.785 186.695 114.933C185.774 116.106 184.941 117.346 184.203 118.644C183.608 119.749 187.793 121.139 189.685 121.452C192.287 122.022 195 121.777 197.459 120.749C197.658 120.749 197.858 120.55 197.964 120.248C198.116 119.585 198.268 118.947 198.42 118.308L198.421 118.306C198.567 117.691 198.714 117.075 198.861 116.435C199.153 115.539 198.854 115.031 198.156 115.134ZM84.0129 112.198C83.3838 112.426 82.5266 112.737 82.1485 112.927C81.1741 113.336 82.1837 114.543 82.8612 115.353C83.0154 115.537 83.1524 115.701 83.2449 115.83C83.8796 117.065 84.056 118.487 83.7426 119.842C83.3857 120.921 84.8711 120.301 85.5411 120.022C85.6182 119.99 85.6844 119.962 85.7359 119.942C86.2348 119.748 87.8289 118.944 87.8289 118.544C87.784 116.785 87.4121 115.05 86.7325 113.429C85.8357 111.824 84.9388 111.824 84.7392 111.924C84.666 111.961 84.3778 112.066 84.0129 112.198Z" fill="#F50050"/>
<path fill-rule="evenodd" clip-rule="evenodd" d="M21.6434 26.5486L21.6434 26.5483L21.6434 26.5483C21.8191 23.3831 21.9947 20.2178 21.9516 17.0516C21.9516 16.9053 21.8939 16.765 21.7911 16.6616C21.6883 16.5581 21.5488 16.5 21.4034 16.5C21.258 16.5 21.1186 16.5581 21.0158 16.6616C20.913 16.765 20.8552 16.9053 20.8552 17.0516C20.5571 20.7623 20.358 24.4731 20.2577 28.1838C20.3575 28.9858 21.5537 28.9858 21.5537 28.1838C21.5827 27.6412 21.6129 27.0986 21.643 26.5561L21.643 26.5558L21.643 26.5554L21.643 26.5551L21.643 26.5548L21.6431 26.5545L21.6431 26.5542L21.6431 26.5539L21.6431 26.5536L21.6431 26.5533L21.6431 26.553L21.6432 26.5527L21.6432 26.5524L21.6432 26.552L21.6432 26.5517L21.6432 26.5514L21.6432 26.5511L21.6433 26.5508L21.6433 26.5505L21.6433 26.5502L21.6433 26.5499L21.6433 26.5496L21.6433 26.5493L21.6434 26.549L21.6434 26.5486ZM9.49229 20.2081L9.49228 20.2081L9.49228 20.2081C9.31848 19.9334 9.14462 19.6585 8.99552 19.3591C8.84545 19.0577 8.72077 18.756 8.59603 18.4541C8.47193 18.1538 8.34776 17.8533 8.19847 17.5529C8.14222 17.4715 8.06317 17.4088 7.97139 17.3727C7.87961 17.3367 7.77925 17.3289 7.68308 17.3505C7.58691 17.372 7.49929 17.4219 7.43136 17.4937C7.36343 17.5655 7.31827 17.656 7.30163 17.7537C7.43622 19.2258 8.06948 20.6066 9.09531 21.6648C9.49447 22.2673 10.3913 21.5644 9.99215 21.0636C9.84252 20.7618 9.66743 20.485 9.49229 20.2081ZM3.61491 41.3218C2.746 41.2816 1.87548 41.3491 1.02292 41.5226C0.324392 41.6116 0.324392 42.7149 1.02292 42.6246C1.92827 42.622 2.83071 42.5214 3.7147 42.3247C4.31217 42.2242 4.11259 41.4222 3.61491 41.3218ZM125.702 107.005C125.901 106.107 126.599 105.406 127.297 105.606C127.995 105.806 128.294 106.71 128.194 107.612C127.995 108.51 127.297 109.211 126.599 109.01C126.231 108.845 125.936 108.549 125.771 108.179C125.605 107.81 125.581 107.391 125.702 107.005ZM114.341 103.601C113.643 103.4 112.952 104.101 112.746 104.999C112.625 105.386 112.649 105.804 112.814 106.174C112.98 106.544 113.275 106.839 113.643 107.005C114.34 107.205 115.047 106.505 115.238 105.606C115.374 105.22 115.356 104.796 115.189 104.423C115.022 104.049 114.718 103.755 114.341 103.601ZM126.379 101.863C126.93 101.666 127.528 101.642 128.094 101.794C128.587 101.907 129.026 102.189 129.335 102.591C129.644 102.994 129.804 103.492 129.788 104.001C129.761 104.079 129.718 104.149 129.662 104.208C129.605 104.267 129.536 104.312 129.46 104.341C129.384 104.37 129.302 104.382 129.221 104.375C129.14 104.368 129.061 104.343 128.991 104.302C128.483 103.962 127.906 103.741 127.303 103.654C126.699 103.567 126.084 103.617 125.502 103.8C125.004 104.001 124.711 103.304 125.004 102.898C125.348 102.421 125.827 102.06 126.379 101.863ZM113.244 100.592C113.183 100.69 113.156 100.805 113.169 100.92C113.181 101.035 113.232 101.142 113.314 101.224C113.395 101.306 113.501 101.357 113.615 101.37C113.729 101.382 113.844 101.356 113.941 101.294C114.397 101.059 114.917 100.98 115.421 101.071C115.924 101.161 116.385 101.416 116.732 101.795C116.802 101.836 116.881 101.86 116.962 101.867C117.043 101.874 117.125 101.863 117.201 101.834C117.277 101.805 117.346 101.76 117.403 101.701C117.459 101.643 117.502 101.572 117.529 101.495C118.018 99.6922 114.917 97.9305 113.244 100.592ZM121.112 113.706L121.112 113.706C122.905 113.316 124.427 112.984 125.203 113.027C125.601 113.124 126 113.429 126.002 113.826L126.002 114.067C126.005 116.961 126.009 120.901 122.513 121.452C119.13 121.986 115.636 116.036 115.636 115.936C115.337 115.936 115.013 115.911 114.689 115.885C114.365 115.86 114.041 115.835 113.742 115.835C113.669 115.847 113.595 115.844 113.524 115.824C113.453 115.804 113.388 115.77 113.332 115.722C113.276 115.674 113.231 115.615 113.2 115.548C113.169 115.481 113.153 115.408 113.153 115.334C113.153 115.26 113.169 115.187 113.2 115.12C113.231 115.053 113.276 114.993 113.332 114.946C113.388 114.898 113.453 114.863 113.524 114.844C113.595 114.824 113.669 114.82 113.742 114.832C115.945 114.832 118.761 114.219 121.112 113.706ZM117.23 115.936C118.227 117.641 119.522 119.755 121.715 119.847C124.305 119.956 124.405 116.937 124.304 114.733C123.48 114.83 121.945 115.118 120.508 115.388C118.994 115.672 117.588 115.936 117.23 115.936ZM39.1945 79.0295C39.0947 78.4283 38.098 78.6291 38.1978 79.3308C42.0846 98.0843 53.8445 114.13 68.9935 125.363C72.7905 128.267 76.8633 130.786 81.1527 132.884C81.4516 132.395 81.7847 131.927 82.1493 131.486C74.5562 127.391 67.4933 122.37 61.1203 116.538C50.2991 106.482 42.6713 93.4329 39.1945 79.0295ZM47.3633 135.893C52.4633 143.855 59.232 150.598 67.1948 155.65C68.0967 156.151 67.2997 157.455 66.4028 157.055C52.9578 149.283 44.194 136.06 37.6989 121.753C33.0383 110.994 29.5306 99.7653 27.2349 88.2578C27.1984 88.1257 27.2148 87.9846 27.2806 87.8646C27.3463 87.7446 27.4562 87.6553 27.5866 87.6159C27.717 87.5765 27.8576 87.5901 27.9782 87.6537C28.0988 87.7174 28.1897 87.8261 28.2316 87.9565C32.4012 105.299 37.6484 120.91 47.3633 135.893ZM211.91 88.3566C212.125 87.5583 211.012 87.3537 210.714 88.0553C207.148 97.8629 202.414 107.884 195.166 115.736C195.864 115.635 196.662 115.535 197.459 115.434C204.061 107.495 208.979 98.2799 211.91 88.3566ZM167.062 133.788C175.329 131.171 182.989 126.907 189.585 121.251C190.183 121.352 190.881 121.452 191.579 121.547C184.614 127.796 176.385 132.449 167.46 135.186C167.281 135.222 167.096 135.189 166.94 135.094C166.785 134.998 166.671 134.848 166.62 134.672C166.57 134.495 166.588 134.307 166.67 134.143C166.751 133.979 166.892 133.852 167.062 133.788ZM218.787 99.5896C214.569 123.556 208.36 141.131 188.289 154.754C184.143 157.568 179.67 159.872 175.222 162.164C173.353 163.127 171.487 164.088 169.653 165.083C168.946 165.464 169.456 166.794 170.25 166.481C181.503 162.259 191.706 155.62 200.149 147.025C212.711 133.813 216.83 117.554 219.883 99.8895C219.883 99.2883 218.892 98.9883 218.787 99.5896ZM113.436 132.985C113.265 131.131 113.436 129.261 113.941 127.469C113.984 127.338 114.07 127.224 114.185 127.148C114.301 127.071 114.438 127.036 114.575 127.047C114.713 127.059 114.842 127.117 114.943 127.212C115.044 127.306 115.11 127.433 115.131 127.57C115.131 128.573 114.977 129.575 114.823 130.578C114.7 131.38 114.577 132.182 114.532 132.985C114.432 133.687 113.436 133.687 113.436 132.985ZM39.3939 78.0269C41.5868 74.5175 42.3699 68.7086 39.9914 65.0899C37.887 61.888 33.7123 61.1788 30.1249 60.8775C29.5275 60.7771 29.3291 61.8728 30.0251 61.9808C33.0213 62.4473 36.8878 63.093 38.6954 65.8919C40.9691 69.4141 39.5935 74.0154 38.2975 77.5261C38.0979 78.2277 39.0946 78.6294 39.3939 78.0269ZM21.0596 81.938C22.3866 83.7898 24.1278 85.3016 26.1426 86.3512C26.7362 86.6525 26.5379 87.6553 25.8369 87.3541C23.2461 86.552 21.3741 84.5272 19.6588 82.5405C18.0836 80.7241 16.5641 78.6281 16.6689 76.0212C16.7662 73.6137 18.3855 71.4326 20.063 69.7026C22.0824 67.5574 24.4395 65.7619 27.0394 64.3882C27.2098 64.3079 27.4043 64.2962 27.583 64.3557C27.7617 64.4151 27.911 64.5412 28.0002 64.7079C28.0895 64.8746 28.1119 65.0694 28.0629 65.2523C28.0139 65.4351 27.8971 65.5922 27.7367 65.6911C27.2852 66.0119 26.8056 66.34 26.311 66.6782L26.311 66.6782C23.0946 68.8781 19.2449 71.5112 18.3691 75.4199C17.794 77.9751 19.4968 80.0415 20.9661 81.8246L21.0596 81.938ZM16.9694 67.0954C18.6646 61.884 23.1248 58.8334 28.2317 57.9691C28.9265 57.8509 28.7294 56.759 28.0322 56.7654C22.348 56.8162 17.3686 61.4798 15.7796 66.7942C15.7669 66.9422 15.807 67.0899 15.8926 67.2108C15.9783 67.3318 16.1039 67.4181 16.2471 67.4544C16.3902 67.4906 16.5415 67.4744 16.6739 67.4086C16.8062 67.3429 16.911 67.2318 16.9694 67.0954ZM215.299 69.5082C216.192 69.2819 216.495 70.6064 215.698 70.9064C212.508 72.1101 209.275 73.5934 207.728 76.9287C206.287 80.0187 207.523 84.062 211.013 84.9518C211.17 84.9927 211.305 85.0945 211.388 85.2351C211.471 85.3757 211.496 85.5436 211.457 85.7023C211.417 85.8611 211.317 85.9977 211.178 86.0826C211.039 86.1675 210.873 86.1937 210.715 86.1555C206.928 85.4539 205.033 81.3419 205.931 77.7308C207.026 73.3214 211.189 70.525 215.299 69.5082ZM219.883 75.1185C218.983 74.9355 218.687 76.2218 219.484 76.4227C221.583 76.9325 223.574 77.8154 225.364 79.0297C226.225 79.7674 226.874 80.7243 227.242 81.8004C227.61 82.8766 227.685 84.0325 227.457 85.1473C226.938 88.1153 225.048 90.4999 223.181 92.8537C222.209 94.0804 221.242 95.2988 220.481 96.587C220.069 97.281 221.078 97.7895 221.477 97.1882C222.048 96.4423 222.674 95.6855 223.314 94.9122L223.314 94.9118C226.03 91.6304 228.992 88.0519 228.952 83.7492C228.905 78.6293 224.251 76.0083 219.883 75.1185ZM216.903 67.1564C217.006 67.053 217.146 66.9949 217.291 66.9949C220.123 66.7028 222.961 67.4877 225.247 69.1952C227.533 70.9027 229.101 73.4092 229.643 76.2216C229.676 76.4001 229.641 76.5844 229.546 76.7387C229.451 76.8929 229.303 77.0061 229.13 77.0562C228.956 77.1063 228.771 77.0898 228.609 77.0097C228.447 76.9297 228.32 76.792 228.254 76.6233C227.687 74.1466 226.285 71.9439 224.286 70.3898C222.287 68.8357 219.816 68.0259 217.291 68.0982C217.146 68.0982 217.006 68.04 216.903 67.9366C216.8 67.8331 216.743 67.6928 216.743 67.5465C216.743 67.4002 216.8 67.2599 216.903 67.1564ZM215.399 59.0725C215.387 59.7741 216.409 59.7754 216.495 59.0725C216.562 58.542 216.65 57.5767 216.754 56.4401L216.754 56.4382L216.754 56.4349L216.754 56.4345C217.002 53.7099 217.34 50.0046 217.691 48.9433H218.788C218.688 50.5487 218.688 58.2705 218.788 61.0783C217.792 60.9593 216.784 60.9932 215.798 61.1787C215.099 61.2791 215.299 62.3824 215.996 62.3824C221.673 62.3824 224.096 64.0933 227.458 68.5001C227.847 69.0085 228.946 68.7035 228.654 67.998C227.87 66.3607 226.727 64.9236 225.312 63.7946C223.896 62.6657 222.245 61.8743 220.482 61.4799C220.482 59.3737 220.282 50.147 219.983 48.2416C219.983 48.0408 217.392 47.3392 216.699 47.9404C216.096 48.3421 215.449 56.163 215.399 59.0725ZM8.88908 39.9899L8.88914 39.9899L8.88923 39.9899L8.88932 39.9898L8.88939 39.9898L8.88948 39.9898L8.88956 39.9898L8.88966 39.9898L8.88974 39.9898L8.88984 39.9898L8.88992 39.9898L8.89002 39.9898L8.8901 39.9897L8.89019 39.9897L8.8903 39.9897L8.8904 39.9897L8.89049 39.9897L8.89057 39.9897L8.89064 39.9897L8.89071 39.9897L8.89078 39.9897L8.89085 39.9896L8.89092 39.9896L8.89099 39.9896L8.89105 39.9896C12.1118 39.492 15.3476 38.992 18.6643 38.7136C19.3616 38.6132 19.4614 39.7165 18.8627 39.9109C16.6217 40.2873 14.3807 40.4673 12.1394 40.6472L12.1393 40.6472L12.1392 40.6473L12.1391 40.6473L12.139 40.6473L12.1388 40.6473L12.1387 40.6473L12.1386 40.6473L12.1385 40.6473L12.1384 40.6473L12.1382 40.6474L12.1381 40.6474L12.138 40.6474L12.1379 40.6474L12.1378 40.6474L12.1376 40.6474L12.1375 40.6474L12.1374 40.6474L12.1373 40.6474L12.1372 40.6475L12.137 40.6475L12.1369 40.6475L12.1368 40.6475L12.1367 40.6475L12.1365 40.6475L12.1364 40.6475L12.1363 40.6475L12.1362 40.6475L12.136 40.6476L12.1359 40.6476L12.1358 40.6476C10.7904 40.7556 9.44496 40.8636 8.09931 41.0142C7.50184 41.1147 7.50058 40.2046 8.09931 40.1118L8.88908 39.9899ZM41.2874 36.0062C36.404 36.4078 31.4196 37.1018 26.5375 37.9128C25.9388 38.0119 26.0386 39.0161 26.6373 39.0161C31.5207 38.6144 36.5038 38.1136 41.3872 37.3116C42.0844 37.1133 41.9846 35.9058 41.2874 36.0062ZM34.4108 24.3733C31.1762 28.2858 27.715 32.003 24.0454 35.5054C23.5401 35.9998 22.7494 35.2067 23.3544 34.8025C26.7359 31.0922 30.2247 27.2815 33.7123 23.6704C34.1115 23.1696 34.8125 23.8737 34.4108 24.3733ZM17.8657 35.4051C17.9051 35.471 17.9569 35.5284 18.0182 35.5741C18.0796 35.6198 18.1493 35.6529 18.2234 35.6715C18.2975 35.6901 18.3744 35.6938 18.4499 35.6825C18.5254 35.6711 18.598 35.6449 18.6634 35.6053C18.7289 35.5658 18.7859 35.5136 18.8313 35.4519C18.8768 35.3901 18.9096 35.32 18.9281 35.2455C18.9466 35.1709 18.9503 35.0935 18.939 35.0175C18.9277 34.9415 18.9017 34.8685 18.8624 34.8027C16.8906 31.3809 14.7761 28.0837 12.5845 24.7738C12.1853 24.273 11.3883 24.6734 11.6877 25.2759C13.6809 28.685 15.7386 32.1181 17.8657 35.4051ZM9.90481 32.5116L9.90542 32.5118L9.90655 32.5121C10.6027 32.7074 11.2963 32.9021 11.986 33.0978C12.6845 33.2999 12.3851 34.3015 11.6866 34.2011C7.99836 33.2937 4.37021 32.1547 0.823495 30.7908C0.322023 30.5989 0.525391 29.6875 1.12286 29.8883C4.02027 30.8602 6.98437 31.692 9.90481 32.5116ZM46.9677 24.9742C43.499 27.5314 39.7944 29.7477 35.905 31.5927C35.2153 31.9105 34.7088 30.8911 35.3075 30.5898C37.5401 29.2897 39.6888 27.9648 41.8409 26.6379L41.8411 26.6377L41.8415 26.6375C43.3396 25.7138 44.8394 24.789 46.3702 23.8709C47.0599 23.4565 47.5664 24.4734 46.9677 24.9742ZM37.4026 20.668L37.4026 20.668L37.4029 20.6677L37.4029 20.6676C37.8727 20.1353 38.3421 19.6033 38.7957 19.0577C39.2062 18.5658 38.5077 17.8629 38.0985 18.3561C37.6485 18.8973 37.1824 19.4251 36.7165 19.9528L36.7162 19.9531L36.7159 19.9534L36.7157 19.9536L36.7155 19.9539L36.7153 19.9541L36.7151 19.9544L36.7149 19.9546L36.7146 19.9549L36.7144 19.9551L36.7142 19.9554L36.714 19.9556C36.4771 20.2239 36.2402 20.4922 36.0054 20.7622C35.9532 20.8067 35.9106 20.8616 35.8806 20.9235C35.8505 20.9854 35.8334 21.0528 35.8306 21.1217C35.8277 21.1905 35.839 21.2592 35.8638 21.3233C35.8887 21.3875 35.9265 21.4458 35.9748 21.4946C36.0232 21.5433 36.0811 21.5815 36.1448 21.6066C36.2085 21.6317 36.2768 21.6432 36.3452 21.6404C36.4136 21.6377 36.4806 21.6207 36.5422 21.5905C36.6037 21.5603 36.6584 21.5176 36.7027 21.4651C36.9345 21.1986 37.1681 20.9338 37.4016 20.6692L37.4016 20.6691L37.4017 20.6691L37.4017 20.669L37.4018 20.669L37.4018 20.6689L37.4019 20.6689L37.4019 20.6688L37.402 20.6688L37.402 20.6687L37.402 20.6686L37.4021 20.6686L37.4021 20.6685L37.4022 20.6685L37.4022 20.6684L37.4023 20.6684L37.4023 20.6683L37.4024 20.6683L37.4024 20.6682L37.4025 20.6682L37.4025 20.6681L37.4025 20.6681L37.4026 20.668ZM214.497 47.7393C212.837 48.3425 211.084 48.648 209.318 48.6418C207.259 48.7735 205.194 48.7735 203.135 48.6418C202.438 48.5426 202.438 47.5398 203.135 47.5398C205 47.5422 206.863 47.4417 208.717 47.2385C210.532 46.9392 212.362 46.7381 214.198 46.636C214.697 46.636 215.1 47.447 214.497 47.7393ZM236.826 50.9488C234.453 50.0537 232.08 49.3561 229.708 48.6589L229.65 48.6418C227.262 47.8148 224.834 47.1122 222.374 46.5369C221.778 46.4264 221.377 47.2386 221.975 47.5398C223.846 48.3584 225.777 48.9958 227.675 49.6227C228.103 49.7638 228.528 49.9044 228.951 50.0464C229.314 50.1683 229.677 50.2914 230.041 50.4146L230.042 50.4152C232.165 51.1348 234.296 51.8575 236.427 52.3534C236.605 52.3876 236.79 52.3534 236.945 52.2574C237.1 52.1614 237.214 52.0106 237.264 51.8346C237.314 51.6586 237.297 51.4701 237.216 51.3062C237.135 51.1423 236.995 51.0149 236.826 50.9488ZM198.954 50.0466C197.936 50.2463 196.902 50.3472 195.864 50.3479C195.266 50.3479 195.166 49.345 195.765 49.1442C196.761 49.0438 197.858 48.9433 198.954 48.8429C199.751 48.8429 199.651 49.9462 198.954 50.0466ZM196.462 36.1065C200.317 37.4398 204.091 39.0854 207.848 40.7241C208.769 41.1257 209.689 41.5269 210.609 41.923C211.306 42.223 212.011 41.2074 211.306 40.8197C206.663 38.4177 201.788 36.5011 196.756 35.0998C196.066 34.8914 195.866 35.9006 196.462 36.1065ZM216.429 42.5123C216.271 42.4315 216.152 42.2922 216.095 42.124C215.057 39.2977 214.239 36.4379 213.42 33.5759L213.42 33.5756C212.962 31.9777 212.505 30.3791 212.009 28.7853C211.793 28.0887 212.907 27.7824 213.105 28.4853C214.854 32.7861 216.286 37.2104 217.391 41.7223C217.438 41.8935 217.417 42.0764 217.332 42.2323C217.247 42.3881 217.106 42.5045 216.937 42.5568C216.768 42.6091 216.586 42.5931 216.429 42.5123ZM221.877 43.6278C225.354 40.9399 229.055 38.5584 232.938 36.5097C233.635 36.1055 233.038 35.1026 232.341 35.4064C228.255 37.2193 224.513 39.7299 221.278 42.827C220.78 43.2274 221.368 44.0167 221.877 43.6278ZM210.315 20.8628C210.545 22.3223 210.878 23.7635 211.312 25.1755C211.511 25.8772 210.514 26.2788 210.215 25.6764C209.636 24.1337 209.3 22.5097 209.218 20.8628C209.119 20.1611 210.219 20.1599 210.315 20.8628ZM239.615 30.7912C238.911 31.1618 238.244 31.5984 237.622 32.0953C236.915 32.5847 236.326 32.9978 235.628 33.4998C235.516 33.5825 235.44 33.7053 235.416 33.8429C235.392 33.9805 235.421 34.1221 235.498 34.2384C235.575 34.3547 235.694 34.4366 235.829 34.4671C235.965 34.4976 236.107 34.4744 236.226 34.4023C236.923 34.0006 237.622 33.4998 238.319 32.9977C239.043 32.6247 239.714 32.1543 240.312 31.5996C240.812 31.1928 240.214 30.4912 239.615 30.7912ZM227.657 24.8778C225.334 28.8162 223.27 32.9034 221.478 37.1132C221.278 37.811 220.182 37.511 220.481 36.8119C221.993 32.3818 224.07 28.1681 226.66 24.2766C227.058 23.6741 228.066 24.1825 227.657 24.8778ZM119.024 102.797C118.891 103.066 118.68 103.463 118.429 103.937C117.367 105.94 115.58 109.312 115.834 110.119C115.897 110.266 115.993 110.397 116.113 110.502C116.234 110.606 116.377 110.681 116.532 110.721C117.564 110.679 118.578 110.44 119.522 110.018C120.418 109.818 120.018 108.302 119.124 108.515C118.951 108.555 118.76 108.617 118.558 108.682C118.294 108.767 118.011 108.858 117.728 108.915C118.606 107.057 119.371 105.146 120.021 103.195C120.12 102.598 119.323 102.192 119.024 102.797ZM115.05 125.468L115.05 125.468L115.05 125.468L115.05 125.468L115.05 125.468L115.05 125.468L115.05 125.468L115.05 125.468L115.05 125.468L115.05 125.468L115.051 125.468L115.051 125.468L115.051 125.468C116.591 125.792 118.131 126.117 119.622 126.667C120.32 126.866 120.222 128.057 119.517 127.97C117.628 127.721 115.761 127.319 113.936 126.767C112.262 126.433 110.626 125.929 109.053 125.262C106.459 123.864 106.461 121.05 106.86 118.443C107.458 114.536 108.391 110.73 109.352 106.909C110.196 103.182 111.329 99.5271 112.74 95.978C112.94 95.3768 113.837 95.7771 113.737 96.3796C113.614 96.8932 113.321 97.8705 112.933 99.1628C110.82 106.199 105.903 122.572 110.453 124.259C111.951 124.815 113.501 125.142 115.05 125.468ZM139.854 109.918C140.529 106.994 140.697 103.974 140.352 100.992C140.197 99.8359 139.796 98.7265 139.177 97.7396C138.558 96.7527 137.735 95.9113 136.765 95.2726C136.797 96.446 136.73 97.62 136.565 98.7821C136.461 99.3833 135.568 99.485 135.568 98.7821C135.473 97.0004 135.273 95.2258 134.971 93.4677C133.329 87.0513 127.031 77.0632 120.619 75.8162C116.224 74.9621 112.618 78.6126 111.251 82.436C110.562 84.3064 110.365 86.3243 110.68 88.2939C110.995 90.2634 111.81 92.1175 113.048 93.6762C116.646 97.8783 122.814 98.2889 127.897 97.0852C129.005 99.7479 130.711 102.116 132.88 104.005C132.762 106.127 132.495 108.239 132.083 110.323C132.046 110.473 131.997 110.654 131.941 110.859L131.941 110.859C131.547 112.311 130.829 114.959 131.784 115.839C132.983 116.939 134.774 113.932 135.97 111.628C141.053 108.217 140.953 116.14 136.767 116.839C136.567 116.839 132.623 128.66 131.983 130.98C131.654 132.176 133.677 132.183 134.375 132.183C135.072 132.183 135.073 131.281 134.474 131.08C134.092 130.902 133.691 130.767 133.278 130.68C133.954 127.685 135.044 124.922 136.142 122.138C136.662 120.82 137.184 119.497 137.664 118.143C140.454 117.04 143.046 113.53 140.654 110.622C140.437 110.336 140.165 110.097 139.854 109.918ZM126.798 87.4542C126.334 86.8393 125.846 85.8882 125.31 84.8423C123.661 81.6225 121.55 77.5043 118.228 79.5316C117.73 79.8341 116.941 79.1376 117.331 78.6291C121.416 73.2906 128.113 83.4402 128.492 87.0526C128.598 88.0555 127.195 88.1559 126.798 87.4542ZM131.249 76.922C131.087 76.94 130.924 76.9054 130.784 76.8232C130.087 76.4228 127.699 72.7113 128.193 71.7084C129.787 67.9981 134.775 66.0928 138.06 68.9006C138.563 70.4644 138.897 72.0783 139.056 73.7142C139.056 74.3166 138.458 74.5175 137.96 74.3166C136.836 73.9431 135.641 73.84 134.471 74.0154C133.738 74.2724 132.834 75.3853 132.252 76.1018L132.252 76.1019C131.959 76.4626 131.747 76.7228 131.681 76.7228C131.562 76.8341 131.41 76.9039 131.249 76.922ZM218.487 77.5258C218.354 78.4613 218.332 81.3789 218.317 83.328C218.309 84.2919 218.304 85.0189 218.288 85.1522C218.238 85.5552 217.771 87.2635 217.59 86.4564C217.509 86.091 217.547 81.9686 217.573 79.1128V79.1119V79.1114V79.1112V79.1101V79.1077L217.573 79.1047C217.582 78.0593 217.59 77.1846 217.59 76.7275C217.59 76.0259 216.594 76.0259 216.494 76.7275C216.394 79.3358 216.394 81.9389 216.394 84.551C216.394 84.7927 216.374 85.0654 216.352 85.3494C216.258 86.5965 216.148 88.0605 217.69 88.0605C219.54 88.0605 219.603 86.6795 219.668 85.2767L219.675 85.1246L219.677 85.0801L219.68 85.0091L219.683 84.9514C219.947 82.5186 219.947 80.0641 219.683 77.6313C219.484 77.025 218.587 77.025 218.487 77.5258ZM28.9492 54.8689C24.0187 54.986 22.2511 55.028 17.4679 57.9689C17.3361 58.0312 17.1867 58.0446 17.046 58.0068C16.9054 57.969 16.7825 57.8824 16.6991 57.7623C16.6157 57.6422 16.5772 57.4963 16.5902 57.3504C16.6033 57.2045 16.6672 57.0679 16.7707 56.9648C18.5932 55.428 20.7404 54.3303 23.0485 53.7553C22.6506 51.9504 21.3698 44.3303 21.5542 42.6232C21.6616 41.6216 25.7391 41.5212 25.8388 42.824C26.1382 44.1282 26.6372 50.3463 26.7357 52.0508C26.8355 52.7524 25.6367 52.9533 25.5407 52.2516C25.3285 50.7492 24.5441 44.6252 24.4443 43.227C23.9437 43.2436 23.4427 43.2099 22.9487 43.1266C23.2481 46.5369 24.2447 51.6504 24.6439 53.557C26.2599 53.2367 27.9254 53.2705 29.5273 53.6562C29.6592 53.7087 29.7692 53.8052 29.839 53.9295C29.9087 54.0538 29.9341 54.1984 29.9107 54.3392C29.8874 54.48 29.8168 54.6085 29.7107 54.7032C29.6046 54.798 29.4694 54.8533 29.3277 54.8599L28.9492 54.8689ZM29.6269 80.6352C31.1515 80.1958 30.8903 79.008 30.6154 77.7577C30.5841 77.6157 30.5528 77.473 30.5238 77.3304C30.2312 75.8853 29.987 74.4057 29.7432 72.929L29.7432 72.9289C29.5481 71.7469 29.3533 70.5668 29.1343 69.4078C29.0345 68.6058 27.7385 68.8994 27.9381 69.7078C27.9886 70.1143 28.1286 70.9001 28.2981 71.852C28.7981 74.6591 29.5552 78.9104 29.0345 79.1354C28.6366 79.3362 26.9074 72.0173 26.6434 70.4107C26.5284 69.7103 25.5406 70.0103 25.6467 70.7107C26.0257 73.2211 26.4312 75.7289 27.0362 78.2329C27.4265 79.8345 27.8358 81.15 29.6269 80.6352ZM166.258 108.615C166.763 108.71 166.863 109.116 166.763 109.518C166.038 110.985 165.099 112.336 163.976 113.524C163.378 114.032 160.289 113.229 159.093 112.126C157.897 111.023 156.9 107.813 157.198 107.111C157.501 106.42 157.904 105.777 158.394 105.205C158.853 104.541 159.424 103.964 160.082 103.5C160.679 103.199 160.99 103.699 161.079 104.302C161.423 106.708 164.069 108.194 166.258 108.615ZM160.289 111.217C161.264 111.954 162.454 112.344 163.673 112.325L165.174 109.913C164.042 109.657 162.993 109.118 162.122 108.347C161.251 107.576 160.587 106.598 160.191 105.501L159.592 106.102C159.251 106.59 158.885 107.058 158.495 107.507C158.583 108.933 159.228 110.267 160.289 111.217ZM95.1112 80.635C95.06 80.5328 94.9817 80.447 94.8849 80.387C94.7881 80.327 94.6766 80.2953 94.5629 80.2953C94.4493 80.2953 94.3378 80.327 94.241 80.387C94.1442 80.447 94.0659 80.5328 94.0147 80.635C93.3452 81.9135 92.505 83.0939 91.5175 84.1432C90.3884 85.1662 89.0667 85.9507 87.6307 86.4502C87.5323 86.4823 87.4441 86.5404 87.3754 86.6182C87.3066 86.6961 87.2597 86.791 87.2395 86.8931C87.2193 86.9953 87.2265 87.101 87.2604 87.1994C87.2943 87.2979 87.3537 87.3854 87.4324 87.4531C87.6307 87.9539 88.9267 90.06 89.3272 90.6625C89.426 90.8015 89.566 90.9054 89.7271 90.9593C89.8882 91.0132 90.0622 91.0143 90.224 90.9625C93.4135 90.2609 97.1006 87.5535 97.4985 84.0428C97.5957 83.9126 97.6482 83.7543 97.6482 83.5915C97.6482 83.4288 97.5957 83.2704 97.4985 83.1403C96.9485 82.6499 96.4738 82.1214 96.0066 81.6011C95.7109 81.2718 95.4181 80.9459 95.1112 80.635ZM93.9149 87.4543C92.8945 88.5181 91.6275 89.3104 90.2278 89.7601C89.7757 89.0026 89.7005 88.8982 89.514 88.6397L89.514 88.6396C89.3675 88.4366 89.1525 88.1384 88.6324 87.3539C89.9362 86.9296 91.1442 86.2509 92.1873 85.3567C93.2305 84.4625 94.0884 83.3703 94.712 82.1425C95.1122 82.7345 95.5448 83.3035 96.008 83.847C95.5673 85.184 94.8525 86.413 93.9099 87.4543H93.9149ZM39.5023 152.328C39.5255 152.432 39.5226 152.539 39.4939 152.641C38.9642 155.571 39.383 158.594 40.6889 161.266C40.7318 161.365 40.7494 161.473 40.74 161.58C40.7306 161.688 40.6945 161.791 40.635 161.881C40.5756 161.971 40.4946 162.044 40.3996 162.094C40.3046 162.145 40.1987 162.17 40.0914 162.168C38.9782 162.433 37.8443 162.601 36.7024 162.67C36.5336 162.684 36.365 162.642 36.2214 162.552C36.0779 162.461 35.9671 162.327 35.9053 162.168C33.3146 159.766 33.115 155.148 34.411 152.139C34.444 151.975 34.5306 151.827 34.6569 151.718C34.7832 151.609 34.9421 151.546 35.1083 151.538C35.8055 151.538 38.2977 151.739 38.7954 151.839C38.8997 151.824 39.006 151.835 39.1048 151.872C39.2037 151.909 39.2918 151.97 39.3612 152.049C39.4306 152.129 39.4792 152.225 39.5023 152.328ZM35.1083 157.357C35.4709 158.71 36.0425 159.996 36.8022 161.17C37.1472 161.17 37.4919 161.145 37.8365 161.119H37.8367H37.8368H37.837H37.8371L37.8376 161.119C38.1902 161.092 38.5427 161.066 38.8952 161.067C38.2489 159.865 37.8457 158.546 37.7089 157.186C37.5721 155.827 37.7044 154.453 38.0981 153.145C36.74 153.145 35.7054 153.072 35.3993 153.05H35.3992C35.3461 153.047 35.3149 153.044 35.3078 153.044C34.8988 154.445 34.8303 155.924 35.1083 157.357ZM142.047 28.986C141.249 29.2897 141.15 32.5958 141.647 34.0004C141.829 34.9171 142.181 34.7215 142.905 34.3182C143.512 33.9801 144.382 33.4959 145.634 33.3991C146.882 33.3951 148.101 33.7805 149.123 34.5024C149.176 34.5724 149.248 34.6252 149.33 34.6543C149.413 34.6834 149.502 34.6875 149.587 34.6662C149.672 34.6448 149.749 34.5989 149.808 34.5341C149.867 34.4693 149.906 34.3885 149.92 34.3016C150.247 32.9109 150.646 31.5384 151.116 30.1897C151.414 29.788 148.831 26.4006 142.047 28.986ZM149.321 33.3991C148.314 32.7065 147.131 32.3194 145.912 32.2838C144.693 32.2482 143.489 32.5656 142.444 33.1983C142.262 32.0957 142.331 30.9658 142.644 29.8935C143.1 29.8171 143.586 29.6621 144.099 29.4982C145.825 28.9477 147.863 28.2974 150.119 30.1947C149.772 31.2406 149.505 32.3119 149.321 33.3991ZM107.89 47.0136C110.551 48.3416 113.091 49.6088 112.446 50.8487C110.341 54.4896 107.487 57.6355 104.075 60.0755C103.777 60.3767 101.982 59.3738 101.882 59.0726C94.0086 55.6623 86.2275 41.1097 89.0254 39.2158C91.6498 37.1916 94.4522 35.4123 97.3976 33.9001C97.5457 33.8372 97.7081 33.8166 97.867 33.8404C98.026 33.8642 98.1754 33.9316 98.2988 34.0352C98.4222 34.1387 98.5149 34.2745 98.5667 34.4276C98.6185 34.5807 98.6275 34.7452 98.5926 34.903C99.09 38.3964 100.699 41.6336 103.178 44.1298C104.111 45.1283 106.03 46.0858 107.89 47.0136ZM90.6195 40.3191C92.4145 48.8429 97.0983 53.5574 104.274 57.5689C106.568 55.5277 108.669 53.2781 110.552 50.8487C106.965 49.0463 104.262 47.6481 102.181 45.2331L102.053 45.0838C99.6874 42.3361 97.2907 39.552 96.8987 36.0063C95.517 36.6743 94.4718 37.4986 93.4062 38.3389C92.5518 39.0127 91.6842 39.6969 90.6195 40.3191ZM100.089 159.762C99.7158 157.935 98.814 156.26 97.4968 154.947C97.4768 154.826 97.4201 154.715 97.3346 154.627C97.2491 154.54 97.1388 154.482 97.019 154.46C96.8991 154.438 96.7755 154.454 96.665 154.505C96.5545 154.557 96.4625 154.642 96.4016 154.748C95.6392 156.016 94.6206 157.109 93.4117 157.956C92.0455 158.719 90.4648 159.001 88.9212 158.756C88.6218 158.555 88.0244 158.955 88.1242 159.357C88.2388 160.01 88.3825 160.662 88.5275 161.321C88.761 162.382 88.9976 163.457 89.1208 164.568C89.1386 164.676 89.1816 164.778 89.2462 164.866C89.3107 164.954 89.3951 165.025 89.4923 165.074C89.5895 165.123 89.6968 165.148 89.8055 165.147C89.9141 165.146 90.021 165.119 90.1174 165.069C93.7048 166.467 97.9907 163.671 99.8841 160.657C99.9839 160.557 99.9839 160.456 99.9839 160.255C100.074 160.108 100.111 159.934 100.089 159.762ZM95.405 162.87C94.6851 163.407 93.8553 163.776 92.9761 163.949C92.0968 164.122 91.1901 164.097 90.322 163.873C90.1618 162.55 89.8949 161.242 89.5237 159.962C92.3153 160.263 95.9027 158.859 97.1027 156.252C97.8924 157.359 98.4361 158.624 98.6968 159.962C97.6562 160.994 96.5571 161.965 95.405 162.87ZM154.804 183.731C155.511 183.493 160.728 189.205 162.079 193.057C162.21 193.171 162.31 193.318 162.368 193.482C162.425 193.647 162.44 193.824 162.41 193.996C162.379 194.167 162.305 194.328 162.195 194.463C162.084 194.597 161.941 194.701 161.779 194.763C156.613 196.807 153.165 202.088 150.876 205.594C149.387 207.875 148.388 209.404 147.726 208.803C144.784 206.14 143.003 202.969 141.208 199.775C140.795 199.039 140.381 198.302 139.953 197.57C139.853 197.47 139.953 197.068 139.953 197.068C141.013 193.71 142.951 190.7 145.564 188.354C148.176 186.007 151.367 184.411 154.804 183.731ZM141.053 197.269C143.241 200.537 145.603 203.684 148.127 206.697C149.669 201.693 154.598 195.49 160.187 193.361C159.782 192.748 159.452 192.086 159.122 191.424C158.802 190.783 158.483 190.143 158.095 189.547C157.205 188.165 156.205 186.857 155.105 185.636C152.04 186.377 149.182 187.809 146.747 189.824C144.313 191.839 142.366 194.385 141.053 197.269Z" fill="#4D4D4D"/>
</g>
<defs>
<clipPath id="clip0_1311_38931">
<rect width="240" height="240" fill="white" transform="translate(0.5 0.5)"/>
</clipPath>
</defs>
</svg>
