<svg width="138" height="107" viewBox="0 0 138 107" fill="none" xmlns="http://www.w3.org/2000/svg">
<g clip-path="url(#clip0_2709_47843)">
<path d="M30.0556 24.8726C30.4698 24.5358 30.0199 24.0002 29.5626 24.0732C27.8246 24.3534 23.3898 26.6327 21.9525 27.4745C21.499 27.7393 21.78 28.5128 22.3371 28.341C25.0411 27.4724 27.6311 26.3085 30.0556 24.8726Z" fill="#F50050"/>
<path d="M33.996 22.8696C38.1868 21.2684 39.9235 21.1943 41.1524 20.469C41.249 20.4105 41.3231 20.3236 41.3638 20.2215C41.4044 20.1194 41.4093 20.0074 41.3779 19.9023C41.3464 19.7973 41.2802 19.7048 41.1891 19.6387C41.098 19.5725 40.987 19.5363 40.8726 19.5354C39.0237 19.5107 35.236 21.1613 33.6114 22.0078C33.1171 22.2574 33.4721 23.0674 33.996 22.8696Z" fill="#F50050"/>
<path d="M96.379 23.8667C97.4723 24.5848 98.753 25.0334 99.94 25.6668C101.127 26.3002 102.247 27.0607 103.465 27.6341C103.572 27.6873 103.695 27.7024 103.812 27.6766C103.93 27.6508 104.034 27.5859 104.105 27.4934C104.177 27.401 104.212 27.2872 104.203 27.1724C104.195 27.0577 104.144 26.9496 104.059 26.8677C102.022 24.9298 99.417 23.6276 96.5886 23.1332C96.1337 23.0731 96.0684 23.6618 96.379 23.8667Z" fill="#F50050"/>
<path d="M107.16 30.0383C108.127 30.72 109.121 31.364 110.093 32.0057C110.986 32.7192 111.919 33.3872 112.886 34.0071C112.983 34.0581 113.095 34.0775 113.205 34.0624C113.315 34.0474 113.417 33.9987 113.496 33.9236C113.574 33.8485 113.625 33.7512 113.641 33.6461C113.657 33.541 113.637 33.4339 113.583 33.3407C112.814 31.9939 109.902 30.3397 107.754 29.04C107.132 28.662 106.56 29.6145 107.16 30.0383Z" fill="#F50050"/>
<path d="M91.9812 34.4712C88.0222 33.2103 83.5355 35.904 85.1736 39.5337C86.4395 42.3416 90.2778 42.8443 89.9906 45.0342C89.8543 45.8403 89.4211 46.5734 88.7691 47.1015C85.6544 49.7611 81.3341 47.4359 81.2984 43.6343C81.2897 42.6006 79.5456 42.2992 79.3435 43.3671C79.1485 44.2963 79.1826 45.2561 79.4432 46.1706C79.7038 47.085 80.1836 47.929 80.8448 48.6356C80.0424 49.8694 79.5037 51.2952 78.7851 52.5702C78.3932 53.266 79.3755 54.0666 79.9721 53.4709C81.0155 52.4374 81.9509 51.3093 82.7652 50.1025C89.7466 53.6934 96.7649 45.1931 90.6895 40.6663C89.5333 39.8057 85.8355 37.723 89.0489 36.7658C90.1443 36.4986 91.3053 36.6437 92.2918 37.1711C93.2783 37.6986 94.0149 38.568 94.3491 39.5996C94.5266 40.266 95.7185 40.133 95.6408 39.4336C95.5286 38.095 94.9794 36.8238 94.0705 35.7992C95.0299 34.5075 95.9043 33.16 96.6885 31.7645C97.0386 31.1653 96.2608 30.254 95.6063 30.7309C94.1881 31.7759 92.9628 33.0401 91.9812 34.4712Z" fill="#F50050"/>
<path d="M40.1428 33.3358C38.5737 36.9702 37.2413 40.6352 36.0247 44.4392C34.903 47.9382 33.2846 51.6385 32.8828 55.3082C32.8856 55.4565 32.9389 55.5998 33.0348 55.7164C33.1307 55.833 33.2638 55.9166 33.4139 55.9543C33.5641 55.992 33.723 55.9818 33.8665 55.9254C34.01 55.8689 34.1303 55.7692 34.2091 55.6414C35.8916 52.3272 36.5646 48.4009 37.6998 44.8724C38.9028 41.1321 40.2081 37.427 41.151 33.6031C41.1719 33.4808 41.1448 33.3556 41.0749 33.2513C41.005 33.1469 40.8972 33.071 40.7723 33.0378C40.6474 33.0047 40.514 33.0168 40.3979 33.0718C40.2817 33.1268 40.1909 33.2208 40.1428 33.3358Z" fill="#F50050"/>
<path d="M40.1765 49.9747C41.8935 51.5358 44.5041 50.4751 45.7614 48.908C46.442 48.1551 46.8476 47.2112 46.917 46.2187C46.9864 45.2262 46.7157 44.239 46.1459 43.4064C42.6873 39.1021 36.5958 46.7194 40.1765 49.9747ZM44.3673 47.9732C43.7091 48.7432 42.2053 49.638 41.2957 48.7397C38.9538 46.4309 43.4083 41.5451 45.0304 44.8051C45.2305 45.3414 45.2743 45.9195 45.157 46.4778C45.0398 47.036 44.7684 47.5521 44.3673 47.9732Z" fill="#F50050"/>
<path d="M33.0929 39.4695C29.5603 35.1252 23.5785 42.8154 27.1235 46.0378C28.8405 47.5989 31.4375 46.5299 32.7083 44.9711C33.3961 44.2217 33.8064 43.2768 33.8759 42.2825C33.9454 41.2881 33.6702 40.2996 33.0929 39.4695ZM28.2402 44.7674C25.8983 42.4587 30.375 37.5622 31.9749 40.8328C33.1175 43.1769 29.707 46.2214 28.2402 44.7674Z" fill="#F50050"/>
<path d="M25.1283 86.1509C25.3748 86.6843 26.0774 86.3181 26.1403 85.8837C26.2846 83.7957 27.0078 81.7819 28.2357 80.0489C29.3803 78.3525 31.0041 77.0002 32.9195 76.1484C33.0063 76.1212 33.0791 76.0636 33.1232 75.9873C33.1674 75.9109 33.1796 75.8214 33.1574 75.7368C33.1352 75.6522 33.0803 75.5787 33.0037 75.5312C32.927 75.4837 32.8344 75.4657 32.7445 75.4808C30.6975 76.0231 28.8867 77.1786 27.5787 78.7773C20.8982 77.8632 14.3039 76.4459 7.85723 74.539C2.23661 72.9731 -4.04222 71.3166 -7.22354 66.1706C-7.43062 65.835 -7.91256 66.1329 -7.74739 66.4708C-5.20332 71.651 0.598493 73.8667 5.97136 75.4396C11.6807 77.1102 20.9387 79.7957 26.8465 79.678C25.4771 81.4828 24.1509 84.0164 25.1283 86.1509Z" fill="#4D4D4D"/>
<path d="M68.8348 87.9854C57.9621 103.513 30.8943 106.439 11.4119 104.758C0.240963 103.793 -11.1765 101.362 -21.2629 96.5163C-32.0875 91.3208 -43.627 82.2118 -43.9524 69.7086C-44.2975 56.4296 -32.5854 42.5183 -23.6713 32.1308C-23.3878 31.8012 -23.8722 31.3373 -24.1644 31.6599C-32.6039 41.2421 -43.4212 52.8682 -45.2836 65.7364C-47.1633 78.7505 -37.7143 89.0356 -26.7097 95.3931C0.836304 111.3 55.8519 110.882 69.5312 88.4246C69.5921 88.3363 69.6139 88.2286 69.5917 88.1251C69.5695 88.0215 69.5052 87.9306 69.4128 87.8724C69.3205 87.8142 69.2077 87.7933 69.0993 87.8145C68.9909 87.8357 68.8957 87.8972 68.8348 87.9854Z" fill="#4D4D4D"/>
<path d="M72.0118 76.6142C68.6074 79.966 65.7256 83.7747 62.3076 87.15C58.8322 90.4181 55.1105 93.4381 51.1724 96.186C50.8568 96.4215 51.2414 96.8194 51.5557 96.6864C55.854 94.3451 59.7508 91.3877 63.11 87.9176C66.6793 84.6316 69.8524 80.9745 72.5702 77.0144C72.6178 76.9434 72.6354 76.8578 72.6197 76.7748C72.604 76.6918 72.556 76.6176 72.4854 76.567C72.4148 76.5163 72.3267 76.4931 72.2389 76.5018C72.1511 76.5106 72.07 76.5507 72.0118 76.6142Z" fill="#4D4D4D"/>
<path d="M47.647 91.553C47.3721 91.7579 47.7173 92.1864 48.0316 92.0239C58.2239 85.4839 66.5205 76.0535 69.6389 70.1186C69.6992 70.017 69.7148 69.8967 69.6822 69.7841C69.6496 69.6715 69.5715 69.5758 69.4651 69.5182C69.3587 69.4606 69.2327 69.4457 69.1148 69.4769C68.9969 69.508 68.8968 69.5826 68.8365 69.6842C62.8966 77.431 59.3221 82.8491 47.647 91.553Z" fill="#4D4D4D"/>
<path d="M62.2021 67.1794C60.0229 69.1314 59.5816 70.8574 53.8944 75.9493C50.69 78.6763 47.3337 81.236 43.8402 83.6172C43.7722 83.66 43.7237 83.7257 43.7044 83.8013C43.6852 83.8769 43.6967 83.9566 43.7365 84.0244C43.7764 84.0922 43.8417 84.143 43.9193 84.1667C43.9968 84.1903 44.0809 84.1849 44.1545 84.1517C49.8015 81.1397 54.8667 77.2263 59.1305 72.581C60.6473 71.1625 61.9619 69.5593 63.0403 67.8128C63.1033 67.7056 63.1242 67.5804 63.0993 67.4597C63.0743 67.339 63.0052 67.2308 62.9042 67.1545C62.8032 67.0782 62.677 67.0388 62.5483 67.0433C62.4196 67.0479 62.2969 67.0962 62.2021 67.1794Z" fill="#4D4D4D"/>
<path d="M122.451 37.1048C121.752 36.9388 120.004 37.5569 117.142 38.9237C118.808 40.784 119.929 43.0322 120.391 45.4402C120.47 45.9724 119.803 46.3044 119.483 45.8075C118.832 44.7998 118.436 43.6731 117.881 42.6064C117.818 42.4887 116.293 39.49 116.17 39.3723C115.785 39.5724 115.402 39.7384 114.983 39.9727C117.448 36.4902 124.148 27.6108 122.488 25.3351C119.461 21.1873 97.3517 6.73333 92.3277 7.93067C91.4895 8.12964 89.5346 8.59704 83.3556 21.9679C83.6021 12.9649 83.3556 6.02929 82.0996 5.09568C78.2194 2.21712 53.2569 2.9188 48.1688 5.06271C46.596 5.72672 46.1794 11.598 46.9128 22.5342C43.6661 13.7314 41.0395 6.97234 40.38 6.36366C39.9548 5.96808 39.1906 5.92098 37.762 6.29655C31.5719 7.92243 8.32401 19.3001 7.63622 21.9008C6.98418 24.3614 34.9542 76.71 37.412 81.3557C37.3971 81.4614 37.4093 81.5689 37.4473 81.6691C37.4854 81.7694 37.5483 81.8593 37.6306 81.9314C37.7129 82.0034 37.8122 82.0554 37.9201 82.0829C38.028 82.1103 38.1412 82.1125 38.2501 82.0891C40.0793 81.6006 40.2087 81.2815 53.6797 71.4862C59.1574 67.5021 60.7782 65.9174 63.2791 65.151C72.2771 62.3949 80.475 81.0154 71.5868 91.9245C70.9915 92.6568 71.8666 93.6587 72.5643 93.3255C72.7405 93.3255 137.522 72.7224 137.074 66.6509C136.4 57.5349 126.437 38.0572 122.451 37.1048ZM73.2299 16.9655C75.3253 17.0691 78.3279 17.0655 80.1422 18.1663C80.2302 18.214 80.2988 18.2888 80.3367 18.3784C80.3747 18.468 80.3798 18.5672 80.3512 18.66C80.3227 18.7527 80.2621 18.8335 80.1794 18.8892C80.0967 18.9449 79.9968 18.9723 79.8957 18.9669C78.8295 18.9127 77.2839 18.37 73.2274 17.9332C72.6025 17.8649 72.5667 16.9337 73.2299 16.9655ZM61.1874 16.9996C63.8321 16.5071 66.5557 16.5525 69.1808 17.1326C69.2819 17.1655 69.3681 17.2304 69.4252 17.3166C69.4822 17.4027 69.5067 17.505 69.4944 17.6063C69.4822 17.7076 69.434 17.8018 69.3579 17.8733C69.2817 17.9448 69.1823 17.9892 69.076 17.9992C67.82 18.0757 66.5628 17.832 65.3413 17.8002C64.015 17.7649 62.653 17.766 61.3267 17.766C60.8386 17.766 60.7326 17.062 61.1911 16.9996H61.1874ZM48.3414 18.0992C51.0843 17.4075 53.9187 17.1045 56.7538 17.1997C56.8509 17.1865 56.9495 17.2106 57.028 17.2668C57.1065 17.323 57.1584 17.4066 57.1723 17.4994C57.1862 17.5921 57.1609 17.6863 57.1021 17.7613C57.0433 17.8362 56.9557 17.8858 56.8586 17.8991C54.1171 18.603 51.2842 18.9289 48.4461 18.8668C48.027 18.8739 47.9198 18.1899 48.3414 18.0992ZM38.5324 80.4833C30.5378 65.4795 20.0657 45.5073 14.0272 33.2373C15.0626 32.7969 18.79 30.8485 19.5418 29.9031C19.8586 29.5051 19.3311 29.0589 18.9132 29.1366C17.0272 29.9978 15.2279 31.0225 13.5379 32.1977C11.821 28.9717 10.3284 25.6414 9.06973 22.2281C10.8089 19.7804 36.3975 6.99 39.4741 7.35732C41.0765 9.75789 52.7047 42.4004 60.4195 64.5753C58.4141 65.7373 40.4528 79.2071 38.5324 80.4833ZM64.1494 48.2411C64.0254 48.3491 63.8636 48.409 63.6958 48.409C63.5279 48.409 63.3661 48.3491 63.2422 48.2411L55.3979 41.7069C55.2983 41.629 55.2251 41.5245 55.1876 41.4068C55.1501 41.2891 55.1501 41.1635 55.1874 41.0457C55.2248 40.928 55.2979 40.8235 55.3974 40.7454C55.497 40.6674 55.6186 40.6193 55.7468 40.6073L61.3316 39.9398C61.5104 39.9398 61.6114 39.7208 61.6114 39.5736C61.2749 37.6463 59.4125 31.2641 60.4935 30.8049C61.4426 30.4011 67.0731 29.7771 67.3356 30.8708C67.1497 33.8109 66.6588 36.7261 65.87 39.5736C65.8562 39.6176 65.8526 39.6639 65.8597 39.7093C65.8667 39.7547 65.8842 39.7981 65.9108 39.8363C65.9374 39.8746 65.9725 39.9067 66.0136 39.9305C66.0547 39.9543 66.1008 39.9691 66.1486 39.9739L71.2454 40.24C71.3743 40.2417 71.4997 40.2805 71.6052 40.3514C71.7107 40.4223 71.7913 40.5219 71.8366 40.6372C71.8819 40.7526 71.8897 40.8783 71.8589 40.9979C71.8282 41.1175 71.7605 41.2256 71.6645 41.3078L64.1494 48.2411ZM109.181 63.2119C107.016 64.4164 104.951 65.7762 103.002 67.2796C103.665 69.2139 104.365 71.1353 105.026 73.0814C105.286 73.8443 104.124 74.5119 103.595 73.882C102.388 72.464 101.044 71.1577 99.5802 69.9804C97.4848 71.6816 95.4769 73.4335 93.4025 75.0488C92.7406 75.5644 91.545 75.0852 91.9012 74.3482C91.9628 74.1728 93.4814 70.8492 94.3442 68.9137C94.6264 68.2815 94.868 67.6187 95.1478 66.9464C93.2326 65.8438 91.2243 64.8958 89.1439 64.1126C88.9465 64.0523 88.7778 63.9271 88.6679 63.7593C88.558 63.5914 88.5139 63.3918 88.5435 63.1959C88.573 63 88.6743 62.8204 88.8294 62.689C88.9844 62.5577 89.1832 62.4831 89.3904 62.4785C91.9036 62.4055 94.4169 62.2783 96.8956 62.1782C97.3492 60.7454 97.7585 59.2773 98.1516 57.7774C98.2063 57.6155 98.3133 57.4744 98.4573 57.3743C98.6013 57.2742 98.7748 57.2202 98.9528 57.2202C99.1309 57.2202 99.3044 57.2742 99.4484 57.3743C99.5923 57.4744 99.6993 57.6155 99.754 57.7774C100.247 59.1768 100.736 60.5771 101.221 61.9781C103.734 61.8451 106.283 61.7638 108.795 61.6779C108.98 61.6872 109.158 61.7534 109.3 61.8665C109.443 61.9797 109.544 62.1338 109.588 62.306C109.632 62.4783 109.616 62.6594 109.544 62.8226C109.472 62.9858 109.346 63.1223 109.186 63.2119H109.181ZM70.8473 65.3464C70.0188 64.6729 69.0736 64.1426 68.0542 63.7794C72.3412 51.7577 80.6267 30.54 86.3459 18.8668C87.6019 19.4331 88.9984 19.7993 90.2211 20.3974C91.3724 20.9636 92.4546 21.7301 93.6416 22.2976C93.9904 22.4636 94.5599 22.0903 94.2702 21.6971C92.3954 19.5638 89.7323 18.2024 86.834 17.8955C90.4652 10.6609 92.0368 9.3317 92.6641 9.19395C96.9462 8.25209 118.478 22.1739 121.289 26.065C121.359 26.198 121.868 27.4236 116.331 35.5672C115.002 37.5072 113.629 39.4196 112.213 41.3031C100.669 47.4228 81.5215 58.8158 70.8571 65.3464H70.8473ZM125.164 56.4435C125.133 56.8438 124.465 57.144 124.256 56.679C123.209 54.3455 122.166 51.9426 121.289 49.5773C121.115 49.1064 121.852 48.8415 122.091 49.2442C122.879 50.5555 123.601 51.902 124.256 53.2788C124.831 54.2448 125.147 55.3323 125.174 56.4435H125.164ZM128.984 68.0131C127.692 65.646 126.706 63.138 126.046 60.5441C125.832 59.8778 126.849 59.6435 127.127 60.2769C128.381 62.6538 129.308 65.1753 129.886 67.7788C129.921 68.2803 129.192 68.3451 128.984 68.0131Z" fill="#F50050"/>
</g>
<defs>
<clipPath id="clip0_2709_47843">
<rect width="184.889" height="105.959" fill="white" transform="translate(-47.2734 0.5)"/>
</clipPath>
</defs>
</svg>
