<svg width="150" height="150" viewBox="0 0 150 150" fill="none" xmlns="http://www.w3.org/2000/svg">
<path fill-rule="evenodd" clip-rule="evenodd" d="M61.6843 62.524L59.1343 60.5035C58.9568 60.2215 58.8596 59.8963 58.8534 59.563C58.8472 59.2298 58.9322 58.9012 59.0991 58.6128C59.2979 58.2987 59.6044 58.0679 59.9612 57.9636C60.3179 57.8594 60.7005 57.8889 61.0371 58.0465L76.5193 68.7783C76.546 68.7965 76.5678 68.8208 76.5832 68.8491C76.5986 68.8775 76.607 68.9091 76.6077 68.9413C76.6084 68.9736 76.6015 69.0055 76.5874 69.0346C76.5734 69.0636 76.5526 69.0888 76.5268 69.1083C76.0853 69.3759 75.7244 69.7582 75.4827 70.2144C75.2409 70.6706 75.1272 71.1838 75.1536 71.6995C75.1513 71.7354 75.1396 71.77 75.1196 71.7999C75.0996 71.8298 75.0721 71.8539 75.0398 71.8698C75.0076 71.8856 74.9717 71.8926 74.9358 71.8901C74.8999 71.8876 74.8654 71.8757 74.8356 71.8555L69.0546 67.939C69.0319 67.9239 69.0064 67.9134 68.9796 67.9082C68.9529 67.903 68.9253 67.9032 68.8986 67.9087C68.8719 67.9142 68.8465 67.9249 68.824 67.9403C68.8015 67.9557 68.7822 67.9754 68.7673 67.9983L66.6673 71.287C66.6526 71.3098 66.6335 71.3295 66.6111 71.3448C66.5887 71.3602 66.5635 71.371 66.5369 71.3765C66.5103 71.382 66.4829 71.3822 66.4562 71.377C66.4295 71.3718 66.4042 71.3613 66.3816 71.3463L64.4578 70.0563C64.4129 70.0262 64.3818 69.9795 64.3712 69.9265C64.3607 69.8735 64.3716 69.8185 64.4016 69.7735L66.3276 66.8785C66.3427 66.8558 66.3531 66.8303 66.3581 66.8036C66.3632 66.7768 66.3629 66.7493 66.3571 66.7227C66.3514 66.696 66.3404 66.6708 66.3248 66.6485C66.3091 66.6262 66.2892 66.6072 66.2661 66.5928L64.0056 65.1858C63.9611 65.158 63.9077 65.1484 63.8564 65.1589C63.805 65.1693 63.7597 65.1991 63.7296 65.242L61.7541 68.1115C61.7244 68.1548 61.6791 68.185 61.6278 68.1959C61.5764 68.2068 61.5228 68.1975 61.4781 68.17L59.2333 66.7863C59.2099 66.7716 59.1896 66.7523 59.1737 66.7296C59.1579 66.7069 59.1468 66.6812 59.1411 66.6541C59.1354 66.627 59.1353 66.599 59.1407 66.5718C59.1461 66.5447 59.157 66.5189 59.1726 66.496L61.7226 62.8023C61.7533 62.7599 61.7664 62.7073 61.7593 62.6555C61.7521 62.6036 61.7253 62.5565 61.6843 62.524ZM67.8223 109.829C68.8851 107.399 60.1243 104.699 56.7036 105.224C52.9468 105.8 34.5313 111.366 28.4946 113.498C25.416 114.582 23.2729 115.23 21.2239 115.849C18.7493 116.597 16.4118 117.304 12.7296 118.688C11.7156 119.071 10.6213 119.519 10.0963 120.464C8.35857 123.583 22.9731 126.09 24.9088 126.325C27.8961 126.691 30.8878 125.735 33.6531 124.545C34.8985 124.009 37.6327 122.914 41.0396 121.551L41.0398 121.55C51.1842 117.49 67.2929 111.041 67.8223 109.829ZM136.863 133.953C137.694 133.281 137.011 132.447 136.01 131.649C143.656 132.678 149.05 136.645 144.703 139.862C142.319 141.623 138.207 142.003 133.761 141.444C132.009 141.224 130.85 140.748 129.768 140.304C128.045 139.596 126.517 138.968 123.097 139.584C107.434 142.404 79.2043 134.633 101.94 131.664C103.038 131.521 104.321 131.409 105.742 131.324C103.719 132.43 102.287 134.007 102.992 134.928C103.813 135.997 108.673 135.997 110.293 135.153C111.411 134.57 111.082 132.409 110.772 131.128C118.015 130.975 126.818 131.214 132.98 131.403C134.131 132.603 136.159 134.523 136.863 133.953ZM94.9333 83.539C92.9855 88.2048 93.17 93.9768 96.5555 95.389C99.257 96.5155 103.048 93.6798 104.755 90.0678C105.338 88.8213 107.233 90.1008 106.763 91.411C104.584 97.4943 99.0583 100.125 94.3243 98.086C90.3118 96.361 89.2603 89.716 90.9013 84.136C90.0291 84.1235 89.1921 83.7905 88.5497 83.2004C87.9073 82.6103 87.5046 81.8045 87.4183 80.9365L82.1166 77.542C82.046 77.497 81.986 77.4372 81.9408 77.3668C81.8956 77.2963 81.8663 77.2169 81.8548 77.134C81.659 76.0421 81.9015 74.917 82.5298 74.0028C82.6209 73.8916 82.7501 73.8184 82.8923 73.7975C83.0344 73.7766 83.1793 73.8094 83.2986 73.8895L88.9581 77.6508C89.722 77.1303 90.6589 76.9285 91.5694 77.0883C92.4799 77.2481 93.2921 77.7569 93.8331 78.5065C96.7206 74.9388 100.808 73.2738 104.183 74.6815C106.722 75.7383 107.934 77.6335 108.352 80.7835C108.484 81.8088 106.286 82.5738 106.142 81.8913C105.7 79.8048 105.21 78.6618 103.442 77.9778C100.578 76.8693 96.8811 78.8733 94.9333 83.539Z" fill="#F50050"/>
<path fill-rule="evenodd" clip-rule="evenodd" d="M31.0147 12.7295C21.1222 19.4847 18.9862 32.1335 18.5317 43.2545C18.5264 43.4161 18.4586 43.5694 18.3424 43.682C18.2263 43.7946 18.071 43.8577 17.9092 43.858C17.7475 43.8583 17.5919 43.7958 17.4754 43.6836C17.3588 43.5714 17.2904 43.4184 17.2845 43.2567C16.8082 36.6717 18.9262 27.4107 21.4267 22.3002C23.85 17.3051 27.7835 13.199 32.67 10.5635C34.997 9.35466 37.5397 8.61711 40.1523 8.39312C42.7649 8.16914 45.3961 8.46314 47.8948 9.25824C50.3936 10.0533 52.7108 11.3339 54.7136 13.0265C56.7163 14.7191 58.3652 16.7905 59.5658 19.1217C61.9305 23.6345 62.5883 28.847 62.5598 33.8832C62.5598 34.0145 62.5076 34.1404 62.4148 34.2332C62.3219 34.3261 62.196 34.3782 62.0648 34.3782C61.9335 34.3782 61.8076 34.3261 61.7147 34.2332C61.6219 34.1404 61.5698 34.0145 61.5698 33.8832C61.5 28.724 60.867 23.363 58.2547 18.8127C56.9456 16.5378 55.1778 14.56 53.0634 13.0049C50.9491 11.4498 48.5344 10.3513 45.9729 9.77924C43.4113 9.20719 40.7587 9.17406 38.1837 9.68194C35.6086 10.1898 33.1673 11.2276 31.0147 12.7295ZM112.131 49.622C112.382 49.8477 112.702 49.9831 113.039 50.0067C113.195 50.0575 113.36 50.0735 113.523 50.0535C113.686 50.0335 113.843 49.9782 113.982 49.8912C114.027 49.8643 114.06 49.8208 114.073 49.7699C114.086 49.7191 114.079 49.6651 114.053 49.6197C113.953 49.4867 113.826 49.3778 113.679 49.301C113.532 49.2243 113.369 49.1817 113.204 49.1765C112.864 49.0798 112.502 49.1031 112.178 49.2425C112.147 49.2618 112.121 49.2879 112.101 49.3188C112.081 49.3497 112.069 49.3846 112.064 49.4209C112.06 49.4573 112.063 49.4942 112.075 49.529C112.086 49.5638 112.106 49.5956 112.131 49.622ZM112.512 51.7641C112.565 51.8168 112.63 51.8541 112.701 51.8732C112.77 51.9093 112.969 51.98 113.176 51.914C113.292 51.8808 113.394 51.8106 113.467 51.714C113.54 51.6175 113.58 51.4998 113.58 51.3788C113.58 51.2579 113.54 51.1402 113.467 51.0437C113.394 50.9471 113.292 50.8769 113.176 50.8437C113.022 50.8004 112.857 50.8184 112.716 50.8939C112.575 50.9694 112.468 51.0966 112.419 51.2487C112.473 51.1287 112.469 51.1407 112.407 51.2847C112.393 51.3449 112.387 51.4067 112.388 51.4685C112.389 51.5794 112.434 51.6856 112.512 51.7641ZM109.206 52.161C109.095 52.2713 108.946 52.3332 108.79 52.3332C108.634 52.3332 108.484 52.2713 108.374 52.161C108.264 52.0507 108.202 51.9012 108.202 51.7452C108.202 51.5893 108.264 51.4397 108.374 51.3294C108.484 51.2192 108.634 51.1572 108.79 51.1572C108.946 51.1572 109.095 51.2192 109.206 51.3294C109.316 51.4397 109.378 51.5893 109.378 51.7452C109.378 51.9012 109.316 52.0507 109.206 52.161ZM110.608 52.574C110.34 52.9456 110.186 53.387 110.164 53.8445C110.05 54.3892 110.002 54.9457 110.02 55.502C110.071 56.0607 110.641 56.7942 111.199 56.2565C111.229 56.2264 111.251 56.19 111.264 56.1501C111.278 56.1102 111.282 56.0678 111.277 56.0261C111.271 55.9844 111.256 55.9444 111.233 55.9092C111.21 55.874 111.179 55.8445 111.143 55.823C110.648 55.5415 110.769 54.8336 110.895 54.0998C110.982 53.5882 111.072 53.0641 110.956 52.6632C110.946 52.6288 110.926 52.5977 110.9 52.5728C110.874 52.548 110.842 52.5302 110.807 52.5213C110.772 52.5124 110.735 52.5125 110.701 52.5217C110.666 52.5309 110.634 52.5489 110.608 52.574ZM112.438 58.818C111.839 58.8968 111.231 58.8057 110.681 58.5552C110.639 58.529 110.607 58.49 110.589 58.4439C110.571 58.3978 110.568 58.3472 110.581 58.2994C110.594 58.2516 110.621 58.2091 110.66 58.1784C110.699 58.1476 110.747 58.1301 110.796 58.1285C111.775 58.2791 112.774 58.0535 113.593 57.497C114.295 56.9429 114.488 56.2475 114.699 55.4889L114.699 55.4886C114.75 55.3047 114.803 55.117 114.863 54.9267C114.879 54.8766 114.91 54.8328 114.952 54.8016C114.994 54.7705 115.045 54.7537 115.098 54.7537C115.15 54.7537 115.201 54.7705 115.243 54.8016C115.286 54.8328 115.317 54.8766 115.332 54.9267C115.745 56.0607 114.95 57.4257 114.066 58.1097C113.6 58.4938 113.036 58.7392 112.438 58.818ZM121.298 65.4327C121.246 65.4333 121.196 65.4523 121.158 65.4863C121.119 65.5203 121.094 65.567 121.087 65.618C121.08 65.669 121.091 65.7209 121.119 65.7642C121.146 65.8076 121.189 65.8395 121.238 65.8542C127.871 67.2755 131.837 73.8297 129.638 78.9672C129.287 77.8025 127.967 77.0622 126.895 76.676C125.299 76.1089 123.564 76.0705 121.945 76.5665C123.139 74.3667 122.827 71.4282 120.286 70.181C120.061 70.07 119.794 70.3595 120.001 70.556C121.168 71.6615 122.101 73.0812 121.726 74.7717C121.524 75.4799 121.182 76.1401 120.719 76.713C120.257 77.2858 119.683 77.7594 119.033 78.1055C117.624 78.9321 116.048 79.3505 114.478 79.7674C113.738 79.964 112.999 80.1603 112.279 80.399C112.189 80.4273 112.112 80.4865 112.061 80.5661C112.011 80.6456 111.99 80.7405 112.003 80.8339C112.015 80.9273 112.061 81.0132 112.131 81.0765C112.2 81.1397 112.29 81.1763 112.385 81.1797C113.963 81.0524 115.513 80.686 116.982 80.093C118.703 79.6147 120.251 78.6554 121.446 77.3277C125.271 76.7555 126.801 76.8365 129.301 79.6437C128.337 81.2762 126.826 82.5139 125.036 83.1365C122.264 84.1598 119.602 83.7033 116.84 83.2299C116.521 83.1752 116.201 83.1203 115.88 83.0675C115.916 82.928 115.64 82.8935 115.571 82.9775C115.423 83.158 115.314 83.4038 115.173 83.7214C114.87 84.404 114.42 85.4176 113.118 86.8242C111.822 88.1718 110.127 89.0675 108.283 89.3795C108.231 89.3956 108.186 89.4297 108.157 89.4755C108.128 89.5214 108.116 89.5762 108.123 89.6301C108.13 89.6841 108.156 89.7337 108.197 89.7702C108.237 89.8067 108.289 89.8277 108.344 89.8295C110.26 89.7404 112.067 88.909 113.382 87.5112C114.411 86.4291 115.243 85.1758 115.841 83.8077C121.418 86.414 130.073 84.5285 131.177 77.6577C132.145 71.645 127.229 65.918 121.298 65.4327ZM110.398 85.043C109.238 86.672 106.911 87.3222 105.008 87.068C104.964 87.0615 104.924 87.0395 104.895 87.0061C104.866 86.9726 104.85 86.9299 104.85 86.8855C104.849 86.8412 104.865 86.7982 104.893 86.7643C104.922 86.7303 104.962 86.7077 105.005 86.7005C107.043 86.6322 108.42 85.8005 110.03 84.6755C110.248 84.524 110.548 84.8285 110.398 85.043ZM105.765 88.742C107.668 88.997 109.995 88.346 111.155 86.717C111.308 86.5025 111.005 86.198 110.787 86.3487C109.177 87.4782 107.8 88.3055 105.762 88.3737C105.718 88.3804 105.677 88.4028 105.648 88.4369C105.619 88.471 105.604 88.5144 105.604 88.5591C105.604 88.6039 105.621 88.647 105.65 88.6806C105.68 88.7142 105.721 88.736 105.765 88.742ZM110.501 82.2605C109.402 84.5847 106.471 85.4367 104.1 84.974C104.065 84.9628 104.035 84.9395 104.015 84.9084C103.996 84.8772 103.988 84.8401 103.993 84.8037C103.998 84.7673 104.016 84.7338 104.043 84.7093C104.071 84.6847 104.106 84.6706 104.143 84.6695C106.632 84.8367 108.478 83.6772 110.232 82.0527C110.262 82.0245 110.301 82.0078 110.342 82.0058C110.383 82.0037 110.423 82.0163 110.455 82.0415C110.488 82.0666 110.51 82.1024 110.518 82.1426C110.527 82.1828 110.52 82.2246 110.501 82.2605ZM108.625 78.5435C110.27 79.4492 110.612 80.1479 110.963 80.8624C111.083 81.1076 111.204 81.3546 111.379 81.6125C111.41 81.6617 111.455 81.6997 111.509 81.721C111.563 81.7422 111.623 81.7456 111.679 81.7306C111.735 81.7155 111.784 81.6829 111.82 81.6375C111.857 81.592 111.877 81.5362 111.879 81.4782C111.845 79.8447 110.111 78.8045 108.83 78.1962C108.6 78.086 108.394 78.416 108.625 78.5435ZM81.9249 71.4744C80.6974 73.6629 80.428 74.1432 80.937 76.763C80.9592 76.8531 80.9484 76.9482 80.9067 77.0311C80.865 77.114 80.795 77.1792 80.7094 77.2151C80.6237 77.2509 80.5281 77.255 80.4398 77.2265C80.3514 77.1981 80.2762 77.139 80.2275 77.06C78.945 75.3035 79.563 72.0575 81.5505 71.0787C81.6039 71.0493 81.6655 71.0381 81.7258 71.0467C81.7862 71.0553 81.8421 71.0833 81.8852 71.1264C81.9283 71.1696 81.9562 71.2256 81.9647 71.286C81.9732 71.3464 81.9618 71.4079 81.9323 71.4612L81.9249 71.4744ZM79.2113 76.1525C78.5656 74.1192 79.3508 72.3162 80.3648 70.5912C80.3945 70.5371 80.4059 70.4749 80.3972 70.4138C80.3885 70.3527 80.3602 70.2961 80.3165 70.2525C80.2729 70.2089 80.2163 70.1806 80.1552 70.1719C80.0941 70.1632 80.0319 70.1745 79.9778 70.2042C77.9123 71.534 77.7968 74.3292 78.7186 76.3542C78.8483 76.6362 79.3028 76.4405 79.2113 76.1525ZM77.2829 73.8418C77.3278 74.249 77.3724 74.6534 77.316 75.0605C77.3092 75.0851 77.2968 75.1078 77.2798 75.1269C77.2627 75.146 77.2416 75.1609 77.2179 75.1706C77.1942 75.1802 77.1686 75.1843 77.1431 75.1825C77.1176 75.1807 77.0929 75.1731 77.0708 75.1602C75.4133 73.9317 76.4085 70.475 77.9295 69.5532C77.9872 69.5221 78.0533 69.5105 78.1181 69.52C78.1829 69.5295 78.243 69.5597 78.2893 69.606C78.3356 69.6523 78.3657 69.7123 78.3752 69.7771C78.3847 69.8419 78.3731 69.9081 78.342 69.9657C77.8438 70.7614 77.4773 71.6324 77.2568 72.545C77.1884 72.9846 77.2359 73.4147 77.2829 73.8418ZM108.276 71.3547C107.471 73.1518 107.289 75.1666 107.76 77.0787C107.828 77.3075 108.227 77.3502 108.267 77.0787C108.362 76.4362 108.385 75.7897 108.407 75.1421L108.407 75.1411L108.407 75.14L108.408 75.139L108.408 75.1379L108.408 75.1369C108.416 74.898 108.424 74.659 108.437 74.42C108.462 73.9153 108.517 73.414 108.573 72.913L108.573 72.9128C108.626 72.4325 108.679 71.9525 108.705 71.4702C108.715 71.249 108.37 71.1447 108.276 71.3547ZM26.7371 38.4473L26.7371 38.4472C27.5624 31.4404 28.4465 23.9354 33.9833 19.058C40.9808 12.8982 48.9233 14.4117 53.1743 20.0037C56.1409 23.9046 56.2796 26.3567 56.5208 30.625C56.5622 31.3561 56.6065 32.1404 56.6686 32.9945C56.6941 33.3455 57.3001 33.3335 57.3563 32.9945C58.0426 28.8635 56.2838 22.802 55.0981 20.9487C53.1811 17.957 49.9658 15.2015 46.5046 14.3292C39.4118 12.5405 31.5188 16.3962 27.8348 26.0607C26.107 30.8171 25.3637 35.8749 25.6501 40.9272C25.6599 41.0249 25.7057 41.1154 25.7786 41.1812C25.8515 41.2469 25.9463 41.2832 26.0445 41.2829C26.1426 41.2826 26.2372 41.2458 26.3097 41.1797C26.3822 41.1135 26.4276 41.0227 26.4368 40.925C26.5412 40.1097 26.6387 39.2822 26.737 38.4475L26.7371 38.4474L26.7371 38.4474L26.7371 38.4473L26.7371 38.4473ZM36.1994 36.1721C32.8242 37.0415 29.9306 37.7868 28.5112 38.0112C28.4405 38.0308 28.3649 38.0215 28.3011 37.9854C28.2372 37.9492 28.1903 37.8892 28.1708 37.8185C28.1512 37.7478 28.1605 37.6722 28.1966 37.6083C28.2328 37.5445 28.2928 37.4976 28.3635 37.478C32.9115 35.978 53.9625 30.953 55.101 31.028C55.3717 31.0467 55.5337 31.4405 55.251 31.5792C54.9705 31.7171 53.1997 32.1155 50.6747 32.6836C48.4466 33.1849 45.6312 33.8183 42.7342 34.5215C40.5279 35.0571 38.2733 35.6378 36.2003 36.1718L36.1996 36.172L36.1994 36.1721ZM56.2673 77.0015C53.7648 73.1308 52.2339 68.7833 50.7108 64.4579L50.7098 64.4549L50.7045 64.44L50.7003 64.4281C50.6105 64.1731 50.5208 63.9182 50.4308 63.6635C51.5957 62.8232 52.4321 61.604 52.7966 60.2147C53.1611 58.8255 53.0311 57.3527 52.4288 56.0487C51.803 54.6799 50.7165 53.5742 49.3589 52.9246C48.0013 52.2749 46.4586 52.1224 45.0001 52.4937C39.6601 53.8437 37.0846 62.5212 43.6568 64.9895C42.8625 67.6038 42.3024 70.2774 41.7422 72.9511C41.144 75.8063 40.5458 78.6617 39.6623 81.4452C39.6394 81.5327 39.6399 81.6246 39.6635 81.7118C39.6872 81.799 39.7333 81.8785 39.7973 81.9424C39.8612 82.0063 39.9408 82.0523 40.028 82.0758C40.1153 82.0994 40.2072 82.0997 40.2946 82.0767C41.9408 81.6185 43.5804 81.1258 45.2208 80.6329L45.2214 80.6327C48.7702 79.5664 52.3223 78.4991 55.9516 77.777C56.0292 77.7549 56.1007 77.7154 56.1608 77.6615C56.2208 77.6077 56.2679 77.5408 56.2983 77.4661C56.3287 77.3914 56.3417 77.3107 56.3364 77.2302C56.331 77.1497 56.3074 77.0715 56.2673 77.0015ZM42.7345 73.2752C42.1877 75.8068 41.6409 78.3383 40.9218 80.8257C42.0713 80.4887 43.2194 80.1407 44.3683 79.7926L44.3684 79.7925L44.3684 79.7925L44.3685 79.7925C47.8708 78.7311 51.3799 77.6677 54.9541 76.907L51.4366 75.7452C50.8546 75.9927 44.4001 77.9937 42.9001 78.0237C42.842 78.0219 42.7861 78.0015 42.7406 77.9655C42.695 77.9294 42.6622 77.8797 42.6471 77.8237C42.632 77.7676 42.6353 77.7081 42.6565 77.6541C42.6778 77.6 42.7158 77.5543 42.7651 77.5235C44.1166 76.835 50.5816 75.0777 50.7098 75.053L47.2261 63.953C47.1535 63.7742 47.1489 63.575 47.2131 63.393C47.2774 63.211 47.406 63.0588 47.5748 62.9652C48.3008 62.3645 50.0258 58.7877 48.6758 56.447C46.8533 53.282 43.2563 54.7977 42.5483 55.136C41.593 56.2063 40.9811 57.5388 40.7918 58.961C40.4596 61.502 42.0818 63.4617 44.4578 64.1405C44.5916 64.1802 44.7047 64.2702 44.7734 64.3916C44.8421 64.5131 44.861 64.6564 44.8261 64.7915C43.9652 67.5774 43.3499 70.4261 42.7346 73.2748L42.7346 73.2749L42.7346 73.275L42.7345 73.2751L42.7345 73.2752ZM73.2 74.0495C73.1933 73.8095 73.5563 73.8132 73.575 74.0495C73.6 74.3988 73.6266 74.7527 73.6535 75.1097L73.6537 75.1121C74.0557 80.4513 74.5109 86.4978 70.2113 88.8462C66.557 90.7053 62.772 92.2953 58.8863 93.6035C48.381 97.4817 37.833 101.178 26.856 103.482C24.1815 104.044 20.9678 104.59 18.4178 103.589C15.0045 102.641 11.5298 101.129 8.91229 98.708C7.41449 97.2241 6.35557 95.3554 5.85229 93.308C3.41122 85.3898 3.72113 62.7574 3.81481 55.9163C3.82564 55.1254 3.83358 54.5456 3.83404 54.224C3.83854 51.0087 4.50004 47.549 6.98179 45.2832C9.28426 43.2662 12.1255 41.9652 15.1568 41.54C15.1938 41.5362 15.231 41.5456 15.2618 41.5665C15.2926 41.5874 15.315 41.6186 15.3251 41.6544C15.3353 41.6902 15.3324 41.7285 15.3171 41.7624C15.3019 41.7963 15.2751 41.8238 15.2415 41.84C15.0968 41.8907 14.9508 41.9417 14.8037 41.9931C11.6248 43.1032 7.95251 44.3857 6.12529 47.3727C8.38579 46.0137 12.441 46.9092 13.917 49.7045C15.0635 47.6824 16.7692 47.2047 20.5952 46.1334L20.5973 46.1328C20.8603 46.0592 21.1334 45.9827 21.417 45.9027C27.2115 44.2685 62.3235 36.1137 64.617 35.6937C64.8269 35.6553 65.0373 35.6145 65.2481 35.5736C66.7995 35.2724 68.3711 34.9674 69.9188 35.6052C68.889 33.9807 67.695 32.237 63.9593 31.5395C63.4275 31.4382 63.651 30.6132 64.1843 30.7242C65.9676 31.0357 67.6258 31.8474 68.9655 33.065C70.0643 34.0669 70.905 35.319 71.4165 36.7152C72.1673 37.8279 72.6346 39.1073 72.7778 40.442C73.2323 42.9552 73.956 57.8202 73.8953 62.6952C73.8953 62.8309 73.8414 62.961 73.7455 63.0569C73.6496 63.1528 73.5195 63.2067 73.3838 63.2067C73.2481 63.2067 73.118 63.1528 73.0221 63.0569C72.9262 62.961 72.8723 62.8309 72.8723 62.6952C72.8415 60.0642 71.9243 40.8147 71.4668 39.1055C71.4642 39.0956 71.4615 39.0851 71.4586 39.0739C71.4558 39.0629 71.4528 39.0513 71.4497 39.039C71.2692 38.3304 70.5928 35.6755 66.8168 36.2975C62.5845 36.995 22.6493 45.9635 16.5668 48.6065C13.8019 49.8079 13.9533 54.97 14.2503 65.094C14.3269 67.7043 14.4131 70.6445 14.4615 73.9317C14.4737 74.7706 14.4663 75.9139 14.4576 77.2626C14.4055 85.3083 14.306 100.665 18.0315 102.321C20.5426 103.074 21.7229 102.917 23.8989 102.627L23.899 102.627C24.0783 102.603 24.2642 102.578 24.4583 102.553C35.9762 101.055 47.3244 96.8142 62.641 91.0902L63.8333 90.6447C65.439 90.0462 67.014 89.3457 68.5583 88.6077L68.5904 88.5924C69.9996 87.9233 71.3171 87.2976 72.0518 85.8327C73.3921 83.1674 73.2896 78.3227 73.2164 74.8581V74.858L73.2163 74.851C73.2104 74.5744 73.2048 74.3066 73.2 74.0495ZM138.139 134.13C137.331 131.341 132.875 129.069 130.473 129.22C131.691 124.28 131.123 108.921 126.159 93.998C127.122 93.6916 128.062 93.3187 128.974 92.882C129.058 92.8312 129.124 92.7543 129.162 92.6629C129.199 92.5715 129.206 92.4705 129.181 92.375C129.087 91.9757 128.992 91.577 128.898 91.1786L128.896 91.1729C128.397 89.0754 127.9 86.985 127.599 84.845C127.564 84.5787 127.103 84.6372 127.128 84.9087C127.402 87.3411 127.865 89.7484 128.513 92.1087C123.881 93.9566 118.879 94.6903 113.911 94.2507C111.942 93.9839 109.989 93.6116 108.061 93.1355C107.618 93.0485 107.283 93.6785 107.735 93.9095C107.828 93.956 107.921 94.001 108.014 94.046C107.524 97.514 107.418 108.466 107.434 111.985C107.451 116.607 107.815 127.66 108.419 130.403C106.866 130.258 105.311 130.667 104.029 131.556C102.945 132.362 101.28 134.064 101.714 135.477C101.864 135.978 103.671 136.516 106.326 136.587C108.752 136.65 111.836 135.872 113.196 134.721L113.207 134.715L113.217 134.703C114.066 134.022 113.649 131.49 113.146 130.946C113.935 124.754 114.431 118.614 114.954 112.126C115.048 110.965 115.142 109.794 115.24 108.609C115.43 106.275 115.69 104.136 117.296 102.398C121.247 104.961 122.127 108.348 123.277 112.823C123.955 115.55 124.497 118.31 124.899 121.091C125.228 123.24 125.427 124.861 125.582 126.134C125.828 128.14 125.968 129.28 126.345 130.259C126.286 130.668 126.294 131.083 126.368 131.49C126.378 131.825 126.457 132.155 126.599 132.458C126.741 132.762 126.943 133.034 127.193 133.258C127.223 133.277 130.606 134.983 132.28 135.27C134.372 135.624 138.727 136.161 138.139 134.13ZM108 131.825C107.762 132.122 107.501 132.198 107.136 132.304C106.787 132.406 106.342 132.536 105.73 132.914C105.323 133.168 104.952 133.475 104.627 133.827C104.534 133.927 104.454 134.035 104.374 134.142L104.374 134.143C104.205 134.369 104.041 134.59 103.778 134.72C103.217 134.998 103.01 133.595 105.117 132.101C105.843 131.584 107.189 130.818 108 131.493C108.043 131.537 108.067 131.597 108.067 131.659C108.067 131.721 108.043 131.78 108 131.825ZM123.825 111.031C123.106 108.534 122.34 105.99 120.563 104.022C118.965 102.182 116.732 101.014 114.31 100.752C114.147 100.733 114.119 100.987 114.27 101.028C115.114 101.258 115.925 101.594 116.684 102.028C114.827 103.318 114.597 106.369 114.221 111.362V111.362C114.15 112.307 114.073 113.322 113.98 114.407L113.921 115.084C113.472 120.223 112.994 125.701 112.754 130.846C110.58 131.022 110.143 130.868 109.611 130.681C109.498 130.641 109.382 130.6 109.244 130.56C109.256 130.25 109.2 129.686 109.11 128.781L109.11 128.781C108.795 125.606 108.063 118.23 108.374 102.843C108.392 101.956 108.427 101.066 108.463 100.174L108.463 100.173C108.541 98.2033 108.62 96.2255 108.512 94.2672C113.201 96.2172 121.055 95.5422 125.762 94.1225C130.13 111.601 129.935 120.143 129.816 125.357V125.357C129.784 126.784 129.757 127.961 129.831 129.004C129.523 129.386 129.115 129.674 128.652 129.835C128.323 129.899 127.985 129.895 127.657 129.823C127.33 129.751 127.021 129.613 126.749 129.417C126.764 128.012 126.642 126.608 126.384 125.226C125.96 120.427 125.103 115.676 123.825 111.031ZM136.467 133.456C136.174 133.319 136.062 133.209 135.833 132.984C135.527 132.684 135.014 132.178 133.581 131.131C133.362 130.971 133.482 130.572 133.775 130.667C134.873 131.019 136.633 132.092 136.974 133.067C137.081 133.374 136.714 133.569 136.466 133.454L136.467 133.456ZM119.049 56.6641C119.106 57.568 119.162 58.4739 119.333 59.3712C119.497 60.2148 119.76 61.0376 120.023 61.8585C120.299 62.7192 120.573 63.5779 120.732 64.4562C120.808 64.8897 120.227 65.1942 119.989 64.7697C119.201 63.1219 118.719 61.345 118.564 59.525C118.303 57.9563 118.241 56.361 118.378 54.7767C118.166 54.8353 117.941 54.8367 117.727 54.7808C117.514 54.7248 117.319 54.6134 117.162 54.458C117.127 54.421 117.104 54.3749 117.095 54.3251C117.086 54.2752 117.091 54.2238 117.111 54.177C117.13 54.1302 117.163 54.09 117.204 54.0613C117.246 54.0325 117.295 54.0163 117.346 54.0147C117.491 53.9959 117.633 53.9917 117.772 53.9875C118.121 53.977 118.452 53.9671 118.781 53.729C118.979 53.5635 119.126 53.3447 119.203 53.0986C119.281 52.8524 119.286 52.5892 119.218 52.3402C119.151 52.0911 119.014 51.8666 118.822 51.6932C118.631 51.5199 118.394 51.4049 118.14 51.362C117.625 51.3237 117.115 51.4879 116.719 51.8195C116.616 51.8885 116.531 51.761 116.569 51.6732C116.635 51.5198 116.73 51.3805 116.849 51.263C116.437 50.7309 116.159 50.1074 116.038 49.4452C115.918 48.783 115.958 48.1015 116.156 47.4582C115.335 47.6271 114.485 47.5984 113.676 47.3745C112.868 47.1506 112.124 46.738 111.506 46.1705C110.353 46.8366 109.104 47.3186 107.802 47.5992C107.776 47.8527 107.749 48.107 107.723 48.3618C107.662 48.9335 107.602 49.5082 107.55 50.084C107.917 49.6693 108.411 49.3887 108.955 49.2867C108.995 49.287 109.035 49.2963 109.07 49.3141C109.106 49.3319 109.137 49.3576 109.161 49.3892C109.185 49.4209 109.202 49.4577 109.209 49.4967C109.217 49.5358 109.216 49.576 109.205 49.6145C109.016 49.9293 108.765 50.2034 108.469 50.4212C108.173 50.639 107.837 50.7961 107.48 50.8835C107.242 53.0107 107.51 55.1641 108.261 57.1685C108.878 58.6272 109.966 60.2097 111.636 60.518C112.963 60.7617 114.069 60.1104 115.162 59.4669C115.572 59.2252 115.981 58.9846 116.398 58.793C116.469 58.7554 116.551 58.7441 116.629 58.7611C116.708 58.7781 116.778 58.8223 116.826 58.8859C116.875 58.9495 116.9 59.0283 116.896 59.1083C116.892 59.1884 116.86 59.2645 116.806 59.3232C116.039 60.1886 115.076 60.8573 113.997 61.2732C114.47 62.5745 114.275 64.9295 113.261 65.897C113.362 66.4667 113.555 67.016 113.833 67.523C114.823 68.8892 116.552 67.7128 118.014 66.7185C118.402 66.4546 118.771 66.2036 119.102 66.0162C119.142 65.9944 119.187 65.9861 119.232 65.9924C119.277 65.9987 119.318 66.0193 119.35 66.0512C119.382 66.0831 119.403 66.1245 119.409 66.1692C119.416 66.2138 119.407 66.2594 119.386 66.299C118.908 67.0837 118.245 67.7398 117.456 68.2104C116.666 68.6809 115.774 68.9516 114.856 68.999C113.335 68.9157 112.727 67.3302 112.849 66.0095C109.278 68.0239 105.556 69.7589 101.717 71.1987C101.873 71.9114 102.102 72.6059 102.401 73.271C102.411 73.3105 102.409 73.352 102.396 73.3905C102.383 73.429 102.358 73.4627 102.326 73.4875C102.294 73.5124 102.255 73.5272 102.214 73.5301C102.174 73.5331 102.133 73.5241 102.098 73.5042C101.77 73.2704 101.502 72.9646 101.311 72.6104C101.121 72.2561 101.015 71.863 101.001 71.4612C96.8677 72.9417 89.5035 75.0815 85.1858 74.3225C84.7755 74.249 84.9053 73.5935 85.2803 73.6272C90.4699 74.0911 96.5026 72.1143 99.2816 71.2038C99.5806 71.1058 99.8419 71.0201 100.061 70.9512C104.665 69.4981 107.374 68.1053 109.683 66.9184C110.769 66.36 111.766 65.8473 112.831 65.3952C112.897 65.1444 112.994 64.8993 113.092 64.6533C113.208 64.3623 113.325 64.0699 113.39 63.7647C113.498 62.9932 113.533 62.2133 113.494 61.4352C111.232 62.0645 109.465 61.037 108.232 59.1102C106.071 55.7375 106.547 51.419 107.297 47.669C101.66 48.2607 100.73 41.0525 103.964 39.5352C103.974 37.2102 106.567 35.3255 108.75 35.4102C109.822 35.4864 110.84 35.9116 111.648 36.6209C112.456 37.3302 113.01 38.2845 113.224 39.338C116.438 37.5822 119.213 39.1602 119.652 41.54C121.396 41.234 122.851 42.7925 122.851 44.615C122.847 46.7679 121.178 48.6864 119.738 50.3404C119.538 50.5711 119.341 50.7966 119.155 51.017C119.47 51.2153 119.726 51.4961 119.893 51.8291C120.06 52.162 120.134 52.5344 120.104 52.906C120.075 53.2775 119.945 53.6341 119.728 53.937C119.511 54.2399 119.215 54.4776 118.873 54.6245C118.964 55.3002 119.007 55.9816 119.049 56.6641ZM103.713 44.7695C104.024 45.14 104.443 45.4038 104.911 45.524C104.959 45.5352 105.01 45.5307 105.055 45.5112C105.1 45.4917 105.137 45.4583 105.162 45.4158C105.187 45.3733 105.197 45.324 105.192 45.2752C105.186 45.2263 105.165 45.1805 105.132 45.1445C104.584 44.7025 104.212 44.0798 104.082 43.388C104.049 42.9168 104.234 42.5636 104.423 42.2051C104.553 41.957 104.685 41.7064 104.746 41.4125C104.779 41.252 104.666 41.0232 104.468 41.0487C103.404 41.1882 103.061 42.539 103.179 43.4585C103.216 43.9406 103.403 44.3991 103.713 44.7695ZM109.205 37.5067C109.442 37.5582 109.674 37.6088 109.91 37.607V37.6032C109.958 37.6027 110.005 37.5898 110.047 37.5657C110.088 37.5417 110.123 37.5073 110.147 37.466C110.171 37.4246 110.185 37.3777 110.185 37.3297C110.186 37.2817 110.175 37.2344 110.152 37.1922C109.485 35.8355 106.258 36.3987 106.201 38.5805C106.195 38.7717 106.436 38.8002 106.535 38.6682C107.651 37.1678 108.449 37.3419 109.205 37.5067Z" fill="#4D4D4D"/>
</svg>
