<svg width="241" height="241" viewBox="0 0 241 241" fill="none" xmlns="http://www.w3.org/2000/svg">
<path fill-rule="evenodd" clip-rule="evenodd" d="M83.0386 135.784C89.916 135.727 96.1961 135.674 97.5983 135.605C101.947 144.14 120.769 163.433 123.854 166.041C120.9 172.519 111.518 204.178 110.884 207.575C108.605 210.363 107.596 214.203 108.163 216.757C105.282 216.797 101.398 216.852 96.9191 216.915C75.5738 217.216 40.7379 217.708 36.8051 217.708C28.7279 217.708 22.3175 214.562 21.9251 206.023C21.72 201.537 21.7511 197.284 21.7727 194.332C21.7835 192.846 21.792 191.689 21.7667 190.999C22.1259 191.008 22.6404 191.022 23.2762 191.039C28.5192 191.181 42.0072 191.546 44.6207 191.479C54.5003 191.27 57.1283 184.567 57.2123 177.764C57.2963 170.961 53.1803 165.268 44.5667 164.951C39.5482 164.771 31.4078 164.994 25.7249 165.151C23.79 165.204 22.1399 165.249 20.9951 165.268C20.9354 163.505 20.8553 161.574 20.7776 159.701C20.6426 156.45 20.5151 153.377 20.5151 151.671C20.5151 143.684 24.7715 136.568 33.8699 136.088C38.3687 135.854 43.8275 136.012 46.0391 136.088C45.8715 137.135 45.9663 138.207 46.3151 139.208C46.0459 139.234 45.7761 139.259 45.5059 139.284C44.8462 139.345 44.1847 139.406 43.5275 139.491C43.1015 139.55 42.7595 140.559 44.0447 140.559H46.9595C48.056 142.269 49.7638 143.496 51.7343 143.99C55.2239 144.859 59.6303 144.775 60.7823 143.489C61.5056 142.521 61.9235 141.358 61.9823 140.151L64.9115 140.242C66.3635 140.288 66.0107 138.74 65.1707 138.848C64.6972 138.923 64.2312 138.918 63.7551 138.913C63.2237 138.908 62.6797 138.902 62.0987 139.007C62.1523 138.022 62.3006 137.043 62.5415 136.085C63.9072 135.945 73.9898 135.86 83.0386 135.784ZM24.0784 159.875C24.0284 160.763 23.9328 162.461 24.6467 162.532C25.4396 162.611 25.4428 160.719 25.4443 159.833C25.4446 159.689 25.4448 159.572 25.4483 159.494C25.5227 157.741 24.0959 157.825 24.0959 159.494C24.0946 159.587 24.0872 159.718 24.0784 159.875ZM24.1767 151.603C24.0987 152.626 23.9385 154.727 24.7547 154.778V154.753C25.6213 154.838 25.6153 152.791 25.6119 151.623C25.6113 151.417 25.6108 151.239 25.6151 151.105C25.6439 150.203 24.2039 150.296 24.2039 151.197C24.2003 151.293 24.1896 151.433 24.1767 151.603ZM26.2356 146.673C26.2996 146.495 26.3585 146.331 26.4239 146.222H26.3987C26.4768 146.09 26.5888 145.93 26.7119 145.754C27.1939 145.065 27.8459 144.134 27.3011 143.668C26.0315 142.633 24.1127 147.416 25.3895 147.641C25.8566 147.726 26.0645 147.148 26.2356 146.673ZM30.0215 142.166C30.9274 141.719 31.8828 141.38 32.8679 141.155L32.8427 141.158C33.3683 140.957 33.6695 139.438 31.6163 140.006C28.0931 140.966 28.9115 142.717 30.0215 142.166ZM37.0415 140.554C38.1549 140.596 39.2699 140.569 40.3799 140.471H40.3715C40.9979 140.455 42.1247 138.794 38.6195 139.102C35.6975 139.354 36.3491 140.48 37.0415 140.554ZM26.6469 195.062C26.6244 194.16 26.6013 193.232 25.9799 193.232H25.9739C25.2242 193.247 25.2507 194.428 25.2659 195.107C25.2678 195.192 25.2695 195.269 25.2695 195.335C25.2695 195.442 25.2571 195.586 25.2429 195.751C25.1784 196.501 25.0774 197.675 25.9463 197.663C26.8171 197.652 26.7356 196.56 26.6789 195.801C26.6666 195.637 26.6555 195.488 26.6555 195.369C26.652 195.268 26.6495 195.165 26.6469 195.062ZM26.6051 200.995C26.5139 199.901 24.8615 200.402 25.3955 203.449C25.7123 205.376 27.0395 204.633 26.8727 203.723C26.7338 202.819 26.6444 201.908 26.6051 200.995ZM26.3623 209.6C26.5921 210.14 26.9404 210.621 27.3815 211.009L27.3803 211.011C28.2935 211.7 28.8947 210.919 28.2755 210.009C27.6971 209.29 27.2786 208.457 27.0479 207.563C26.8055 206.954 26.1887 207.104 26.0543 207.889C26.0273 208.475 26.1326 209.06 26.3623 209.6ZM30.2891 213.136C30.6395 213.537 33.3191 214.94 33.8615 213.921H33.8783C34.2679 213.187 33.1977 212.904 32.2628 212.656C32.0171 212.591 31.7807 212.528 31.5827 212.461C29.9219 211.876 30.1139 212.927 30.2891 213.136ZM37.8562 214.887C38.7723 215.01 40.9558 215.301 41.2487 215.023H41.2655C41.3725 214.905 41.4338 214.752 41.4382 214.593C41.4426 214.434 41.3899 214.279 41.2895 214.155C40.9475 213.537 38.1095 213.712 37.5503 213.754C37.417 213.771 37.2943 213.835 37.2054 213.936C37.1165 214.037 37.0674 214.167 37.0674 214.301C37.0674 214.435 37.1165 214.565 37.2054 214.666C37.2943 214.766 37.417 214.831 37.5503 214.847C37.6202 214.856 37.7253 214.87 37.8562 214.887ZM44.6459 215.048C45.8137 215.211 46.9894 215.311 48.1679 215.349L48.1847 215.35C48.9023 215.381 49.1951 214.13 48.3851 214.03C47.4812 213.932 46.5726 213.885 45.6635 213.887C43.5659 213.862 44.2535 214.989 44.6459 215.048ZM52.5107 214.639C53.7403 214.835 54.9871 214.902 56.2307 214.839L56.2499 214.852C56.8091 214.802 56.8259 213.734 56.2583 213.643C55.3367 213.527 54.4061 213.498 53.4791 213.559C51.6707 213.571 52.1099 214.581 52.5107 214.639ZM61.3686 215.058C62.027 215.04 62.6867 215.022 63.3419 214.965L63.3587 214.969C64.2443 214.893 64.0007 213.525 63.1835 213.599C62.5353 213.658 61.9105 213.761 61.2606 213.867C61.0911 213.894 60.92 213.922 60.7463 213.95C59.3027 214.175 59.9123 215.085 60.4799 215.085C60.7755 215.073 61.0719 215.066 61.3686 215.058ZM67.4663 214.981C68.6496 215.066 69.8369 215.08 71.0219 215.023H71.0363C71.8451 214.965 71.6123 213.687 70.8695 213.687C69.6909 213.703 68.5144 213.789 67.3463 213.946C66.7235 214.021 66.9227 214.981 67.4663 214.981ZM69.2099 140.221H72.3803H72.3899C72.481 140.222 72.5713 140.204 72.6554 140.169C72.7395 140.134 72.8156 140.083 72.8792 140.017C72.9428 139.952 72.9924 139.875 73.0252 139.79C73.0579 139.705 73.0731 139.614 73.0698 139.523C73.0665 139.432 73.0447 139.342 73.0058 139.26C72.9669 139.178 72.9117 139.104 72.8436 139.044C72.7754 138.983 72.6957 138.937 72.6093 138.909C72.5228 138.88 72.4315 138.869 72.3407 138.877C71.237 138.898 70.1369 139.01 69.0515 139.211C68.4335 139.345 68.6759 140.221 69.2099 140.221ZM75.3095 214.909C76.6203 215.165 77.9607 215.235 79.2911 215.117H79.3079C79.4694 215.085 79.6146 214.997 79.7185 214.869C79.8225 214.742 79.8788 214.582 79.8778 214.417C79.8769 214.252 79.8186 214.093 79.7131 213.966C79.6076 213.84 79.4614 213.754 79.2995 213.723C78.6651 213.689 78.0307 213.701 77.3963 213.712C77.0791 213.717 76.7619 213.723 76.4447 213.723C74.4695 213.799 74.9927 214.759 75.3095 214.909ZM76.9451 140.104C78.3201 140.367 79.7193 140.481 81.1187 140.446H81.1307C81.9155 140.429 81.8567 139.178 81.0395 139.094C79.7245 138.952 78.4019 138.894 77.0795 138.919C76.4447 138.927 76.3523 139.995 76.9451 140.104ZM84.7535 214.809C85.813 214.855 86.8728 214.9 87.9383 214.9L87.9551 214.905C88.7399 214.897 88.7231 213.511 87.9299 213.511C86.6456 213.502 85.3614 213.569 84.0759 213.637L84.0731 213.637C83.4143 213.662 83.4227 214.78 84.0731 214.78C84.2999 214.79 84.5267 214.799 84.7535 214.809ZM84.5831 140.117C85.7171 140.179 86.8619 140.237 87.9971 140.237L88.0103 140.242C88.7567 140.242 88.9319 138.898 88.1303 138.898H88.1301C86.9866 138.898 85.8094 138.898 84.6743 138.991C84.0575 139.024 83.9231 140.117 84.5831 140.117ZM94.1407 138.852C93.8894 138.865 93.6567 138.877 93.4643 138.877L93.4811 138.893C92.0531 138.893 91.6139 139.862 92.3543 140.045C93.0947 140.229 96.6947 140.368 96.6947 139.528C96.6674 138.721 95.2294 138.795 94.1407 138.852ZM92.5787 214.7C93.1715 214.767 96.5519 214.934 97.0787 214.567L97.0943 214.571C97.1254 214.547 97.1543 214.52 97.1807 214.491C97.2406 214.425 97.2869 214.347 97.3167 214.263C97.3465 214.179 97.3593 214.089 97.3544 214C97.3495 213.911 97.3269 213.823 97.2881 213.743C97.2492 213.662 97.1948 213.59 97.1279 213.531C96.4271 213.051 93.2471 213.413 92.6459 213.531C92.0447 213.649 91.9859 214.633 92.5787 214.7ZM104.195 214.701C104.367 214.693 104.504 214.687 104.591 214.687L104.648 214.693C106.017 214.634 105.842 213.449 104.774 213.266C104.173 213.146 100.835 213.146 100.835 213.986C100.842 214.852 103.155 214.748 104.195 214.701ZM196.366 150.629C175.173 150.629 161.668 167.273 162.92 185.737C164.222 204.875 180.398 216.569 196.366 217.129C214.554 217.763 228.919 203.774 229.753 185.578C230.58 166.147 217.684 150.629 196.366 150.629ZM221.686 196.312C213.34 214.525 187.556 215.032 175.279 201.987C162.85 188.787 168.55 165.261 185.637 158.584C209.337 149.327 231.949 173.876 221.682 196.312H221.686ZM188.219 177.423C187.292 178.597 186.605 179.943 186.198 181.382C185.791 182.822 185.671 184.328 185.845 185.814C186.02 187.3 186.486 188.737 187.216 190.043C187.946 191.349 188.926 192.498 190.1 193.425C190.63 193.845 191.196 194.216 191.793 194.534C192.632 192.025 193.458 189.503 194.285 186.98C195.825 182.282 197.366 177.578 198.993 172.941C196.963 172.696 194.905 172.98 193.017 173.765C191.129 174.551 189.476 175.811 188.219 177.423ZM176.334 200.978C165.634 189.801 169.373 169.343 182.519 161.647C202.927 149.695 227.7 168.759 221.857 191.479C216.399 212.563 189.205 214.418 176.334 200.978ZM200.554 173.216C204.78 174.309 206.983 176.955 208.954 180.628C209.254 181.196 210.047 180.761 209.921 180.207C208.936 176.089 204.979 172.887 200.998 171.807C201.348 170.647 201.69 169.486 202 168.317C202.035 168.171 202.014 168.017 201.94 167.886C201.867 167.754 201.748 167.655 201.605 167.608C201.462 167.561 201.307 167.569 201.17 167.631C201.033 167.693 200.924 167.804 200.865 167.942C200.388 169.119 199.947 170.305 199.512 171.497C197.429 171.19 195.302 171.38 193.306 172.052C191.31 172.724 189.501 173.858 188.027 175.363C186.592 176.808 185.519 178.572 184.894 180.51C184.269 182.448 184.111 184.507 184.431 186.518C184.752 188.529 185.542 190.436 186.739 192.084C187.935 193.732 189.503 195.075 191.316 196.003C190.795 197.306 190.387 198.653 190.097 200.026C190.092 200.168 190.134 200.308 190.215 200.425C190.296 200.542 190.413 200.629 190.548 200.674C190.682 200.719 190.828 200.719 190.963 200.675C191.098 200.63 191.215 200.543 191.297 200.427C191.88 199.184 192.358 197.894 192.724 196.57C194.887 197.292 197.203 197.424 199.434 196.955C201.665 196.486 203.731 195.431 205.42 193.899C206.134 193.249 205.036 192.221 204.334 192.873C202.847 194.206 201.03 195.117 199.073 195.512C197.115 195.906 195.088 195.771 193.2 195.118L200.554 173.216ZM55.6881 177.873C55.8185 175.034 54.8506 172.255 52.9853 170.111C51.1201 167.968 48.5009 166.625 45.6717 166.362C41.8245 166.204 18.7917 166.362 18.2361 166.755C17.6805 167.147 17.9769 189.041 18.7161 189.45C19.4553 189.86 40.5345 190.085 45.1257 190.085C49.7169 190.085 55.6881 186.921 55.6881 177.873ZM36.2397 179.092C36.1782 178.249 36.2889 177.402 36.5653 176.603C36.8416 175.804 37.2778 175.07 37.8471 174.445C38.4165 173.82 39.1072 173.318 39.877 172.969C40.6469 172.62 41.4798 172.431 42.3249 172.414C43.1192 172.37 43.914 172.488 44.6609 172.762C45.4077 173.036 46.0908 173.459 46.6683 174.006C47.2458 174.553 47.7055 175.212 48.0192 175.943C48.333 176.674 48.4942 177.461 48.4929 178.257C48.4929 181.596 46.1973 184.857 42.8001 184.857C41.1967 184.844 39.6515 184.254 38.447 183.196C37.2424 182.137 36.459 180.681 36.2397 179.092Z" fill="#F50050"/>
<path fill-rule="evenodd" clip-rule="evenodd" d="M129.123 25.8286C132.593 28.362 130.858 36.4515 129.937 40.7481L129.851 41.1478C128.96 45.3218 132.461 38.4947 132.252 32.6379C132.149 29.0175 131.766 27.0925 131.136 26.3222C130.506 25.5518 129.781 24.9083 129.015 24.4406C126.567 22.8165 124.011 22.0042 121.697 22.1144C119.817 22.0369 118.09 22.4517 116.626 23.3324C115.161 24.2132 113.992 25.5405 113.191 27.2298C111.457 30.1757 112.927 29.6691 113.009 29.5465C113.076 29.4481 113.143 29.3505 113.21 29.253L113.21 29.2526L113.21 29.2524C113.462 28.8852 113.713 28.5195 113.933 28.1213C115.155 25.7304 117.173 24.1812 119.696 23.6986C122.661 23.1703 125.728 23.3507 129.123 25.8286ZM173.775 58.9914L173.775 58.9911C174.654 57.1022 175.551 55.1744 176.433 53.4803C177.414 51.5828 177.603 51.664 179.828 52.6212C180.197 52.7797 180.621 52.9621 181.113 53.1635C183.105 53.9849 182.894 54.4523 182.179 56.0313L182.179 56.0318L182.177 56.0354C182.071 56.2684 181.955 56.5255 181.833 56.8115C180.376 60.3741 178.775 63.8746 177.174 67.3731L177.174 67.3733L177.174 67.3735L177.173 67.3737L177.173 67.3739L177.173 67.374L177.173 67.3742L177.173 67.3744L177.173 67.3746L177.173 67.3748L177.173 67.3749L177.173 67.3751L177.173 67.3753L177.173 67.3755L177.172 67.3757L177.172 67.3759L177.172 67.376L177.172 67.3762L177.172 67.3764L177.172 67.3767C176.819 68.1477 176.466 68.9185 176.115 69.6899C174.962 72.2335 174.084 71.8486 172.187 71.0168C171.489 70.7106 170.653 70.3438 169.614 70.0403C168.945 69.8495 168.774 70.8803 169.287 71.1347C170.406 71.7515 173.628 73.2047 174.897 72.8627C176.41 72.451 177.115 70.8491 177.703 69.5121C177.748 69.4112 177.792 69.3119 177.835 69.2147C178.987 66.6107 182.091 59.3987 183.076 57.0203C183.143 56.8598 183.209 56.7036 183.273 56.5515C184.157 54.4506 184.71 53.1387 182.242 52.1003C181.331 51.7129 180.388 51.3491 179.466 50.9936L179.371 50.9567C176.564 49.8511 175.898 51.2246 174.99 53.0975C174.883 53.3184 174.773 53.5463 174.655 53.7779C172.985 57.0778 171.503 60.4692 170.215 63.9359C170.107 64.4063 170.942 64.8071 171.192 64.3319C172.011 62.7812 172.884 60.9064 173.775 58.9915L173.775 58.9914ZM165.859 75.3403C165.957 74.8139 165.95 74.212 165.943 73.5798C165.929 72.2073 165.912 70.6921 166.952 69.4975C167.318 69.0809 168.127 68.6948 168.992 68.2822C170.239 67.687 171.603 67.0365 171.918 66.1591C171.959 66.0677 171.973 65.9664 171.958 65.8673C171.944 65.7681 171.901 65.6752 171.835 65.5996C171.77 65.5239 171.684 65.4686 171.588 65.4402C171.491 65.4117 171.389 65.4114 171.293 65.4391C171.007 65.4991 170.69 65.7044 170.288 65.9639C169.798 66.2813 169.181 66.6797 168.346 66.9919C166.142 67.8319 164.716 68.8027 164.386 71.5735C163.888 75.8503 165.674 76.3675 165.859 75.3403ZM175.983 77.2775C174.519 78.3801 172.954 79.3416 171.309 80.1491V80.1443C171.242 80.1937 171.165 80.2284 171.083 80.2462C171.001 80.2641 170.917 80.2646 170.835 80.2479C170.753 80.2311 170.675 80.1974 170.607 80.1489C170.539 80.1004 170.482 80.0382 170.439 79.9663C170.396 79.8943 170.369 79.8143 170.359 79.7312C170.349 79.6482 170.357 79.5639 170.381 79.484C170.406 79.404 170.447 79.3301 170.502 79.2669C170.557 79.2037 170.624 79.1527 170.7 79.1171C172.059 77.9801 173.523 76.9755 175.074 76.1171C175.356 75.9324 175.62 75.77 175.865 75.6189C177.061 74.8821 177.823 74.4128 178.245 72.9371C178.529 71.9668 178.805 70.9965 179.081 70.0262L179.082 70.0237C179.756 67.6564 180.429 65.2888 181.217 62.9207C181.406 62.3531 182.268 62.4047 182.126 63.0047C181.957 63.7173 181.789 64.4306 181.621 65.144L181.619 65.1517L181.617 65.1582C180.927 68.0915 180.235 71.0289 179.431 73.9391C179.032 75.4046 177.827 76.1423 176.612 76.8861C176.401 77.0151 176.19 77.1443 175.983 77.2775ZM48.6339 138.894C49.279 134.516 51.6518 131.727 53.275 129.818C54.0069 128.958 54.5865 128.277 54.7864 127.71C54.8207 127.599 54.8205 127.481 54.7858 127.371C54.7511 127.261 54.6836 127.164 54.5922 127.093C54.5009 127.022 54.3901 126.981 54.2747 126.974C54.1593 126.968 54.0447 126.997 53.9464 127.058C53.0536 127.558 49.9071 131.649 49.3863 132.45C47.9571 134.324 47.3029 136.676 47.5587 139.02C47.7075 139.62 48.5511 139.403 48.6339 138.894ZM56.1358 139.778C56.0728 140.481 56.0154 141.123 55.88 141.673C55.7552 142.157 54.92 142.232 54.8228 141.692C54.4472 139.421 55.2476 133.93 57.2348 132.895C57.3305 132.838 57.4406 132.812 57.5514 132.817C57.6622 132.823 57.7689 132.861 57.8583 132.927C57.9476 132.993 58.0158 133.083 58.0543 133.187C58.0928 133.291 58.0999 133.404 58.0748 133.513C57.921 134.015 57.6772 134.459 57.421 134.925C57.0936 135.521 56.746 136.154 56.54 136.993C56.297 137.976 56.2123 138.923 56.1358 139.778ZM62.2142 132.008C60.6776 132.974 59.5787 134.501 59.1518 136.265C58.8007 138.093 58.6798 139.958 58.7918 141.816C58.8069 141.958 58.8724 142.091 58.9765 142.189C59.0805 142.287 59.2164 142.345 59.3594 142.352C59.5024 142.359 59.6432 142.315 59.7563 142.227C59.8694 142.139 59.9474 142.014 59.9762 141.874C60.1865 141.065 60.2044 140.269 60.2227 139.458C60.2444 138.495 60.2666 137.508 60.611 136.448C61.1551 135.098 61.9101 133.842 62.8478 132.728C62.8943 132.636 62.912 132.532 62.8988 132.43C62.8856 132.327 62.8421 132.231 62.7738 132.154C62.7055 132.076 62.6156 132.021 62.5157 131.995C62.4158 131.969 62.3104 131.974 62.213 132.008H62.2142ZM64.4383 130.546C64.1011 130.004 64.7275 129.295 65.2783 129.712C65.89 130.155 66.4476 130.688 67.0076 131.223L67.0077 131.223C67.5023 131.695 67.9988 132.169 68.5363 132.585C69.3664 133.203 70.2731 133.301 71.0527 133.386C71.621 133.448 72.1217 133.503 72.4759 133.745C72.5428 133.795 72.5948 133.862 72.6259 133.939C72.6492 133.995 72.6612 134.054 72.6611 134.115C72.6611 134.175 72.6491 134.235 72.6258 134.291C72.6024 134.347 72.5683 134.397 72.5252 134.44C72.4822 134.483 72.4312 134.516 72.3751 134.539C70.7702 134.865 69.1016 134.609 67.6675 133.819C66.4405 132.888 65.353 131.786 64.4383 130.546ZM50.9969 140.797C51.0557 141.406 51.9989 141.689 52.1573 140.98C52.33 140.18 52.4292 139.44 52.5244 138.731L52.5244 138.731C52.6277 137.962 52.7262 137.228 52.9085 136.49C53.0724 135.826 53.5339 134.978 53.9592 134.197C54.4433 133.307 54.8803 132.504 54.7781 132.158C54.2021 130.187 50.4713 134.871 50.9969 140.797ZM64.3517 127.893C61.189 127.886 58.0525 127.32 55.0865 126.223C53.5397 125.54 53.4761 125.188 53.9357 123.526C58.2593 107.75 68.4101 86.5242 78.6677 74.0706C85.4033 65.8578 93.5669 57.4182 104.885 55.8414C106.065 55.7157 106.089 55.7499 106.518 56.3701C106.581 56.4608 106.653 56.5642 106.738 56.6814C109.293 60.1878 116.938 63.9438 119.075 58.5186C119.468 57.4278 119.697 57.345 121.137 57.6786C131.888 60.1746 133.456 65.2914 136.002 75.1314C137.391 81.0508 139.27 86.8444 141.62 92.4522C149.3 88.0782 156.38 82.143 162.651 76.4538C163.493 75.711 163.736 75.5778 164.436 76.4538C165.763 78.0651 167.412 79.3816 169.277 80.319C170.237 80.8086 170.555 81.093 169.988 82.479C167.55 88.3962 161.206 96.5514 156.357 100.607C155.88 101 155.28 100.457 155.705 99.999C162.092 93.069 166.023 87.7938 168.852 81.759C166.767 80.7259 164.946 79.2303 163.527 77.3862C157.35 82.9278 145.216 93.2526 137.176 96.2334C137.049 96.2954 136.902 96.3044 136.768 96.2583C136.634 96.2121 136.524 96.1147 136.462 95.9874C136.4 95.8601 136.391 95.7133 136.437 95.5794C136.483 95.4455 136.581 95.3354 136.708 95.2734C137.773 94.6321 138.855 94.0276 139.939 93.4216L139.95 93.4155C140.147 93.3057 140.343 93.1959 140.54 93.0858C138.022 87.5241 136.067 81.7249 134.703 75.7746C134.57 75.2619 134.443 74.762 134.318 74.2746L134.316 74.2633L134.315 74.2611C132.27 66.233 131.084 61.5779 120.38 58.8642C117.813 65.6598 108.849 61.9398 105.461 57.195C93.3917 59.5902 85.3037 68.037 77.9921 77.319C65.6861 92.961 58.2905 113.011 54.9521 124.629C56.5049 125.597 62.2469 126.691 65.0597 126.482C74.7485 104.879 79.9961 97.2522 97.7885 85.3902C97.873 85.3307 97.9773 85.3061 98.0795 85.3214C98.1818 85.3368 98.2742 85.391 98.3375 85.4727C98.4009 85.5544 98.4303 85.6574 98.4197 85.7603C98.409 85.8631 98.3592 85.9579 98.2805 86.025C96.522 87.4784 94.7217 88.8977 92.922 90.3164C92.0665 90.9909 91.2111 91.6652 90.3605 92.343C89.5505 104.438 90.5525 118.301 94.2173 124.471C107.231 121.875 113.84 117.941 121.058 113.645C124.354 111.683 127.777 109.646 131.994 107.626C128.146 98.7094 128.104 91.8762 128.061 84.816C128.035 80.7139 128.01 76.5351 127.236 71.8266C127.142 71.2506 128.102 71.1006 128.222 71.643C129.088 75.3378 129.153 79.1296 129.223 83.2585C129.337 89.8762 129.465 97.3602 132.929 106.7L132.935 106.717C133.329 107.881 133.45 108.238 132.488 108.761C129.714 110.279 127.169 111.814 124.671 113.321L124.671 113.321C116.41 118.305 108.655 122.984 94.7933 125.714C93.3905 125.988 93.296 125.77 92.9075 124.878C92.8347 124.711 92.7516 124.52 92.6477 124.304C88.6745 116.09 88.3997 102.376 88.9913 93.4194C79.5425 101.083 74.0429 110.239 66.5309 126.223C66.4076 126.478 66.3157 126.695 66.2376 126.88L66.2375 126.881L66.2374 126.881C65.8812 127.724 65.81 127.893 64.3517 127.893ZM233.593 218.756C198.819 218.756 162.899 218.823 127.206 218.889C86.186 218.966 45.4649 219.042 7.12609 219.015C6.28609 219.015 6.28609 220.455 7.12609 220.455C57.0536 220.639 108.048 220.578 158.687 220.516H158.687H158.687H158.688H158.688H158.688H158.688H158.688H158.689H158.689H158.689H158.689C183.875 220.486 208.972 220.455 233.806 220.455C234.86 220.409 234.653 218.756 233.593 218.756ZM113.214 208.34C113.672 207.839 114.349 208.574 114.048 209.091C112.842 210.887 111.876 212.831 111.172 214.875C110.977 215.827 111.172 215.935 112.012 215.935C112.953 215.931 113.895 215.929 114.836 215.926C119.873 215.912 124.912 215.898 129.932 215.702C130.075 215.696 130.245 215.69 130.435 215.683C132.545 215.609 137.116 215.447 134.665 213.915C133.36 213.12 130.544 212.039 128.051 211.081C126.019 210.3 124.2 209.602 123.589 209.208C123.51 209.146 123.452 209.06 123.425 208.963C123.399 208.866 123.404 208.763 123.44 208.669C123.477 208.576 123.543 208.496 123.628 208.443C123.714 208.39 123.814 208.365 123.914 208.374C125.718 208.515 133.956 212.063 135.458 212.822C137.678 213.941 137.336 216.219 134.782 216.62C132.52 216.979 112.822 217.772 110.91 217.038C108.03 215.927 112.07 209.583 113.214 208.34ZM172.719 149.503C173.547 149.257 174.339 149.011 175.11 148.771C178.596 147.688 181.652 146.738 185.69 146.503C187.886 146.37 187.802 147.179 185.915 148.088C179.819 151.131 174.143 154.953 169.03 159.457C166.475 161.727 165.833 162.245 164.764 157.671C164.518 156.622 164.412 155.544 164.447 154.466C164.447 153.739 162.603 153.139 163.607 158.231C164.612 163.322 166.204 163.464 170.207 160.008C175.223 155.71 180.725 152.015 186.601 148.999C189.873 147.329 188.922 145.243 185.633 145.279C181.827 145.279 175.858 147.182 172.469 148.676C171.951 148.91 172.143 149.67 172.719 149.503ZM132.112 133.898C130.717 131.846 129.13 129.931 127.371 128.18C126.98 127.784 126.536 128.326 126.842 128.731C131.85 134.949 144.795 154.347 144.795 162.494C144.795 168.349 130.48 198.907 125.03 207.254C121.043 207.312 117.056 207.152 113.086 206.774C113.562 203.928 123.211 171.35 125.422 165.657C125.13 165.332 124.411 164.603 123.379 163.555L123.379 163.555C116.866 156.947 97.8567 137.66 94.3051 126.853C112.853 122.949 121.661 117.074 127.663 113.071C129.964 111.536 131.852 110.276 133.719 109.508C134.095 109.354 134.525 109.175 135.001 108.976L135.011 108.972L135.015 108.971L135.015 108.97C141.922 106.093 158.682 99.11 166.197 103.081C169.667 104.887 170.103 112.048 170.788 123.316C171.185 129.854 171.667 137.775 172.874 146.835C169.746 149.282 166.412 151.452 162.908 153.321C161.335 150.157 153.271 132.244 153.188 125.008C146.404 128.513 139.357 131.485 132.112 133.898ZM117.818 57.894C117.736 57.0601 117.725 56.9512 117.91 55.3448C117.984 55.3543 118.092 55.3779 118.227 55.4073C118.98 55.5719 120.573 55.9201 121.854 55.0123C121.928 54.4466 123.158 51.9585 123.5 51.5002C123.565 51.4139 123.622 51.3329 123.676 51.2568L123.676 51.2567C123.907 50.9285 124.076 50.69 124.5 50.5002C124.813 50.3481 125.343 49.8089 125.5 49.5002C125.639 49.2254 125.58 48.9166 125.521 48.6125C125.514 48.575 125.506 48.5375 125.5 48.5002C125.48 48.1116 125.014 44.3113 122.164 43.8259C121.866 43.7486 121.589 43.6063 121.353 43.4094C120.126 42.4077 118.791 41.8941 117.235 42.5989C116.513 42.9261 115.814 43.3009 115.142 43.7209C114.179 44.3237 113.637 44.2782 113.051 43.2967C111.661 40.9705 112.046 39.0354 112.394 37.2905C112.504 36.7375 112.611 36.2036 112.656 35.6825C112.724 34.8919 111.891 34.8304 111.62 35.4058C111.289 36.2745 111.023 37.1665 110.826 38.0745C110.701 38.0712 110.576 38.0702 110.449 38.0692C110.237 38.0675 110.023 38.0658 109.809 38.0533C109.352 38.063 108.903 37.9333 108.522 37.6817C108.142 37.4302 107.848 37.0687 107.681 36.6458C107.522 36.25 107.487 35.8157 107.579 35.399C107.671 34.9822 107.887 34.6023 108.199 34.3082C108.491 33.9329 108.906 33.6697 109.371 33.5637C109.836 33.4577 110.323 33.5153 110.749 33.7268C111.237 34.0015 111.977 33.4262 111.328 32.7071C111.168 32.5288 110.958 32.4025 110.725 32.3448C110.217 32.2201 109.688 32.2066 109.173 32.3052C108.659 32.4038 108.172 32.6122 107.746 32.916C107.32 33.2198 106.965 33.6117 106.706 34.0647C106.447 34.5177 106.289 35.021 106.244 35.5399C106.185 36.4066 106.431 37.2659 106.94 37.9701C107.449 38.6742 108.189 39.179 109.034 39.3978C108.774 40.8913 109.028 41.7198 109.266 42.4935C109.445 43.0767 109.615 43.6287 109.547 44.4109C109.526 44.6944 109.472 44.9747 109.387 45.2461C108.431 48.149 106.929 54.9723 106.915 55.3117C106.814 56.2125 107.272 55.969 107.5 55.5002C108.183 54.102 108.515 52.5222 108.851 50.9282L108.851 50.9281C109.19 49.3175 109.533 47.6925 110.241 46.2257C110.567 46.8038 110.898 47.4494 111.242 48.1225C112.652 50.8757 114.297 54.0885 116.827 55.014C116.813 57.0055 117.275 58.5603 117.37 58.8703C117.451 59.4808 118.059 60.8826 117.91 58.9341C117.875 58.4764 117.843 58.1515 117.818 57.8952L117.818 57.8944L117.818 57.894ZM117.761 48.0467C117.411 47.6138 117.164 47.1074 117.039 46.5655C116.764 45.2711 117.077 44.2927 118.113 43.9654C118.555 43.8195 119.025 43.782 119.484 43.8561C119.943 43.9301 120.377 44.1136 120.748 44.3908C121.074 44.6316 121.432 44.8254 121.813 44.9664C122.024 45.0168 122.22 45.1152 122.386 45.2539C122.552 45.3926 122.684 45.5678 122.77 45.7657C122.857 45.9637 122.896 46.179 122.884 46.3948C122.873 46.6107 122.812 46.8211 122.705 47.0096C122.277 47.6993 121.753 48.3252 121.148 48.8683C120.868 49.1216 120.513 49.2779 120.136 49.3135C119.76 49.3491 119.382 49.2621 119.061 49.0656C118.556 48.828 118.111 48.4797 117.761 48.0467ZM123.24 43.1937C122.034 43.5091 122.017 42.7884 122.311 42.377C122.311 42.3759 122.316 42.3743 122.325 42.3714C122.498 42.3162 124.21 41.771 124.424 34.8311C124.437 34.3793 124.754 33.6509 124.971 34.7972C124.933 40.9116 124.203 42.457 123.24 43.1937ZM120.838 32.4018C121.3 32.534 121.717 32.7905 122.043 33.1431C122.556 33.6861 123.461 32.9918 122.914 32.1878C122.574 31.8141 122.156 31.5201 121.688 31.3267C121.221 31.1334 120.715 31.0455 120.209 31.0695C119.702 31.0934 119.207 31.2285 118.759 31.4652C118.31 31.7018 117.92 32.0341 117.615 32.4382C117.375 32.73 117.354 33.2827 118.019 32.9304C118.476 32.727 118.943 32.5479 119.419 32.3936C119.884 32.2668 120.375 32.2697 120.838 32.4018ZM128.407 37.7215C128.394 37.6607 128.38 37.5997 128.367 37.5386C128.314 37.3 128.261 37.0593 128.226 36.8184C128.069 35.7493 127.724 34.8302 126.544 34.4898C126.381 34.4418 126.01 33.6337 126.793 33.6518C127.402 33.7674 127.952 34.0866 128.353 34.5565C128.753 35.0264 128.98 35.6188 128.995 36.2356C129.032 36.6801 129.022 37.1273 128.966 37.5701C128.887 38.2448 128.571 38.1226 128.407 37.7215ZM126.153 36.7864C126.021 36.815 125.897 36.8729 125.791 36.9559C125.493 37.6045 125.32 38.3026 125.281 39.0139C125.32 39.1206 125.387 39.2145 125.476 39.2854C125.565 39.3564 125.672 39.4015 125.785 39.416C125.898 39.4305 126.013 39.4138 126.118 39.3676C126.222 39.3215 126.312 39.2477 126.377 39.1544C126.77 38.6587 126.957 38.0324 126.899 37.4049C126.897 37.2819 126.864 37.1615 126.804 37.0543C126.743 36.9472 126.657 36.8567 126.553 36.7909C126.422 36.7594 126.285 36.7578 126.153 36.7864ZM120.676 34.5193C120.955 35.5334 120.421 36.7839 119.752 36.853C119.572 36.8469 119.396 36.7981 119.239 36.7108C119.081 36.6235 118.947 36.5001 118.848 36.3508C118.573 35.825 119.363 34.4579 119.867 34.2527C120.348 34.0569 120.584 34.1881 120.676 34.5193ZM119.565 47.5981C119.889 47.6841 120.228 47.6988 120.559 47.6409C121.259 47.4031 121.664 46.9482 121.016 46.8913C119.485 46.7604 119.233 46.5325 118.741 45.2658C118.515 44.3473 117.939 44.8308 117.86 45.3938C117.861 45.7277 117.935 46.0571 118.077 46.3592C118.219 46.6612 118.426 46.9285 118.683 47.1425C118.94 47.3565 119.241 47.512 119.565 47.5981Z" fill="#4D4D4D"/>
</svg>
