<?xml version="1.0" encoding="UTF-8" standalone="no"?>
<svg
   width="295.71539"
   height="332.4324"
   viewBox="0 0 295.71539 332.4324"
   role="img"
   artist="Katerina Limpitsouni"
   source="https://undraw.co/"
   version="1.1"
   id="svg24"
   sodipodi:docname="invalid-token.svg"
   xmlns:inkscape="http://www.inkscape.org/namespaces/inkscape"
   xmlns:sodipodi="http://sodipodi.sourceforge.net/DTD/sodipodi-0.dtd"
   xmlns="http://www.w3.org/2000/svg"
   xmlns:svg="http://www.w3.org/2000/svg">
  <defs
     id="defs24" />
  <sodipodi:namedview
     id="namedview24"
     pagecolor="#ffffff"
     bordercolor="#000000"
     borderopacity="0.25"
     inkscape:showpageshadow="2"
     inkscape:pageopacity="0.0"
     inkscape:pagecheckerboard="0"
     inkscape:deskcolor="#d1d1d1">
    <inkscape:page
       x="0"
       y="0"
       width="295.71539"
       height="332.4324"
       id="page2"
       margin="0"
       bleed="0" />
  </sodipodi:namedview>
  <circle
     cx="167.64299"
     cy="128.07239"
     r="128.07239"
     fill="#f2f2f2"
     id="circle1"
     style="stroke-width:0.504222"
     inkscape:export-filename="circle1.svg"
     inkscape:export-xdpi="96"
     inkscape:export-ydpi="96" />
  <path
     d="M 251.33631,57.273747 H 16.725358 c -0.503083,-0.01076 -0.90221,-0.427308 -0.89145,-0.930396 0.01043,-0.48794 0.403509,-0.881011 0.89145,-0.891444 H 251.33631 c 0.50308,0.01075 0.9022,0.427308 0.89143,0.930396 -0.0104,0.48794 -0.40349,0.881011 -0.89143,0.891444 z"
     fill="#cacaca"
     id="path1"
     style="stroke-width:0.504222" />
  <rect
     x="97.705315"
     y="87.972908"
     width="82.49649"
     height="17.640905"
     rx="8.8204451"
     ry="8.8204451"
     fill="#ffffff"
     id="rect1"
     style="stroke-width:0.504222" />
  <path
     d="M 64.628611,123.25472 H 213.27854 c 4.87139,0 8.82043,3.94905 8.82043,8.82045 v 0 c 0,4.8714 -3.94904,8.82045 -8.82043,8.82045 H 64.628611 c -4.871399,0 -8.820445,-3.94905 -8.820445,-8.82045 v 0 c 0,-4.8714 3.949046,-8.82045 8.820445,-8.82045 z"
     fill="#ffffff"
     id="path2"
     style="stroke-width:0.504222" />
  <path
     d="M 64.628611,158.53653 H 213.27854 c 4.87139,0 8.82043,3.94905 8.82043,8.82045 v 0 c 0,4.8714 -3.94904,8.82045 -8.82043,8.82045 H 64.628611 c -4.871399,0 -8.820445,-3.94905 -8.820445,-8.82045 v 0 c 0,-4.8714 3.949046,-8.82045 8.820445,-8.82045 z"
     fill="#ffffff"
     id="path3"
     style="stroke-width:0.504222" />
  <path
     d="m 46.207326,331.6567 -0.349855,-0.0342 c -11.869727,-1.22461 -22.599908,-7.60835 -29.339893,-17.45533 -1.846148,-2.74377 -3.339457,-5.70906 -4.444717,-8.82595 l -0.106234,-0.29732 0.314508,-0.0255 c 3.754936,-0.30215 7.6124,-0.93933 9.326014,-1.24249 l -11.049888,-3.74391 -0.06832,-0.32791 c -0.6551152,-3.0778 0.628321,-6.24457 3.241391,-7.99784 2.620144,-1.83763 6.094687,-1.89644 8.775504,-0.14849 1.203068,0.76843 2.46142,1.5295 3.678243,2.26576 4.181619,2.52936 8.50562,5.14477 11.747504,8.72365 4.915917,5.53524 7.070695,12.99372 5.864102,20.29777 z"
     fill="#f2f2f2"
     id="path4"
     style="stroke-width:0.504222" />
  <polygon
     points="182.10017,646.85999 187.23916,605.198 171.29716,605.19897 171.30016,646.86102 "
     fill="#a0616a"
     id="polygon4"
     transform="matrix(0.50422195,0,0,0.50422195,-1.8246238e-6,7.6938165e-6)" />
  <path
     d="m 86.18121,331.84268 16.74741,-6.2e-4 v -0.21176 c -2.4e-4,-3.59997 -2.9186,-6.51827 -6.518572,-6.51845 h -3.98e-4 l -3.059125,-2.32082 -5.707641,2.32116 -1.461946,6e-5 2.77e-4,6.73043 z"
     fill="#4d4d4d"
     id="path5"
     style="stroke-width:0.504222" />
  <polygon
     points="93.38016,623.42603 122.49316,593.185 109.74116,583.61902 84.74116,616.94501 "
     fill="#a0616a"
     id="polygon5"
     transform="matrix(0.50422195,0,0,0.50422195,-1.8246238e-6,7.6938165e-6)" />
  <path
     d="m 39.165176,315.50664 13.396673,10.05009 0.127104,-0.16942 c 2.160238,-2.87979 1.577201,-6.96548 -1.3023,-9.12609 l -3.22e-4,-2.5e-4 -1.054222,-3.69229 -5.958568,-1.56865 -1.169447,-0.87731 -4.038913,5.38392 z"
     fill="#4d4d4d"
     id="path6"
     style="stroke-width:0.504222" />
  <path
     d="m 60.831668,227.58196 c 0,0 0.300643,8.20077 0.679843,14.77742 0.0622,1.07861 -2.464743,2.25034 -2.3993,3.42371 0.04341,0.7785 0.518381,1.53529 0.56251,2.34701 0.04657,0.85666 -0.609211,1.61494 -0.56251,2.50087 0.04564,0.86558 0.793756,1.8582 0.838889,2.74419 0.485652,9.53449 2.246102,20.94857 0.483247,24.13932 -0.86877,1.57252 -11.942664,23.35781 -11.942664,23.35781 0,0 6.169993,9.25498 7.932849,6.16998 2.32835,-4.07461 20.272823,-23.13746 20.272823,-26.77778 0,-3.63588 4.151491,-30.88522 4.151491,-30.88522 l 2.894754,16.12587 1.327308,3.19503 -0.417067,1.87569 0.857767,2.53142 0.04635,2.50516 0.835087,4.65203 c 0,0 -2.512029,36.24427 -1.097353,37.25349 1.419077,1.01368 8.289842,2.83382 9.100707,1.01368 0.806528,-1.82014 6.056111,-37.82647 6.056111,-37.82647 0,0 0.84614,-16.50028 1.76287,-31.83713 0.0528,-0.89024 0.67872,-1.96558 0.72719,-2.84262 0.0573,-1.01801 -0.33933,-2.34015 -0.28649,-3.32736 0.0573,-1.13262 0.55971,-1.93032 0.60818,-3.0145 0.3746,-8.37795 -1.72827,-18.58013 -2.39813,-19.58495 -2.022948,-3.0321 -3.843063,-5.45605 -3.843063,-5.45605 0,0 -27.245925,-8.95197 -34.526522,0.14433 l -1.664866,12.79506 z"
     fill="#4d4d4d"
     id="path7"
     style="stroke-width:0.504222" />
  <path
     d="m 88.005783,143.25137 -10.800888,-2.16017 -5.040405,6.84055 v 0 c -9.40506,9.24773 -9.546731,17.40954 -7.867773,30.49223 v 18.36151 l -1.215175,12.309 c 0,0 -4.3018,8.99795 0.135071,11.09292 4.436871,2.09496 33.580461,1.91637 36.362974,1.08008 2.782513,-0.83628 0.370689,-1.86301 -0.360009,-5.76048 -1.372548,-7.32094 -0.45446,-3.78954 -0.360009,-6.12049 1.354271,-33.43679 -1.800138,-47.16387 -2.120476,-50.77201 L 91.24611,148.6518 Z"
     fill="#3f3d56"
     id="path8"
     style="stroke-width:0.504222" />
  <path
     d="m 144.9331,170.21071 c -1.12567,2.13289 -3.76726,2.94941 -5.90014,1.82374 -0.2274,-0.12003 -0.44378,-0.25989 -0.64656,-0.41798 l -23.32553,14.81055 0.0672,-8.06372 22.65894,-13.14933 c 1.61398,-1.80959 4.38932,-1.96814 6.19891,-0.35416 1.5142,1.35053 1.90576,3.56268 0.94714,5.3509 z"
     fill="#a0616a"
     id="path9"
     style="stroke-width:0.504222" />
  <path
     d="m 79.477922,152.5898 -2.655565,-0.28139 c -2.453711,-0.2545 -4.861169,0.79637 -6.342845,2.76868 -0.567497,0.748 -0.975115,1.60471 -1.197482,2.5169 l -0.0016,0.007 c -0.666118,2.74566 0.378645,5.62309 2.651214,7.30173 l 9.171953,6.76212 c 6.436615,8.69732 18.53345,14.4675 32.723163,19.15528 l 22.05605,-13.69802 -7.80125,-9.44833 -15.12835,8.10779 -22.487467,-17.40763 -0.01296,-0.0105 -8.558784,-5.51417 -2.416076,-0.25978 z"
     fill="#3f3d56"
     id="path10"
     style="stroke-width:0.504222" />
  <circle
     cx="84.3563"
     cy="125.35223"
     r="12.595363"
     fill="#a0616a"
     id="circle10"
     style="stroke-width:0.504222" />
  <path
     d="m 84.647216,137.95033 c -0.101525,0.003 -0.203303,0.006 -0.304954,0.008 -0.04351,0.11288 -0.09045,0.2248 -0.144611,0.33458 l 0.449565,-0.34294 z"
     fill="#4d4d4d"
     id="path11"
     style="stroke-width:0.504222" />
  <path
     d="m 88.103924,125.70165 c 0.01976,0.1241 0.04998,0.24629 0.09033,0.36531 -0.01665,-0.1247 -0.04693,-0.2472 -0.09033,-0.36531 z"
     fill="#4d4d4d"
     id="path12"
     style="stroke-width:0.504222" />
  <path
     d="m 97.112399,113.29576 c -0.518441,1.60984 -0.981145,-0.43219 -2.68662,-0.0649 -2.051604,0.44183 -4.439055,0.29009 -6.119167,-0.96749 -2.503352,-1.83675 -5.747495,-2.3312 -8.684381,-1.32363 -2.874842,1.01704 -7.69114,1.73418 -8.440207,4.69016 -0.26039,1.02751 -0.363796,2.14261 -0.994936,2.99418 -0.5518,0.74454 -1.422743,1.16905 -2.151051,1.74208 -2.459222,1.93491 -0.579623,7.43213 0.584297,10.33678 1.163936,2.90465 3.833877,5.02064 6.769311,6.1045 2.840187,1.04867 5.922793,1.23364 8.952617,1.15123 0.526998,-1.36675 0.299322,-2.94535 -0.135504,-4.3622 -0.470737,-1.53384 -1.167738,-3.01419 -1.36439,-4.60656 -0.196651,-1.59238 0.235185,-3.40112 1.570369,-4.29086 1.227226,-0.81781 3.224323,-0.31962 3.691218,1.00261 -0.272421,-1.65305 1.40209,-3.25269 3.128737,-3.534 1.853777,-0.30203 3.707499,0.36724 5.555951,0.70037 1.848453,0.33313 1.192359,-7.44888 0.323756,-9.57228 z"
     fill="#4d4d4d"
     id="path13"
     style="stroke-width:0.504222" />
  <circle
     cx="-131.86938"
     cy="153.26602"
     r="25.775856"
     transform="rotate(-85.26884)"
     fill="#f50050"
     id="circle13"
     style="stroke-width:0.504222" />
  <path
     d="m 148.63795,133.3216 -6.77083,6.77083 -6.77084,-6.77083 c -1.09603,-1.09605 -2.87308,-1.09605 -3.96911,0 -1.09604,1.09604 -1.09604,2.87307 0,3.96911 l 6.77083,6.77084 -6.77083,6.77083 c -1.09502,1.09706 -1.09336,2.8741 0.004,3.96912 1.0956,1.09355 2.8698,1.09355 3.96539,-1e-5 l 6.77084,-6.77084 6.77083,6.77084 c 1.09708,1.09501 2.8741,1.09335 3.96912,-0.004 1.09357,-1.09561 1.09357,-2.86978 0,-3.96539 l -6.77083,-6.77084 6.77083,-6.77083 c 1.09603,-1.09605 1.09603,-2.87307 0,-3.96912 -1.09603,-1.09605 -2.87309,-1.09605 -3.96912,0 v 0 z"
     fill="#ffffff"
     id="path14"
     style="stroke-width:0.504222" />
  <path
     d="m 131.70977,122.39679 c 0.75981,2.2889 -0.47979,4.76036 -2.76867,5.52018 -0.24405,0.081 -0.49474,0.14029 -0.74922,0.17719 l -5.46098,27.08525 -5.77228,-5.63108 6.19823,-25.45418 c -0.1884,-2.41744 1.6186,-4.5299 4.03606,-4.71831 2.02277,-0.15764 3.89012,1.09127 4.51685,3.02095 z"
     fill="#a0616a"
     id="path15"
     style="stroke-width:0.504222" />
  <path
     d="m 73.679526,157.4306 -2.041509,1.72147 c -1.882371,1.59442 -2.790747,4.05917 -2.393284,6.49382 0.146874,0.92735 0.482908,1.81459 0.987196,2.60657 l 0.0042,0.006 c 1.520114,2.3815 4.319771,3.61963 7.104377,3.14189 l 11.229401,-1.93707 c 10.732167,1.3765 23.270633,-3.35795 36.476943,-10.35196 l 5.38494,-25.39904 -12.2188,-0.91169 -4.62281,16.52977 -28.129618,4.17571 -0.01653,0.002 -9.904401,2.35858 -1.860055,1.56364 z"
     fill="#3f3d56"
     id="path16"
     style="stroke-width:0.504222" />
  <path
     d="M 137.62075,332.27747 0.59842895,332.43242 C 0.26685764,332.43134 -0.00107078,332.16169 3.2175957e-6,331.83012 0.00106712,331.50005 0.26836526,331.23277 0.59842895,331.23169 L 137.62075,331.07674 c 0.33157,0.001 0.5995,0.27073 0.59842,0.6023 -0.001,0.33007 -0.26836,0.59735 -0.59842,0.59843 z"
     fill="#cacaca"
     id="path17"
     style="stroke-width:0.504222" />
  <g
     id="g24"
     transform="matrix(0.50422195,0,0,0.50422195,-1.8246238e-6,7.6938165e-6)">
    <ellipse
       cx="56.776852"
       cy="82.058342"
       rx="8.4566097"
       ry="8.6450701"
       fill="#3f3d56"
       id="ellipse17" />
    <ellipse
       cx="85.990601"
       cy="82.058342"
       rx="8.4566097"
       ry="8.6450701"
       fill="#3f3d56"
       id="ellipse18" />
    <ellipse
       cx="115.20435"
       cy="82.058342"
       rx="8.4566097"
       ry="8.6450701"
       fill="#3f3d56"
       id="ellipse19" />
    <path
       d="m 148.51577,88.89113 c -0.25977,0 -0.51904,-0.10059 -0.71484,-0.30078 l -5.70605,-5.83301 c -0.38037,-0.38867 -0.38037,-1.00977 0,-1.39844 l 5.70605,-5.83252 c 0.38721,-0.39453 1.021,-0.40088 1.41406,-0.01562 0.39502,0.38623 0.40186,1.01953 0.0156,1.41406 l -5.02197,5.1333 5.02197,5.13379 c 0.38623,0.39453 0.37939,1.02783 -0.0156,1.41406 -0.19434,0.19043 -0.44678,0.28516 -0.69922,0.28516 z"
       fill="#3f3d56"
       id="path19" />
    <path
       d="m 158.10415,88.89113 c -0.25244,0 -0.50488,-0.09473 -0.69922,-0.28516 -0.39502,-0.38623 -0.40186,-1.01904 -0.0156,-1.41406 l 5.02148,-5.13379 -5.02148,-5.1333 c -0.38623,-0.39453 -0.37939,-1.02783 0.0156,-1.41406 0.39404,-0.38672 1.02783,-0.37939 1.41406,0.01562 l 5.70557,5.83252 c 0.38037,0.38867 0.38037,1.00977 0,1.39844 l -5.70557,5.83301 c -0.1958,0.2002 -0.45508,0.30078 -0.71484,0.30078 z"
       fill="#3f3d56"
       id="path20" />
    <path
       d="m 456.61398,74.41416 h -10.60999 c -1.21002,0 -2.19,0.97998 -2.19,2.19 v 10.62 c 0,1.21002 0.97998,2.19 2.19,2.19 h 10.60999 c 1.21002,0 2.20001,-0.97998 2.20001,-2.19 v -10.62 c 0,-1.21002 -0.98999,-2.19 -2.20001,-2.19 z"
       fill="#3f3d56"
       id="path21" />
    <path
       d="m 430.61398,74.41416 h -10.60999 c -1.21002,0 -2.19,0.97998 -2.19,2.19 v 10.62 c 0,1.21002 0.97998,2.19 2.19,2.19 h 10.60999 c 1.21002,0 2.20001,-0.97998 2.20001,-2.19 v -10.62 c 0,-1.21002 -0.98999,-2.19 -2.20001,-2.19 z"
       fill="#3f3d56"
       id="path22" />
    <path
       d="m 481.11398,74.91416 h -10.60999 c -1.21002,0 -2.19,0.97998 -2.19,2.19 v 10.62 c 0,1.21002 0.97998,2.19 2.19,2.19 h 10.60999 c 1.21002,0 2.20001,-0.97998 2.20001,-2.19 v -10.62 c 0,-1.21002 -0.98999,-2.19 -2.20001,-2.19 z"
       fill="#3f3d56"
       id="path23" />
    <path
       d="m 321.19229,78.95414 h -84.81 c -1.48004,0 -2.67004,1.20001 -2.67004,2.67004 0,1.47003 1.19,2.66998 2.67004,2.66998 h 84.81 c 1.46997,0 2.66998,-1.20001 2.66998,-2.66998 0,-1.46997 -1.20001,-2.67004 -2.66998,-2.67004 z"
       fill="#3f3d56"
       id="path24" />
  </g>
</svg>
