<svg width="138" height="213" viewBox="0 0 138 213" fill="none" xmlns="http://www.w3.org/2000/svg">
<mask id="mask0_4108_93745" style="mask-type:luminance" maskUnits="userSpaceOnUse" x="0" y="0" width="138" height="213">
<path d="M138 0H0V213H138V0Z" fill="white"/>
</mask>
<g mask="url(#mask0_4108_93745)">
<path d="M74.2797 220.675C60.7971 223.142 51.6715 224.544 48.7985 216.27C47.6944 213.092 43.9943 164.793 43.9943 164.793C42.5222 155.45 50.1519 146.476 61.0425 144.744C71.9291 143.012 81.953 149.185 83.4251 158.524C83.4251 158.524 97.07 208.941 98.1701 217.474C99.5117 227.861 85.1228 218.685 74.2797 220.671V220.675Z" fill="#FFAB8A"/>
<path d="M48.6877 219.237L43.9943 164.796C42.5222 155.454 50.1519 146.48 61.0425 144.748C71.9291 143.016 81.953 149.189 83.4251 158.528L99.9232 222.582" stroke="#160F23" stroke-width="1.98" stroke-linecap="round" stroke-linejoin="round"/>
<path d="M82.6145 155.937C94.2689 135.197 66.7219 122.287 66.0254 114.497C65.2735 106.056 63.928 105.516 66.2747 97.6469C67.4698 93.6348 65.1627 88.1292 62.7092 85.7736C60.2596 83.418 41.486 90.0995 35.0593 105.544C32.6414 111.355 29.6892 119.959 30.3105 128.146C30.9358 136.333 32.028 144.346 32.8709 148.294C34.256 154.797 36.0922 158.674 38.0313 162.161C41.5335 168.446 45.9736 170.317 45.9736 170.317" fill="#FFAB8A"/>
<path d="M82.6145 155.937C94.2689 135.197 66.7219 122.287 66.0254 114.497C65.2735 106.056 63.928 105.516 66.2747 97.6469C67.4698 93.6348 65.1627 88.1292 62.7092 85.7736C60.2596 83.418 41.486 90.0995 35.0593 105.544C32.6414 111.355 29.6892 119.959 30.3105 128.146C30.9358 136.333 32.028 144.346 32.8709 148.294C34.256 154.797 36.0922 158.674 38.0313 162.161C41.5335 168.446 45.9736 170.317 45.9736 170.317" stroke="#160F23" stroke-width="2.03" stroke-linecap="round" stroke-linejoin="round"/>
<path d="M39.5469 97.9739C39.5469 97.9739 44.0503 82.1681 45.9182 75.288C45.9182 75.288 46.2229 70.5411 47.2518 69.262C48.2807 67.9829 51.1498 67.6413 54.2484 69.6473C58.2888 72.2611 58.5539 78.2911 58.5539 78.2911C58.5539 78.2911 63.4412 82.1641 62.7527 87.7174C62.0641 93.2707 58.9576 99.6185 58.6687 102.109C58.2848 105.414 59.0328 112.469 59.0328 115.309" fill="#FFAB8A"/>
<path d="M39.5469 97.9739C39.5469 97.9739 44.0503 82.1681 45.9182 75.288C45.9182 75.288 46.2229 70.5411 47.2518 69.262C48.2807 67.9829 51.1498 67.6413 54.2484 69.6473C58.2888 72.2611 58.5539 78.2911 58.5539 78.2911C58.5539 78.2911 63.4412 82.1641 62.7527 87.7174C62.0641 93.2707 58.9576 99.6185 58.6687 102.109C58.2848 105.414 59.0328 112.469 59.0328 115.309" stroke="#160F23" stroke-width="2.01" stroke-linecap="round" stroke-linejoin="round"/>
<path d="M30.202 124.31C29.7232 114.605 28.7299 105.477 28.3381 100.039C27.9463 94.6005 28.1284 91.0096 31.2388 87.8714C36.3636 82.6915 49.035 71.4538 49.035 71.4538C51.7655 69.4398 56.3837 74.1907 53.5661 82.2943C52.4462 85.5119 51.4648 88.3839 46.2529 92.4754C43.4076 94.7078 44.2228 95.6175 44.5355 98.0525C44.9312 101.147 46.4271 111.304 48.4097 118.303" fill="#FFAB8A"/>
<path d="M30.202 124.31C29.7232 114.605 28.7299 105.477 28.3381 100.039C27.9463 94.6005 28.1284 91.0096 31.2388 87.8714C36.3636 82.6915 49.035 71.4538 49.035 71.4538C51.7655 69.4398 56.3837 74.1907 53.5661 82.2943C52.4462 85.5119 51.4648 88.3839 46.2529 92.4754C43.4076 94.7078 44.2228 95.6175 44.5355 98.0525C44.9312 101.147 46.4271 111.304 48.4097 118.303" stroke="#160F23" stroke-width="1.94" stroke-linecap="round" stroke-linejoin="round"/>
<path d="M58.5588 78.2969C58.9941 80.6048 57.0431 84.6288 54.6568 92.3112C52.2745 99.9897 52.4012 101.122 52.8642 103.994C53.4696 107.764 54.0474 112.499 54.4194 116.229" stroke="#160F23" stroke-width="2.01" stroke-linecap="round" stroke-linejoin="round"/>
<path d="M36.8984 93.5547C39.91 94.9251 43.9227 94.52 43.9227 94.52" stroke="#160F23" stroke-width="1.94" stroke-linecap="round" stroke-linejoin="round"/>
<path d="M120.828 131.706L78.2035 151.091C73.0867 153.419 67.0636 151.15 64.7486 146.03L18.6932 43.9929C16.3821 38.8686 18.6536 32.8307 23.7744 30.5029L66.3988 11.1179C71.5156 8.79016 77.5387 11.0584 79.8537 16.1787L125.909 118.216C128.22 123.34 125.949 129.378 120.828 131.706Z" fill="#DEE9FF" stroke="#120325" stroke-width="2.06" stroke-linecap="round" stroke-linejoin="round"/>
<path d="M118.1 112.762L65.8201 136.54C64.2728 137.243 62.4564 136.568 61.7639 135.035L23.6983 50.6983C23.0058 49.161 23.6983 47.3496 25.2456 46.6426L77.5259 22.8642C79.0732 22.1611 80.8897 22.8364 81.5822 24.3698L119.648 108.702C120.34 110.239 119.648 112.051 118.1 112.758V112.762Z" fill="white"/>
<path d="M76.9359 22.8398L25.6094 46.1852" stroke="#004ADD" stroke-width="2.06" stroke-linecap="round"/>
<path d="M117.69 113.133L66.3594 136.478" stroke="#004ADD" stroke-width="2.06" stroke-linecap="round"/>
<path d="M44.4016 27.2121L54.6986 22.5288C55.4742 22.1752 56.3805 22.5049 56.7208 23.2597C57.0611 24.0184 56.7089 24.9161 55.9333 25.2697L45.6363 29.953C44.8607 30.3066 43.9545 29.9769 43.6141 29.2221C43.2738 28.4674 43.626 27.5657 44.4016 27.2121Z" fill="#004ADD"/>
<path d="M38.2333 33.328C37.4774 33.6696 36.591 33.336 36.2507 32.5772C35.9103 31.8185 36.2427 30.9287 36.9986 30.5871C37.7544 30.2455 38.6409 30.5792 38.9812 31.3379C39.3215 32.0966 38.9891 32.9864 38.2333 33.328Z" fill="#004ADD"/>
<path d="M97.5409 136.68C95.4317 137.642 92.9425 136.7 91.9849 134.583C91.0272 132.466 91.9651 129.967 94.0743 129.006C96.1836 128.045 98.6727 128.986 99.6304 131.103C100.588 133.22 99.6502 135.719 97.5409 136.68Z" stroke="#004ADD" stroke-width="2.06" stroke-linecap="round" stroke-linejoin="round"/>
<path d="M61.3369 124.435C55.0289 109.475 56.8572 101.622 50.9173 96.2793C46.2991 92.1243 42.3338 94.464 40.7232 95.4094C39.1126 96.3548 40.3829 102.115 40.9329 106.929C41.483 111.74 40.553 117.023 38.9187 125.099C37.4267 132.471 34.4231 147.479 40.7272 156.234C45.0565 162.248 55.4049 160.865 59.5799 155.352C65.0172 148.178 66.525 136.741 61.333 124.435H61.3369Z" fill="#FFAB8A"/>
<path d="M61.7949 151.365C67.719 139.964 62.6734 127.706 61.3398 124.437C55.2099 109.401 56.3733 102.136 50.9201 96.2808C47.1171 92.1973 42.3367 94.4655 40.726 95.4109C39.1154 96.3563 40.3857 102.116 40.9358 106.931C41.4858 111.741 40.4332 115.618 39.0837 123.749C37.6868 132.135 34.7386 145.164 39.6417 155.063" fill="#FFAB8A"/>
<path d="M61.7949 151.365C67.719 139.964 62.6734 127.706 61.3398 124.437C55.2099 109.401 56.3733 102.136 50.9201 96.2808C47.1171 92.1973 42.3367 94.4655 40.726 95.4109C39.1154 96.3563 40.3857 102.116 40.9358 106.931C41.4858 111.741 40.4332 115.618 39.0837 123.749C37.6868 132.135 34.7386 145.164 39.6417 155.063" stroke="#160F23" stroke-width="1.95" stroke-linecap="round" stroke-linejoin="round"/>
<path d="M113.502 87.7174C117.803 91.2289 119.192 96.4406 116.747 99.4993L114.273 102.566L98.8594 90.2199L101.293 87.1573C103.763 84.0589 109.251 84.3091 113.502 87.7213V87.7174Z" fill="#FFB000"/>
<path d="M111.012 90.8248C106.746 87.4205 101.3 87.1703 98.7913 90.2607C96.2824 93.3512 97.7743 98.6264 102.036 101.999C106.294 105.371 111.736 105.65 114.257 102.563C116.777 99.4765 115.274 94.1973 111.012 90.8248Z" fill="#FCF395"/>
<path d="M97.7997 92.4492C97.9739 91.6349 98.3379 90.8722 98.8563 90.2207L101.29 87.1581C103.759 84.0597 109.205 84.3099 113.506 87.738C116.862 90.4273 118.465 94.2686 117.796 97.2875C117.622 98.1018 117.258 98.8645 116.74 99.516L114.254 102.567C111.785 105.665 106.34 105.415 102.038 101.987C98.7337 99.3094 97.1309 95.4682 97.7997 92.4492ZM96.9529 92.2665C96.1891 95.7145 98.0213 99.9132 101.52 102.714C106.15 106.388 112.189 106.575 114.986 103.079L117.321 100.14C117.943 99.3611 118.374 98.4514 118.584 97.4782C119.347 94.0302 117.515 89.8315 114.017 87.031C111.971 85.311 109.438 84.2861 106.775 84.0954C105.604 83.9842 104.424 84.155 103.336 84.6039C102.248 85.0528 101.282 85.7559 100.526 86.6616L98.1915 89.6011C97.5702 90.3796 97.1389 91.2893 96.9291 92.2625H96.9529V92.2665Z" fill="#100423"/>
<path d="M105.319 92.3086C104.516 92.5271 103.82 93.0276 103.349 93.7148C102.981 94.1239 102.791 94.6642 102.814 95.2163C102.838 95.7685 103.076 96.2849 103.479 96.6623C105.387 98.0804 107.631 94.0763 109.692 95.6096C109.906 95.7883 110.08 96.0068 110.203 96.2571C110.325 96.5073 110.397 96.7775 110.413 97.0555C110.424 97.3336 110.381 97.6116 110.282 97.8698C110.183 98.128 110.033 98.3664 109.835 98.561C109.384 99.2363 108.723 99.7448 107.951 99.999" stroke="#100423" stroke-width="2" stroke-linecap="round" stroke-linejoin="round"/>
<path d="M101.734 92.5L103.345 93.7116" stroke="#100423" stroke-width="2" stroke-linecap="round" stroke-linejoin="round"/>
<path d="M109.844 98.5664L111.466 99.7819" stroke="#100423" stroke-width="2" stroke-linecap="round" stroke-linejoin="round"/>
<path d="M129.394 66.1021C128.199 72.0606 123.878 76.0568 119.687 75.2345L115.477 74.3884L119.549 53.1523L123.739 53.9587C127.978 54.785 130.526 60.239 129.394 66.0981V66.1021Z" fill="#FFB000"/>
<path d="M125.136 65.2662C126.248 59.3951 123.727 53.9808 119.473 53.1149C115.223 52.2489 110.897 56.3761 109.809 62.2274C108.721 68.0786 111.218 73.5008 115.472 74.3787C119.726 75.2606 124.048 71.1174 125.136 65.2662Z" fill="#FCF395"/>
<path d="M116.862 53.2578C117.737 53.0155 118.655 52.9758 119.545 53.1506L123.736 53.957C127.974 54.7832 130.499 60.1975 129.383 66.1123C128.493 70.7361 125.608 74.2436 122.359 75.1295C121.484 75.3718 120.566 75.4115 119.676 75.2367L115.473 74.3708C111.235 73.5445 108.71 68.1302 109.826 62.2154C110.728 57.6473 113.617 54.1397 116.866 53.2539L116.862 53.2578ZM116.644 52.4912C112.98 53.4882 109.901 57.3533 108.991 62.1122C107.816 68.4004 110.669 74.2794 115.402 75.2129L119.371 75.9795C120.424 76.1821 121.508 76.1384 122.537 75.8524C126.201 74.8554 129.28 70.9903 130.19 66.2315C130.8 63.4071 130.507 60.4597 129.351 57.8101C128.872 56.6304 128.113 55.5856 127.139 54.7634C126.166 53.9451 125.01 53.373 123.771 53.099L119.802 52.3323C118.75 52.1297 117.665 52.1734 116.636 52.4594L116.644 52.4872V52.4912Z" fill="#100423"/>
<path d="M120.813 60.4921C120.195 59.8247 119.36 59.3997 118.458 59.2924C117.876 59.1454 117.259 59.2328 116.741 59.5347C116.222 59.8366 115.842 60.3332 115.684 60.9131C115.288 63.4872 120.283 63.6342 119.851 66.4108C119.788 66.7087 119.665 66.9868 119.487 67.2331C119.309 67.4794 119.083 67.6859 118.822 67.8409C118.561 67.9958 118.272 68.0911 117.971 68.1269C117.671 68.1626 117.366 68.1348 117.077 68.0474C116.195 67.956 115.372 67.5668 114.734 66.951" stroke="#100423" stroke-width="2" stroke-linecap="round" stroke-linejoin="round"/>
<path d="M118.805 57.1094L118.453 59.2902" stroke="#100423" stroke-width="2" stroke-linecap="round" stroke-linejoin="round"/>
<path d="M117.083 68.0625L116.734 70.2552" stroke="#100423" stroke-width="2" stroke-linecap="round" stroke-linejoin="round"/>
<path d="M87.3883 72.8506C90.107 80.1676 88.0927 87.4647 82.964 89.4231L77.7997 91.3656L67.8984 65.4223L73.0153 63.452C78.1994 61.4659 84.6617 65.6845 87.3883 72.8506Z" fill="#FFB000"/>
<path d="M82.1757 74.8321C79.4253 67.67 73.0145 63.4792 67.7908 65.4257C62.5671 67.3721 60.6359 74.8202 63.3981 81.9466C66.1604 89.0689 72.5475 93.2876 77.783 91.353C83.0186 89.4185 84.9379 81.9585 82.1757 74.8321Z" fill="#FCF395"/>
<path d="M65.0398 67.3646C65.8273 66.5026 66.8087 65.8393 67.8969 65.4222L73.0138 63.4519C78.1979 61.4657 84.6048 65.6565 87.3868 72.8742C89.5396 78.5229 88.76 84.3185 85.8118 87.4924C85.0243 88.3544 84.0428 89.0178 82.9546 89.4349L77.7824 91.3535C72.5982 93.3397 66.1913 89.1489 63.4093 81.9311C61.3119 76.3341 62.0915 70.5385 65.0398 67.3646ZM64.3631 66.7489C61.0626 70.3042 60.3187 76.5685 62.5229 82.3403C65.4671 89.9433 72.4993 94.3884 78.2493 92.2036L83.0614 90.3525C84.3357 89.8639 85.4833 89.0853 86.4093 88.0763C89.7097 84.5211 90.4537 78.2567 88.2495 72.485C87.0148 69.0131 84.7235 66.018 81.6961 63.9286C80.3863 62.9752 78.8627 62.3555 77.26 62.1212C75.6573 61.8908 74.0229 62.0536 72.4954 62.5939L67.6833 64.445C66.409 64.9336 65.2614 65.7121 64.3353 66.7211L64.3631 66.745V66.7489Z" fill="#100423"/>
<path d="M74.2377 72.563C73.1138 72.2571 71.9147 72.3604 70.8581 72.8569C70.122 73.0913 69.5087 73.6077 69.1485 74.2909C68.7884 74.9742 68.7053 75.7726 68.9269 76.5154C70.2329 79.594 75.781 76.3526 77.1898 79.6814C77.3204 80.0468 77.3758 80.4401 77.3481 80.8294C77.3204 81.2187 77.2136 81.596 77.0355 81.9416C76.8535 82.2872 76.6041 82.5891 76.2994 82.8354C75.9947 83.0777 75.6465 83.2565 75.2705 83.3558C74.2456 83.8523 73.0861 83.9953 71.9741 83.753" stroke="#100423" stroke-width="2" stroke-linecap="round" stroke-linejoin="round"/>
<path d="M69.7656 70.2422L70.8539 72.8599" stroke="#100423" stroke-width="2" stroke-linecap="round" stroke-linejoin="round"/>
<path d="M75.2812 83.3633L76.3853 85.993" stroke="#100423" stroke-width="2" stroke-linecap="round" stroke-linejoin="round"/>
<path d="M60.1871 56.582L77.7656 95.8882L66.3051 101.279L48.4141 62.0043L60.1871 56.582Z" fill="white"/>
<path d="M63 62.043L77.2701 95.5535" stroke="#160F23" stroke-width="2.17" stroke-linecap="round" stroke-linejoin="round"/>
<path d="M81.9909 43.3109C81.326 34.7903 84.6542 27.8864 89.304 27.5567L93.9301 27.2031L96.3045 57.651L91.6784 58.0045C87.0286 58.3303 82.632 51.8474 81.9592 43.434L81.9909 43.3109Z" fill="#FFB000"/>
<path d="M87.2998 43.2939C86.5994 34.9281 89.2191 27.5555 93.9323 27.194C98.6455 26.8325 102.979 33.3511 103.651 41.7645C104.324 50.1779 101.016 57.3162 96.3661 57.6419C91.7162 57.9676 88.028 51.6834 87.3513 43.266L87.2998 43.2899V43.2939Z" fill="#FCF395"/>
<path d="M85.8866 29.1912C86.8047 28.2696 88.0078 27.6936 89.2979 27.5585L93.924 27.205C98.5738 26.8793 102.97 33.3621 103.643 41.7755C104.122 47.9405 102.492 53.4223 99.769 56.0202C98.8509 56.9418 97.6478 57.5178 96.3577 57.6529L91.7316 58.0064C87.0818 58.3321 82.6852 51.8493 82.0124 43.4359C81.4584 37.3463 83.1244 31.8248 85.8866 29.1912ZM85.1585 28.8019C82.0916 31.7255 80.4928 37.3821 80.9756 43.5432C81.676 52.5127 86.5317 59.2418 91.9097 58.785L96.2469 58.4553C97.8457 58.2964 99.3416 57.5853 100.481 56.4453C103.548 53.5216 105.147 47.865 104.664 41.704C103.964 32.7345 99.1635 26.0649 93.7301 26.4622L89.3928 26.7919C87.7941 26.9508 86.2982 27.6618 85.1585 28.8019Z" fill="#100423"/>
<path d="M97.4897 36.7164C96.5162 36.0332 95.3369 35.7154 94.1576 35.8147C93.3701 35.7789 92.6024 36.053 92.0167 36.5774C91.431 37.1057 91.0749 37.8406 91.0234 38.6311C91.1778 42.0433 97.6638 40.9072 97.8103 44.6015C97.8063 44.9987 97.7192 45.392 97.557 45.7574C97.3947 46.1189 97.1573 46.4446 96.8645 46.7108C96.5716 46.9769 96.2234 47.1795 95.8474 47.3066C95.4715 47.4337 95.0718 47.4774 94.6761 47.4417C93.5284 47.5331 92.3848 47.2431 91.4152 46.6154" stroke="#100423" stroke-width="2" stroke-linecap="round" stroke-linejoin="round"/>
<path d="M94.0547 32.875L94.1813 35.7867" stroke="#100423" stroke-width="2" stroke-linecap="round" stroke-linejoin="round"/>
<path d="M94.7109 47.4297L94.8376 50.3414" stroke="#100423" stroke-width="2" stroke-linecap="round" stroke-linejoin="round"/>
</g>
</svg>
