<svg width="139" height="127" viewBox="0 0 139 127" fill="none" xmlns="http://www.w3.org/2000/svg">
<g clip-path="url(#clip0_1176_47325)">
<path d="M63.8257 69.8739C63.8009 69.8739 63.7853 69.8733 63.7798 69.873L60.8078 69.8733V69.4386H63.7906C63.8596 69.4411 65.2687 69.4805 66.5669 67.918C68.5015 65.5893 70.0903 59.8245 66.6724 45.5855C62.0765 26.4392 65.9097 9.52446 67.771 3.14086C67.8627 2.82504 67.8791 2.49239 67.8189 2.1692C67.7587 1.846 67.6236 1.54112 67.4242 1.27864C67.2248 1.01616 66.9665 0.803273 66.6699 0.6568C66.3733 0.510327 66.0464 0.434282 65.7151 0.434672H21.329C20.9915 0.435121 20.6589 0.514487 20.3582 0.666328C20.0574 0.818168 19.797 1.03821 19.5981 1.30858C18.8096 2.38444 17.7275 4.45125 17.0504 8.1884L16.6191 8.11157C17.3109 4.29323 18.4282 2.16561 19.2436 1.05304C19.4833 0.727254 19.797 0.462112 20.1593 0.279146C20.5217 0.0961787 20.9224 0.000541341 21.329 1.18275e-06H65.7151C66.1144 -0.000379923 66.5083 0.0913442 66.8657 0.267927C67.2231 0.444509 67.5342 0.701112 67.7744 1.01746C68.0147 1.33381 68.1775 1.70124 68.2499 2.09072C68.3224 2.4802 68.3026 2.88106 68.192 3.26163C66.3403 9.61212 62.527 26.4391 67.0987 45.4849C70.5647 59.9241 68.8985 65.8138 66.8904 68.2121C65.5659 69.7938 64.1066 69.8739 63.8257 69.8739Z" fill="#E6E6E6"/>
<path d="M55.8277 77.8067C55.8029 77.8067 55.7873 77.806 55.7818 77.8057L52.8097 77.806V77.3714H55.7926C55.862 77.3735 57.2706 77.4133 58.5689 75.8507C60.5035 73.522 62.0923 67.7572 58.6744 53.5182C54.0785 34.3719 57.9116 17.4572 59.773 11.0736C59.8647 10.7578 59.8811 10.4251 59.8209 10.1019C59.7607 9.77874 59.6256 9.47386 59.4262 9.21138C59.2267 8.9489 58.9685 8.73601 58.6719 8.58954C58.3753 8.44307 58.0484 8.36702 57.717 8.36741H13.3309C12.9935 8.36786 12.6609 8.44723 12.3602 8.59907C12.0594 8.75091 11.799 8.97095 11.6001 9.24132C10.8116 10.3172 9.7295 12.384 9.05241 16.1211L8.62109 16.0443C9.3129 12.226 10.4302 10.0984 11.2456 8.98578C11.4853 8.65999 11.799 8.39485 12.1613 8.21188C12.5236 8.02892 12.9244 7.93328 13.3309 7.93274H57.7171C58.1164 7.93236 58.5103 8.02408 58.8677 8.20067C59.2251 8.37725 59.5362 8.63385 59.7764 8.9502C60.0167 9.26655 60.1794 9.63398 60.2519 10.0235C60.3244 10.4129 60.3045 10.8138 60.194 11.1944C58.3422 17.5449 54.529 34.3718 59.1007 53.4176C62.5667 67.8569 60.9005 73.7466 58.8924 76.1448C57.5679 77.7265 56.1086 77.8067 55.8277 77.8067Z" fill="#CCCCCC"/>
<path d="M47.8302 85.7394C47.8054 85.7394 47.7898 85.7388 47.7843 85.7384L4.08234 85.7388C3.66159 85.7393 3.24713 85.6375 2.87523 85.4423C2.50333 85.2471 2.18532 84.9645 1.94904 84.6191C1.71275 84.2738 1.5654 83.8763 1.51986 83.4614C1.47433 83.0465 1.532 82.6269 1.68784 82.2392C3.27349 78.3097 5.4085 68.882 1.89194 49.8911C-2.26048 27.4664 1.45704 19.3621 3.24808 16.9185C3.48774 16.5927 3.80147 16.3276 4.16381 16.1446C4.52615 15.9617 4.92688 15.866 5.33347 15.8655H49.7195C50.1188 15.8651 50.5128 15.9568 50.8702 16.1334C51.2276 16.31 51.5387 16.5666 51.7789 16.8829C52.0191 17.1993 52.1819 17.5667 52.2544 17.9562C52.3269 18.3457 52.307 18.7465 52.1965 19.1271C50.3447 25.4776 46.5315 42.3045 51.1032 61.3504C54.5692 75.7896 52.903 81.6793 50.8949 84.0776C49.5704 85.6593 48.1111 85.7394 47.8302 85.7394ZM5.33347 16.3002C4.996 16.3006 4.6634 16.38 4.36265 16.5318C4.0619 16.6836 3.80148 16.9037 3.60253 17.1741C1.84471 19.5723 -1.79883 27.5534 2.32293 49.8126C5.68229 67.9544 4.05302 77.5476 2.09465 82.4007C1.96267 82.7209 1.91313 83.0687 1.9505 83.4126C1.98787 83.7565 2.11099 84.0858 2.30873 84.3708C2.50481 84.6584 2.76905 84.8939 3.07828 85.0566C3.38751 85.2194 3.73228 85.3043 4.08233 85.3041H47.7951C47.8641 85.3074 49.2731 85.3461 50.5714 83.7835C52.506 81.4548 54.0948 75.69 50.6769 61.451C46.081 42.3047 49.9141 25.3899 51.7755 19.0063C51.8672 18.6905 51.8836 18.3579 51.8234 18.0347C51.7632 17.7115 51.6281 17.4066 51.4286 17.1441C51.2292 16.8816 50.971 16.6688 50.6744 16.5223C50.3778 16.3758 50.0509 16.2998 49.7195 16.3002H5.33347Z" fill="#4D4D4D"/>
<path d="M42.1693 35.4257H7.331C6.86611 35.4257 6.42026 35.2426 6.09153 34.9165C5.7628 34.5904 5.57812 34.1482 5.57812 33.687C5.57812 33.2259 5.7628 32.7837 6.09153 32.4576C6.42026 32.1315 6.86611 31.9484 7.331 31.9484H42.1693C42.6342 31.9484 43.0801 32.1315 43.4088 32.4576C43.7375 32.7837 43.9222 33.2259 43.9222 33.687C43.9222 34.1482 43.7375 34.5904 43.4088 34.9165C43.0801 35.2426 42.6342 35.4257 42.1693 35.4257Z" fill="#F50050"/>
<path d="M42.1693 42.8151H7.331C6.86611 42.8151 6.42026 42.632 6.09153 42.3059C5.7628 41.9798 5.57812 41.5376 5.57812 41.0765C5.57812 40.6153 5.7628 40.1731 6.09153 39.847C6.42026 39.5209 6.86611 39.3378 7.331 39.3378H42.1693C42.6342 39.3378 43.0801 39.5209 43.4088 39.847C43.7375 40.1731 43.9222 40.6153 43.9222 41.0765C43.9222 41.5376 43.7375 41.9798 43.4088 42.3059C43.0801 42.632 42.6342 42.8151 42.1693 42.8151Z" fill="#CCCCCC"/>
<path d="M42.1693 50.2045H7.331C6.86611 50.2045 6.42026 50.0214 6.09153 49.6953C5.7628 49.3692 5.57812 48.927 5.57812 48.4659C5.57812 48.0047 5.7628 47.5625 6.09153 47.2364C6.42026 46.9104 6.86611 46.7272 7.331 46.7272H42.1693C42.6342 46.7272 43.0801 46.9104 43.4088 47.2364C43.7375 47.5625 43.9222 48.0047 43.9222 48.4659C43.9222 48.927 43.7375 49.3692 43.4088 49.6953C43.0801 50.0214 42.6342 50.2045 42.1693 50.2045Z" fill="#CCCCCC"/>
<path d="M44.8002 57.5939H9.96186C9.49697 57.5939 9.05111 57.4108 8.72239 57.0847C8.39366 56.7586 8.20898 56.3164 8.20898 55.8553C8.20898 55.3941 8.39366 54.9519 8.72239 54.6258C9.05111 54.2998 9.49697 54.1166 9.96186 54.1166H44.8002C45.2651 54.1166 45.7109 54.2998 46.0397 54.6258C46.3684 54.9519 46.5531 55.3941 46.5531 55.8553C46.5531 56.3164 46.3684 56.7586 46.0397 57.0847C45.7109 57.4108 45.2651 57.5939 44.8002 57.5939Z" fill="#CCCCCC"/>
<path d="M44.8002 64.9834H9.96186C9.49697 64.9834 9.05111 64.8002 8.72239 64.4741C8.39366 64.148 8.20898 63.7058 8.20898 63.2447C8.20898 62.7835 8.39366 62.3413 8.72239 62.0152C9.05111 61.6892 9.49697 61.506 9.96186 61.506H44.8002C45.2651 61.506 45.7109 61.6892 46.0397 62.0152C46.3684 62.3413 46.5531 62.7835 46.5531 63.2447C46.5531 63.7058 46.3684 64.148 46.0397 64.4741C45.7109 64.8002 45.2651 64.9834 44.8002 64.9834Z" fill="#CCCCCC"/>
<path d="M23.7642 28.0363H7.331C6.86611 28.0363 6.42026 27.8531 6.09153 27.5271C5.7628 27.201 5.57812 26.7588 5.57812 26.2976C5.57812 25.8365 5.7628 25.3943 6.09153 25.0682C6.42026 24.7421 6.86611 24.559 7.331 24.559H23.7642C24.2291 24.559 24.6749 24.7421 25.0036 25.0682C25.3324 25.3943 25.517 25.8365 25.517 26.2976C25.517 26.7588 25.3324 27.201 25.0036 27.5271C24.6749 27.8531 24.2291 28.0363 23.7642 28.0363Z" fill="#F50050"/>
<path d="M21.642 76.898C21.9956 75.4125 23.6573 74.9256 25.0159 74.98C25.8742 75.0375 26.7256 75.1711 27.5599 75.3793C28.4329 75.5731 29.2974 75.8025 30.1575 76.0457C31.7347 76.4919 33.2957 77.0315 34.8989 77.3803C36.2336 77.6707 37.6841 77.841 39.0151 77.4401C40.2946 77.0547 41.38 76.1087 41.7281 74.8007C42.0562 73.568 41.6058 72.2203 40.4016 71.657C39.3035 71.1433 37.9164 71.4045 37.3721 72.5662C36.7584 73.876 37.3716 75.3045 38.3433 76.2523C38.8956 76.7667 39.5005 77.2225 40.1483 77.6122C40.8057 78.0566 41.5375 78.3817 42.3095 78.5724C43.577 78.8409 45.087 78.4452 45.7406 77.244C45.886 76.9721 45.9734 76.6734 45.9974 76.3666C46.0361 75.949 45.3785 75.9516 45.3401 76.3666C45.2293 77.5627 43.8171 78.1229 42.7611 77.9917C42.0483 77.8745 41.3675 77.6125 40.7616 77.2219C40.1769 76.8838 39.6228 76.496 39.1056 76.0629C38.2099 75.2941 37.3703 74.0289 37.9719 72.8291C38.4617 71.8522 39.7386 71.8619 40.5152 72.4919C41.4557 73.2549 41.288 74.6398 40.6677 75.5459C39.9808 76.5492 38.7359 76.9697 37.5621 77.0151C36.2866 77.0644 35.0218 76.7741 33.8029 76.4307C32.2883 76.0041 30.7887 75.5266 29.2668 75.125C28.4028 74.897 27.5322 74.6912 26.6526 74.5311C25.8209 74.3493 24.9666 74.2906 24.1176 74.357C22.746 74.5141 21.3459 75.3061 21.0081 76.7247C20.911 77.1327 21.5446 77.3068 21.642 76.898Z" fill="#3F3D56"/>
<path d="M88.7995 113.762C88.8374 118.042 89.1534 122.314 89.7456 126.553C89.7664 126.702 89.7889 126.851 89.8097 127L130.214 126.776C130.333 126.628 130.449 126.479 130.562 126.327C130.94 125.826 131.293 125.311 131.618 124.778C133.178 122.209 133.892 119.202 133.176 117.128L133.163 117.095C133.009 116.641 132.766 116.222 132.447 115.861C130.815 114.039 127.516 114.343 124.522 115.813C127.208 112.898 129.346 109.219 129.508 105.935C129.668 102.732 127.979 100.443 126.148 98.4988C126.088 98.4345 126.028 98.372 125.967 98.3095C125.938 98.2774 125.907 98.247 125.878 98.2149C124.449 96.7329 122.783 95.2721 120.372 95.4488C117.728 95.6429 114.796 97.8401 112.74 100.4C110.684 102.959 109.318 105.865 107.933 108.702C106.547 111.537 105.047 114.444 102.822 116.867C105.835 113.086 108.265 108.784 109.162 104.601C110.06 100.417 109.27 96.3988 106.584 94.4285C105.769 93.8487 104.826 93.4711 103.833 93.3272C103.717 93.3081 103.599 93.2926 103.48 93.2789C100.994 92.9983 98.0251 93.8512 95.4995 95.89C92.718 98.1348 90.7897 101.463 89.8302 104.622C88.8708 107.781 88.7686 110.822 88.7995 113.762Z" fill="#F2F2F2"/>
<path d="M115.234 126.859L116.007 126.855C116.252 126.703 116.499 126.552 116.746 126.404C116.9 126.308 117.055 126.215 117.21 126.121C119.773 124.569 122.351 123.079 124.946 121.654C127.539 120.227 130.144 118.865 132.763 117.57C132.832 117.54 132.889 117.487 132.923 117.42C132.957 117.353 132.966 117.276 132.949 117.203C132.946 117.193 132.942 117.184 132.936 117.176C132.899 117.108 132.818 117.079 132.699 117.138C132.377 117.297 132.054 117.457 131.733 117.62C129.108 118.938 126.493 120.322 123.89 121.771C121.289 123.219 118.702 124.732 116.131 126.308C116.077 126.341 116.022 126.375 115.968 126.408C115.723 126.558 115.48 126.709 115.234 126.859Z" fill="white"/>
<path d="M105.273 126.914L105.751 126.912C105.859 126.762 105.965 126.613 106.073 126.463C108.604 122.942 111.135 119.42 113.666 115.899C117.81 110.134 121.953 104.368 126.095 98.6033C126.119 98.5723 126.138 98.5368 126.149 98.4989C126.184 98.3712 126.089 98.2964 125.968 98.3096C125.917 98.3169 125.868 98.3348 125.825 98.3623C125.781 98.3898 125.744 98.4261 125.716 98.469C123.392 101.702 121.07 104.934 118.747 108.165C114.625 113.901 110.503 119.637 106.381 125.372C106.119 125.736 105.857 126.102 105.595 126.466C105.487 126.615 105.379 126.765 105.273 126.914Z" fill="white"/>
<path d="M94.6286 124.162C94.653 124.961 94.7062 125.747 94.7758 126.526C94.7893 126.674 94.8028 126.823 94.8164 126.972L95.3176 126.969C95.3023 126.821 95.287 126.672 95.2735 126.523C95.1676 125.398 95.0924 124.26 95.0822 123.092C95.0689 119.852 95.3872 116.62 96.0322 113.444C96.7178 110.024 97.7022 106.671 98.9743 103.421C100.309 99.9927 101.919 96.6764 103.788 93.5035C103.823 93.4518 103.839 93.3894 103.832 93.3273C103.812 93.1856 103.621 93.1436 103.479 93.279C103.451 93.3056 103.427 93.3359 103.407 93.3692C103.176 93.7635 102.949 94.1591 102.726 94.5558C100.926 97.7464 99.3857 101.074 98.119 104.508C96.9125 107.768 95.9947 111.127 95.3761 114.546C94.7967 117.718 94.5462 120.94 94.6286 124.162Z" fill="white"/>
<path d="M45.7949 77.0525C45.7118 76.9839 45.651 76.8924 45.6203 76.7896C45.5895 76.6867 45.5901 76.5772 45.6221 76.4747C45.654 76.3722 45.7158 76.2814 45.7996 76.2136C45.8835 76.1459 45.9857 76.1044 46.0934 76.0942C47.2884 75.9797 48.4945 76.1023 49.6413 76.4549L61.3232 80.0335C61.4744 80.0798 61.6149 80.1552 61.7368 80.2554C61.8586 80.3556 61.9593 80.4786 62.0332 80.6174C62.1071 80.7562 62.1527 80.9081 62.1675 81.0644C62.1822 81.2207 62.1657 81.3783 62.119 81.5283C62.0723 81.6783 61.9963 81.8177 61.8953 81.9385C61.7943 82.0594 61.6703 82.1593 61.5303 82.2326C61.3904 82.3059 61.2373 82.3511 61.0797 82.3657C60.9221 82.3803 60.7632 82.364 60.612 82.3177L48.9301 78.7391C47.7826 78.3888 46.7168 77.8155 45.7949 77.0525Z" fill="#3F3D56"/>
<path d="M93.6803 91.9182C93.3629 91.7862 93.0787 91.5868 92.8474 91.334C92.6162 91.0812 92.4437 90.7812 92.342 90.4551C92.2403 90.129 92.2119 89.7848 92.2588 89.4467C92.3058 89.1085 92.4269 88.7847 92.6137 88.498L90.6113 78.1112L95.7147 77.7166L96.0227 87.8763C96.4875 88.2194 96.8092 88.7197 96.9269 89.2824C97.0446 89.8451 96.9502 90.4311 96.6614 90.9293C96.3727 91.4275 95.9097 91.8034 95.3603 91.9856C94.8109 92.1679 94.2131 92.1439 93.6803 91.9182Z" fill="#FFB8B8"/>
<path d="M90.297 86.5575L85.0991 62.5458C84.8856 61.5595 85.0759 60.5296 85.628 59.6825C86.1801 58.8354 87.0489 58.2406 88.0432 58.0288C89.0375 57.8171 90.0758 58.0058 90.9298 58.5535C91.7838 59.1011 92.3835 59.9628 92.597 60.9491L97.7949 84.9606C97.8495 85.2142 97.8005 85.4789 97.6585 85.6967C97.5166 85.9144 97.2934 86.0675 97.0379 86.1222L91.468 87.3085C91.3414 87.3355 91.2107 87.3375 91.0833 87.3143C90.9559 87.2912 90.8344 87.2434 90.7257 87.1737C90.6169 87.1039 90.5231 87.0136 90.4495 86.9079C90.376 86.8022 90.3242 86.6831 90.297 86.5575Z" fill="#F50050"/>
<path d="M81.7649 124.33H79.0788L77.8008 114.052L81.7656 114.053L81.7649 124.33Z" fill="#FFB8B8"/>
<path d="M77.1603 123.568H82.3409V126.804H73.8984C73.8984 126.379 73.9828 125.958 74.1467 125.566C74.3107 125.173 74.5509 124.817 74.8538 124.516C75.1567 124.216 75.5163 123.977 75.912 123.815C76.3078 123.652 76.7319 123.568 77.1603 123.568Z" fill="#4D4D4D"/>
<path d="M90.7493 124.113H88.0632L86.7852 113.835L90.7499 113.835L90.7493 124.113Z" fill="#FFB8B8"/>
<path d="M86.1427 123.351H91.3233V126.587H82.8809C82.8809 126.162 82.9652 125.741 83.1292 125.348C83.2931 124.956 83.5333 124.599 83.8362 124.299C84.1391 123.998 84.4987 123.76 84.8945 123.597C85.2902 123.435 85.7144 123.351 86.1427 123.351Z" fill="#4D4D4D"/>
<path d="M78.5474 122.413C78.4467 122.331 78.3636 122.23 78.3028 122.115C78.2419 122.001 78.2047 121.876 78.1933 121.747L75.0704 87.6736C75.0583 87.5413 75.0735 87.408 75.1151 87.2817C75.1566 87.1555 75.2236 87.0389 75.312 86.9392C75.4005 86.8395 75.5084 86.7586 75.6294 86.7016C75.7503 86.6447 75.8817 86.6127 76.0155 86.6077L91.6773 86.0251C91.8128 86.0201 91.948 86.0429 92.0742 86.092C92.2005 86.1412 92.3152 86.2156 92.4111 86.3107C92.5071 86.4058 92.5822 86.5195 92.6318 86.6447C92.6815 86.7699 92.7046 86.9039 92.6996 87.0383L91.4477 120.981C91.4385 121.219 91.3425 121.445 91.1776 121.617C91.0128 121.79 90.7903 121.897 90.5516 121.919L87.3936 122.204C87.2627 122.216 87.1307 122.202 87.0054 122.162C86.8801 122.122 86.764 122.058 86.664 121.974C86.564 121.889 86.4821 121.785 86.4232 121.669C86.3642 121.552 86.3293 121.425 86.3206 121.295L84.8713 99.7317C84.8703 99.6902 84.8609 99.6494 84.8438 99.6116C84.8267 99.5738 84.8022 99.5397 84.7717 99.5114C84.7412 99.4831 84.7053 99.4611 84.6661 99.4467C84.627 99.4323 84.5853 99.4258 84.5435 99.4275H84.5422C84.5003 99.4259 84.4585 99.4326 84.4193 99.4472C84.38 99.4618 84.3441 99.4841 84.3137 99.5126C84.2832 99.5412 84.2588 99.5755 84.2419 99.6136C84.225 99.6516 84.2159 99.6926 84.2152 99.7342L82.9182 121.443C82.9053 121.675 82.8087 121.896 82.6462 122.063C82.4836 122.231 82.2658 122.336 82.0321 122.358L79.2734 122.632C79.1438 122.645 79.0128 122.633 78.8882 122.595C78.7635 122.557 78.6477 122.495 78.5474 122.413Z" fill="#4D4D4D"/>
<path d="M84.571 52.9263C87.5431 52.9263 89.9525 50.5364 89.9525 47.5884C89.9525 44.6403 87.5431 42.2504 84.571 42.2504C81.5989 42.2504 79.1895 44.6403 79.1895 47.5884C79.1895 50.5364 81.5989 52.9263 84.571 52.9263Z" fill="#FFB8B8"/>
<path d="M74.2081 87.9043C74.1123 87.7963 74.0419 87.6686 74.002 87.5303C73.9621 87.392 73.9537 87.2466 73.9774 87.1047C74.9709 81.1146 74.411 72.3098 73.7662 65.9782C73.598 64.2986 73.8788 62.6047 74.5804 61.067C75.2821 59.5294 76.3798 58.2022 77.763 57.2192L80.5735 54.8298C80.7603 54.6728 80.9987 54.5891 81.2434 54.5946L88.2256 54.7924C88.4773 54.7993 88.7168 54.9018 88.8946 55.0787L89.9735 57.4486L89.9846 57.4567C91.2703 58.3941 92.3018 59.6329 92.9868 61.0624C93.6718 62.4918 93.9889 64.0674 93.91 65.6482L92.8823 86.7159C92.8691 86.9609 92.7641 87.1921 92.5879 87.3643C92.4117 87.5364 92.1769 87.6369 91.9298 87.6462L74.9823 88.2369C74.9713 88.2371 74.9605 88.2373 74.9496 88.2373C74.8092 88.2375 74.6704 88.2079 74.5425 88.1504C74.4146 88.093 74.3006 88.009 74.2081 87.9043Z" fill="#F50050"/>
<path d="M53.8796 79.1128C53.8712 78.7716 53.9382 78.4327 54.0761 78.1199C54.214 77.8072 54.4194 77.5283 54.6777 77.3028C54.936 77.0773 55.241 76.9107 55.5713 76.8148C55.9015 76.7189 56.249 76.696 56.5891 76.7477L65.3239 70.6843L67.7757 75.1414L58.5563 79.5785C58.4309 80.1395 58.1023 80.6355 57.6329 80.9723C57.1635 81.3091 56.5859 81.4635 56.0094 81.4061C55.4329 81.3487 54.8977 81.0835 54.5052 80.6608C54.1127 80.2382 53.8901 79.6874 53.8796 79.1128Z" fill="#FFB8B8"/>
<path d="M61.2303 80.1667C61.1022 80.1475 60.9793 80.1034 60.8685 80.0368C60.7577 79.9702 60.6614 79.8825 60.585 79.7787L57.2141 75.2234C57.0597 75.0141 56.9952 74.7527 57.0349 74.4964C57.0745 74.2401 57.215 74.0098 57.4255 73.8561L77.3852 59.3243C78.205 58.7275 79.2303 58.4781 80.2355 58.631C80.7332 58.7068 81.211 58.879 81.6417 59.1379C82.0723 59.3968 82.4473 59.7373 82.7452 60.14C83.0432 60.5426 83.2583 60.9995 83.3782 61.4846C83.4981 61.9697 83.5205 62.4735 83.4442 62.9672C83.3678 63.4609 83.1942 63.9349 82.9332 64.362C82.6721 64.7891 82.3289 65.1611 81.9229 65.4566L61.9632 79.9884C61.7949 80.1116 61.5912 80.1781 61.382 80.1782C61.3312 80.1781 61.2805 80.1743 61.2303 80.1667Z" fill="#F50050"/>
<path d="M84.8461 52.3402C85.5598 51.4723 85.4816 50.1502 84.9088 49.185C84.336 48.2197 83.3637 47.555 82.3632 47.0357C81.3627 46.5165 80.2998 46.1082 79.3582 45.4899C78.4167 44.8717 78.4577 42.2543 78.207 41.1623L78.805 41.3598C78.5752 41.0682 78.5015 40.2065 78.2716 39.9148C78.9473 39.9811 79.4668 40.6174 80.1425 40.6836L79.7526 39.6455C82.0696 39.5038 83.5101 41.1008 85.827 40.9591C86.975 40.8889 88.2217 40.8445 89.1654 41.4966C89.9854 42.0633 90.4006 43.0441 90.673 43.998C91.2578 46.046 91.3487 48.3401 90.3386 50.2181C89.3284 52.0961 87.0001 53.3615 84.966 52.6834L84.8461 52.3402Z" fill="#4D4D4D"/>
<path d="M55.3011 126.924H138.782C138.84 126.924 138.896 126.901 138.937 126.86C138.978 126.82 139.001 126.764 139.001 126.707C139.001 126.649 138.978 126.594 138.937 126.553C138.896 126.512 138.84 126.489 138.782 126.489H55.3011C55.243 126.489 55.1873 126.512 55.1462 126.553C55.1051 126.594 55.082 126.649 55.082 126.707C55.082 126.764 55.1051 126.82 55.1462 126.86C55.1873 126.901 55.243 126.924 55.3011 126.924Z" fill="#4D4D4D"/>
</g>
<defs>
<clipPath id="clip0_1176_47325">
<rect width="139" height="127" fill="white"/>
</clipPath>
</defs>
</svg>
