<svg width="218" height="217" viewBox="0 0 218 217" fill="none" xmlns="http://www.w3.org/2000/svg">
<g clip-path="url(#clip0_1379_2483)">
<path fill-rule="evenodd" clip-rule="evenodd" d="M55.4029 28.8841C55.3695 25.1595 49.7732 23.6673 47.848 28.015C47.5587 28.6705 46.4514 28.2665 46.5182 27.5554C46.9689 23.2255 54.1421 21.8901 56.4222 26.3313C58.1842 29.763 56.3031 31.8144 54.6878 33.576L54.6877 33.576C54.3372 33.9583 53.9992 34.3269 53.7136 34.693C52.8479 35.8025 53.6057 37.2135 54.2066 38.3163C54.6573 39.1431 53.3475 39.7574 52.8902 38.9439C51.794 36.9943 51.0329 35.2182 52.6743 33.2831C52.958 32.9485 53.2614 32.6416 53.559 32.3405L53.5591 32.3405C54.5177 31.3709 55.4165 30.4618 55.4029 28.8841ZM59.4039 82.2657C62.3941 79.4836 65.0092 68.2331 62.4085 61.0588C62.0268 60.005 68.1039 59.019 69.0854 59.5009C70.0669 59.9827 76.9418 73.115 77.7653 76.2376C79.0439 81.085 78.3217 104.264 78.1292 106.483C77.9667 108.321 61.2824 107.784 60.3854 106.08C59.4885 104.376 59.4039 84.281 59.4039 82.2657ZM79.9865 106.46C80.5619 107.573 89.0003 107.009 90.4347 106.26C86.8849 103.892 87.5971 95.497 90.3235 95.7896C91.876 95.9279 93.4351 95.6084 94.8081 94.8705C95.1664 94.1082 94.7547 82.8744 94.1404 80.9236C92.0895 77.0288 89.7136 64.3761 89.6235 61.6864C89.569 60.025 82.763 58.861 82.8977 60.0717C83.2838 63.5482 82.2812 69.2702 79.1798 76.6415C80.05 86.5712 79.9161 95.1271 79.8319 100.515V100.515V100.515V100.515V100.515V100.515V100.515V100.515V100.515V100.516V100.516V100.516V100.516V100.516V100.516V100.516C79.7794 103.87 79.7461 105.996 79.9865 106.46ZM54.4391 40.5163C53.8826 40.8702 54.1175 41.9363 54.3879 42.3936C54.6438 42.8254 55.612 43.729 56.1895 43.1904C56.6346 42.7798 56.4443 41.8673 56.1672 41.4099C55.8679 40.9169 55.0622 40.1202 54.4391 40.5163ZM48.4736 41.0983C48.8597 41.6536 48.0785 42.1978 47.6078 41.8105C45.499 40.079 39.7959 33.4845 38.4037 30.797C38.041 30.0937 38.9145 29.238 39.5277 29.8712C42.6964 33.4609 45.6821 37.208 48.4736 41.0983ZM49.8379 43.2438C48.9944 43.3551 49.3038 44.528 49.829 45.0533C50.0091 45.2387 50.2391 45.3679 50.4911 45.4252C50.7432 45.4825 51.0064 45.4654 51.249 45.376C51.9289 44.9854 51.4003 43.9393 51.0041 43.6166C50.6723 43.3572 50.2587 43.2249 49.8379 43.2438ZM173.51 88.9663C173.257 89.648 172.796 90.2322 172.191 90.6351C169.222 92.6293 165.538 89.371 167.197 86.4298C167.601 85.7154 168.443 85.9891 168.19 86.8171C168.062 87.2194 168.054 87.6503 168.166 88.0573C168.279 88.4642 168.507 88.8298 168.823 89.1096C169.139 89.3894 169.53 89.5713 169.948 89.6333C170.365 89.6953 170.792 89.6347 171.176 89.4589C172.985 88.5419 172.247 85.8979 170.285 85.643C170.117 85.6194 169.963 85.5312 169.858 85.3969C169.753 85.2627 169.704 85.0929 169.722 84.9232C169.739 84.7536 169.822 84.5973 169.952 84.4873C170.082 84.3773 170.25 84.322 170.42 84.3332C171.146 84.3622 171.845 84.6204 172.415 85.0708C172.986 85.5213 173.399 86.1409 173.596 86.8407C173.792 87.5405 173.762 88.2846 173.51 88.9663ZM146.52 137.275C145.288 146.569 144.247 159.503 145.28 168.874C145.361 169.607 146.58 169.456 146.544 168.748C146.018 158.281 146.577 147.788 148.213 137.437C150.048 124.101 153.915 107.443 164.835 99.9015C167.712 97.9151 166.41 97.0416 164.023 98.6051C151.732 106.653 148.078 125.523 146.52 137.275ZM154.912 64.7099C155.558 67.0546 152.157 69.3693 149.82 67.581C149.166 67.1101 148.714 66.4105 148.552 65.6213C148.391 64.8321 148.532 64.011 148.948 63.3212C149.364 62.6314 150.024 62.1234 150.798 61.898C151.571 61.6727 152.401 61.7465 153.123 62.1048C153.674 62.3942 153.306 63.3523 152.711 63.1297C152.332 62.9798 151.916 62.9492 151.519 63.042C151.122 63.1348 150.762 63.3465 150.489 63.649C150.215 63.9514 150.041 64.3301 149.988 64.7344C149.935 65.1387 150.008 65.5495 150.195 65.9118C150.971 67.1147 153.257 66.7775 153.771 64.7211C153.807 64.598 153.881 64.4897 153.983 64.4122C154.085 64.3347 154.209 64.2922 154.337 64.2909C154.466 64.2897 154.591 64.3298 154.694 64.4053C154.798 64.4807 154.874 64.5876 154.912 64.7099ZM180.757 128.125C181.041 129.254 182.939 129.184 183.296 127.891C183.393 127.564 183.358 127.212 183.199 126.911C183.039 126.61 182.767 126.384 182.442 126.281C182.198 126.241 181.947 126.262 181.712 126.344C181.478 126.425 181.268 126.563 181.101 126.747C180.933 126.93 180.814 127.151 180.754 127.392C180.694 127.633 180.695 127.884 180.757 128.125ZM154.857 138.537C154.703 139.184 153.623 138.957 153.734 138.325C155.038 130.795 159.632 124.157 166.288 121.049C170.429 119.107 176.509 117.987 180.889 119.603C181.021 119.65 181.132 119.742 181.202 119.864C181.271 119.986 181.296 120.128 181.27 120.266C181.244 120.404 181.17 120.528 181.06 120.616C180.951 120.703 180.814 120.75 180.674 120.746C174.963 120.423 170.958 120.334 165.763 123.217C159.85 126.498 156.406 132.037 154.857 138.537ZM130.784 118.451C130.831 118.588 130.928 118.703 131.056 118.772C131.184 118.841 131.333 118.859 131.473 118.822C131.614 118.786 131.736 118.698 131.814 118.575C131.893 118.453 131.922 118.306 131.896 118.163C131.031 113.087 127.779 105.739 124.133 101.732C122.909 100.382 121.685 101.004 122.764 102.636L123.099 103.144L123.099 103.144C126.728 108.633 128.564 111.409 130.784 118.451ZM127.255 133.335C125.267 127.774 121.497 122.096 114.968 121.497C113.762 121.385 113.451 120.33 114.977 120.254C122.316 119.889 126.66 126.662 128.823 132.709C132.221 142.208 134.242 155.35 134.848 165.047C134.894 165.772 133.663 165.714 133.613 165.038C133.024 154.22 130.883 143.543 127.255 133.335ZM117.666 132.953C117.188 133.21 116.812 133.622 116.6 134.121C116.388 134.621 116.353 135.178 116.501 135.7C116.648 136.222 116.97 136.678 117.412 136.992C117.855 137.307 118.391 137.461 118.933 137.429C121.901 137.272 121.877 133.149 119.636 132.789C119.519 132.775 119.401 132.805 119.305 132.873C119.209 132.941 119.142 133.043 119.117 133.158C119.093 133.273 119.112 133.393 119.171 133.495C119.231 133.596 119.326 133.672 119.439 133.706C119.682 133.832 119.877 134.034 119.993 134.282C120.109 134.53 120.14 134.809 120.08 135.076C120.021 135.344 119.874 135.583 119.664 135.758C119.453 135.933 119.191 136.034 118.917 136.043C117.693 136.132 117.371 134.853 118.1 134.002C118.785 133.203 118.077 132.757 117.666 132.953ZM136.343 82.0125C136.088 82.0022 135.841 81.9219 135.629 81.7805C135.45 81.6425 135.302 81.4675 135.197 81.2674C135.091 81.0674 135.03 80.8469 135.017 80.6211C135.004 80.3953 135.04 80.1694 135.123 79.9587C135.205 79.748 135.332 79.5575 135.494 79.4002C135.711 79.2434 135.967 79.1498 136.234 79.1297C136.5 79.1096 136.767 79.1638 137.005 79.2864C137.243 79.4089 137.442 79.595 137.58 79.8239C137.719 80.0528 137.791 80.3156 137.789 80.5831C137.796 80.838 137.733 81.09 137.607 81.3116C137.481 81.5332 137.296 81.7158 137.073 81.8394C136.85 81.963 136.598 82.0229 136.343 82.0125ZM138.717 159.239C139.186 162.22 140.617 162.053 140.18 159.016C138.589 147.141 138.581 135.107 140.158 123.23C141.9 109 146.804 83.7357 160.771 74.7386C163.279 73.1239 162.739 72.3149 160.367 73.2919C147.759 78.4676 139.97 106.788 138.419 122.44C137.296 133.735 136.642 146.044 138.717 159.239ZM179.092 194.31C192.269 196.163 207.042 194.43 216.148 183.8C217.369 182.379 217.82 183.922 217.267 184.635C207.733 196.879 190.429 197.994 176.249 195.562C170.847 194.636 165.497 193.231 160.143 191.826C150.122 189.196 140.088 186.563 129.67 187.052C122.135 187.407 114.872 189.313 107.607 191.219C100.595 193.059 93.5811 194.9 86.3209 195.345C75.4382 196.013 64.9497 193.436 54.4734 190.861C50.1374 189.795 45.8035 188.73 41.4446 187.896C28.487 185.417 14.1762 185.039 2.63638 192.375C1.9253 192.827 1.10404 191.83 1.81402 191.326C14.1751 182.561 30.3943 183.776 44.4692 186.805C47.7174 187.506 50.9638 188.302 54.2151 189.099C65.8292 191.947 77.5043 194.81 89.538 193.371C95.6227 192.643 101.561 191.1 107.493 189.559C115.844 187.388 124.185 185.221 132.91 185.334C142.279 185.456 151.284 187.809 160.295 190.164C166.517 191.79 172.742 193.417 179.092 194.31Z" fill="#F50050"/>
<path fill-rule="evenodd" clip-rule="evenodd" d="M1.70188 26.9456C3.90079 22.224 9.54608 19.8882 13.9317 23.369C22.5504 30.2106 21.2662 48.1892 19.6738 57.4611C19.6503 57.6125 19.5677 57.7484 19.444 57.8389C19.3204 57.9293 19.1658 57.967 19.0144 57.9435C18.863 57.9201 18.7271 57.8374 18.6367 57.7138C18.5462 57.5901 18.5086 57.4356 18.532 57.2842C19.4445 49.5223 21.2362 30.1383 12.3927 24.3205C7.80899 21.3048 3.22087 25.6881 2.37735 30.353C0.592406 40.2337 8.11167 52.8997 13.511 57.3231C14.0207 57.7404 13.521 58.594 12.9413 58.1666C5.1004 52.3889 -2.51122 35.9928 1.70188 26.9456ZM12.0682 39.5864C12.1915 39.6549 12.2836 39.7684 12.3253 39.9032C14.5353 48.1992 17.1927 58.2501 19.031 66.5973C18.89 66.7836 18.7093 66.9363 18.502 67.0442C18.2947 67.1522 18.0661 67.2128 17.8326 67.2216C15.5858 59.5432 12.9685 48.0067 11.267 40.1803C11.2372 40.0424 11.2619 39.8983 11.3358 39.7782C11.4096 39.658 11.527 39.571 11.6635 39.5353C11.8 39.4995 11.9449 39.5179 12.0682 39.5864ZM86.676 41.7794C86.6171 45.1278 85.8971 51.9694 83.9908 54.688C83.6388 55.2277 83.179 55.6888 82.6404 56.0423C82.1017 56.3958 81.4957 56.6341 80.8605 56.7422C81.0028 57.4745 81.1833 58.1988 81.4013 58.9122C81.5805 59.492 80.8961 59.6611 80.6368 59.1927C80.2898 58.4347 80.0588 57.6289 79.9513 56.8023C77.9368 56.6132 76.0579 55.7046 74.6588 54.2429C74.6188 54.2072 74.5864 54.164 74.5632 54.1158C74.54 54.0676 74.5266 54.0152 74.5237 53.9618C74.5208 53.9083 74.5285 53.8549 74.5463 53.8044C74.5642 53.7539 74.5918 53.7075 74.6277 53.6678C74.6635 53.628 74.7069 53.5958 74.7552 53.5728C74.8036 53.5499 74.856 53.5368 74.9095 53.5342C74.9629 53.5316 75.0164 53.5395 75.0667 53.5577C75.1171 53.5758 75.1634 53.6037 75.2029 53.6397C78.015 55.8742 81.7941 57.3576 83.7282 53.1245C85.0513 50.2201 85.7413 44.9398 85.8526 41.7193C85.8715 41.1028 86.6861 41.154 86.676 41.7794ZM83.7712 45.8923C83.1303 45.3548 82.2522 47.0396 83.088 47.4903C83.4419 47.6817 83.8236 47.2678 83.9415 46.9217C84.0096 46.7509 84.0297 46.5647 83.9997 46.3833C83.9697 46.2019 83.8907 46.0321 83.7712 45.8923ZM78.3098 45.6642C78.5313 45.3226 78.9274 44.9743 79.3392 45.3304C79.979 45.8823 79.0643 47.7507 78.3276 47.1042C77.976 46.7971 78.0884 46.0059 78.3098 45.6642ZM83.4246 42.0698C83.2998 42.0654 83.1781 42.1095 83.0851 42.1928C82.9921 42.2762 82.935 42.3923 82.9258 42.5169C82.9166 42.6414 82.956 42.7647 83.0357 42.8608C83.1154 42.9569 83.2293 43.0184 83.3534 43.0324C83.5935 43.0885 83.8185 43.1964 84.0126 43.3484C84.2067 43.5005 84.3653 43.693 84.4774 43.9127C84.7177 44.1986 85.105 44.0963 85.0994 43.719C85.0551 43.2925 84.8637 42.8946 84.5582 42.5937C84.2526 42.2928 83.8518 42.1076 83.4246 42.0698ZM78.9866 42.9957C78.9978 42.9942 79.009 42.9919 79.02 42.989L78.9866 42.9957ZM79.1838 41.9552C78.6945 41.9528 78.2125 42.0745 77.783 42.309C77.3534 42.5436 76.9904 42.8832 76.7279 43.2962C76.5164 43.6934 76.9705 44.0061 77.3099 43.7168C77.8592 43.2371 78.5584 42.9637 79.2873 42.9434C79.4101 42.92 79.5197 42.8514 79.5942 42.751C79.6688 42.6507 79.7029 42.526 79.6899 42.4017C79.6769 42.2774 79.6176 42.1625 79.5239 42.0798C79.4302 41.9971 79.3088 41.9526 79.1838 41.9552ZM80.9265 47.2355C80.685 46.55 81.484 46.4187 81.6865 46.9094C82.0436 47.6896 82.203 48.5457 82.1505 49.4021C82.0671 50.0709 81.6097 50.2201 81.0166 50.2034C80.5241 50.1769 80.0429 50.0464 79.6044 49.8206C79.5291 49.782 79.4694 49.7187 79.4354 49.6412C79.4014 49.5637 79.3952 49.4769 79.4179 49.3954C79.4405 49.3139 79.4906 49.2427 79.5597 49.1938C79.6287 49.145 79.7126 49.1215 79.797 49.1273C79.905 49.1273 80.1244 49.1574 80.3363 49.1865C80.5063 49.2099 80.6716 49.2326 80.7707 49.2386C81.1223 49.2642 81.2314 49.1885 81.2236 48.819C81.2036 48.2794 81.1035 47.7457 80.9265 47.2355ZM79.3625 51.2561C78.9273 51.0919 78.4604 51.0297 77.9974 51.074C77.5344 51.1184 77.0878 51.2682 76.6918 51.5121C76.1732 51.8637 76.6417 52.6316 77.2737 52.3344C77.8505 52.0263 78.506 51.8969 79.1566 51.9627C79.7141 51.995 79.7798 51.4531 79.3625 51.2561ZM69.9016 83.1693C75.6765 82.3646 81.5197 82.1655 87.336 82.575C87.4634 82.5721 87.59 82.5949 87.7083 82.6422C87.8267 82.6895 87.9341 82.7603 88.0244 82.8503C88.1146 82.9403 88.1856 83.0476 88.2333 83.1658C88.2809 83.2839 88.3041 83.4105 88.3014 83.5379C88.2988 83.6653 88.2704 83.7909 88.2179 83.907C88.1655 84.0231 88.09 84.1274 87.9962 84.2135C87.9023 84.2997 87.792 84.366 87.6719 84.4084C87.5517 84.4508 87.4242 84.4684 87.297 84.4601C84.5599 84.6536 82.1218 84.7161 79.6826 84.7787H79.6826C76.7063 84.855 73.7283 84.9314 70.2031 85.2458C69.1471 85.3393 68.8388 83.3262 69.9016 83.1693ZM87.5822 91.4931C81.834 91.2565 76.0763 91.4179 70.3503 91.9761C70.0933 92.0321 69.8677 92.1847 69.7199 92.4024C69.5722 92.6201 69.5137 92.8862 69.5566 93.1457C69.5994 93.4052 69.7404 93.6384 69.9502 93.797C70.16 93.9557 70.4228 94.0276 70.6842 93.9981C71.9012 93.9518 74.1053 93.9095 76.6385 93.861L76.6394 93.861L76.6403 93.8609L76.6411 93.8609L76.6422 93.8609L76.6432 93.8609L76.6441 93.8609L76.645 93.8608L76.6459 93.8608L76.6469 93.8608L76.6479 93.8608L76.6489 93.8607L76.6497 93.8607L76.6506 93.8607L76.6515 93.8607L76.6524 93.8606L76.6534 93.8606L76.6543 93.8606L76.6552 93.8606L76.6562 93.8606L76.6573 93.8605L76.6585 93.8605L76.6599 93.8605L76.6614 93.8605L76.6623 93.8604C80.2067 93.7925 84.3902 93.7124 87.4153 93.5919C87.6788 93.5886 87.9316 93.4869 88.1241 93.3068C88.3166 93.1268 88.4348 92.8814 88.4557 92.6186C88.4766 92.3559 88.3986 92.0948 88.237 91.8866C88.0754 91.6784 87.8419 91.5381 87.5822 91.4931ZM26.8583 70.6312C32.4443 72.0511 38.18 72.7982 43.9433 72.8569C44.8069 72.8635 44.8358 73.7382 44.2137 73.7705C38.8211 73.8088 33.4407 73.249 28.1715 72.1013C27.8621 72.0305 27.5797 71.9676 27.3204 71.9098L27.3189 71.9095L27.3185 71.9094C24.793 71.3466 24.4615 71.2727 22.732 69.2547C21.2041 67.4693 20.4529 68.0387 19.5921 68.6912C19.0687 69.0879 18.5047 69.5154 17.701 69.4628C17.6375 69.4683 17.5734 69.4608 17.5129 69.4406C17.4524 69.4204 17.3966 69.388 17.3491 69.3454C17.3016 69.3028 17.2634 69.2509 17.2367 69.1929C17.2101 69.135 17.1956 69.0721 17.1943 69.0083C17.1929 68.9445 17.2046 68.8811 17.2287 68.8221C17.2528 68.763 17.2888 68.7095 17.3345 68.6649C17.3801 68.6203 17.4344 68.5855 17.494 68.5627C17.5536 68.54 17.6172 68.5297 17.681 68.5325C18.1839 68.5038 18.6344 68.1187 19.0392 67.7726C19.1682 67.6623 19.2926 67.556 19.4125 67.4664C20.9304 66.3347 22.4616 67.1526 23.59 68.4268L23.664 68.5105L23.8045 68.6697C24.8994 69.9116 25.1727 70.2216 26.8583 70.6312ZM47.5463 83.9994C43.1339 84.4703 40.7617 83.6064 36.5768 82.0823L36.5763 82.0822C36.1428 81.9243 35.6898 81.7593 35.213 81.588C31.5107 80.2526 26.4875 78.2295 23.2915 76.9142C22.764 76.6983 22.5626 77.5151 23.0177 77.7332C26.325 79.3123 31.5107 81.549 35.6225 82.9957C35.9821 83.1223 36.3548 83.2576 36.7383 83.3968C39.9572 84.5653 43.9484 86.0141 47.514 85.0188C48.1071 84.8596 48.1761 83.9327 47.5463 83.9994ZM16.8568 70.688C17.3209 71.201 18.6663 71.171 20.1241 70.392C20.6215 70.1272 21.0956 70.6224 20.6271 71.1153C19.4931 72.3083 16.503 72.5575 15.9032 70.9339C15.6973 70.3786 16.3772 70.1572 16.8568 70.688ZM20.2223 72.4819C19.7701 72.9037 19.1996 73.1771 18.5875 73.2652C17.9754 73.3534 17.351 73.252 16.7982 72.9748C16.224 72.6989 15.8723 73.4044 16.3764 73.7838C17.0417 74.2676 17.8699 74.4718 18.6839 74.3529C19.4978 74.2339 20.2329 73.8012 20.7319 73.1473C21.2216 72.5976 20.6418 72.1558 20.2223 72.4819ZM19.3747 75.23C19.998 75.1033 20.5669 74.7871 21.0036 74.3247C21.3252 74.0175 21.8382 74.4237 21.55 74.8833C21.0571 75.5298 20.359 75.9895 19.5703 76.1869C18.7817 76.3842 17.9493 76.3076 17.21 75.9694C17.0905 75.9244 16.993 75.8349 16.938 75.7196C16.883 75.6044 16.8748 75.4722 16.9151 75.351C16.9554 75.2298 17.0411 75.1289 17.1542 75.0695C17.2672 75.0101 17.3989 74.9968 17.5216 75.0324C18.1042 75.2877 18.7514 75.3567 19.3747 75.23ZM21.2893 76.3466C20.9637 76.774 20.5029 77.0784 19.9821 77.2102C19.4613 77.3419 18.9112 77.2933 18.4216 77.0722C17.8919 76.8296 17.5691 77.4795 18.1801 77.8512C18.4971 78.0368 18.848 78.1574 19.2122 78.2059C19.5763 78.2543 19.9465 78.2297 20.3011 78.1335C20.6556 78.0372 20.9874 77.8712 21.2771 77.6453C21.5668 77.4193 21.8085 77.1378 21.9881 76.8174C22.0444 76.7247 22.0629 76.6139 22.0397 76.5079C22.0164 76.402 21.9533 76.3091 21.8633 76.2485C21.7734 76.1879 21.6635 76.1643 21.5566 76.1826C21.4497 76.2009 21.354 76.2596 21.2893 76.3466ZM37.0471 151.116C33.6564 132.14 26.1917 95.2533 21.8506 78.3386C21.5313 78.7061 21.095 78.9521 20.6154 79.0352C21.7689 84.7637 22.7749 89.3086 23.9059 94.418C26.31 105.279 29.2787 118.691 35.4291 151.444C35.483 151.647 35.6127 151.823 35.7918 151.934C35.9708 152.046 36.1857 152.085 36.3924 152.043C36.599 152.001 36.7819 151.882 36.9037 151.71C37.0254 151.537 37.0767 151.325 37.0471 151.116ZM97.0923 94.8861C96.9031 94.3297 96.4123 94.3964 96.4246 94.9706C96.4301 95.3681 96.4475 95.7806 96.4652 96.1981C96.4978 96.9671 96.531 97.7526 96.4914 98.4905C96.3344 101.425 95.0447 104.5 91.2611 104.484C90.5845 104.484 90.6257 105.335 91.2923 105.374C95.2673 105.588 97.1457 102.349 97.4562 98.8388C97.5802 97.51 97.4569 96.1698 97.0923 94.8861ZM90.2672 102.212C91.6874 102.239 93.0771 101.798 94.2222 100.958C94.3257 100.881 94.4553 100.847 94.5832 100.865C94.7111 100.882 94.8271 100.949 94.9065 101.05C94.9858 101.152 95.0222 101.281 95.0079 101.409C94.9936 101.537 94.9296 101.655 94.8298 101.737C94.1939 102.28 93.4524 102.687 92.6519 102.93C91.8514 103.174 91.0092 103.249 90.1782 103.151C90.1155 103.146 90.0543 103.129 89.9983 103.101C89.9423 103.072 89.8925 103.033 89.8519 102.985C89.8113 102.937 89.7807 102.881 89.7619 102.821C89.7431 102.761 89.7364 102.698 89.7424 102.636C89.7483 102.573 89.7667 102.512 89.7964 102.457C89.8261 102.402 89.8667 102.353 89.9156 102.313C89.9645 102.274 90.0208 102.244 90.0811 102.227C90.1415 102.21 90.2048 102.204 90.2672 102.212ZM94.6064 98.6329C93.2644 99.4946 91.6664 99.8672 90.0817 99.6879C89.4808 99.64 89.3105 100.388 90.0071 100.591C90.8917 100.779 91.8061 100.774 92.689 100.579C93.5718 100.384 94.4028 100.002 95.1261 99.4597C95.5055 99.0792 95.135 98.3836 94.6064 98.6329ZM94.372 96.53C94.5674 96.4545 94.7763 96.3738 95.0035 96.2882C95.1144 96.2383 95.2404 96.2333 95.3549 96.2743C95.4693 96.3153 95.5635 96.3991 95.6174 96.5081C95.6713 96.6171 95.6808 96.7428 95.644 96.8587C95.6071 96.9746 95.5267 97.0717 95.4197 97.1295C94.6605 97.6572 93.7954 98.013 92.8846 98.1721C91.9738 98.3313 91.0393 98.2899 90.1461 98.0509C89.5519 97.8406 89.681 97.1161 90.312 97.1785C92.2166 97.3629 92.9206 97.0908 94.372 96.53ZM104.317 82.7052C103.337 84.6299 102.186 86.4624 100.877 88.1803L100.722 88.3832C99.4695 90.0228 98.063 91.8642 95.9026 92.1452C95.3751 92.2142 95.2427 93.1022 95.8414 93.1468C98.2875 93.3116 100.063 91.0523 101.423 89.3212L101.447 89.2909C102.97 87.4203 104.242 85.3586 105.23 83.1581C105.29 83.037 105.3 82.8969 105.257 82.7688C105.213 82.6407 105.121 82.5349 105 82.4749C104.879 82.4148 104.739 82.4053 104.61 82.4485C104.482 82.4917 104.377 82.5841 104.317 82.7052ZM110.882 77.1045C110.457 76.6649 111.136 76.0518 111.594 76.3678C112.571 77.0341 113.407 77.8863 114.054 78.8757C114.702 79.8652 115.148 80.9725 115.368 82.1344C115.507 84.294 114.876 86.433 113.587 88.1714C109.93 93.6317 104.788 97.9325 98.7666 100.567C98.7123 100.593 98.6533 100.607 98.5932 100.609C98.5331 100.61 98.4733 100.6 98.4176 100.577C98.3619 100.555 98.3114 100.521 98.2695 100.478C98.2276 100.434 98.1951 100.383 98.174 100.327C98.153 100.27 98.1439 100.21 98.1473 100.15C98.1507 100.09 98.1665 100.032 98.1938 99.9781C98.221 99.9245 98.2591 99.8772 98.3056 99.8391C98.3521 99.801 98.4061 99.773 98.464 99.7569C103.374 97.7961 113.452 90.0498 114.266 83.7324C114.621 80.9719 112.814 79.1034 111.061 77.2894L110.882 77.1045ZM98.6864 186.665C77.0878 183.573 58.8477 180.449 38.806 175.594C38.1517 175.435 37.7789 176.408 38.461 176.615C56.167 181.989 80.1915 186.305 98.4237 187.974C99.1437 188.039 99.4765 186.778 98.6864 186.665ZM20.436 149.149C83.2998 164.401 126.82 172.248 193.691 173.382L193.702 173.382C196.12 173.423 196.577 173.43 196.14 176.171C195.209 181.359 193.389 186.347 190.758 190.915C189.24 193.344 187.686 192.977 189.278 190.306C191.95 185.57 193.81 180.42 194.78 175.07C134.262 174.441 77.6801 166.112 19.8796 150.464C20.6307 161.993 29.5365 177.082 36.1166 182.877C37.807 184.366 35.7905 184.178 35.2664 183.733C26.8614 176.532 19.4945 161.319 18.2471 150.682C18.0301 148.833 18.3639 148.646 20.436 149.149ZM29.9574 163.207C28.7066 162.892 29.0794 164.084 29.6758 164.264C76.05 178.338 150.768 185.986 187.708 184.526C188.487 184.496 188.487 183.138 187.696 183.142C140.323 183.434 85.9184 177.318 29.9574 163.207ZM81.4034 60.2064C81.6448 64.3316 79.3703 72.0412 78.243 73.7449C76.9799 70.6969 73.666 63.2133 70.5368 59.5009C73.439 61.4172 79.6818 61.5963 81.4034 60.2064ZM44.7902 71.9332C47.1204 75.3629 49.2281 83.0313 49.6765 86.0025C52.8672 84.653 55.904 82.9652 58.7348 80.9681C62.3214 73.48 62.5017 66.7086 61.2453 62.2239C59.4492 62.5378 48.7562 68.1819 44.7902 71.9332ZM94.9413 80.3405C93.4836 77.2469 90.7939 64.4663 90.8384 62.2239C97.1614 63.7529 109.377 70.9395 112.113 74.7063C109.865 75.2772 103.487 81.1095 101.297 83.9182C100.652 83.5434 99.8495 83.1273 99.016 82.6953C97.5061 81.9127 95.895 81.0776 94.9413 80.3405ZM57.8783 156.012C61.3699 157.142 64.9689 157.908 68.6181 158.299C68.8262 157.545 69.1564 156.12 69.591 154.244L69.5911 154.244C71.22 147.212 74.314 133.857 77.9323 125.878C82.161 131.125 84.6492 158.301 84.2453 161.531C88.02 162.48 91.868 163.109 95.7484 163.412C96.0823 158.636 93.9312 112.089 92.9897 107.633C86.8938 109.601 72.0044 110.474 62.1838 108.624C60.9731 113.769 58.1432 148.479 57.8783 156.012ZM68.1475 35.6578C68.4324 34.486 70.7036 30.2763 73.7527 33.8183C77.2959 29.0622 93.8701 27.5087 92.1831 35.7224C90.7487 42.7208 79.3491 40.3594 75.6434 39.1899C75.3857 41.3733 74.3207 43.3814 72.6577 44.8196C72.4485 44.9943 72.0857 45.1657 71.8398 44.9732C70.7704 44.1386 69.6142 45.2758 69.5029 46.4755C69.4083 47.5315 69.928 48.6666 70.9952 48.6666C71.0713 48.6578 71.1484 48.6672 71.2201 48.694C71.2919 48.7208 71.3563 48.7642 71.4081 48.8206C71.4598 48.8771 71.4975 48.945 71.518 49.0188C71.5385 49.0926 71.5412 49.1702 71.526 49.2452C70.975 52.0123 70.7694 54.8371 70.9139 57.6548C70.9229 57.7129 70.9194 57.7723 70.9039 57.829C70.8884 57.8857 70.8611 57.9386 70.8239 57.9841C70.7866 58.0296 70.7402 58.0667 70.6877 58.0932C70.6351 58.1196 70.5776 58.1346 70.5188 58.1374C70.4601 58.1401 70.4014 58.1305 70.3466 58.1091C70.2918 58.0877 70.2422 58.055 70.2008 58.0132C70.1595 57.9713 70.1274 57.9213 70.1067 57.8662C70.0859 57.8112 70.077 57.7524 70.0805 57.6937C69.8396 54.9965 69.9447 52.2796 70.3932 49.6091C68.0685 49.1228 67.7736 45.6119 69.5029 44.2265C68.7139 42.9621 68.1873 41.5519 67.9544 40.0799C67.7216 38.6078 67.7872 37.104 68.1475 35.6578ZM79.8665 33.8195C83.7502 33.0505 86.5156 32.6443 88.7757 34.7587L88.7712 34.7564C88.8698 34.8321 88.9887 34.8765 89.1127 34.8838C89.2368 34.8912 89.3601 34.8612 89.4669 34.7977C89.5737 34.7341 89.659 34.6401 89.7117 34.5276C89.7644 34.4151 89.7822 34.2894 89.7627 34.1666C89.2776 30.9317 81.7817 31.7474 79.5872 32.8602C79.0798 33.1173 79.0386 33.983 79.8665 33.8195Z" fill="#4D4D4D"/>
</g>
<defs>
<clipPath id="clip0_1379_2483">
<rect width="217" height="217" fill="white" transform="translate(0.5)"/>
</clipPath>
</defs>
</svg>
