<svg width="300" height="182" viewBox="0 0 300 182" fill="none" xmlns="http://www.w3.org/2000/svg">
<g clip-path="url(#clip0_3655_58257)">
<path opacity="0.06" d="M110.64 175.703V135.761C111.894 134.412 112.7 132.644 112.829 130.686H112.856C113.018 130.686 113.174 130.612 113.276 130.483C113.377 130.355 113.411 130.185 113.377 130.029C111.846 123.763 110.315 117.497 108.791 111.23C107.998 107.992 105.099 105.716 101.766 105.716H92.7016C92.5458 105.716 92.4036 105.784 92.302 105.899C92.2207 105.994 92.18 106.122 92.18 106.244H86.3066C85.3446 110.173 84.3894 114.103 83.4274 118.032C83.38 118.228 83.4274 118.438 83.5494 118.594C83.6713 118.75 83.8678 118.845 84.0642 118.845H84.0981C84.2539 121.263 85.2497 123.451 86.8011 125.125V174.524C86.8011 177.918 89.5583 180.675 92.9523 180.675H105.675C108.418 180.675 110.647 178.446 110.647 175.703H110.64Z" fill="#0C0020"/>
<path opacity="0.06" d="M212.481 174.524V127.347C215.705 125.775 217.975 122.591 218.219 118.845H218.253C218.456 118.845 218.646 118.75 218.767 118.594C218.889 118.438 218.937 118.228 218.889 118.032C217.927 114.103 216.965 110.173 216.004 106.244H208.585C208.585 106.116 208.552 105.994 208.464 105.899C208.362 105.784 208.213 105.716 208.064 105.716H199.013C195.68 105.716 192.774 107.992 191.988 111.23C190.457 117.497 188.919 123.763 187.388 130.029C187.348 130.185 187.388 130.355 187.483 130.483C187.585 130.612 187.74 130.686 187.903 130.686H187.93C188.127 133.715 189.963 136.289 192.571 137.556V175.696C192.571 178.44 194.799 180.668 197.543 180.668H206.33C209.724 180.668 212.481 177.911 212.481 174.517V174.524Z" fill="#0C0020"/>
<path d="M177.47 22.383C176.176 17.4106 173.629 12.8852 170.1 9.24736C166.57 5.60948 162.167 2.99454 157.343 1.66674C152.52 0.33895 147.446 0.33895 142.623 1.66674C137.799 2.99454 133.403 5.60948 129.866 9.24736C126.33 12.8785 123.79 17.4106 122.496 22.383C121.845 24.8693 121.527 27.4232 121.527 29.9704C121.527 51.3777 149.986 67.5551 149.986 67.5551C149.986 67.5551 178.446 51.9129 178.446 29.8485C178.446 27.3419 178.114 24.8354 177.477 22.3898L177.47 22.383Z" fill="#F8004C" stroke="#120325" stroke-width="1.98"/>
<path d="M0.487732 181.062H7.81769" stroke="#120325" stroke-width="1.43" stroke-linecap="round" stroke-linejoin="round"/>
<path d="M16.0012 181.062H277.854" stroke="#120325" stroke-width="1.43" stroke-linecap="round" stroke-linejoin="round"/>
<path d="M287.176 181.062H299.512" stroke="#120325" stroke-width="1.43" stroke-linecap="round" stroke-linejoin="round"/>
<path d="M260.247 171.095C260.247 173.636 259.238 176.074 257.443 177.87C255.648 179.665 253.209 180.674 250.668 180.674H191.568V127.034H260.247V171.095Z" fill="#B7CEFF" stroke="#120325" stroke-width="1.92" stroke-linecap="round" stroke-linejoin="round"/>
<path opacity="0.11" d="M238.17 151.145C238.888 151.863 239.294 152.839 239.294 153.855V180.675H220.136V153.855C220.136 152.839 220.542 151.863 221.26 151.145C221.979 150.427 222.954 150.021 223.97 150.021H235.467C236.483 150.021 237.458 150.427 238.176 151.145H238.17Z" fill="#470050"/>
<path d="M238.17 151.145C238.888 151.863 239.294 152.839 239.294 153.855V180.675H220.136V153.855C220.136 152.839 220.542 151.863 221.26 151.145C221.979 150.427 222.954 150.021 223.97 150.021H235.467C236.483 150.021 237.458 150.427 238.176 151.145H238.17Z" stroke="#120325" stroke-width="1.92" stroke-linecap="round" stroke-linejoin="round"/>
<path d="M183.622 124.487C182.985 125.944 182.815 127.563 183.141 129.121C183.73 131.729 185.268 134.033 187.463 135.564C189.658 137.101 192.34 137.759 194.996 137.42C197.651 137.081 200.084 135.76 201.818 133.721C203.552 131.682 204.46 129.074 204.372 126.398C204.311 127.854 204.541 129.304 205.056 130.666C205.571 132.027 206.357 133.267 207.359 134.317C208.369 135.367 209.575 136.2 210.916 136.776C212.25 137.345 213.693 137.643 215.15 137.643C216.606 137.643 218.043 137.352 219.384 136.776C220.718 136.207 221.931 135.367 222.941 134.317C223.95 133.267 224.729 132.027 225.244 130.666C225.759 129.304 225.989 127.854 225.928 126.398C225.867 127.854 226.097 129.304 226.612 130.666C227.127 132.027 227.913 133.267 228.916 134.317C229.925 135.367 231.131 136.2 232.472 136.776C233.807 137.345 235.25 137.643 236.706 137.643C238.163 137.643 239.599 137.352 240.94 136.776C242.275 136.207 243.487 135.367 244.497 134.317C245.506 133.267 246.285 132.027 246.8 130.666C247.315 129.304 247.545 127.854 247.484 126.398C247.43 129.304 248.541 132.115 250.56 134.209C252.579 136.302 255.343 137.508 258.256 137.562C260.695 137.535 263.052 136.681 264.949 135.15C266.846 133.619 268.174 131.492 268.716 129.114C269.041 127.556 268.871 125.937 268.235 124.481L260.708 110.153C259.882 108.08 258.459 106.305 256.623 105.045C254.787 103.785 252.613 103.1 250.384 103.08H201.493C199.264 103.1 197.096 103.785 195.253 105.045C193.417 106.305 191.995 108.08 191.162 110.146L183.635 124.474L183.622 124.487Z" fill="#004ADC"/>
<path d="M225.921 103.094V126.411C225.86 127.868 226.091 129.318 226.606 130.679C227.12 132.041 227.906 133.281 228.909 134.331C229.918 135.381 231.124 136.214 232.465 136.79C233.807 137.359 235.243 137.657 236.699 137.657C238.156 137.657 239.592 137.366 240.934 136.79C242.268 136.221 243.481 135.381 244.49 134.331C245.5 133.281 246.279 132.041 246.793 130.679C247.308 129.318 247.539 127.868 247.478 126.411L241.848 103.094H225.928H225.921Z" fill="#EDFBFF"/>
<path d="M197.807 136.688C199.135 136.119 200.341 135.286 201.35 134.249C202.36 133.213 203.152 131.98 203.681 130.639C204.209 129.291 204.473 127.854 204.439 126.405L209.134 103.087H201.472C199.243 103.107 197.076 103.791 195.233 105.052C193.397 106.312 191.974 108.086 191.141 110.153L183.615 124.481C182.978 125.937 182.809 127.556 183.134 129.114C183.676 131.492 185.004 133.613 186.9 135.15C188.797 136.681 191.155 137.535 193.594 137.569C195.043 137.555 196.473 137.25 197.801 136.681L197.807 136.688Z" fill="#EDFBFF"/>
<path opacity="0.16" d="M268.702 126.079H183.147C182.937 127.082 182.937 128.118 183.147 129.128C183.737 131.736 185.275 134.039 187.469 135.57C189.664 137.108 192.347 137.765 195.003 137.426C197.658 137.088 200.09 135.767 201.825 133.727C203.559 131.688 204.467 129.08 204.379 126.404C204.318 127.861 204.548 129.31 205.063 130.672C205.578 132.034 206.363 133.274 207.366 134.324C208.375 135.374 209.581 136.207 210.923 136.783C212.257 137.352 213.7 137.65 215.157 137.65C216.613 137.65 218.049 137.359 219.391 136.783C220.725 136.214 221.938 135.374 222.947 134.324C223.957 133.274 224.736 132.034 225.251 130.672C225.765 129.31 225.996 127.861 225.935 126.404C225.874 127.861 226.104 129.31 226.619 130.672C227.134 132.034 227.92 133.274 228.922 134.324C229.932 135.374 231.138 136.207 232.479 136.783C233.814 137.352 235.256 137.65 236.713 137.65C238.17 137.65 239.606 137.359 240.947 136.783C242.282 136.214 243.494 135.374 244.504 134.324C245.513 133.274 246.292 132.034 246.807 130.672C247.322 129.31 247.552 127.861 247.491 126.404C247.437 129.31 248.548 132.122 250.567 134.215C252.586 136.308 255.35 137.514 258.263 137.569C260.701 137.541 263.059 136.688 264.956 135.157C266.853 133.626 268.18 131.499 268.722 129.121C268.932 128.118 268.932 127.082 268.722 126.072L268.702 126.079Z" fill="#470050"/>
<path d="M183.622 124.487C182.985 125.944 182.815 127.563 183.141 129.121C183.73 131.729 185.268 134.033 187.463 135.564C189.658 137.101 192.34 137.759 194.996 137.42C197.651 137.081 200.084 135.76 201.818 133.721C203.552 131.682 204.46 129.074 204.372 126.398C204.311 127.854 204.541 129.304 205.056 130.666C205.571 132.027 206.357 133.267 207.359 134.317C208.369 135.367 209.575 136.2 210.916 136.776C212.25 137.345 213.693 137.643 215.15 137.643C216.606 137.643 218.043 137.352 219.384 136.776C220.718 136.207 221.931 135.367 222.941 134.317C223.95 133.267 224.729 132.027 225.244 130.666C225.759 129.304 225.989 127.854 225.928 126.398C225.867 127.854 226.097 129.304 226.612 130.666C227.127 132.027 227.913 133.267 228.916 134.317C229.925 135.367 231.131 136.2 232.472 136.776C233.807 137.345 235.25 137.643 236.706 137.643C238.163 137.643 239.599 137.352 240.94 136.776C242.275 136.207 243.487 135.367 244.497 134.317C245.506 133.267 246.285 132.027 246.8 130.666C247.315 129.304 247.545 127.854 247.484 126.398C247.43 129.304 248.541 132.115 250.56 134.209C252.579 136.302 255.343 137.508 258.256 137.562C260.695 137.535 263.052 136.681 264.949 135.15C266.846 133.619 268.174 131.492 268.716 129.114C269.041 127.556 268.871 125.937 268.235 124.481L260.708 110.153C259.882 108.08 258.459 106.305 256.623 105.045C254.787 103.785 252.613 103.1 250.384 103.08H201.493C199.264 103.1 197.096 103.785 195.253 105.045C193.417 106.305 191.995 108.08 191.162 110.146L183.635 124.474L183.622 124.487Z" stroke="#120325" stroke-width="1.92" stroke-linecap="round" stroke-linejoin="round"/>
<path opacity="0.16" d="M185.261 134.48C186.765 135.936 188.655 136.939 190.714 137.359V179.713H201.825C204.873 179.713 207.8 178.5 209.954 176.346C212.108 174.192 213.321 171.265 213.321 168.216V111.297C215.617 110.857 217.785 109.882 219.641 108.459C221.498 107.03 222.995 105.187 224.011 103.08H200.754C198.512 103.1 196.33 103.785 194.474 105.045C192.618 106.305 191.182 108.08 190.328 110.153L182.666 124.481C182.03 125.937 181.867 127.563 182.206 129.114C182.693 131.153 183.757 133.01 185.261 134.473V134.48Z" fill="#470050"/>
<path d="M31.8535 127.035H100.533V180.675H41.4325C38.8921 180.675 36.4533 179.666 34.6581 177.871C32.8628 176.075 31.8535 173.637 31.8535 171.096V127.035Z" fill="#B7CEFF" stroke="#120325" stroke-width="1.92" stroke-linecap="round" stroke-linejoin="round"/>
<path opacity="0.11" d="M56.648 150.027H68.1442C69.1604 150.027 70.1359 150.434 70.854 151.152C71.5721 151.87 71.9786 152.846 71.9786 153.862V180.682H52.8204V153.862C52.8204 152.846 53.2269 151.87 53.945 151.152C54.6631 150.434 55.6386 150.027 56.6548 150.027H56.648Z" fill="#470050"/>
<path d="M56.648 150.027H68.1442C69.1604 150.027 70.1359 150.434 70.854 151.152C71.5721 151.87 71.9786 152.846 71.9786 153.862V180.682H52.8204V153.862C52.8204 152.846 53.2269 151.87 53.945 151.152C54.6631 150.434 55.6386 150.027 56.6548 150.027H56.648Z" stroke="#120325" stroke-width="1.92" stroke-linecap="round" stroke-linejoin="round"/>
<path d="M100.96 110.16C100.133 108.093 98.7106 106.312 96.8679 105.058C95.0321 103.798 92.8574 103.114 90.6286 103.094H41.7442C39.5154 103.114 37.3408 103.798 35.5049 105.058C33.669 106.318 32.2464 108.093 31.4199 110.166L23.8935 124.494C23.2567 125.951 23.0873 127.57 23.4125 129.128C23.9545 131.506 25.2822 133.633 27.1791 135.164C29.0759 136.695 31.4335 137.549 33.8723 137.576C36.7785 137.522 39.5492 136.316 41.568 134.222C43.5868 132.129 44.6911 129.318 44.6436 126.411C44.5827 127.868 44.813 129.318 45.3279 130.679C45.8427 132.041 46.6286 133.281 47.6312 134.331C48.6406 135.381 49.8464 136.214 51.1878 136.79C52.5223 137.359 53.9653 137.657 55.4218 137.657C56.8783 137.657 58.3145 137.366 59.6558 136.79C60.9904 136.221 62.203 135.381 63.2124 134.331C64.2218 133.281 65.0009 132.041 65.5157 130.679C66.0306 129.318 66.2609 127.868 66.2 126.411C66.139 127.868 66.3693 129.318 66.8842 130.679C67.399 132.041 68.1849 133.281 69.1875 134.331C70.1969 135.381 71.4027 136.214 72.7441 136.79C74.0787 137.359 75.5216 137.657 76.9781 137.657C78.4346 137.657 79.8708 137.366 81.2122 136.79C82.5467 136.221 83.7593 135.381 84.7687 134.331C85.7781 133.281 86.5572 132.041 87.0721 130.679C87.5869 129.318 87.8172 127.868 87.7563 126.411C87.6682 129.087 88.576 131.696 90.3102 133.735C92.0445 135.774 94.4765 137.088 97.1321 137.433C99.7877 137.772 102.47 137.108 104.665 135.577C106.86 134.039 108.398 131.743 108.987 129.135C109.313 127.577 109.143 125.958 108.506 124.501L100.98 110.173L100.96 110.16Z" fill="#004ADC"/>
<path d="M50.2665 103.094L44.6369 126.411C44.5759 127.868 44.8063 129.318 45.3211 130.679C45.836 132.041 46.6218 133.281 47.6244 134.331C48.6338 135.381 49.8397 136.214 51.181 136.79C52.5156 137.359 53.9586 137.657 55.4151 137.657C56.8716 137.657 58.3078 137.366 59.6491 136.79C60.9837 136.221 62.1963 135.381 63.2057 134.331C64.2151 133.281 64.9941 132.041 65.509 130.679C66.0239 129.318 66.2542 127.868 66.1932 126.411V103.094H50.2732H50.2665Z" fill="#EDFBFF"/>
<path d="M98.5073 137.576C100.946 137.542 103.304 136.695 105.2 135.157C107.097 133.626 108.425 131.499 108.967 129.121C109.292 127.563 109.123 125.944 108.486 124.487L100.96 110.16C100.133 108.093 98.7106 106.312 96.8679 105.058C95.032 103.798 92.8574 103.114 90.6286 103.094H82.9667L87.6614 126.411C87.6343 127.861 87.8918 129.297 88.4202 130.645C88.9486 131.994 89.7412 133.22 90.7506 134.256C91.76 135.293 92.9658 136.126 94.2936 136.695C95.6214 137.264 97.0508 137.569 98.5006 137.583L98.5073 137.576Z" fill="#EDFBFF"/>
<path opacity="0.16" d="M23.4057 129.128C23.9477 131.506 25.2755 133.633 27.1723 135.164C29.0692 136.695 31.4267 137.548 33.8655 137.575C36.7717 137.521 39.5425 136.315 41.5613 134.222C43.5801 132.129 44.6843 129.317 44.6369 126.411C44.5759 127.868 44.8062 129.317 45.3211 130.679C45.836 132.041 46.6218 133.28 47.6244 134.33C48.6338 135.38 49.8397 136.214 51.181 136.79C52.5156 137.359 53.9585 137.657 55.415 137.657C56.8716 137.657 58.3077 137.365 59.6491 136.79C60.9836 136.221 62.1963 135.38 63.2057 134.33C64.2151 133.28 64.9941 132.041 65.509 130.679C66.0238 129.317 66.2542 127.868 66.1932 126.411C66.1322 127.868 66.3626 129.317 66.8774 130.679C67.3923 132.041 68.1781 133.28 69.1807 134.33C70.1901 135.38 71.396 136.214 72.7373 136.79C74.0719 137.359 75.5149 137.657 76.9714 137.657C78.4279 137.657 79.8641 137.365 81.2054 136.79C82.54 136.221 83.7526 135.38 84.762 134.33C85.7714 133.28 86.5504 132.041 87.0653 130.679C87.5802 129.317 87.8105 127.868 87.7495 126.411C87.6615 129.087 88.5692 131.695 90.3035 133.734C92.0378 135.773 94.4698 137.088 97.1254 137.433C99.781 137.772 102.464 137.108 104.659 135.577C106.853 134.039 108.391 131.743 108.981 129.134C109.191 128.132 109.191 127.095 108.981 126.086H23.4057C23.1957 127.089 23.1957 128.125 23.4057 129.134V129.128Z" fill="#470050"/>
<path d="M100.96 110.16C100.133 108.093 98.7106 106.312 96.8679 105.058C95.032 103.798 92.8574 103.114 90.6286 103.094H41.7442C39.5154 103.114 37.3408 103.798 35.5049 105.058C33.669 106.318 32.2464 108.093 31.4199 110.166L23.8935 124.494C23.2567 125.951 23.0873 127.57 23.4125 129.128C23.9545 131.506 25.2822 133.633 27.1791 135.164C29.0759 136.695 31.4335 137.549 33.8723 137.576C36.7785 137.522 39.5492 136.316 41.568 134.222C43.5868 132.129 44.6911 129.318 44.6436 126.411C44.5827 127.868 44.813 129.318 45.3279 130.679C45.8427 132.041 46.6286 133.281 47.6312 134.331C48.6406 135.381 49.8464 136.214 51.1878 136.79C52.5223 137.359 53.9653 137.657 55.4218 137.657C56.8783 137.657 58.3145 137.366 59.6558 136.79C60.9904 136.221 62.203 135.381 63.2124 134.331C64.2218 133.281 65.0009 132.041 65.5157 130.679C66.0306 129.318 66.2609 127.868 66.2 126.411C66.139 127.868 66.3693 129.318 66.8842 130.679C67.399 132.041 68.1849 133.281 69.1875 134.331C70.1969 135.381 71.4027 136.214 72.7441 136.79C74.0786 137.359 75.5216 137.657 76.9781 137.657C78.4346 137.657 79.8708 137.366 81.2122 136.79C82.5467 136.221 83.7593 135.381 84.7687 134.331C85.7781 133.281 86.5572 132.041 87.0721 130.679C87.5869 129.318 87.8172 127.868 87.7563 126.411C87.6682 129.087 88.576 131.696 90.3102 133.735C92.0445 135.774 94.4765 137.088 97.1321 137.433C99.7877 137.772 102.47 137.108 104.665 135.577C106.86 134.039 108.398 131.743 108.987 129.135C109.313 127.577 109.143 125.958 108.506 124.501L100.98 110.173L100.96 110.16Z" stroke="#120325" stroke-width="1.92" stroke-linecap="round" stroke-linejoin="round"/>
<path opacity="0.16" d="M109.902 129.128C110.241 127.57 110.078 125.951 109.441 124.494L101.779 110.166C100.933 108.093 99.4896 106.318 97.6334 105.058C95.7772 103.798 93.5959 103.121 91.3535 103.094H68.0968C69.113 105.201 70.6101 107.043 72.4663 108.473C74.3225 109.902 76.4904 110.871 78.7869 111.311V168.23C78.7869 171.279 79.9995 174.205 82.1538 176.359C84.3081 178.514 87.2346 179.726 90.2831 179.726H101.393V137.372C103.446 136.952 105.336 135.95 106.847 134.493C108.351 133.037 109.414 131.174 109.902 129.135V129.128Z" fill="#470050"/>
<path d="M93.2436 105.356H197.401V171.455C197.401 173.9 196.425 176.244 194.698 177.979C192.97 179.706 190.62 180.682 188.174 180.682H102.464C100.018 180.682 97.6741 179.713 95.9398 177.979C94.2123 176.251 93.2368 173.9 93.2368 171.455V105.356H93.2436Z" fill="#F1F6FF"/>
<path opacity="0.16" d="M197.387 105.357H93.2436V131.29C93.8736 131.419 94.5172 131.486 95.1675 131.486H95.5808C102.728 131.486 107.003 126.507 108.398 119.59L108.615 118.696C107.619 125.383 113.716 131.486 120.633 131.486C123.735 131.5 126.723 130.328 128.986 128.201C131.248 126.074 132.603 123.161 132.779 120.065V118.866C132.712 120.505 132.969 122.138 133.552 123.669C134.134 125.2 135.015 126.602 136.153 127.781C137.291 128.959 138.653 129.894 140.163 130.531C141.674 131.168 143.3 131.493 144.933 131.48H145.563C148.767 131.493 151.843 130.24 154.119 127.991C156.395 125.742 157.689 122.68 157.709 119.475V118.859V120.058C157.885 123.154 159.247 126.067 161.51 128.194C163.772 130.321 166.767 131.493 169.869 131.48C176.786 131.48 182.89 125.328 181.887 118.703L182.104 119.577C183.5 126.494 187.774 131.473 194.908 131.473H195.341C195.985 131.473 196.629 131.398 197.265 131.276L197.387 105.344V105.357Z" fill="#470050"/>
<path d="M93.2436 105.356H197.401V171.455C197.401 173.9 196.425 176.244 194.698 177.979C192.97 179.706 190.62 180.682 188.174 180.682H102.464C100.018 180.682 97.6741 179.713 95.9398 177.979C94.2123 176.251 93.2368 173.9 93.2368 171.455V105.356H93.2436Z" stroke="#120325" stroke-width="1.54" stroke-linecap="round" stroke-linejoin="round"/>
<path d="M169.822 125.342C162.844 125.342 158.014 119.841 157.662 112.843L156.368 80.7656H176.962L181.806 111.86C183.161 118.838 176.901 125.342 169.815 125.342H169.822Z" fill="#EDFBFF"/>
<path d="M195.294 125.342H194.86C187.727 125.342 183.452 120.281 182.057 113.263L176.969 80.7656H190.897C192.557 80.7656 194.163 81.3144 195.49 82.3102C196.811 83.306 197.78 84.7084 198.248 86.3004L205.937 112.646C208.226 118.797 201.804 125.342 195.301 125.342H195.294Z" fill="#004ADC"/>
<path d="M120.511 125.342C113.425 125.342 107.165 118.838 108.554 111.86L113.316 80.7656H133.911L132.617 112.843C132.312 119.834 127.482 125.342 120.504 125.342H120.511Z" fill="#EDFBFF"/>
<path d="M95.4114 125.342H94.9982C88.4676 125.342 82.0522 118.791 84.3623 112.646L92.0513 86.3004C92.5187 84.7084 93.4807 83.3128 94.8085 82.3102C96.1295 81.3144 97.7418 80.7724 99.4016 80.7656H113.33L108.242 113.263C106.847 120.288 102.572 125.342 95.425 125.342H95.4114Z" fill="#004ADC"/>
<path d="M145.461 125.341H144.831C143.171 125.341 141.532 125.01 140.014 124.359C138.49 123.709 137.115 122.754 135.977 121.555C134.832 120.355 133.951 118.933 133.375 117.381C132.8 115.83 132.549 114.17 132.63 112.517L133.877 80.7588H156.382L157.614 112.517C157.703 114.164 157.452 115.817 156.876 117.368C156.307 118.919 155.426 120.335 154.288 121.534C153.15 122.733 151.788 123.689 150.271 124.346C148.754 125.003 147.121 125.341 145.468 125.341H145.461Z" fill="#004ADC"/>
<path opacity="0.16" d="M169.781 125.342C176.434 125.342 182.355 119.61 181.894 113.046H157.655C158.116 119.963 162.899 125.342 169.781 125.342Z" fill="#470050"/>
<path opacity="0.16" d="M182.063 113.263C183.459 120.288 187.734 125.342 194.867 125.342H195.301C201.662 125.342 207.874 119.19 206.059 113.046H182.036L182.07 113.263H182.063Z" fill="#470050"/>
<path opacity="0.16" d="M108.337 113.12C107.89 119.61 113.811 125.416 120.463 125.416C127.116 125.416 132.115 120.064 132.59 113.12H108.33H108.337Z" fill="#470050"/>
<path opacity="0.16" d="M84.22 113.12C82.4248 119.129 88.6302 125.416 94.9778 125.416H95.3911C102.538 125.416 106.813 120.355 108.208 113.337V113.201L84.2132 113.127L84.22 113.12Z" fill="#470050"/>
<path opacity="0.16" d="M132.623 113.12C132.61 114.726 132.915 116.318 133.524 117.808C134.127 119.298 135.022 120.653 136.153 121.791C137.284 122.936 138.626 123.844 140.109 124.467C141.593 125.091 143.178 125.409 144.79 125.416H145.42C147.026 125.416 148.618 125.091 150.102 124.467C151.585 123.844 152.927 122.936 154.058 121.791C155.189 120.646 156.077 119.292 156.68 117.801C157.282 116.311 157.587 114.719 157.567 113.113H132.637L132.623 113.12Z" fill="#470050"/>
<path d="M205.93 112.646L198.241 86.3004C197.773 84.7084 196.811 83.3128 195.484 82.3102C194.156 81.3144 192.55 80.7724 190.891 80.7656H99.3813C97.7215 80.7656 96.1092 81.3144 94.7882 82.3102C93.4672 83.306 92.4984 84.7084 92.031 86.3004L84.342 112.646C82.0386 118.797 88.4473 125.342 94.9779 125.342H95.3911C102.538 125.342 106.813 120.281 108.208 113.263L108.425 112.355C107.429 119.136 113.526 125.342 120.443 125.342C123.559 125.342 126.56 124.149 128.823 122.002C131.086 119.854 132.441 116.928 132.603 113.811V112.599C132.515 114.252 132.766 115.898 133.342 117.449C133.911 119.001 134.798 120.417 135.929 121.616C137.068 122.815 138.436 123.77 139.953 124.42C141.471 125.071 143.104 125.409 144.757 125.416H145.387C146.985 125.416 148.571 125.091 150.041 124.474C151.517 123.858 152.859 122.957 153.983 121.826C155.108 120.694 156.002 119.346 156.612 117.869C157.222 116.392 157.533 114.807 157.526 113.208V112.592V113.805C157.696 116.934 159.064 119.881 161.347 122.029C163.63 124.176 166.658 125.362 169.788 125.335C176.705 125.335 182.809 119.184 181.806 112.348L182.023 113.256C183.418 120.281 187.693 125.335 194.827 125.335H195.26C201.764 125.335 208.186 118.784 205.896 112.639L205.93 112.646Z" stroke="#120325" stroke-width="1.54" stroke-linecap="round" stroke-linejoin="round"/>
<path d="M159.125 137.637H174.402C176.034 137.637 177.599 138.287 178.751 139.439C179.902 140.59 180.553 142.155 180.553 143.788V180.682H152.974V143.788C152.974 142.155 153.624 140.59 154.776 139.439C155.928 138.287 157.493 137.637 159.125 137.637Z" fill="#B7CEFF" stroke="#120325" stroke-width="1.54" stroke-linecap="round" stroke-linejoin="round"/>
<path d="M129.981 138.409H111.643C108.249 138.409 105.492 141.16 105.492 144.56V159.932C105.492 163.326 108.242 166.083 111.643 166.083H129.981C133.375 166.083 136.133 163.332 136.133 159.932V144.56C136.133 141.166 133.382 138.409 129.981 138.409Z" fill="#B7CEFF" stroke="#120325" stroke-width="1.54" stroke-linecap="round" stroke-linejoin="round"/>
<path d="M155.663 18.8602H155.399L154.187 18.8467H140.285C140.069 18.8467 139.886 19.0228 139.886 19.2464V21.4481C139.886 23.8666 141.593 25.1943 144.689 25.1943L155.657 25.2147C156.815 25.2147 157.757 26.1563 157.757 27.3147C157.757 28.4732 156.815 29.4148 155.657 29.4148H143.354C143.178 29.4148 143.016 29.5368 142.975 29.7129L140.062 41.2092C140.035 41.3243 140.062 41.453 140.136 41.5479C140.211 41.6427 140.326 41.6969 140.448 41.6969H144.35C145.813 41.6969 146.511 40.4843 146.681 39.8475L147.832 35.6677H155.67C160.304 35.6677 164.077 31.8943 164.077 27.2606C164.077 22.6268 160.311 18.8535 155.67 18.8535" fill="white"/>
</g>
<defs>
<clipPath id="clip0_3655_58257">
<rect width="300" height="181.542" fill="white"/>
</clipPath>
</defs>
</svg>
