<svg width="300" height="176" viewBox="0 0 300 176" fill="none" xmlns="http://www.w3.org/2000/svg">
<g clip-path="url(#clip0_3674_21720)">
<path d="M137.9 175.158H113.708C110.142 175.158 106.723 173.744 104.202 171.223C101.681 168.702 100.267 165.283 100.267 161.717V13.8935C100.267 10.328 101.681 6.90871 104.202 4.38776C106.723 1.86681 110.142 0.453125 113.708 0.453125H137.9V175.158Z" fill="#6C98F1" stroke="#120325" stroke-width="1.31" stroke-linecap="round" stroke-linejoin="round"/>
<path d="M124.467 175.158H186.286C193.709 175.158 199.726 169.141 199.726 161.717V13.8935C199.726 6.46998 193.709 0.453125 186.286 0.453125H124.467C117.043 0.453125 111.026 6.46998 111.026 13.8935V161.717C111.026 169.141 117.043 175.158 124.467 175.158Z" fill="#DEE9FF" stroke="#120325" stroke-width="1.31" stroke-linecap="round" stroke-linejoin="round"/>
<path d="M117.746 150.971H193.006C195.234 150.971 197.038 149.168 197.038 146.939V24.6454C197.038 22.4169 195.234 20.6133 193.006 20.6133H117.746C115.518 20.6133 113.714 22.4169 113.714 24.6454V146.939C113.714 149.168 115.518 150.971 117.746 150.971Z" fill="white"/>
<path d="M118.415 20.6133H192.33" stroke="#004ADD" stroke-width="1.31" stroke-linecap="round"/>
<path d="M118.415 150.972H192.33" stroke="#004ADD" stroke-width="1.31" stroke-linecap="round"/>
<path d="M159.739 8.52441H144.955C143.84 8.52441 142.942 9.42973 142.942 10.537C142.942 11.6443 143.847 12.5496 144.955 12.5496H159.739C160.853 12.5496 161.752 11.6443 161.752 10.537C161.752 9.42973 160.846 8.52441 159.739 8.52441Z" fill="#004ADD"/>
<path d="M171.167 12.5496C172.281 12.5496 173.18 11.6443 173.18 10.537C173.18 9.42973 172.274 8.52441 171.167 8.52441C170.06 8.52441 169.155 9.42973 169.155 10.537C169.155 11.6443 170.06 12.5496 171.167 12.5496Z" fill="#004ADD"/>
<path d="M106.994 32.0415V26.6653C106.994 25.9202 106.395 25.3213 105.65 25.3213C104.905 25.3213 104.306 25.9202 104.306 26.6653V32.0415C104.306 32.7866 104.905 33.3855 105.65 33.3855C106.395 33.3855 106.994 32.7866 106.994 32.0415Z" fill="#0038A5"/>
<path d="M106.994 62.9479V52.1956C106.994 51.4505 106.395 50.8516 105.65 50.8516C104.905 50.8516 104.306 51.4505 104.306 52.1956V62.9479C104.306 63.6931 104.905 64.292 105.65 64.292C106.395 64.292 106.994 63.6931 106.994 62.9479Z" fill="#0038A5"/>
<path d="M106.994 81.7644V71.012C106.994 70.2669 106.395 69.668 105.65 69.668C104.905 69.668 104.306 70.2669 104.306 71.012V81.7644C104.306 82.5095 104.905 83.1084 105.65 83.1084C106.395 83.1084 106.994 82.5095 106.994 81.7644Z" fill="#0038A5"/>
<path d="M155.373 167.769C158.339 167.769 160.749 165.359 160.749 162.393C160.749 159.426 158.339 157.017 155.373 157.017C152.406 157.017 149.997 159.426 149.997 162.393C149.997 165.359 152.406 167.769 155.373 167.769Z" stroke="#004ADD" stroke-width="1.31" stroke-linecap="round" stroke-linejoin="round"/>
<mask id="mask0_3674_21720" style="mask-type:luminance" maskUnits="userSpaceOnUse" x="128" y="61" width="55" height="54">
<path d="M182.094 61.3594H128.583V114.87H182.094V61.3594Z" fill="white"/>
</mask>
<g mask="url(#mask0_3674_21720)">
<path opacity="0.11" d="M153.555 113.088C165.38 113.088 174.962 103.505 174.962 91.6806C174.962 79.8558 165.38 70.2734 153.555 70.2734C141.73 70.2734 132.148 79.8558 132.148 91.6806C132.148 103.505 141.73 113.088 153.555 113.088Z" fill="#470050"/>
<path d="M158.904 107.739C170.728 107.739 180.311 98.1568 180.311 86.332C180.311 74.5072 170.728 64.9248 158.904 64.9248C147.079 64.9248 137.496 74.5072 137.496 86.332C137.496 98.1568 147.079 107.739 158.904 107.739Z" fill="#00F9BB" stroke="#120325" stroke-width="2.56" stroke-linecap="round" stroke-linejoin="round"/>
<path d="M169.238 78.8389L156.933 91.1442L151.257 85.4685" stroke="#120325" stroke-width="2.56" stroke-linecap="round" stroke-linejoin="round"/>
</g>
<path d="M0.487549 175.158H7.82059" stroke="#120325" stroke-width="1.39" stroke-linecap="round" stroke-linejoin="round"/>
<path d="M15.9963 175.158H277.841" stroke="#120325" stroke-width="1.39" stroke-linecap="round" stroke-linejoin="round"/>
<path d="M287.172 175.158H299.512" stroke="#120325" stroke-width="1.39" stroke-linecap="round" stroke-linejoin="round"/>
</g>
<defs>
<clipPath id="clip0_3674_21720">
<rect width="300" height="175.645" fill="white"/>
</clipPath>
</defs>
</svg>
