<?xml version="1.0" encoding="UTF-8" standalone="no"?>
<svg
   width="36.666668"
   height="24.666668"
   viewBox="0 0 36.666668 24.666668"
   fill="none"
   version="1.1"
   id="svg1"
   sodipodi:docname="MASTERCARD.svg"
   inkscape:version="1.3.2 (091e20ef0f, 2023-11-25)"
   xml:space="preserve"
   xmlns:inkscape="http://www.inkscape.org/namespaces/inkscape"
   xmlns:sodipodi="http://sodipodi.sourceforge.net/DTD/sodipodi-0.dtd"
   xmlns="http://www.w3.org/2000/svg"
   xmlns:svg="http://www.w3.org/2000/svg"><defs
     id="defs1" /><sodipodi:namedview
     id="namedview1"
     pagecolor="#505050"
     bordercolor="#eeeeee"
     borderopacity="1"
     inkscape:showpageshadow="0"
     inkscape:pageopacity="0"
     inkscape:pagecheckerboard="0"
     inkscape:deskcolor="#505050"
     inkscape:zoom="22.627417"
     inkscape:cx="16.175068"
     inkscape:cy="14.429398"
     inkscape:window-width="1920"
     inkscape:window-height="1011"
     inkscape:window-x="0"
     inkscape:window-y="0"
     inkscape:window-maximized="1"
     inkscape:current-layer="svg1" /><rect
     width="36"
     height="24"
     rx="4"
     fill="#0000CC"
     id="rect1"
     inkscape:label="rect1"
     style="fill:#e5e5e5;fill-opacity:1;stroke:#b2b2b2;stroke-width:0.6;stroke-linecap:butt;stroke-linejoin:round;stroke-miterlimit:3;stroke-dasharray:none;stroke-dashoffset:0;stroke-opacity:1;paint-order:markers stroke fill"
     x="0.33333349"
     y="0.33333349" /><g
     id="g135"><path
       d="M 13.193359,4.3066406 C 11.271052,4.3490454 9.4238219,5.0778659 7.9863281,6.3789062 6.5437677,7.6845323 5.6293584,9.4521421 5.3984375,11.380859 c -0.041357,0.345418 -0.052734,0.562876 -0.052734,0.953125 0,0.408322 0.010961,0.613252 0.058594,1 0.3983697,3.234505 2.7443288,5.921237 5.9003911,6.759766 0.568366,0.151009 1.009221,0.219315 1.716796,0.265625 0.153125,0.01003 0.839321,-0.0038 1.035157,-0.02148 1.175758,-0.106192 2.27799,-0.45085 3.292968,-1.027344 0.297402,-0.168919 0.668284,-0.413499 0.904297,-0.597656 0.03925,-0.03062 0.07613,-0.05664 0.08203,-0.05664 0.0059,0 0.08375,0.05328 0.171875,0.119141 0.08813,0.06586 0.253963,0.182062 0.369141,0.257812 1.245905,0.819378 2.655486,1.268943 4.142578,1.320313 0.932974,0.03223 1.864386,-0.09738 2.738281,-0.38086 2.768813,-0.898146 4.837141,-3.212671 5.402344,-6.048828 0.110455,-0.554242 0.145397,-0.878106 0.154297,-1.455078 0.01092,-0.707497 -0.03979,-1.226713 -0.183594,-1.876953 -0.730885,-3.3049424 -3.465366,-5.7948493 -6.833984,-6.2246095 -0.622876,-0.079465 -1.379076,-0.079465 -2.001953,0 -1.386576,0.176896 -2.707353,0.7092084 -3.808594,1.5371094 -0.07828,0.058849 -0.149403,0.1049425 -0.158203,0.1015625 -0.0088,-0.00338 -0.07713,-0.051528 -0.152344,-0.1074219 C 16.955639,4.9916805 15.525387,4.4511246 14.021484,4.3300781 13.744766,4.3078056 13.467975,4.3005828 13.193359,4.3066406 Z M 30.535156,16.992187 c -0.06155,-1.66e-4 -0.123541,0.0075 -0.128906,0.02148 -0.0096,0.02501 -6.56e-4,0.03232 0.05273,0.04102 l 0.04492,0.0059 0.0039,0.125 c 0.003,0.109641 0.0052,0.12264 0.02344,0.11914 0.01758,-0.0034 0.02249,-0.02171 0.02539,-0.126953 l 0.002,-0.123047 h 0.03906 c 0.04918,-2.39e-4 0.07395,-0.01633 0.06445,-0.04102 -0.0054,-0.014 -0.06541,-0.02132 -0.126953,-0.02148 z m 0.478516,0.0059 c -0.023,0.0058 -0.03663,0.02734 -0.06445,0.0957 -0.02084,0.05121 -0.04271,0.08789 -0.05273,0.08789 -0.01004,0 -0.03204,-0.03675 -0.05273,-0.08789 C 30.81698,17.02757 30.80241,17.0053 30.78125,17 c -0.01539,-0.0039 -0.03402,-0.0043 -0.04102,0 -0.0078,0.0048 -0.01367,0.06592 -0.01367,0.158203 10e-7,0.141843 0.0026,0.150391 0.02539,0.150391 0.02147,0 0.02327,-0.009 0.02344,-0.07617 2.8e-4,-0.11369 0.0157,-0.124643 0.05664,-0.03906 0.02724,0.05693 0.03973,0.07327 0.06445,0.07617 0.02759,0.0032 0.03443,-0.0056 0.0625,-0.07031 0.01739,-0.04009 0.03812,-0.07227 0.04492,-0.07227 0.0073,0 0.01172,0.03399 0.01172,0.08398 0,0.06654 0.0044,0.08795 0.01953,0.09375 0.03176,0.01217 0.04082,-0.02092 0.04102,-0.148437 2.1e-4,-0.137286 -0.01349,-0.170503 -0.0625,-0.158203 z"
       style="fill:#f69d1a"
       id="path138" /><path
       style="fill:#fd5e00"
       d="M 12.883264,20.341656 C 11.080391,20.229731 9.3630255,19.511205 8.0173447,18.305814 7.8286117,18.136756 7.467608,17.77084 7.3177674,17.596716 6.2819089,16.392986 5.6348789,14.961822 5.4228175,13.405281 5.3723865,13.035115 5.3565563,12.77902 5.3565563,12.333333 c 0,-0.718484 0.064768,-1.252456 0.2352074,-1.93914 0.41418,-1.6686921 1.3575869,-3.1631565 2.6849281,-4.2532337 2.4587822,-2.0192716 5.8711952,-2.3983385 8.7076742,-0.9672895 0.400042,0.2018278 0.840916,0.4742016 1.180395,0.7292523 0.08283,0.062231 0.16684,0.1235571 0.186687,0.1362794 0.05775,0.037017 0.29987,0.2424088 0.45723,0.3878648 0.973846,0.9001792 1.704891,2.0107261 2.135749,3.2444651 0.590492,1.6908416 0.606374,3.4956236 0.04563,5.1850946 -0.140203,0.42242 -0.257455,0.703203 -0.465238,1.114102 -0.949159,1.877008 -2.611365,3.305978 -4.623717,3.97493 -0.669858,0.222677 -1.334631,0.350398 -2.066129,0.396961 -0.219369,0.01396 -0.719424,0.01346 -0.951709,-9.63e-4 z"
       id="path136" /><path
       style="fill:#ea001a"
       d="m 13.033818,20.346515 c -0.181034,-0.0072 -0.553209,-0.04181 -0.764816,-0.07121 C 9.7239072,19.921685 7.5083243,18.374921 6.2975023,16.106419 5.4252487,14.472233 5.1471454,12.57781 5.5122758,10.757504 5.9566041,8.5423669 7.3100539,6.623678 9.2492572,5.4598524 11.354016,4.1966678 13.919953,3.9694758 16.226457,4.8420805 c 0.541196,0.2047472 1.146309,0.5191856 1.631125,0.8475909 0.239574,0.162283 0.451663,0.3218947 0.451663,0.3399075 0,0.00799 -0.03656,0.043449 -0.08124,0.078798 -0.138186,0.1093239 -0.363042,0.309593 -0.531704,0.4735631 -2.166915,2.1066353 -2.964407,5.2506961 -2.065925,8.1447701 0.295432,0.951608 0.780245,1.859718 1.41291,2.646543 0.31066,0.386357 0.752352,0.832332 1.145512,1.156618 0.06293,0.05191 0.116071,0.101127 0.118087,0.109376 0.002,0.0082 -0.0576,0.06069 -0.132488,0.116529 -1.172498,0.874351 -2.540589,1.406287 -4.002391,1.556193 -0.348758,0.03576 -0.777937,0.04879 -1.138191,0.03455 z"
       id="path135" /></g></svg>
