<svg width="155" height="20" viewBox="0 0 155 20" fill="none" xmlns="http://www.w3.org/2000/svg">
<path d="M94.968 0.682452C95.0482 0.285449 95.3971 0 95.8022 0H154.09C154.628 0 155.031 0.492566 154.924 1.01968L151.226 19.3175C151.146 19.7146 150.797 20 150.392 20H101.726C96.2143 20 92.0839 14.9512 93.1759 9.54831L94.968 0.682452Z" fill="#FA0050"/>
<path d="M104.519 3.82812C106.663 3.82812 108.008 5.0877 108.008 6.85791C108.008 9.15578 106.136 10.6877 103.565 10.6877H101.523L101.046 14.0409H98.5781L100.008 3.82812H104.519ZM105.438 7.07919C105.438 6.33025 104.876 5.95578 104.059 5.95578H102.187L101.812 8.59408H103.702C104.655 8.59408 105.438 8.06642 105.438 7.07919Z" fill="#F9F9F9"/>
<path d="M114.315 14.0409H112.63L112.409 13.1728H112.341C111.898 13.7856 111.15 14.2111 109.958 14.2111C108.511 14.2111 107.694 13.3771 107.694 12.2537C107.694 10.6196 108.886 9.59834 111.303 9.59834C111.83 9.59834 112.239 9.66642 112.562 9.75153L112.596 9.53025C112.698 8.83238 112.137 8.62812 111.167 8.62812C110.179 8.62812 109.311 9.10472 109.311 9.10472L108.801 7.36855C108.801 7.36855 109.941 6.72174 111.967 6.72174C114.111 6.72174 115.167 7.89621 114.928 9.63238L114.315 14.0409ZM112.375 10.9941C112.256 10.943 112.001 10.8409 111.439 10.8409C110.571 10.8409 110.026 11.2324 110.026 11.8622C110.026 12.3217 110.384 12.6111 110.894 12.6111C111.575 12.6111 112.222 12.1856 112.307 11.5217L112.375 10.9941Z" fill="#F9F9F9"/>
<path d="M120.915 8.96855H120.541C119.638 8.96855 118.958 9.56429 118.821 10.5856L118.328 14.0409H115.877L116.881 6.89195H118.362L118.617 7.86217H118.719C119.213 7.19834 119.877 6.89195 120.83 6.89195H121.204L120.915 8.96855Z" fill="#F9F9F9"/>
<path d="M122.845 6.89195L123.152 4.71323H125.603L125.296 6.89195H126.896L126.624 8.78132H125.024L124.65 11.4877C124.599 11.8792 124.752 12.1175 125.194 12.1175C125.552 12.1175 125.858 11.9132 125.858 11.9132L126.284 13.5813C125.807 13.9217 124.973 14.2111 124.224 14.2111C122.471 14.2111 121.977 13.0877 122.182 11.6068L122.573 8.78132H121.399L121.671 6.89195H122.845Z" fill="#F9F9F9"/>
<path d="M128.251 6.89195H129.732L129.987 7.86217H130.106C130.804 7.04515 131.434 6.70472 132.523 6.70472C134.344 6.70472 135.332 7.91323 135.059 9.83664L134.463 14.0409H132.012L132.574 10.0239C132.659 9.37706 132.302 8.86642 131.587 8.86642C130.923 8.86642 130.395 9.326 130.276 9.93876L129.698 14.0409H127.246L128.251 6.89195Z" fill="#F9F9F9"/>
<path d="M142.423 13.3771C142.423 13.3771 141.384 14.2622 139.529 14.2622C137.299 14.2622 136.091 12.8154 136.091 10.9771C136.091 8.57706 137.946 6.72174 140.312 6.72174C142.167 6.72174 143.257 7.84515 143.257 9.70047C143.257 10.3132 143.104 10.96 143.104 10.96H138.44C138.423 11.9303 138.95 12.3388 139.972 12.3388C141.01 12.3388 141.81 11.7941 141.81 11.7941L142.423 13.3771ZM139.989 8.49195C139.41 8.49195 138.916 8.86642 138.644 9.63238H140.942C141.01 8.95153 140.686 8.49195 139.989 8.49195Z" fill="#F9F9F9"/>
<path d="M148.924 8.96855H148.549C147.647 8.96855 146.966 9.56429 146.83 10.5856L146.336 14.0409H143.885L144.89 6.89195H146.371L146.626 7.86217H146.728C147.222 7.19834 147.885 6.89195 148.839 6.89195H149.213L148.924 8.96855Z" fill="#F9F9F9"/>
<path fill-rule="evenodd" clip-rule="evenodd" d="M39.2499 2.03823C39.2652 1.1606 38.7193 0.636719 37.7899 0.636719C36.7286 0.636719 35.9441 1.43587 35.9248 2.53722C35.9096 3.41485 36.4554 3.93903 37.3852 3.93903C38.4467 3.93903 39.2309 3.13959 39.2499 2.03823ZM7.48298 1.00659C10.2933 1.00659 11.971 2.46755 11.971 4.91419C11.971 7.70609 9.9548 9.44056 6.7093 9.44056C6.7093 9.44056 3.98827 9.4224 3.88197 9.4224C3.88032 9.43053 3.87106 9.47943 3.85567 9.56072L3.8555 9.56162L3.85548 9.56172L3.85545 9.56189L3.85544 9.56191L3.85544 9.56196L3.85543 9.56199C3.7535 10.1004 3.38516 12.0462 3.17272 12.9915C3.02338 13.6545 2.36948 13.6463 2.36948 13.6463L1.17148 13.6545H0.216253C0.153 13.6545 0.0932618 13.6261 0.0531433 13.5775C0.0136104 13.5288 -0.00893794 13.4647 0.00336114 13.4029L2.44971 1.17761C2.46904 1.07804 2.55601 1.00659 2.65733 1.00659H7.48298ZM34.3445 1.00659C34.4063 1.00659 34.4648 1.03441 34.5041 1.08185C34.5433 1.12958 34.5591 1.19225 34.5474 1.25257L32.0806 13.5567C32.0618 13.6539 31.9766 13.7236 31.8776 13.7236L29.5543 13.7253C29.4934 13.7253 29.4351 13.6981 29.3958 13.6515C29.3569 13.605 29.3393 13.5432 29.3507 13.4832C29.402 13.2137 29.4477 12.9801 29.496 12.7578C28.7686 13.5643 27.7946 14.0079 26.6848 14.0079C24.3746 14.0079 22.8223 12.2729 22.8223 9.69093C22.8223 6.5529 24.8768 4.27522 27.7079 4.27522C29.1299 4.27522 30.2735 4.90951 30.8589 5.94C30.9151 5.62959 31.8138 1.17409 31.8138 1.17409C31.8328 1.07717 31.918 1.00659 32.017 1.00659H34.3445ZM50.8579 1.08185C50.819 1.03441 50.7604 1.00659 50.6986 1.00659H48.3712C48.2722 1.00659 48.187 1.07717 48.1682 1.17409C48.1682 1.17409 47.2692 5.62959 47.213 5.94C46.6276 4.90951 45.4841 4.27522 44.0621 4.27522C41.231 4.27522 39.1764 6.5529 39.1764 9.69093C39.1764 12.2729 40.7285 14.0079 43.0389 14.0079C44.1488 14.0079 45.1228 13.5643 45.8505 12.7578C45.8018 12.9801 45.7559 13.2137 45.7049 13.4832C45.6935 13.5432 45.7111 13.605 45.7503 13.6515C45.7895 13.6981 45.8475 13.7253 45.9084 13.7253L48.2318 13.7236C48.3308 13.7236 48.4157 13.6539 48.435 13.5567L50.9019 1.25257C50.9136 1.19225 50.8975 1.12958 50.8579 1.08185ZM80.8575 1.37187C80.8195 1.29602 80.7419 1.24829 80.6572 1.24829H77.3684C77.294 1.24829 77.224 1.28548 77.1822 1.34756C77.1822 1.34756 73.917 5.97818 73.6889 6.42153C73.6271 6.0016 72.0236 1.41755 72.0236 1.41755C71.9955 1.32179 71.9079 1.2559 71.808 1.2559H68.9303C68.8574 1.2559 68.7898 1.29163 68.7473 1.35049C68.7051 1.40994 68.6946 1.48607 68.7189 1.5543L71.77 9.28312L70.8546 13.7743C70.842 13.8399 70.8592 13.9082 70.902 13.9594C70.9442 14.0112 71.0077 14.0411 71.0751 14.0411H73.4028C73.7082 14.0411 73.9706 13.8247 74.0295 13.5251L74.8433 9.35867L80.8376 1.60614C80.888 1.5382 80.8956 1.44742 80.8575 1.37187ZM85.0806 5.71145C84.5678 5.09006 83.7666 4.70908 82.9739 4.65988C82.9014 4.65537 82.8291 4.65248 82.7571 4.65118C82.1085 4.63951 81.4779 4.75719 80.8673 4.98991C78.6353 5.83972 77.1488 8.03394 77.1731 10.4396C77.1942 12.5331 78.5621 13.9366 80.6465 14.035C81.7669 14.0877 82.7417 13.753 83.6281 12.9987C83.5819 13.2224 83.5233 13.5158 83.4852 13.7191C83.4738 13.7776 83.4908 13.8377 83.5292 13.883C83.5672 13.9284 83.6237 13.9548 83.6832 13.9548L85.9468 13.9533C86.0431 13.9533 86.126 13.8854 86.1445 13.7905L87.8863 5.04203C87.8977 4.98288 87.8819 4.92197 87.8438 4.8757C87.8057 4.82914 87.7486 4.8022 87.6886 4.8022H85.4212C85.3248 4.8022 85.2419 4.87072 85.2232 4.96531C85.2232 4.96531 85.1374 5.39841 85.0826 5.70062L85.0806 5.71145ZM55.9681 4.27563C58.7861 4.27563 60.6069 5.99224 60.6069 8.64914C60.6069 11.7544 58.3134 14.008 55.1537 14.008C52.3352 14.008 50.5143 12.2914 50.5143 9.63453C50.5143 6.5293 52.8078 4.27563 55.9681 4.27563ZM21.7716 8.05224C21.7716 5.71687 20.1463 4.26587 17.5301 4.26587C14.4252 4.26587 12.1712 6.52715 12.1712 9.64351C12.1712 12.3297 13.978 13.9983 16.8862 13.9983C18.2039 13.9983 19.2936 13.6603 20.4418 12.894C20.5449 12.8255 20.5604 12.6767 20.4743 12.588L19.045 11.1109C18.9838 11.0474 18.8871 11.0354 18.8092 11.0766C18.184 11.4093 17.5943 11.5584 16.943 11.5584C15.6109 11.5584 14.8369 10.949 14.8199 9.88978L21.3379 9.8687C21.4345 9.8687 21.5185 9.80193 21.5393 9.70735C21.6863 9.04495 21.7716 8.56148 21.7716 8.05224ZM64.6826 4.2881C65.8241 4.18795 67.0692 4.42749 68.2822 4.98124C68.3849 5.0278 68.4306 5.14845 68.3849 5.25123L67.5802 7.0595C67.5574 7.11045 67.5155 7.14969 67.4631 7.16872C67.4118 7.18805 67.3536 7.18542 67.3041 7.1614C66.4877 6.77105 65.6554 6.57895 65.0206 6.63459C64.3817 6.6908 64.4076 6.98819 64.4161 7.08578V7.08585C64.4317 7.26126 64.4665 7.35438 65.1356 7.72043L66.2757 8.29644C67.4991 8.9149 68.0382 9.62386 68.1366 10.7448C68.2994 12.6017 67.1158 13.7789 64.8897 13.9742C63.4038 14.1043 61.9534 13.7192 60.6951 12.86C60.6072 12.7997 60.5794 12.6822 60.6321 12.5891L61.6462 10.8005C61.6737 10.7519 61.7197 10.7167 61.7739 10.703C61.826 10.6898 61.8855 10.6977 61.9326 10.727C62.964 11.3636 63.9274 11.6632 64.7186 11.5938C64.9784 11.5712 65.4089 11.4766 65.3761 11.1003C65.3614 10.9358 65.3131 10.8075 64.7962 10.5302L63.5309 9.86779C62.3839 9.25957 61.7821 8.45252 61.6895 7.40065C61.5367 5.65593 62.6837 4.46321 64.6826 4.2881ZM38.321 5.34601C38.2806 5.30209 38.22 5.27661 38.1564 5.27661H35.7525L35.7098 5.28046C35.6267 5.2956 35.5599 5.35405 35.5429 5.43035L33.9165 13.4962L33.9128 13.5383C33.9143 13.5802 33.9313 13.621 33.9618 13.6538C34.002 13.6977 34.0626 13.7232 34.1261 13.7232H36.5303L36.5731 13.7193C36.6562 13.7042 36.7232 13.6459 36.74 13.5691L38.3658 5.50327L38.3695 5.4614C38.368 5.41964 38.3511 5.37896 38.321 5.34601ZM81.8042 7.38765C82.0871 7.25529 82.3928 7.18823 82.7132 7.18823C82.9937 7.18823 83.2491 7.24065 83.4731 7.3449C83.6951 7.44798 83.8819 7.59557 84.028 7.78298C84.1744 7.97157 84.2772 8.20174 84.3332 8.46734C84.3897 8.73763 84.3897 9.04598 84.3337 9.38157C84.2787 9.69784 84.1774 9.99301 84.0339 10.258C83.8901 10.523 83.7121 10.7561 83.5036 10.9515C83.298 11.1447 83.0608 11.2979 82.799 11.4068C82.3094 11.6106 81.7026 11.6229 81.2569 11.4411C81.0496 11.3562 80.8698 11.2329 80.7222 11.0745C80.5749 10.9163 80.463 10.721 80.3898 10.4952C80.3152 10.2651 80.285 10.0038 80.2999 9.71921C80.3178 9.37513 80.3942 9.0451 80.5266 8.73792C80.6584 8.43132 80.8346 8.16015 81.0505 7.93145C81.2642 7.70509 81.5178 7.52207 81.8042 7.38765ZM44.733 6.83911C44.3974 6.83911 44.077 6.90968 43.7804 7.04849C43.4805 7.18934 43.2146 7.38086 42.9909 7.61835C42.7645 7.85759 42.5801 8.14194 42.4418 8.46289C42.303 8.78471 42.2234 9.13085 42.2044 9.49133C42.1888 9.78973 42.2205 10.0629 42.2986 10.3042C42.3751 10.5411 42.4925 10.7455 42.6468 10.9116C42.8014 11.0773 42.99 11.2065 43.2073 11.2952C43.6741 11.4861 44.3098 11.4732 44.8229 11.2595C45.0973 11.1453 45.3456 10.9851 45.5611 10.7824C45.7793 10.5777 45.9661 10.3335 46.1166 10.0559C46.2672 9.77831 46.3732 9.46907 46.4311 9.13758C46.49 8.78559 46.4897 8.46259 46.4303 8.17971C46.3717 7.90093 46.2642 7.65993 46.1105 7.46227C45.9579 7.26607 45.762 7.11174 45.5292 7.00339C45.2947 6.89446 45.0267 6.83911 44.733 6.83911ZM27.3857 7.04849C27.6821 6.90968 28.0027 6.83911 28.338 6.83911C28.632 6.83911 28.8997 6.89446 29.1343 7.00339C29.3674 7.11174 29.563 7.26607 29.7158 7.46227C29.8696 7.65993 29.977 7.90093 30.0356 8.17971C30.095 8.46259 30.095 8.78559 30.0365 9.13758C29.9785 9.46907 29.8725 9.77831 29.722 10.0559C29.5715 10.3335 29.3846 10.5777 29.1665 10.7824C28.9509 10.9851 28.7026 11.1453 28.4282 11.2595C27.9152 11.4732 27.2794 11.4861 26.8124 11.2952C26.5954 11.2065 26.4065 11.0773 26.2522 10.9116C26.0978 10.7455 25.9804 10.5411 25.904 10.3042C25.8255 10.0629 25.7942 9.78973 25.8094 9.49133C25.8284 9.13085 25.9084 8.78471 26.0472 8.46289C26.1854 8.14194 26.3699 7.85759 26.5962 7.61835C26.82 7.38086 27.0856 7.18934 27.3857 7.04849ZM55.7845 7.01978C54.4211 7.01978 53.431 8.04704 53.431 9.46203C53.431 10.5894 54.1443 11.2627 55.3391 11.2627C56.7025 11.2627 57.692 10.2354 57.692 8.82042C57.692 7.69301 56.979 7.01978 55.7845 7.01978ZM15.1107 7.87185C15.5409 6.84107 16.3172 6.30811 17.4733 6.30811C18.6499 6.30811 19.2408 6.8437 19.2774 7.88122C19.186 7.88122 18.2277 7.87896 17.2523 7.87666L17.2506 7.87666L17.2498 7.87665C16.2398 7.87427 15.2124 7.87185 15.1107 7.87185ZM5.04756 3.61523C5.02765 3.74145 4.42441 6.73247 4.40918 6.80539C4.48122 6.80539 6.80663 6.79338 6.80663 6.79338C8.1484 6.79338 8.91797 6.1509 8.91797 5.03051C8.91797 4.13092 8.33347 3.63544 7.27136 3.63544C7.27136 3.63544 5.1647 3.62051 5.04756 3.61523Z" fill="#FA0050"/>
</svg>
