<svg width="136" height="31" viewBox="0 0 136 31" fill="none" xmlns="http://www.w3.org/2000/svg">
<path fill-rule="evenodd" clip-rule="evenodd" d="M19.2276 0L20.8546 0.0160885H21.2136C27.4463 0.0160885 32.5169 5.06498 32.5169 11.2716C32.5169 17.4782 27.4463 22.5271 21.2136 22.5271H10.6764L9.13152 28.1233C8.9092 28.9754 7.965 30.6 5.99968 30.6H0.753878C0.59134 30.6 0.43785 30.525 0.338001 30.3976C0.238152 30.2699 0.20293 30.1035 0.243322 29.9468L4.15748 14.5517C4.21629 14.3188 4.42697 14.1556 4.66803 14.1556H21.2136C22.7731 14.1556 24.0372 12.8969 24.0372 11.344C24.0372 9.79114 22.7731 8.53205 21.2136 8.53205L6.4595 8.50438C2.29395 8.50438 0 6.72177 0 3.48445V0.532851C0 0.238432 0.239444 0 0.534791 0H19.2276ZM130.336 12.6055L130.575 12.6151C131.45 12.6691 132.334 13.0878 132.9 13.7706L132.902 13.7587C132.963 13.4266 133.057 12.9507 133.057 12.9507C133.078 12.8468 133.17 12.7715 133.276 12.7715H135.778C135.844 12.7715 135.907 12.8011 135.949 12.8522C135.991 12.9031 136.009 12.97 135.996 13.035L134.074 22.6479C134.054 22.7521 133.962 22.8268 133.856 22.8268L131.358 22.8284C131.292 22.8284 131.23 22.7994 131.188 22.7496C131.146 22.6997 131.127 22.6337 131.14 22.5694C131.182 22.3461 131.246 22.0236 131.297 21.7778C130.319 22.6067 129.243 22.9745 128.007 22.9166C125.707 22.8084 124.198 21.2662 124.174 18.9659C124.148 16.3225 125.788 13.9115 128.251 12.9777C128.999 12.6936 129.775 12.5655 130.575 12.6151L130.336 12.6055ZM128.018 8.86566C128.112 8.86566 128.197 8.91811 128.239 9.00145C128.281 9.08447 128.273 9.18422 128.217 9.25887L121.603 17.7774L120.705 22.3555C120.64 22.6847 120.35 22.9225 120.013 22.9225H117.445C117.37 22.9225 117.3 22.8897 117.254 22.8327C117.207 22.7764 117.187 22.7015 117.201 22.6294L118.211 17.6944L114.845 9.20191C114.818 9.12694 114.83 9.04328 114.876 8.97796C114.923 8.91329 114.998 8.87403 115.078 8.87403H118.253C118.364 8.87403 118.46 8.94643 118.491 9.05165C118.491 9.05165 120.261 14.0886 120.329 14.5501C120.581 14.0629 124.184 8.97474 124.184 8.97474C124.23 8.90653 124.307 8.86566 124.389 8.86566H128.018ZM100.775 12.1919C103.884 12.1919 105.894 14.0781 105.894 16.9975C105.894 20.4096 103.363 22.8859 99.8762 22.8859C96.766 22.8859 94.7568 20.9997 94.7568 18.0803C94.7568 14.6682 97.2876 12.1919 100.775 12.1919ZM94.9607 8.60007C95.0288 8.60007 95.0935 8.63064 95.1365 8.68277C95.1801 8.73522 95.1979 8.80408 95.1849 8.87036L92.4628 22.3902C92.4415 22.497 92.3478 22.5736 92.2386 22.5736L89.6748 22.5755C89.6076 22.5755 89.5436 22.5456 89.5003 22.4944C89.457 22.4433 89.4376 22.3754 89.4502 22.3094C89.5064 22.0134 89.5572 21.7566 89.6108 21.5124C88.8078 22.3985 87.7331 22.886 86.5084 22.886C83.9588 22.886 82.2462 20.9795 82.2462 18.1425C82.2462 14.6944 84.5133 12.1917 87.6374 12.1917C89.2066 12.1917 90.4684 12.8886 91.1144 14.0209C91.1764 13.6799 92.1684 8.78413 92.1684 8.78413C92.1891 8.67762 92.2832 8.60007 92.3924 8.60007H94.9607ZM76.914 8.60007C76.9822 8.60007 77.0468 8.63064 77.0901 8.68277C77.1334 8.73522 77.1509 8.80408 77.1379 8.87036L74.4158 22.3902C74.3951 22.497 74.3011 22.5736 74.1919 22.5736L71.6281 22.5755C71.5609 22.5755 71.4966 22.5456 71.4533 22.4944C71.4103 22.4433 71.3909 22.3754 71.4035 22.3094C71.4601 22.0134 71.5105 21.7566 71.5638 21.5124C70.7612 22.3985 69.6864 22.886 68.4617 22.886C65.9125 22.886 64.1995 20.9795 64.1995 18.1425C64.1995 14.6944 66.4667 12.1917 69.5908 12.1917C71.1599 12.1917 72.4218 12.8886 73.0677 14.0209C73.078 13.9641 73.1142 13.7807 73.1673 13.5146L73.2167 13.2672C73.5092 11.8065 74.1214 8.78413 74.1214 8.78413C74.1424 8.67762 74.2365 8.60007 74.3457 8.60007H76.914ZM58.3583 12.1816C61.2452 12.1816 63.0386 13.776 63.0386 16.3421C63.0386 16.9016 62.9446 17.4329 62.7824 18.1607C62.7594 18.2647 62.6667 18.338 62.5601 18.338L55.3677 18.3612C55.3864 19.525 56.2405 20.1946 57.7104 20.1946C58.4291 20.1946 59.0799 20.0309 59.7698 19.6653C59.8557 19.62 59.9624 19.6331 60.0299 19.703L61.6071 21.326C61.7021 21.4235 61.685 21.5869 61.5713 21.6622C60.3043 22.5043 59.1019 22.8756 57.6477 22.8756C54.4387 22.8756 52.4449 21.0422 52.4449 18.0906C52.4449 14.6663 54.9321 12.1816 58.3583 12.1816ZM110.393 12.2057C111.652 12.0957 113.026 12.3589 114.365 12.9673C114.478 13.0185 114.529 13.1511 114.478 13.264L113.59 15.2509C113.565 15.3069 113.519 15.35 113.461 15.371C113.404 15.3922 113.34 15.3893 113.285 15.3629C112.385 14.934 111.466 14.7229 110.766 14.784C110.061 14.8458 110.089 15.1727 110.099 15.2799C110.116 15.4726 110.154 15.575 110.893 15.9772L112.151 16.6101C113.501 17.2897 114.096 18.0687 114.204 19.3004C114.384 21.3407 113.078 22.6343 110.621 22.8489C108.982 22.9918 107.381 22.5686 105.993 21.6245C105.896 21.5583 105.865 21.4292 105.923 21.3269L107.042 19.3615C107.072 19.3081 107.123 19.2695 107.183 19.2544C107.241 19.2399 107.306 19.2486 107.358 19.2808C108.496 19.9803 109.559 20.3095 110.432 20.2332C110.719 20.2084 111.194 20.1045 111.158 19.691C111.142 19.5102 111.088 19.3693 110.518 19.0645L109.122 18.3367C107.856 17.6684 107.192 16.7816 107.09 15.6258C106.921 13.7087 108.187 12.3981 110.393 12.2057ZM81.1192 13.2925C81.1893 13.2925 81.2562 13.3205 81.3008 13.3688C81.334 13.405 81.3526 13.4497 81.3543 13.4956L81.3502 13.5416L79.5562 22.4044C79.5376 22.4888 79.4637 22.5529 79.372 22.5695L79.3248 22.5737H76.6718C76.6017 22.5737 76.5348 22.5457 76.4906 22.4974C76.4569 22.4615 76.4381 22.4166 76.4364 22.3705L76.4405 22.3243L78.2352 13.4615C78.254 13.3776 78.3277 13.3134 78.4194 13.2968L78.4665 13.2925H81.1192ZM47.2727 8.60011C50.3738 8.60011 52.2251 10.2054 52.2251 12.8938C52.2251 15.9616 50.0003 17.8674 46.4189 17.8674C46.4189 17.8674 43.4164 17.8475 43.2991 17.8475C43.2852 17.9153 42.7866 20.5722 42.5164 21.7692C42.3516 22.4977 41.6301 22.4887 41.6301 22.4887L40.3081 22.4977H39.254C39.1842 22.4977 39.1183 22.4665 39.074 22.413C39.0304 22.3596 39.0055 22.2892 39.0191 22.2213L41.7186 8.78802C41.7399 8.67862 41.8359 8.60011 41.9477 8.60011H47.2727ZM130.287 15.3933C129.934 15.3933 129.597 15.4669 129.284 15.6124C128.968 15.7601 128.689 15.9612 128.453 16.2099C128.215 16.4612 128.02 16.7592 127.875 17.0961C127.729 17.4336 127.644 17.7962 127.624 18.1743C127.608 18.4871 127.641 18.7741 127.724 19.027C127.804 19.2751 127.928 19.4897 128.09 19.6635C128.253 19.8375 128.452 19.973 128.68 20.0663C129.172 20.2661 129.842 20.2526 130.382 20.0287C130.671 19.909 130.933 19.7407 131.16 19.5283C131.39 19.3137 131.586 19.0576 131.745 18.7664C131.903 18.4752 132.015 18.1508 132.076 17.8033C132.137 17.4346 132.137 17.0957 132.075 16.7987C132.013 16.5069 131.9 16.254 131.738 16.0468C131.577 15.8408 131.371 15.6787 131.126 15.5654C130.879 15.4508 130.597 15.3933 130.287 15.3933ZM88.3768 15.0088C88.0064 15.0088 87.6529 15.0863 87.3256 15.2388C86.9947 15.3936 86.7013 15.604 86.4544 15.865C86.2046 16.1279 86.0011 16.4403 85.8485 16.793C85.6954 17.1466 85.6075 17.5269 85.5865 17.923C85.5693 18.2509 85.6042 18.5511 85.6905 18.8163C85.7749 19.0766 85.9044 19.3012 86.0747 19.4836C86.2453 19.6657 86.4534 19.8076 86.6932 19.9051C87.2083 20.1149 87.9098 20.1008 88.476 19.8659C88.7787 19.7404 89.0527 19.5644 89.2906 19.3417C89.5313 19.1168 89.7375 18.8484 89.9036 18.5434C90.0697 18.2384 90.1866 17.8986 90.2506 17.5343C90.3156 17.1476 90.3153 16.7927 90.2497 16.4818C90.185 16.1755 90.0664 15.9107 89.8968 15.6935C89.7284 15.4779 89.5123 15.3083 89.2554 15.1893C88.9965 15.0696 88.7009 15.0088 88.3768 15.0088ZM70.2861 15.0088C69.9161 15.0088 69.5623 15.0863 69.2353 15.2388C68.9041 15.3936 68.611 15.604 68.3641 15.865C68.1143 16.1279 67.9108 16.4403 67.7582 16.793C67.6051 17.1466 67.5169 17.5269 67.4958 17.923C67.479 18.2509 67.5136 18.5511 67.6002 18.8163C67.6846 19.0766 67.8141 19.3012 67.9844 19.4836C68.1547 19.6657 68.3632 19.8076 68.6026 19.9051C69.118 20.1149 69.8195 20.1008 70.3857 19.8659C70.6884 19.7404 70.9625 19.5644 71.2003 19.3417C71.441 19.1168 71.6472 18.8484 71.8133 18.5434C71.9794 18.2384 72.0964 17.8986 72.1603 17.5343C72.225 17.1476 72.225 16.7927 72.1594 16.4818C72.0947 16.1755 71.9762 15.9107 71.8065 15.6935C71.6378 15.4779 71.422 15.3083 71.1647 15.1893C70.9059 15.0696 70.6106 15.0088 70.2861 15.0088ZM100.571 15.2078C99.0668 15.2078 97.9742 16.3366 97.9742 17.8914C97.9742 19.1302 98.7614 19.87 100.08 19.87C101.584 19.87 102.676 18.7412 102.676 17.1864C102.676 15.9476 101.889 15.2078 100.571 15.2078ZM58.2966 14.4256C57.0209 14.4256 56.1642 15.0112 55.6895 16.1439L55.7714 16.144C55.7918 16.144 55.8153 16.1441 55.8417 16.1441L56.0344 16.1445C56.896 16.1464 59.0942 16.1517 59.9484 16.1535L60.2581 16.1541L60.2874 16.1542C60.2471 15.0141 59.595 14.4256 58.2966 14.4256ZM44.5842 11.4661C44.5688 11.5632 44.238 13.2027 44.0351 14.2052L43.9811 14.4724C43.9229 14.7595 43.8837 14.9528 43.8797 14.9715L43.9363 14.9713C44.3253 14.9696 46.5253 14.9583 46.5253 14.9583C48.0059 14.9583 48.8551 14.2523 48.8551 13.0212C48.8551 12.0327 48.2101 11.4883 47.0381 11.4883C47.0381 11.4883 44.7134 11.4719 44.5842 11.4661ZM80.7152 8.19387C81.7409 8.19387 82.3432 8.76952 82.3264 9.73386C82.3054 10.944 81.44 11.8225 80.2687 11.8225C79.2427 11.8225 78.6404 11.2465 78.6572 10.2822C78.6785 9.07198 79.5442 8.19387 80.7152 8.19387Z" fill="white"/>
</svg>
